<svg width="33" height="32" viewBox="0 0 33 32" fill="none" xmlns="http://www.w3.org/2000/svg">
<path fill-rule="evenodd" clip-rule="evenodd" d="M16.7479 3.26598C18.8495 3.18706 20.954 3.24552 23.0479 3.44098C24.0637 3.42825 25.0728 3.60634 26.0229 3.96598C27.3343 4.57607 28.3885 5.62919 28.9999 6.93998C29.3596 7.89005 29.5376 8.8992 29.5249 9.91498C29.5249 11.49 29.6999 12.015 29.6999 16.215C29.7788 18.3166 29.7204 20.421 29.5249 22.515C29.5374 23.5301 29.3593 24.5385 28.9999 25.488C28.389 26.8004 27.3344 27.8551 26.0219 28.466C25.0718 28.8256 24.0627 29.0037 23.0469 28.991C21.4719 28.991 20.9469 29.166 16.7469 29.166C14.6453 29.2449 12.5409 29.1864 10.4469 28.991C9.43179 29.0035 8.42335 28.8254 7.47391 28.466C6.16294 27.8543 5.1098 26.7998 4.49991 25.488C4.14026 24.5379 3.96218 23.5288 3.97491 22.513C3.97491 20.938 3.79991 20.413 3.79991 16.213C3.72099 14.1114 3.77945 12.0069 3.97491 9.91298C3.96243 8.89787 4.14051 7.88943 4.49991 6.93998C4.80539 6.29102 5.21971 5.69914 5.72491 5.18998C6.13523 4.5785 6.75887 4.14205 7.47391 3.96598C8.42398 3.60634 9.43312 3.42825 10.4489 3.44098C12.5429 3.24552 14.6463 3.18706 16.7479 3.26598ZM16.7489 0.465982C14.589 0.388919 12.4265 0.447367 10.2739 0.640982C8.95866 0.637937 7.65391 0.875163 6.42391 1.34098C5.36184 1.68728 4.40058 2.28806 3.62391 3.09098C2.82099 3.86766 2.2202 4.82892 1.87391 5.89098C1.32438 7.09624 1.0838 8.41942 1.17391 9.74098C0.980709 11.8929 0.922595 14.0548 0.999907 16.214C0.922885 18.3735 0.981333 20.5358 1.17491 22.688C1.17186 24.0032 1.40909 25.308 1.87491 26.538C2.2212 27.6 2.82199 28.5613 3.62491 29.338C4.40158 30.1409 5.36284 30.7417 6.42491 31.088C7.65491 31.5538 8.95965 31.791 10.2749 31.788C12.4271 31.9816 14.5894 32.04 16.7489 31.963C18.9084 32.04 21.0707 31.9816 23.2229 31.788C24.5382 31.791 25.8429 31.5538 27.0729 31.088C28.1268 30.7249 29.0841 30.1265 29.8723 29.3383C30.6604 28.5501 31.2588 27.5928 31.6219 26.539C32.0877 25.309 32.325 24.0042 32.3219 22.689C32.3219 20.939 32.4969 20.414 32.4969 16.215C32.5739 14.0554 32.5155 11.8932 32.3219 9.74098C32.325 8.42573 32.0877 7.12099 31.6219 5.89098C31.2756 4.82892 30.6748 3.86766 29.8719 3.09098C29.0952 2.28806 28.134 1.68728 27.0719 1.34098C25.8419 0.875163 24.5372 0.637937 23.2219 0.640982C21.0697 0.447409 18.9084 0.388961 16.7489 0.465982ZM16.7479 8.16598C15.6863 8.14868 14.632 8.34503 13.6477 8.74335C12.6635 9.14168 11.7694 9.73384 11.0186 10.4846C10.2678 11.2354 9.6756 12.1295 9.27728 13.1138C8.87895 14.098 8.68261 15.1523 8.69991 16.214C8.69971 17.806 9.17163 19.3623 10.056 20.6861C10.9404 22.0099 12.1974 23.0418 13.6682 23.6511C15.139 24.2604 16.7575 24.4199 18.3189 24.1094C19.8804 23.7988 21.3147 23.0322 22.4404 21.9065C23.5661 20.7808 24.3328 19.3465 24.6433 17.785C24.9538 16.2236 24.7944 14.6051 24.185 13.1343C23.5757 11.6635 22.5439 10.4064 21.2201 9.52207C19.8963 8.63771 18.3399 8.16578 16.7479 8.16598ZM16.7479 21.466C16.055 21.4785 15.3666 21.3511 14.724 21.0916C14.0813 20.832 13.4977 20.4455 13.0078 19.9553C12.5179 19.465 12.1319 18.881 11.8728 18.2382C11.6137 17.5954 11.4869 16.9069 11.4999 16.214C11.4874 15.5214 11.6147 14.8333 11.874 14.191C12.1333 13.5486 12.5194 12.9651 13.0092 12.4753C13.4991 11.9855 14.0826 11.5994 14.7249 11.3401C15.3673 11.0807 16.0553 10.9535 16.7479 10.966C17.4408 10.953 18.1293 11.0798 18.7721 11.3389C19.4149 11.5979 19.9989 11.984 20.4892 12.4738C20.9795 12.9637 21.3659 13.5474 21.6255 14.19C21.8851 14.8327 22.0124 15.521 21.9999 16.214C22.0129 16.9073 21.886 17.5961 21.6267 18.2392C21.3674 18.8822 20.981 19.4664 20.4907 19.9567C20.0003 20.4471 19.4162 20.8334 18.7731 21.0928C18.13 21.3521 17.4412 21.479 16.7479 21.466ZM25.1479 5.89298C24.7672 5.89298 24.395 6.00588 24.0784 6.2174C23.7619 6.42892 23.5151 6.72957 23.3694 7.08132C23.2237 7.43306 23.1856 7.82012 23.2599 8.19353C23.3342 8.56694 23.5175 8.90995 23.7867 9.17916C24.0559 9.44838 24.3989 9.63172 24.7724 9.70599C25.1458 9.78027 25.5328 9.74215 25.8846 9.59645C26.2363 9.45075 26.537 9.20402 26.7485 8.88745C26.96 8.57089 27.0729 8.19871 27.0729 7.81798C27.0685 7.30881 26.8642 6.82176 26.5042 6.46171C26.1441 6.10166 25.6571 5.89742 25.1479 5.89298Z" fill="white"/>
</svg>
