<svg width="33" height="32" viewBox="0 0 33 32" fill="none" xmlns="http://www.w3.org/2000/svg">
<mask id="mask0_59_344" style="mask-type:luminance" maskUnits="userSpaceOnUse" x="0" y="0" width="33" height="32">
<path d="M32.011 0.466064H0.667969V31.9631H32.011V0.466064Z" fill="white"/>
</mask>
<g mask="url(#mask0_59_344)">
<path fill-rule="evenodd" clip-rule="evenodd" d="M1.28153 11.067H7.50453V31.961H1.28153V11.067ZM4.35453 0.467041C5.3528 0.467041 6.31019 0.863604 7.01608 1.56949C7.72197 2.27538 8.11853 3.23277 8.11853 4.23104C8.11853 5.22932 7.72197 6.1867 7.01608 6.89259C6.31019 7.59848 5.3528 7.99504 4.35453 7.99504C3.86445 7.99259 3.37972 7.89296 2.9284 7.70192C2.47708 7.51087 2.06814 7.23221 1.72524 6.88205C1.38234 6.5319 1.1123 6.11721 0.930739 5.66199C0.749183 5.20678 0.659721 4.72007 0.667529 4.23004C0.65918 3.73997 0.748287 3.25312 0.929674 2.79777C1.11106 2.34242 1.38111 1.92765 1.72414 1.57755C2.06718 1.22745 2.47635 0.94899 2.9279 0.758351C3.37946 0.567712 3.86439 0.468692 4.35453 0.467041ZM11.1915 11.067H17.3365V13.985C17.9883 13.0146 18.8691 12.2197 19.9011 11.6707C20.9332 11.1216 22.0846 10.8353 23.2535 10.837H24.9425C26.8145 10.8455 28.6074 11.5928 29.9311 12.9165C31.2547 14.2402 32.0021 16.0331 32.0105 17.905V31.961H25.8675V20.667C25.8857 20.1201 25.7939 19.575 25.5975 19.0642C25.4011 18.5534 25.1041 18.0873 24.7242 17.6934C24.3442 17.2996 23.889 16.986 23.3856 16.7714C22.8822 16.5568 22.3408 16.4455 21.7935 16.444C20.6479 16.4321 19.5424 16.8659 18.7108 17.6539C17.8791 18.4419 17.3863 19.5224 17.3365 20.667V31.961H11.1915V11.067Z" fill="white"/>
</g>
</svg>
