<svg width="48" height="34" viewBox="0 0 48 34" fill="none" xmlns="http://www.w3.org/2000/svg">
<mask id="mask0_59_350" style="mask-type:luminance" maskUnits="userSpaceOnUse" x="0" y="0" width="48" height="34">
<path d="M47.3403 0.465088H0.694336V33.4991H47.3403V0.465088Z" fill="white"/>
</mask>
<g mask="url(#mask0_59_350)">
<path fill-rule="evenodd" clip-rule="evenodd" d="M46.7941 7.72606C46.0681 2.37206 43.3461 1.46606 37.9941 1.01006C33.3631 0.646064 28.1011 0.466064 24.0161 0.466064C19.9311 0.466064 14.5791 0.646064 10.0411 1.01006C4.68614 1.46606 1.87414 2.37206 1.14714 7.72606C0.834675 10.8017 0.683468 13.8916 0.694142 16.9831C0.681045 20.0746 0.832258 23.1646 1.14714 26.2401C1.87314 31.6851 4.68614 32.5011 10.0401 32.9551C14.5781 33.4081 19.9331 33.4991 24.0151 33.4991C28.0971 33.4991 33.3621 33.4091 37.9901 32.9551C43.3451 32.5021 46.0671 31.6851 46.7901 26.2401C47.1865 23.1708 47.3689 20.0777 47.3361 16.9831C47.3673 13.8886 47.1862 10.7957 46.7941 7.72606ZM19.2941 24.0611V9.99606L31.4561 16.9841L19.2941 24.0611Z" fill="white"/>
</g>
</svg>
