<svg width="40" height="28" viewBox="0 0 40 28" fill="none" xmlns="http://www.w3.org/2000/svg">
<path fill-rule="evenodd" clip-rule="evenodd" d="M38.6644 6.08198C38.0564 1.60098 35.7754 0.835977 31.2904 0.455977C27.4144 0.151977 23.0064 0.000976562 19.5854 0.000976562C16.1644 0.000976562 11.6804 0.151977 7.87944 0.455977C3.39443 0.835977 1.03844 1.60098 0.430435 6.08198C0.168514 8.65824 0.0416733 11.2464 0.0504353 13.836C0.0396793 16.4252 0.166525 19.0132 0.430435 21.589C1.03844 26.15 3.39443 26.834 7.87944 27.213C11.6794 27.593 16.1654 27.668 19.5854 27.668C23.0054 27.668 27.4144 27.592 31.2914 27.213C35.7764 26.833 38.0564 26.149 38.6654 21.589C38.9973 19.0184 39.15 16.4278 39.1224 13.836C39.1475 11.2442 38.9948 8.65382 38.6654 6.08298M15.6324 19.764V7.98298L25.8194 13.836L15.6324 19.764Z" fill="white"/>
</svg>
