<svg width="158" height="110" viewBox="0 0 158 110" fill="none" xmlns="http://www.w3.org/2000/svg">
<mask id="mask0_59_362" style="mask-type:luminance" maskUnits="userSpaceOnUse" x="0" y="0" width="158" height="110">
<path d="M158 0.788086H0V109.788H158V0.788086Z" fill="white"/>
</mask>
<g mask="url(#mask0_59_362)">
<path d="M157.518 73.5441V91.5381H91.518C88.9314 91.5274 86.3707 92.0544 83.9985 93.0858C81.6264 94.1171 79.4944 95.6302 77.738 97.5291C74.7129 100.786 73.0305 105.066 73.028 109.511H0V91.5241H73.026C73.0945 86.6881 75.0808 82.0774 78.5481 78.7056C82.0155 75.3339 86.68 73.4773 91.516 73.5441H157.518Z" fill="white"/>
<path d="M140.861 37.5791V55.5681H91.515C88.9284 55.5575 86.3677 56.0846 83.9956 57.1159C81.6234 58.1472 79.4915 59.6603 77.735 61.5591C74.7099 64.8161 73.0275 69.096 73.025 73.5411H0V55.5591H73.026C73.0945 50.7232 75.0808 46.1124 78.5481 42.7407C82.0155 39.369 86.68 37.5124 91.516 37.5791H140.861Z" fill="white"/>
<path d="M157.518 1.61611V19.6051H91.518C88.9314 19.5944 86.3707 20.1215 83.9985 21.1528C81.6264 22.1841 79.4944 23.6972 77.738 25.5961C74.7129 28.8531 73.0305 33.133 73.028 37.5781H0V19.5961H73.026C73.0945 14.7603 75.0807 10.1497 78.5478 6.77802C82.0149 3.40632 86.6792 1.5496 91.515 1.61611H157.518Z" fill="white"/>
</g>
</svg>
