<svg width="61" height="42" viewBox="0 0 61 42" fill="none" xmlns="http://www.w3.org/2000/svg">
<mask id="mask0_59_230" style="mask-type:luminance" maskUnits="userSpaceOnUse" x="0" y="0" width="61" height="42">
<path d="M61 0H0V42H61V0Z" fill="white"/>
</mask>
<g mask="url(#mask0_59_230)">
<path d="M61 27.9641V34.9301H35.44C34.4382 34.9259 33.4465 35.1299 32.5277 35.5293C31.609 35.9287 30.7833 36.5147 30.103 37.2501C28.9315 38.5113 28.28 40.1687 28.279 41.8901H0V34.9261H28.28C28.3063 33.0533 29.0754 31.2677 30.4181 29.9619C31.7609 28.6562 33.5672 27.9372 35.44 27.9631L61 27.9641Z" fill="white"/>
<path d="M54.549 14.0371V21.0031H35.44C34.4382 20.9989 33.4465 21.2029 32.5277 21.6023C31.609 22.0017 30.7833 22.5877 30.103 23.3231C28.9315 24.5843 28.28 26.2417 28.279 27.9631H0V21.0001H28.28C28.3063 19.1273 29.0754 17.3417 30.4181 16.0359C31.7609 14.7301 33.5672 14.0111 35.44 14.0371H54.549Z" fill="white"/>
<path d="M61 0.110052V7.07605H35.44C34.4377 7.07143 33.4454 7.27529 32.5261 7.67469C31.6068 8.07408 30.7806 8.66028 30.1 9.39605C28.9285 10.6573 28.277 12.3147 28.276 14.0361H0V7.07305H28.28C28.3063 5.20029 29.0754 3.41468 30.4181 2.10891C31.7609 0.803139 33.5672 0.0841443 35.44 0.110052H61Z" fill="white"/>
</g>
</svg>
