<svg width="535" height="112" viewBox="0 0 535 112" fill="none" xmlns="http://www.w3.org/2000/svg">
<path d="M159.683 76.158H172.083V78.258H162.038V84.358H171.881V86.458H162.038V95.082H159.683V76.158Z" fill="white"/>
<mask id="mask0_59_264" style="mask-type:luminance" maskUnits="userSpaceOnUse" x="0" y="0" width="535" height="112">
<path d="M535 0H0.107422V111.679H535V0Z" fill="white"/>
</mask>
<g mask="url(#mask0_59_264)">
<path d="M175.2 77.632C175.2 77.2521 175.351 76.8877 175.62 76.6191C175.888 76.3504 176.253 76.1995 176.633 76.1995C177.013 76.1995 177.377 76.3504 177.646 76.6191C177.914 76.8877 178.065 77.2521 178.065 77.632C178.065 78.0119 177.914 78.3763 177.646 78.6449C177.377 78.9136 177.013 79.0645 176.633 79.0645C176.253 79.0645 175.888 78.9136 175.62 78.6449C175.351 78.3763 175.2 78.0119 175.2 77.632ZM175.569 81.377H177.696V95.077H175.569V81.377Z" fill="white"/>
<path d="M187.086 89.461L182.972 95.077H180.533L185.78 88.043L180.816 81.377H183.284L187.084 86.596L190.884 81.377H193.352L188.388 88.043L193.664 95.077H191.196L187.086 89.461Z" fill="white"/>
<path d="M203.798 77.632C203.798 77.2521 203.949 76.8877 204.217 76.6191C204.486 76.3504 204.85 76.1995 205.23 76.1995C205.61 76.1995 205.975 76.3504 206.243 76.6191C206.512 76.8877 206.663 77.2521 206.663 77.632C206.663 78.0119 206.512 78.3763 206.243 78.6449C205.975 78.9136 205.61 79.0645 205.23 79.0645C204.85 79.0645 204.486 78.9136 204.217 78.6449C203.949 78.3763 203.798 78.0119 203.798 77.632ZM204.166 81.377H206.294V95.077H204.166V81.377Z" fill="white"/>
<path d="M211.344 92.213V83.249H209.074V81.377H211.344V77.632H213.472V81.377H216.251V83.249H213.472V91.759C213.472 92.78 213.926 93.518 214.861 93.518C215.399 93.5258 215.919 93.3222 216.308 92.951L216.932 94.539C216.587 94.8483 216.183 95.0854 215.745 95.2363C215.307 95.3873 214.843 95.449 214.38 95.418C212.365 95.418 211.345 94.256 211.345 92.218" fill="white"/>
<path d="M226.947 77.632C226.957 77.2586 227.112 76.9039 227.379 76.6433C227.647 76.3827 228.006 76.2368 228.379 76.2368C228.753 76.2368 229.112 76.3827 229.379 76.6433C229.647 76.9039 229.802 77.2586 229.812 77.632C229.817 77.8233 229.784 78.0137 229.714 78.1919C229.644 78.3701 229.539 78.5326 229.406 78.6697C229.272 78.8067 229.113 78.9157 228.936 78.9901C228.76 79.0645 228.571 79.1028 228.379 79.1028C228.188 79.1028 227.998 79.0645 227.822 78.9901C227.646 78.9157 227.486 78.8067 227.353 78.6697C227.219 78.5326 227.114 78.3701 227.045 78.1919C226.975 78.0137 226.942 77.8233 226.947 77.632ZM227.316 81.377H229.444V95.077H227.316V81.377Z" fill="white"/>
<path d="M243.315 86.113C243.315 83.702 242.095 82.936 240.252 82.936C239.46 82.9639 238.684 83.1696 237.982 83.5379C237.28 83.9063 236.67 84.4279 236.196 85.064V95.077H234.068V81.377H236.196V83.362C236.807 82.6617 237.556 82.094 238.395 81.6941C239.233 81.2942 240.146 81.0706 241.074 81.037C243.939 81.037 245.443 82.483 245.443 85.462V95.079H243.316L243.315 86.113Z" fill="white"/>
<path d="M257.757 100.297V81.376H259.884V83.419C260.412 82.6851 261.106 82.0865 261.91 81.6723C262.713 81.2581 263.604 81.0401 264.508 81.036C268.108 81.036 270.608 83.759 270.608 88.213C270.608 92.638 268.108 95.413 264.508 95.413C263.6 95.4152 262.704 95.1969 261.899 94.777C261.094 94.357 260.402 93.748 259.884 93.002V100.293L257.757 100.297ZM263.969 82.936C263.163 82.949 262.373 83.1539 261.662 83.5338C260.952 83.9136 260.342 84.4574 259.884 85.12V91.306C260.34 91.9725 260.949 92.5208 261.659 92.9057C262.369 93.2905 263.161 93.5007 263.969 93.519C266.721 93.519 268.369 91.25 268.369 88.219C268.369 85.188 266.725 82.943 263.969 82.943" fill="white"/>
<path d="M273.612 88.213C273.612 84.242 276.221 81.036 280.391 81.036C284.561 81.036 287.171 84.242 287.171 88.213C287.171 92.184 284.562 95.413 280.391 95.413C276.22 95.413 273.612 92.179 273.612 88.213ZM284.93 88.213C284.93 85.433 283.313 82.937 280.391 82.937C277.469 82.937 275.823 85.437 275.823 88.213C275.823 91.022 277.468 93.513 280.391 93.513C283.314 93.513 284.93 91.013 284.93 88.213Z" fill="white"/>
<path d="M290.92 91.731C291.5 92.3471 292.198 92.8384 292.974 93.1749C293.75 93.5114 294.586 93.686 295.431 93.688C297.531 93.688 298.665 92.752 298.665 91.419C298.665 89.919 296.991 89.434 295.147 88.979C292.821 88.441 290.183 87.816 290.183 84.979C290.183 82.852 292.027 81.037 295.288 81.037C296.225 81.0072 297.158 81.1677 298.031 81.5089C298.904 81.8501 299.698 82.3648 300.366 83.022L299.373 84.497C298.856 83.9326 298.224 83.486 297.519 83.1875C296.814 82.889 296.054 82.7456 295.288 82.767C293.416 82.767 292.253 83.618 292.253 84.838C292.253 86.171 293.814 86.596 295.601 87.022C297.984 87.561 300.735 88.242 300.735 91.277C300.735 93.577 298.891 95.418 295.345 95.418C294.324 95.4673 293.303 95.3009 292.35 94.9296C291.397 94.5583 290.533 93.9904 289.813 93.263L290.92 91.731Z" fill="white"/>
<path d="M304.992 92.213V83.249H302.723V81.377H304.992V77.632H307.12V81.377H309.9V83.249H307.12V91.759C307.12 92.78 307.574 93.518 308.509 93.518C309.047 93.5258 309.566 93.3222 309.956 92.951L310.58 94.539C310.234 94.8482 309.83 95.0853 309.392 95.2363C308.953 95.3872 308.489 95.449 308.027 95.418C306.012 95.418 304.992 94.256 304.992 92.218" fill="white"/>
<path d="M141.462 78.478V95.086H82.2324C77.8323 95.0879 73.6128 96.8366 70.5014 99.948C67.3901 103.059 65.6413 107.279 65.6394 111.679H0.107422V95.079H65.6394C65.6394 90.6776 67.3874 86.4564 70.499 83.3435C73.6106 80.2306 77.831 78.4809 82.2324 78.479L141.462 78.478Z" fill="white"/>
<path d="M126.514 45.274V61.882H82.2334C77.8331 61.8836 73.6134 63.6322 70.5018 66.7437C67.3902 69.8551 65.6413 74.0746 65.6394 78.475H0.107422V61.875H65.6394C65.6394 57.4736 67.3874 53.2524 70.499 50.1395C73.6106 47.0266 77.831 45.2768 82.2324 45.275L126.514 45.274Z" fill="white"/>
<path d="M141.462 12.072V28.68H82.2324C77.8323 28.6818 73.6128 30.4306 70.5014 33.542C67.3901 36.6534 65.6413 40.8728 65.6394 45.273H0.107422V28.672H65.6394C65.6394 24.2706 67.3874 20.0494 70.499 16.9365C73.6106 13.8236 77.831 12.0738 82.2324 12.072H141.462Z" fill="white"/>
</g>
<mask id="mask1_59_264" style="mask-type:luminance" maskUnits="userSpaceOnUse" x="0" y="0" width="535" height="112">
<path d="M535 0H0.107422V111.679H535V0Z" fill="white"/>
</mask>
<g mask="url(#mask1_59_264)">
<path d="M159.52 54.172V6.172H188.488V11.3282H165.332V27.547H186.988V32.7032H165.332V49.0157H188.863V54.172H159.52ZM223.715 26.2345L218.746 27.6407C218.434 26.8126 217.973 26.0079 217.363 25.2267C216.77 24.4298 215.957 23.7736 214.926 23.2579C213.895 22.7423 212.574 22.4845 210.965 22.4845C208.762 22.4845 206.926 22.9923 205.457 24.0079C204.004 25.0079 203.277 26.2814 203.277 27.8282C203.277 29.2032 203.777 30.2892 204.777 31.0861C205.777 31.8829 207.34 32.547 209.465 33.0782L214.809 34.3907C218.027 35.172 220.426 36.3673 222.004 37.9767C223.582 39.5704 224.371 41.6251 224.371 44.1407C224.371 46.2032 223.777 48.047 222.59 49.672C221.418 51.297 219.777 52.5782 217.668 53.5157C215.559 54.4532 213.105 54.922 210.309 54.922C206.637 54.922 203.598 54.1251 201.191 52.5314C198.785 50.9376 197.262 48.6095 196.621 45.547L201.871 44.2345C202.371 46.172 203.316 47.6251 204.707 48.5939C206.113 49.5626 207.949 50.047 210.215 50.047C212.793 50.047 214.84 49.5001 216.355 48.4064C217.887 47.297 218.652 45.9689 218.652 44.422C218.652 43.172 218.215 42.1251 217.34 41.2814C216.465 40.422 215.121 39.7814 213.309 39.3595L207.309 37.9532C204.012 37.172 201.59 35.9611 200.043 34.3204C198.512 32.6642 197.746 30.5939 197.746 28.1095C197.746 26.0782 198.316 24.2814 199.457 22.7189C200.613 21.1564 202.184 19.9298 204.168 19.0392C206.168 18.1486 208.434 17.7032 210.965 17.7032C214.527 17.7032 217.324 18.4845 219.355 20.047C221.402 21.6095 222.855 23.672 223.715 26.2345ZM232.697 67.672V18.172H238.041V23.8907H238.697C239.104 23.2657 239.666 22.4689 240.385 21.5001C241.119 20.5157 242.166 19.6407 243.525 18.8751C244.9 18.0939 246.76 17.7032 249.104 17.7032C252.135 17.7032 254.807 18.4611 257.119 19.9767C259.432 21.4923 261.236 23.6407 262.533 26.422C263.83 29.2032 264.479 32.4845 264.479 36.2657C264.479 40.0782 263.83 43.3829 262.533 46.1798C261.236 48.9611 259.439 51.1173 257.143 52.6486C254.846 54.1642 252.197 54.922 249.197 54.922C246.885 54.922 245.033 54.5392 243.643 53.7736C242.252 52.9923 241.182 52.1095 240.432 51.1251C239.682 50.1251 239.104 49.297 238.697 48.6407H238.229V67.672H232.697ZM238.135 36.172C238.135 38.8907 238.533 41.2892 239.33 43.3673C240.127 45.4298 241.291 47.047 242.822 48.2189C244.354 49.3751 246.229 49.9532 248.447 49.9532C250.76 49.9532 252.689 49.3439 254.236 48.1251C255.799 46.8907 256.971 45.2345 257.752 43.1564C258.549 41.0626 258.947 38.7345 258.947 36.172C258.947 33.6407 258.557 31.3595 257.775 29.3282C257.01 27.2814 255.846 25.6642 254.283 24.4767C252.736 23.2736 250.791 22.672 248.447 22.672C246.197 22.672 244.307 23.2423 242.775 24.3829C241.244 25.5079 240.088 27.0861 239.307 29.1173C238.525 31.1329 238.135 33.4845 238.135 36.172ZM288.01 54.922C284.541 54.922 281.549 54.1564 279.033 52.6251C276.533 51.0782 274.604 48.922 273.244 46.1564C271.9 43.3751 271.229 40.1407 271.229 36.4532C271.229 32.7657 271.9 29.5157 273.244 26.7032C274.604 23.8751 276.494 21.672 278.916 20.0939C281.354 18.5001 284.197 17.7032 287.447 17.7032C289.322 17.7032 291.174 18.0157 293.002 18.6407C294.83 19.2657 296.494 20.2814 297.994 21.6876C299.494 23.0782 300.689 24.922 301.58 27.2189C302.471 29.5157 302.916 32.3439 302.916 35.7032V38.047H275.166V33.2657H297.291C297.291 31.2345 296.885 29.422 296.072 27.8282C295.275 26.2345 294.135 24.9767 292.65 24.0548C291.182 23.1329 289.447 22.672 287.447 22.672C285.244 22.672 283.338 23.2189 281.729 24.3126C280.135 25.3907 278.908 26.797 278.049 28.5314C277.189 30.2657 276.76 32.1251 276.76 34.1095V37.297C276.76 40.0157 277.229 42.3204 278.166 44.2111C279.119 46.0861 280.439 47.5157 282.127 48.5001C283.814 49.4689 285.775 49.9532 288.01 49.9532C289.463 49.9532 290.775 49.7501 291.947 49.3439C293.135 48.922 294.158 48.297 295.018 47.4689C295.877 46.6251 296.541 45.5782 297.01 44.3282L302.354 45.8282C301.791 47.6407 300.846 49.2345 299.518 50.6095C298.189 51.9689 296.549 53.0314 294.596 53.797C292.643 54.547 290.447 54.922 288.01 54.922ZM311.33 54.172V18.172H316.674V23.6095H317.049C317.705 21.8282 318.893 20.3829 320.611 19.2736C322.33 18.1642 324.268 17.6095 326.424 17.6095C326.83 17.6095 327.338 17.6173 327.947 17.6329C328.557 17.6486 329.018 17.672 329.33 17.7032V23.3282C329.143 23.2814 328.713 23.2111 328.041 23.1173C327.385 23.0079 326.689 22.9532 325.955 22.9532C324.205 22.9532 322.643 23.3204 321.268 24.0548C319.908 24.7736 318.83 25.7736 318.033 27.0548C317.252 28.3204 316.861 29.7657 316.861 31.3907V54.172H311.33ZM346.48 55.0157C344.199 55.0157 342.129 54.5861 340.27 53.7267C338.41 52.8517 336.934 51.5939 335.84 49.9532C334.746 48.297 334.199 46.297 334.199 43.9532C334.199 41.8907 334.605 40.2189 335.418 38.9376C336.23 37.6407 337.316 36.6251 338.676 35.8907C340.035 35.1564 341.535 34.6095 343.176 34.2501C344.832 33.8751 346.496 33.5782 348.168 33.3595C350.355 33.0782 352.129 32.8673 353.488 32.7267C354.863 32.5704 355.863 32.3126 356.488 31.9532C357.129 31.5939 357.449 30.9689 357.449 30.0782V29.8907C357.449 27.5782 356.816 25.7814 355.551 24.5001C354.301 23.2189 352.402 22.5782 349.855 22.5782C347.215 22.5782 345.145 23.1564 343.645 24.3126C342.145 25.4689 341.09 26.7032 340.48 28.0157L335.23 26.1407C336.168 23.9532 337.418 22.2501 338.98 21.0314C340.559 19.797 342.277 18.9376 344.137 18.4532C346.012 17.9532 347.855 17.7032 349.668 17.7032C350.824 17.7032 352.152 17.8439 353.652 18.1251C355.168 18.3907 356.629 18.9454 358.035 19.7892C359.457 20.6329 360.637 21.9064 361.574 23.6095C362.512 25.3126 362.98 27.5939 362.98 30.4532V54.172H357.449V49.297H357.168C356.793 50.0782 356.168 50.9142 355.293 51.8048C354.418 52.6954 353.254 53.4532 351.801 54.0782C350.348 54.7032 348.574 55.0157 346.48 55.0157ZM347.324 50.047C349.512 50.047 351.355 49.6173 352.855 48.7579C354.371 47.8986 355.512 46.7892 356.277 45.4298C357.059 44.0704 357.449 42.6407 357.449 41.1407V36.0782C357.215 36.3595 356.699 36.6173 355.902 36.8517C355.121 37.0704 354.215 37.2657 353.184 37.4376C352.168 37.5939 351.176 37.7345 350.207 37.8595C349.254 37.9689 348.48 38.0626 347.887 38.1407C346.449 38.3282 345.105 38.6329 343.855 39.0548C342.621 39.4611 341.621 40.0782 340.855 40.9064C340.105 41.7189 339.73 42.8282 339.73 44.2345C339.73 46.1564 340.441 47.6095 341.863 48.5939C343.301 49.5626 345.121 50.047 347.324 50.047ZM378.607 32.5157V54.172H373.076V18.172H378.42V23.797H378.889C379.732 21.9689 381.014 20.5001 382.732 19.3907C384.451 18.2657 386.67 17.7032 389.389 17.7032C391.826 17.7032 393.959 18.2032 395.787 19.2032C397.615 20.1876 399.037 21.6876 400.053 23.7032C401.068 25.7032 401.576 28.2345 401.576 31.297V54.172H396.045V31.672C396.045 28.8439 395.311 26.6407 393.842 25.0626C392.373 23.4689 390.357 22.672 387.795 22.672C386.029 22.672 384.451 23.0548 383.061 23.8204C381.686 24.5861 380.6 25.7032 379.803 27.172C379.006 28.6407 378.607 30.422 378.607 32.5157ZM426.309 54.922C422.934 54.922 420.027 54.1251 417.59 52.5314C415.152 50.9376 413.277 48.7423 411.965 45.9454C410.652 43.1486 409.996 39.9532 409.996 36.3595C409.996 32.7032 410.668 29.4767 412.012 26.6798C413.371 23.8673 415.262 21.672 417.684 20.0939C420.121 18.5001 422.965 17.7032 426.215 17.7032C428.746 17.7032 431.027 18.172 433.059 19.1095C435.09 20.047 436.754 21.3595 438.051 23.047C439.348 24.7345 440.152 26.7032 440.465 28.9532H434.934C434.512 27.3126 433.574 25.8595 432.121 24.5939C430.684 23.3126 428.746 22.672 426.309 22.672C424.152 22.672 422.262 23.2345 420.637 24.3595C419.027 25.4689 417.77 27.0392 416.863 29.0704C415.973 31.0861 415.527 33.4532 415.527 36.172C415.527 38.9532 415.965 41.3751 416.84 43.4376C417.73 45.5001 418.98 47.1017 420.59 48.2423C422.215 49.3829 424.121 49.9532 426.309 49.9532C427.746 49.9532 429.051 49.7032 430.223 49.2032C431.395 48.7032 432.387 47.9845 433.199 47.047C434.012 46.1095 434.59 44.9845 434.934 43.672H440.465C440.152 45.797 439.379 47.7111 438.145 49.4142C436.926 51.1017 435.309 52.4454 433.293 53.4454C431.293 54.4298 428.965 54.922 426.309 54.922ZM448.551 54.172V18.172H454.082V54.172H448.551ZM451.363 12.172C450.285 12.172 449.355 11.8048 448.574 11.0704C447.809 10.3361 447.426 9.45325 447.426 8.422C447.426 7.39075 447.809 6.50793 448.574 5.77356C449.355 5.03918 450.285 4.672 451.363 4.672C452.441 4.672 453.363 5.03918 454.129 5.77356C454.91 6.50793 455.301 7.39075 455.301 8.422C455.301 9.45325 454.91 10.3361 454.129 11.0704C453.363 11.8048 452.441 12.172 451.363 12.172ZM479.869 18.172V22.8595H461.213V18.172H479.869ZM466.65 9.547H472.182V43.8595C472.182 45.422 472.408 46.5939 472.861 47.3751C473.33 48.1407 473.924 48.6564 474.643 48.922C475.377 49.172 476.15 49.297 476.963 49.297C477.572 49.297 478.072 49.2657 478.463 49.2032C478.854 49.1251 479.166 49.0626 479.4 49.0157L480.525 53.9845C480.15 54.1251 479.627 54.2657 478.955 54.4064C478.283 54.5626 477.432 54.6407 476.4 54.6407C474.838 54.6407 473.307 54.3048 471.807 53.6329C470.322 52.9611 469.088 51.9376 468.104 50.5626C467.135 49.1876 466.65 47.4532 466.65 45.3595V9.547ZM498.783 55.0157C496.502 55.0157 494.432 54.5861 492.572 53.7267C490.713 52.8517 489.236 51.5939 488.143 49.9532C487.049 48.297 486.502 46.297 486.502 43.9532C486.502 41.8907 486.908 40.2189 487.721 38.9376C488.533 37.6407 489.619 36.6251 490.979 35.8907C492.338 35.1564 493.838 34.6095 495.479 34.2501C497.135 33.8751 498.799 33.5782 500.471 33.3595C502.658 33.0782 504.432 32.8673 505.791 32.7267C507.166 32.5704 508.166 32.3126 508.791 31.9532C509.432 31.5939 509.752 30.9689 509.752 30.0782V29.8907C509.752 27.5782 509.119 25.7814 507.854 24.5001C506.604 23.2189 504.705 22.5782 502.158 22.5782C499.518 22.5782 497.447 23.1564 495.947 24.3126C494.447 25.4689 493.393 26.7032 492.783 28.0157L487.533 26.1407C488.471 23.9532 489.721 22.2501 491.283 21.0314C492.861 19.797 494.58 18.9376 496.439 18.4532C498.314 17.9532 500.158 17.7032 501.971 17.7032C503.127 17.7032 504.455 17.8439 505.955 18.1251C507.471 18.3907 508.932 18.9454 510.338 19.7892C511.76 20.6329 512.939 21.9064 513.877 23.6095C514.814 25.3126 515.283 27.5939 515.283 30.4532V54.172H509.752V49.297H509.471C509.096 50.0782 508.471 50.9142 507.596 51.8048C506.721 52.6954 505.557 53.4532 504.104 54.0782C502.65 54.7032 500.877 55.0157 498.783 55.0157ZM499.627 50.047C501.814 50.047 503.658 49.6173 505.158 48.7579C506.674 47.8986 507.814 46.7892 508.58 45.4298C509.361 44.0704 509.752 42.6407 509.752 41.1407V36.0782C509.518 36.3595 509.002 36.6173 508.205 36.8517C507.424 37.0704 506.518 37.2657 505.486 37.4376C504.471 37.5939 503.479 37.7345 502.51 37.8595C501.557 37.9689 500.783 38.0626 500.189 38.1407C498.752 38.3282 497.408 38.6329 496.158 39.0548C494.924 39.4611 493.924 40.0782 493.158 40.9064C492.408 41.7189 492.033 42.8282 492.033 44.2345C492.033 46.1564 492.744 47.6095 494.166 48.5939C495.604 49.5626 497.424 50.047 499.627 50.047Z" fill="white"/>
</g>
</svg>
