<?xml version="1.0" encoding="utf-8"?>
<!-- Generator: Adobe Illustrator 27.8.1, SVG Export Plug-In . SVG Version: 6.00 Build 0)  -->
<svg version="1.1"
	 id="svg8" xmlns:svg="http://www.w3.org/2000/svg" xmlns:dc="http://purl.org/dc/elements/1.1/" xmlns:rdf="http://www.w3.org/1999/02/22-rdf-syntax-ns#" xmlns:inkscape="http://www.inkscape.org/namespaces/inkscape" xmlns:cc="http://creativecommons.org/ns#" xmlns:sodipodi="http://sodipodi.sourceforge.net/DTD/sodipodi-0.dtd"
	 xmlns="http://www.w3.org/2000/svg" xmlns:xlink="http://www.w3.org/1999/xlink" x="0px" y="0px" viewBox="0 0 1000 353.1"
	 style="enable-background:new 0 0 1000 353.1;" xml:space="preserve">
<style type="text/css">
	.st0{fill:#FFFFFF;}
</style>
<sodipodi:namedview  bordercolor="#666666" borderopacity="1.0" id="base" inkscape:current-layer="layer1" inkscape:cx="661.02158" inkscape:cy="238.37117" inkscape:document-units="px" inkscape:pageopacity="0.0" inkscape:pageshadow="2" inkscape:window-height="705" inkscape:window-maximized="1" inkscape:window-width="1366" inkscape:window-x="-8" inkscape:window-y="-8" inkscape:zoom="0.35355339" pagecolor="#ffffff" showgrid="false" units="px">
	</sodipodi:namedview>
<g id="layer1" transform="translate(0,-203.58223)" inkscape:groupmode="layer" inkscape:label="Layer 1">
	<path id="path36902" inkscape:connector-curvature="0" class="st0" d="M821.2,203.6c-39.9,0-76.9,13.1-107.1,35.3
		c-30.2-22.2-67.2-35.3-107.1-35.3c-39.9,0-76.9,13.1-107.1,35.3c-30.2-22.2-66.6-35.3-107.1-35.3c-39.9,0-76.9,13.1-107.1,35.3
		c-29.6-22.2-66.6-35.3-107.1-35.3C80.3,203.6,0,282.7,0,380.1c0,97.4,80.3,176.5,178.8,176.5c39.9,0,76.9-13.1,107.1-35.3
		c30.2,22.2,67.2,35.3,107.1,35.3c39.9,0,76.9-13.1,107.1-35.3c29.6,22.2,66.6,35.3,107.1,35.3c39.9,0,76.9-13.1,107.1-35.3
		c29.6,22.2,66.6,35.3,107.1,35.3c98.5,0,178.8-79.2,178.8-176.5C1000,282.7,919.7,203.6,821.2,203.6L821.2,203.6z M714.1,471.2
		c-21.6-24.5-34.7-56.4-34.7-91.1s13.1-66.6,34.7-91.1c21.6,24.5,34.7,56.4,34.7,91.1S735.8,446.7,714.1,471.2z M500,471.2
		c-21.6-24.5-34.7-56.4-34.7-91.1s13.1-66.6,34.7-91.1c21.6,24.5,34.7,56.4,34.7,91.1S521.6,446.7,500,471.2z M285.9,471.2
		c-21.6-24.5-34.7-56.4-34.7-91.1s13.1-66.6,34.7-91.1c21.6,24.5,34.7,56.4,34.7,91.1C321.2,414.9,307.5,446.7,285.9,471.2z
		 M37,380.1c0-76.9,63.8-139.5,141.8-139.5c29,0,56.4,8.5,79.2,23.9c-27.3,30.8-43.8,71.2-43.8,115.6S230.6,465,258,495.7
		c-22.8,14.8-49.5,23.9-79.2,23.9C100.8,519.6,37,457,37,380.1L37,380.1z M313.8,495.7c27.3-30.8,43.8-71.2,43.8-115.6
		s-16.5-84.9-43.8-115.6c22.8-14.8,49.5-23.9,79.2-23.9c29.6,0,56.4,8.5,79.2,23.9c-27.3,30.8-44.4,71.2-44.4,115.6
		s16.5,84.9,44.4,115.6c-22.8,14.8-49.5,23.9-79.2,23.9C363.9,519.6,336.6,510.5,313.8,495.7L313.8,495.7z M527.9,495.7
		c27.3-30.8,44.4-71.2,44.4-115.6s-16.5-84.9-44.4-115.6c22.8-14.8,49.5-23.9,79.2-23.9s56.4,8.5,79.2,23.9
		c-27.3,30.8-44.4,71.2-44.4,115.6s16.5,84.9,44.4,115.6c-22.8,14.8-49.5,23.9-79.2,23.9S550.7,510.5,527.9,495.7z M821.2,519.6
		c-29,0-56.4-8.5-79.2-23.9c27.3-30.8,44.4-71.2,44.4-115.6s-16.5-84.9-44.4-115.6c22.8-14.8,49.5-23.9,79.2-23.9
		c78,0,141.8,62.6,141.8,139.5C963,457,899.2,519.6,821.2,519.6z"/>
</g>
</svg>
