<?xml version="1.0" encoding="utf-8"?>
<!-- Generator: Adobe Illustrator 27.8.1, SVG Export Plug-In . SVG Version: 6.00 Build 0)  -->
<svg version="1.1" id="Layer_1" xmlns="http://www.w3.org/2000/svg" xmlns:xlink="http://www.w3.org/1999/xlink" x="0px" y="0px"
	 viewBox="0 0 4320 1392" style="enable-background:new 0 0 4320 1392;" xml:space="preserve">
<style type="text/css">
	.st0{fill:#FFFFFF;}
	.st1{fill:#FFFFFF;stroke:#231F20;stroke-width:0.25;}
	.st2{fill:#FFFFFF;stroke:#000000;stroke-width:0.25;}
	.st3{fill:#FFFFFF;stroke:#E8E8E8;stroke-width:0.25;}
</style>
<g>
	<g>
		<polygon class="st0" points="2132.1,210.7 1324.5,1169.3 1055.3,1259 2005.7,129.2 		"/>
		<polygon class="st0" points="2132.1,210.7 2939.7,1169.3 3209,1259 2258.6,129.2 		"/>
		<polygon class="st0" points="2132.1,210.7 2258.6,129.2 2005.7,129.2 		"/>
		<path class="st1" d="M1543.7,323.9"/>
		<path class="st1" d="M1544.8,323.9"/>
		<polygon class="st0" points="1543.7,323.9 1672.6,137.3 1544.1,239 		"/>
		<path class="st0" d="M1418.3,985.7l-191.7,69.3C310.9,916.4,374.1,620.7,374.1,620.7c-2-381.4,1299.2-483.3,1299.2-483.3
			l-128.5,102c0,0-1061,153.5-1030.5,379.8C544.9,845.5,1418.3,985.7,1418.3,985.7z"/>
		<path class="st0" d="M1544.8,239.3v84.6c0,0-889.2,66.3-889.2,290.6S1361.2,896,1361.2,896l57.1,89.7c0,0-905.5-110.1-905.5-367.1
			C512.8,361.7,1544.8,239.3,1544.8,239.3z"/>
		<polygon class="st0" points="1055.3,1259 1416.4,1259 1324.5,1169.3 		"/>
		<polygon class="st0" points="2132.1,210.7 2132.1,386.6 1416,1258.5 1324.5,1169.3 		"/>
		<polygon class="st0" points="2132.3,210.7 2132.3,386.6 2848.4,1258.5 2940,1169.3 		"/>
		<polygon class="st0" points="3209.2,1259 2848.1,1259 2940,1169.3 		"/>
		<polygon class="st0" points="2721,323.9 2592.1,137.3 2720.6,239 		"/>
		<path class="st0" d="M2846.4,985.7l191.7,69.3c915.7-138.7,852.5-434.4,852.5-434.4c2-381.4-1299.2-483.3-1299.2-483.3l128.5,102
			c0,0,1061,153.5,1030.5,379.8C3719.8,845.5,2846.4,985.7,2846.4,985.7z"/>
		<path class="st0" d="M2719.9,239.3v84.6c0,0,889.2,66.3,889.2,290.6S2903.5,896,2903.5,896l-57.1,89.7
			c0,0,905.5-110.1,905.5-367.1C3752,361.7,2719.9,239.3,2719.9,239.3z"/>
		<path class="st2" d="M2407.6,925.5"/>
		<polygon class="st0" points="2417.8,941.8 2541.2,1110.5 2436.2,1021.4 		"/>
		<path class="st3" d="M1520.5,998.9"/>
		<path class="st0" d="M1520.5,998.9l163.2-66.3c0,0,611.8,25.5,734.2,9.2l18.4,79.6C2436.2,1021.4,2180.2,1069.3,1520.5,998.9z"/>
		<path class="st0" d="M2436.2,1021.4l105.1,89.1c0,0-575.6,38.8-991.7-14.2l-29.1-97.4C1520.5,998.9,2086.4,1051,2436.2,1021.4z"/>
	</g>
</g>
</svg>
