<?xml version="1.0" encoding="utf-8"?>
<!-- Generator: Adobe Illustrator 27.8.1, SVG Export Plug-In . SVG Version: 6.00 Build 0)  -->
<svg version="1.1"
	 id="svg26" xmlns:svg="http://www.w3.org/2000/svg" xmlns:inkscape="http://www.inkscape.org/namespaces/inkscape" xmlns:sodipodi="http://sodipodi.sourceforge.net/DTD/sodipodi-0.dtd"
	 xmlns="http://www.w3.org/2000/svg" xmlns:xlink="http://www.w3.org/1999/xlink" x="0px" y="0px" viewBox="0 0 4192.2 720"
	 style="enable-background:new 0 0 4192.2 720;" xml:space="preserve">
<style type="text/css">
	.st0{fill-rule:evenodd;clip-rule:evenodd;fill:#FFFFFF;}
	.st1{fill:#FFFFFF;}
</style>
<sodipodi:namedview  bordercolor="#666666" borderopacity="1.0" fit-margin-bottom="0" fit-margin-left="0" fit-margin-right="0" fit-margin-top="0" id="namedview28" inkscape:current-layer="svg26" inkscape:cx="2118.9032" inkscape:cy="-2007.5216" inkscape:pagecheckerboard="0" inkscape:pageopacity="0.0" inkscape:pageshadow="2" inkscape:window-height="1017" inkscape:window-maximized="1" inkscape:window-width="1920" inkscape:window-x="-8" inkscape:window-y="-8" inkscape:zoom="0.18854094" pagecolor="#ffffff" showgrid="false">
	</sodipodi:namedview>
<path id="path4" class="st0" d="M1170.2,585.1v-0.7h70.3v-71h-70.3V394.8h8.5h61.8v-67.5h-70.3l0.7-110.1h69.6v-66.7
	c-2.1,0-3.6,0-5,0l-65.3-0.7h-68.9v435.3L1170.2,585.1z M1240.5,584.4h27c24.1,0,46.9-5,66.7-14.9c19.9-9.9,35.5-24.9,46.9-44
	c12.1-19.2,17.7-42.6,17.7-69.6c-1.4-45.4-13.5-80.3-54.7-100.8c14.9-11.4,17-21.3,24.1-33.4c6.4-12.1,10.7-30.5,10.7-55.4
	c-0.7-24.1-7.8-44.7-20.6-62.5c-19.2-42.6-68.9-55.4-117.9-53.3v66.7h17c73.1,2.1,74.6,115.7-16.3,110.1l-0.7,0v67.5h16.3
	c92.3-4.3,100.1,125,6.4,118.6h-22.7L1240.5,584.4z"/>
<path id="path6" class="st0" d="M2681.9,311.7h0.7v-69.6h-0.7c-93.7,0-170.4,77.4-170.4,171.1c0,95.2,76.7,172.5,170.4,172.5
	c0.7,0,0.7-0.7,0.7-0.7v-68.9c0,0,0,0-0.7,0c-56.1,0-100.1-46.1-100.1-103C2581.8,357.9,2625.8,311.7,2681.9,311.7L2681.9,311.7z
	 M2682.6,311.7c56.1,0,100.8,46.1,101.5,101.5c0,56.8-45.4,102.2-101.5,103v68.9c93.7,0,169.7-77.4,169.7-171.8
	c0-93.7-76-170.4-169.7-171.1L2682.6,311.7z"/>
<path id="path8" class="st0" d="M2483.8,510.5h-129.9c-76.7-5-130-73.1-125.7-151.2c6.4-80.2,58.9-132.1,140.6-136.3
	c40.5,0,73.1-1.4,115-1.4v-31.3v-40.5c-61.1,1.4-128.5-2.8-170.4,2.8c-90.9,12.1-161.2,121.4-161.2,213.7
	c0,120.7,95.2,217.3,210.2,217.3c39.1,0,81.7,0,121.4,0C2483.8,509.1,2483.8,535.4,2483.8,510.5z"/>
<path id="path10" class="st0" d="M2943.9,546l0.7,169H2880V412.6c-0.7-93.7,76.7-171.1,171.1-171.1l0.7,0v68.2c-1.4,0-2.8,0-3.6,0
	c-58.9,0-99.4,49.7-99.4,107.2c0,58.9,41.2,100.1,99.4,100.1c1.4,0,2.1,0,3.6,0v67.5C3010.7,584.4,2973,569.5,2943.9,546L2943.9,546
	z M3051.8,241.4c94.4,0,171.1,77.4,171.1,171.1c0,94.4-76.7,171.8-171.1,171.8v-67.5c56.8-1.4,101.5-50.4,103-104.4
	c1.4-54-46.2-100.8-103-103L3051.8,241.4z"/>
<path id="path12" class="st0" d="M3314.5,546l0.7,169h-64.6V412.6c0-93.7,76.7-171.1,171.1-171.1l0.7,0v68.2c-1.4,0-2.1,0-3.5,0
	c-58.9,0-99.4,49.7-99.4,107.2c0,58.9,41.2,100.1,99.4,100.1c1.4,0,2.1,0,3.5,0v67.5C3381.3,584.4,3344.4,569.5,3314.5,546
	L3314.5,546z M3422.5,241.4c94.4,0,171.1,77.4,171.1,171.1c0,94.4-76.7,171.8-171.1,171.8v-67.5c56.8-1.4,103-46.9,103-104.4
	c0-56.8-46.2-100.8-103-103L3422.5,241.4z"/>
<path id="path14" class="st0" d="M3694.4,459.4l63.2-63.9v98.7l-11.4,11.4c-1.4,0.7,2.8,4.2,11.4,7.8v66.7
	c-79.5-18.5-139.2-83.8-139.2-166.9c-2.1-81.7,58.9-151.2,139.2-168.3v70.3c-42.6,13.5-73.9,51.1-73.9,98
	C3683.8,431.7,3685.9,443.8,3694.4,459.4L3694.4,459.4z M3757.6,580.1v-66.7c7.8,3.5,20.6,6.4,36.9,5.7H3916v65.3h-105.8
	C3792.4,585.8,3774.7,583.7,3757.6,580.1L3757.6,580.1z M3757.6,395.5l73.1-74.5c-10.6-5-16.3-9.9-36.9-12.1
	c-12.8,0-24.9,2.1-36.2,6.4V245c12-2.1,24.1-3.6,36.9-3.6c56.1,0,103,39.1,110,48.3c14.2,12.1,14.9,44-0.7,54.7l-146.2,149.8V395.5z
	"/>
<path id="path16" class="st0" d="M3945.1,152.7h63.2v257.1c3.6,41.9,19.2,68.2,37.6,84.5c12.1,9.9,31.2,14.9,53.2,17l93,0v72.4
	l-79.5,1.4c-42.6,0-87.3-7.8-112.9-32C3965,519.1,3943,480,3943,398.3L3945.1,152.7z"/>
<path id="path18" class="st0" d="M2108.2,374.9v213h-1.4h-64.6V374.2c0-40.5-44-63.2-81-64.6c-36.2,2.1-72.4,24.9-72.4,64.6l0,213.7
	h-65.3h-0.7v-213l0.7-2.1v-7.1c0-36.2,14.9-66,38.3-86.6l0-0.7c24.9-21.3,55.4-32.7,85.9-36.2c42.6-4.3,87.3,6.4,121.4,36.2l0.7,0.7
	c23.4,21.3,37.6,51.1,36.9,86.6l0,7.1L2108.2,374.9z"/>
<path id="path20" class="st0" d="M1609.7,315.3h0.7v-69.6h-0.7c-95.2,0-172.6,77.4-172.6,171.8c0,95.1,77.4,172.5,172.6,172.5
	c0.7,0,0.7,0,0.7,0v-69.6h-0.7c-56.8,0-101.6-46.2-101.6-102.9C1508.1,360.7,1552.9,315.3,1609.7,315.3L1609.7,315.3z M1610.4,315.3
	c56.8,0,102.3,45.4,102.3,102.3c0,56.8-45.5,102.9-102.3,102.9v69.6c39.1,0,75.3-13.5,103.7-35.5v32.7h68.1V428.2
	c0-3.5,0-7.1,0-10.6c0-3.6,0-6.4,0-9.9v-2.8h-0.7c-6.4-88.1-80.9-158.4-171.1-159.1L1610.4,315.3z"/>
<g>
	<path class="st1" d="M317.4,457.3c0-20.6-16.4-37.6-36.9-37.6c-20.6,0-36.9,17-36.9,37.6c0,19.9,16.3,36.9,36.9,36.9
		C301.1,494.2,317.4,477.1,317.4,457.3z"/>
	<path class="st1" d="M317.4,308.2c0-20.6-16.4-37.6-36.9-37.6c-20.6,0-36.9,17-36.9,37.6c0,20.6,16.3,36.9,36.9,36.9
		C301.1,345.1,317.4,328.8,317.4,308.2z"/>
	<polygon class="st1" points="280.5,419.7 280.5,419.7 280.5,410.3 	"/>
	<polygon class="st1" points="280.5,345.1 280.5,410.3 280.5,345.1 	"/>
	<polygon class="st1" points="280.5,494.2 280.5,532.7 280.5,494.2 	"/>
	<path class="st1" d="M911.7,0H34.1C15.6,0,0,17.7,0,39.1V681c0,21.3,15.6,39,34.1,39h877.6c19.2,0,34.1-17.8,34.1-39V39.1
		C945.8,17.7,930.9,0,911.7,0z M823,536.1h-42.6v-40.5h-19.9h-20.6v41.2H698V426h62.5H823V536.1z M861.3,420.4H760.5v-73.8l0,73.8
		h-83.8l-320.2,0c5,10.6,7.1,22.7,7.1,34.8c0,46.2-36.9,83.1-82.4,83.1h-0.7l0-5.5v5.5c-44,0-79.5-34.8-82.4-78.1
		c-7.8,3.6-17,5.7-26.3,5.7v0c-1.4,0-2.8,0-4.2,0c-45.4,0-83.1-36.9-83.1-83.1c0-45.4,37.6-82.4,83.1-82.4c1.4,0,2.8,0,4.2,0v0
		c9.2,0.7,18.5,2.1,26.3,5.7c2.8-43.3,38.4-78.1,82.4-78.8v0l0.7,0c45.4,0,82.4,37.6,82.4,83.8c0,12.8-2.9,24.8-7.8,35.5h404.7
		h100.8V420.4z"/>
	<path class="st1" d="M171.8,345.8L171.8,345.8c-20.6,0-36.9,16.3-36.9,36.9c0,19.9,16.3,36.9,36.9,36.9c19.9,0,36.9-17,36.9-36.9
		C208.8,362.1,191.7,345.8,171.8,345.8z"/>
</g>
</svg>
