<?xml version="1.0" encoding="utf-8"?>
<!-- Generator: Adobe Illustrator 27.8.1, SVG Export Plug-In . SVG Version: 6.00 Build 0)  -->
<svg version="1.1" id="layer" xmlns="http://www.w3.org/2000/svg" xmlns:xlink="http://www.w3.org/1999/xlink" x="0px" y="0px"
	 viewBox="0 0 806 652" style="enable-background:new 0 0 806 652;" xml:space="preserve">
<style type="text/css">
	.st0{fill:#FFFFFF;}
</style>
<g>
	<path class="st0" d="M408.8,71.9c0,0,8,5.5,3.6,13.4c0,0,10.3,3.3,11.6,9c0,0-9.2-3.1-12.5,4.5c0,0-1.5,7.8,6.2,6.2
		c0,0,5.3-5.2,10.9,0.4c0,0,7-7.3,16,1.6c0,0,15.4-9.7,28.1,2.9c0,0,13.7-6.8,22.4,5.2c0,0,12.6-4.2,21.8,9.6c0,0,11.7-2.4,14.7,9.4
		c0,0,7-1.7,8.7,7c0,0,13.9-2.6,18.4-1.3c0,0-2.8,2.8-3.8,7.5c0,0-16.9-1.9-27.8,14.1c0,0-15.2-20.5-43.3-27.3
		c0,0,5.1,13.3,7.1,20.4h-15c0,0-4.3-16.8-30.3-29.6l-7.3,7.3c0,0,16,14.8,10.1,22.6c0,0-5.9,5.3-18.8-3.4c0,0-11.2-6.6-21-6.6
		v-13.2c0,0,7.2-0.6,7.2-11.8c0,0,1.1-11.7-7.2-11.7V71.9H408.8z"/>
	<path class="st0" d="M409.4,71.9c0,0-8,5.5-3.6,13.4c0,0-10.3,3.3-11.6,9c0,0,9.2-3.1,12.5,4.5c0,0,1.5,7.8-6.2,6.2
		c0,0-5.3-5.2-10.9,0.4c0,0-7-7.3-16,1.6c0,0-15.4-9.7-28.1,2.9c0,0-13.7-6.8-22.4,5.2c0,0-12.6-4.2-21.8,9.6c0,0-11.7-2.4-14.7,9.4
		c0,0-7-1.7-8.7,7c0,0-13.9-2.6-18.5-1.3c0,0,2.9,2.8,3.8,7.5c0,0,16.9-1.9,27.8,14.1c0,0,15.2-20.5,43.3-27.3
		c0,0-5.1,13.3-7.1,20.4h15.1c0,0,4.3-16.8,30.3-29.6l7.3,7.3c0,0-16,14.8-10.1,22.6c0,0,5.9,5.3,18.8-3.4c0,0,11.2-6.6,21-6.6
		v-13.2c0,0-7.2-0.6-7.2-11.8c0,0-1.1-11.7,7.2-11.7V71.9H409.4z"/>
	<path class="st0" d="M247.3,145.3c0,0,7.5,17.1,30.8,13.7c0,0,2.2,8.5,12.7,12.7c0,0-11.4,12,0,19.1c0,0,10.4,3.1,12.5-4.1
		c0,0,0-7.4-5.8-8.2l8.2-6.2l8.4,6.2c0,0-5.6,0.4-4.3,8.2c0,0,1,7.8,7.8,7.8c6.7,0,7.8-5.9,7.8-7.8c0-1.9-1-11.1-8-12.5l13.9-10.1
		l13.2,10.1c0,0-6.3,3.2-6.3,12.5c0,0,0.5,7.8,10.4,7.8s9.9-7.8,9.9-7.8s0.3-8.2-7.2-8.2l14.7-7.4l13.5,7.4c0,0-6,1-6,8.2
		s6.3,9.1,10.1,9.1c3.8,0,9.6-0.7,9.6-9.1c0-8.4-7.2-15.9-16.9-15.9c0,0,11.8-19,33.3-19v50.6H284c0,0,0.8-8-6.5-15.4
		c-7.4-7.4-14.2-8.4-14.2-8.4S242.5,170.1,247.3,145.3"/>
	<path class="st0" d="M571,145.3c0,0-7.5,17.1-30.8,13.7c0,0-2.2,8.5-12.7,12.7c0,0,11.4,12,0,19.1c0,0-10.4,3.1-12.5-4.1
		c0,0,0-7.4,5.8-8.2l-8.2-6.2l-8.4,6.2c0,0,5.6,0.4,4.3,8.2c0,0-1,7.8-7.8,7.8c-6.7,0-7.8-5.9-7.8-7.8c0-1.9,1-11.1,8-12.5
		L487,164.1l-13.2,10.1c0,0,6.3,3.2,6.3,12.5c0,0-0.5,7.8-10.4,7.8s-9.9-7.8-9.9-7.8s-0.3-8.2,7.2-8.2l-14.7-7.4l-13.5,7.4
		c0,0,6,1,6,8.2s-6.3,9.1-10.1,9.1c-3.8,0-9.6-0.7-9.6-9.1c0-8.4,7.2-15.9,16.9-15.9c0,0-11.8-19-33.3-19v50.6H534
		c0,0-0.8-8,6.5-15.4c7.4-7.4,14.2-8.4,14.2-8.4S575.7,170.1,571,145.3"/>
	<rect x="283.7" y="207.9" class="st0" width="250.9" height="10.6"/>
	<rect x="283.7" y="224" class="st0" width="250.9" height="19.8"/>
	<path class="st0" d="M310.7,234c0,3.9-3.1,7-7,7c-3.9,0-7-3.1-7-7s3.1-7,7-7C307.5,227,310.7,230.2,310.7,234"/>
	<path class="st0" d="M362.1,234c0,3.9-3.1,7-7,7s-7-3.1-7-7s3.1-7,7-7S362.1,230.2,362.1,234"/>
	<path class="st0" d="M414.4,234c0,3.9-3.1,7-7,7s-7-3.1-7-7s3.1-7,7-7S414.4,230.2,414.4,234"/>
	<path class="st0" d="M465.6,234c0,3.9-3.1,7-7,7s-7-3.1-7-7s3.1-7,7-7S465.6,230.2,465.6,234"/>
	<path class="st0" d="M517.4,234c0,3.9-3.1,7-7,7s-7-3.1-7-7s3.1-7,7-7C514.2,227,517.4,230.2,517.4,234"/>
	<path class="st0" d="M134,302.3l8.2,3.2v125.3l-15.5,11.9H149l40.6-33.7V289.1l5.5-10.9C195.1,278.1,168.7,304.1,134,302.3"/>
	<path class="st0" d="M214.2,253.1c0,0-16.9,27.8-33.9,36.2c0,0,51.3,27.6,85-1.1C265.3,288.2,229.5,284.3,214.2,253.1"/>
	<path class="st0" d="M223.4,492.3v-201h-7.8v190c0,0-18.2-5.9-18.2,10c0,0-0.9,10.9,13.7,10.9C211,502.4,223.4,501.5,223.4,492.3"
		/>
	<path class="st0" d="M236.6,444.5c0,0-121.7,28.3-142.7-57.9c0,0-13.7-81.1,65.2-122.6c0,0-121.7,10-121.7,122.6
		c0,0,1.3,81.6,82.9,88.4C120.3,475,189.6,480,236.6,444.5"/>
	<path class="st0" d="M281.5,316.2c0,0-6.8,14-13.3,20.5v72.8c0,0,25,13.7,35.5,6.8l-17.4,28.4c0,0-11.6-13.7-57.4-19.8
		c0,0,10.9-6.8,10.9-14.7v-71.1l-4.1-4.4C235.6,334.7,254.5,337.7,281.5,316.2"/>
	<path class="st0" d="M284.9,444.7c0,0,6.8-14,13.3-20.5v-72.8c0,0-25-13.7-35.5-6.8l17.4-28.4c0,0,11.6,13.7,57.4,19.8
		c0,0-10.9,6.8-10.9,14.7v71.1l4.1,4.4C330.7,426.2,311.9,423.2,284.9,444.7"/>
	<path class="st0" d="M485.8,316.2c0,0-6.8,14-13.3,20.5v72.8c0,0,25,13.7,35.5,6.8l-17.4,28.4c0,0-11.6-13.7-57.4-19.8
		c0,0,10.9-6.8,10.9-14.7v-71.1l-4.1-4.4C440,334.7,458.8,337.7,485.8,316.2"/>
	<path class="st0" d="M489.3,444.7c0,0,6.8-14,13.3-20.5v-72.8c0,0-25-13.7-35.5-6.8l17.4-28.4c0,0,11.6,13.7,57.4,19.8
		c0,0-10.9,6.8-10.9,14.7v71.1l4.1,4.4C535.1,426.2,516.3,423.2,489.3,444.7"/>
	<path class="st0" d="M340.2,333.6c0,0,13.7,3.4,13.7,12v68.7c0,0-1.7,4.8-9.6,4.8c0,0,17.8,7.5,26.6,26.7c0,0,8.6-17.8,26.5-26.5
		c0,0-10.3-0.3-10.3-5v-84.4c0,0-4.6-8.7-22-15.9L340.2,333.6z"/>
	<path class="st0" d="M415.4,311.9c0,0-7.7,14-33.5,18.8c0,0,6,13.7,32.6,13.7c26.7,0,26.7-15.2,26.7-15.2S425.7,326.5,415.4,311.9"
		/>
	<path class="st0" d="M544.1,335.7c0,0,13.7,3.4,13.7,12v68.7c0,0-1.7,4.8-9.6,4.8c0,0,17.8,7.5,26.6,26.7c0,0,8.6-17.8,26.5-26.5
		c0,0-10.3-0.3-10.3-5V332c0,0-4.6-8.7-22-15.9L544.1,335.7z"/>
	<path class="st0" d="M589.6,329.8c0,0,22.6-7.1,33.4-19.7c0,0,9.5,14.2,29.6,21c0,0-4.3-0.1-4.3,9.8v75.5c0,0-0.6,5,8.3,5
		c0,0-21.2,14.3-21.2,26.5c0,0-5.6-26.5-25-26.5c0,0,8-1,8-5v-68.7c0,0-5.7-14.8-16.1-14.8l-12.8,11.3L589.6,329.8L589.6,329.8z"/>
	<path class="st0" d="M715.9,310.5c0,0-6.8,14-13.3,20.5v72.8c0,0,25,13.7,35.5,6.8L720.7,439c0,0-11.6-13.7-57.4-19.8
		c0,0,10.9-6.8,10.9-14.7v-71.1l-4.1-4.4C670.1,329,688.9,332,715.9,310.5"/>
	<path class="st0" d="M760.3,325.1v84.1c0,0,3.4,9.2,20.5,9.2l-26.1,26.1l-28.2-28.2v-77.6c0,0-20.1-4.8-26.7-11.4l17.2-18
		C717,309.4,736.7,325.1,760.3,325.1"/>
	<path class="st0" d="M454.5,515.6c0,0,7.6,1.7,7.6,5.8v33.5c0,0-1,2.3-5.3,2.3c0,0,9.9,3.7,14.9,13c0,0,4.8-8.7,14.8-12.9
		c0,0-5.7-0.2-5.7-2.4v-41.2c0,0-2.6-4.3-12.3-7.8L454.5,515.6z"/>
	<path class="st0" d="M496.4,504.8c0,0-4.3,7.8-18.7,10.5c0,0,3.3,7.6,18.2,7.6c14.9,0,14.9-8.5,14.9-8.5S502.1,512.9,496.4,504.8"
		/>
	<path class="st0" d="M247.5,480.5c0,0,8-16.6,17.1-16.6c0,0,55.8,9.6,65-3.1l-14.3,20.1c0,0-15.8,3.8-29.7,0
		S253.4,474.6,247.5,480.5"/>
	<path class="st0" d="M317.3,500.3c0,0-8.5,6.5-21.5,2.7c0,0-19.7-4.7-26.2,14c0,0,11.2-6.7,24.5,0
		C294.1,517.1,317.3,521.7,317.3,500.3"/>
	<path class="st0" d="M249.7,569.5c0,0,6.5-15.4,38.6-15.4c0,0,16.9-0.3,26.3,2.7c0,0,15.7-6.2,17.8-13l-15.2,28
		C317.2,571.9,276.7,559.4,249.7,569.5"/>
	<path class="st0" d="M278.2,472.9v86.8l-20.5,5v-75.4C257.7,489.3,260.8,479.7,278.2,472.9"/>
	<path class="st0" d="M335.6,525.3c0,0,8.3-18.9,30.5,20.6c0,0,20.5,34.6,35,20.2l10.9-10.9c0,0-14.2,12.3-29.6-19.1
		c0,0-15.7-27.7-30.8-30.8C351.6,505.1,336.9,506.5,335.6,525.3"/>
	<path class="st0" d="M400.9,516c0,0-7.5-15.7-15.7-7.5c0,0-39.5,56.6-43.5,52.6c0,0-2.4-0.4-4.7-3.7c0,0-0.7,11.1,5.9,11.1
		c0,0,0.1,6.4,22.9-23.2l23-30.1C388.8,515.1,393.8,509,400.9,516"/>
	<path class="st0" d="M419.3,501.4l17.3-9.3v61.1c0,0,6.4,6.8,17.8,0c0,0-3,7.3-14.4,9.6c0,0-10.7,2.4-10.7,6.9
		c0,0-7.1-10.6-14.4-11.3c0,0,4-2.2,4-4.1C419,552.5,419.3,501.4,419.3,501.4"/>
	<polygon class="st0" points="412.1,507.4 450.2,507.4 450.2,512.3 412.2,512.3 	"/>
	<path class="st0" d="M536.2,512.2v38.1c0,0,13.9,2,23.2,7.5l-19.6,11.6c0,0-8.4-9.1-26-9.1l4.8-5v-33.5
		C518.7,521.7,530.1,518.3,536.2,512.2"/>
	<path class="st0" d="M544,503c0,0,7.5,10.7,26.9,15.7V557c0,0,1.1,4.6,11.4,2.3c0,0-6.1,12.8-17.8,9.8c0,0-11.6-4.1-11.6-18.5
		s0.7-25.3,0.7-25.3s-23.4-8.1-28.5-6.1C525,519.3,533.6,516.1,544,503"/>
</g>
</svg>
