<?xml version="1.0" encoding="utf-8"?>
<!-- Generator: Adobe Illustrator 27.8.1, SVG Export Plug-In . SVG Version: 6.00 Build 0)  -->
<svg version="1.1" id="Layer_1" xmlns="http://www.w3.org/2000/svg" xmlns:xlink="http://www.w3.org/1999/xlink" x="0px" y="0px"
	 viewBox="0 0 2500 820" style="enable-background:new 0 0 2500 820;" xml:space="preserve">
<style type="text/css">
	.st0{fill:#FFFFFF;}
	.st1{fill-rule:evenodd;clip-rule:evenodd;fill:#FFFFFF;}
</style>
<path class="st0" d="M1183.2,164.9h151.7c152.6,0,274,93.9,274,252.2c0,172.5-104.3,260.7-274,260.7h-151.7L1183.2,164.9z
	 M1256.2,613.3h76.8c126.1,0,196.3-60.7,196.3-193.4c0-119.4-81.6-190.6-187.7-190.6h-86.3v384H1256.2z M1779.5,218.9h-77.8v-77.8
	h77.8L1779.5,218.9z M1705.5,303.3h69.2v375.4h-69.2V303.3z M1903.7,164.9h151.7c152.6,0,274,93.9,274,252.2
	c0,172.5-104.3,260.7-274,260.7h-151.7L1903.7,164.9z M1977.6,613.3h76.8c126.1,0,196.3-60.7,196.3-193.4
	c0-119.4-81.6-190.6-187.8-190.6h-86.2v384H1977.6z M2500,218.9h-77.8v-77.8h77.8V218.9z M2427,303.3h69.2v375.4H2427V303.3z"/>
<path class="st1" d="M500.6,636.1c170.6-5.7,305.3-141.2,307.2-309.1V182h187.7v160.2C991.7,603,765,807.7,500.6,813.4
	C231.3,811.5,2.8,604.8,0,342.2V54.9C0,25.6,19,6.6,47.4,6.6h760.4V182H211.4c-15.2,0-24.7,9.5-24.7,24.7v117.6
	C188.7,493.9,326.1,634.2,500.6,636.1L500.6,636.1z"/>
</svg>
