<?xml version="1.0" encoding="utf-8"?>
<!-- Generator: Adobe Illustrator 27.8.1, SVG Export Plug-In . SVG Version: 6.00 Build 0)  -->
<svg version="1.1" id="Layer_1" xmlns="http://www.w3.org/2000/svg" xmlns:xlink="http://www.w3.org/1999/xlink" x="0px" y="0px"
	 viewBox="0 0 2500 1435.3" style="enable-background:new 0 0 2500 1435.3;" xml:space="preserve">
<style type="text/css">
	.st0{fill-rule:evenodd;clip-rule:evenodd;fill:#FFFFFF;}
</style>
<g>
	<path class="st0" d="M1756.4,947.4c10.3,23.2,28.4,25.8,54.1,9c-12.9-30.9-19.3-64.5-19.3-101.9c0-70.9,25.8-132.8,76.1-183.1
		c50.3-50.3,110.9-74.8,183.1-74.8c70.9,0,132.8,24.5,183.1,74.8c50.3,50.3,76.1,112.2,76.1,183.1c0,70.9-25.8,132.8-76.1,183.1
		c-50.3,50.3-112.2,76.1-183.1,76.1c-50.3,0-96.7-12.9-136.7-37.4v-1.3c-37.4,34.8-90.3,49-157.3,42.5v-29.7v50.3l3.9,42.5
		c-1.3,60.6-21.9,112.2-64.5,154.7c-42.5,42.5-95.4,64.5-156,64.5s-112.2-21.9-154.7-64.5c-42.6-42.5-64.5-94.1-64.5-154.7
		c0-29.7,5.2-56.7,15.5-81.2c-29.7,20.6-64.5,30.9-103.2,30.9c-51.6,0-95.4-18-131.5-55.4c-32.2-32.2-50.3-63.2-54.2-91.5l-1.3-10.3
		l-1.3-42.5v-156h-49v152.2h1.3h-3.9l1.3,1.3v18c0,50.3-18.1,94.1-54.2,130.2c-37.4,37.4-81.2,55.4-131.5,55.4
		c-27.1,0-52.9-5.1-76.1-15.5l-11.6-5.2c-14.6-9.2-28.4-19.5-41.3-30.9l-2.6-3.9l-5.1-3.9l-3.9-3.9l-2.6,3.9
		c-33.5,32.2-73.5,49-119.9,49c-46.4,0-86.4-16.8-118.6-49c-33.5-32.2-50.3-72.2-49-119.9c-1.3-46.4,15.5-86.4,49-118.6
		c32.2-32.2,72.2-49,118.6-49c27.1,0,52.9,5.2,74.8,16.8v-32.2h-94.1V607h192.1v1.3h7.7c15.5-1.3,28.4,3.9,40,15.5
		c11.6,11.6,16.8,24.5,16.8,41.3l-1.3,11.6v274.6c15.5,18.1,30.9,16.8,47.7-2.6l2.6-64.5V719.1l-1.3-1.3
		c-20.6-20.6-30.9-45.1-29.7-72.2c-1.3-28.4,9-52.9,29.7-72.2c19.3-19.3,43.8-29.7,72.2-29.7c27.1,0,51.6,10.3,70.9,29.7
		c11.1,9.7,19.6,22.2,24.5,36.1h165.1v2.6c11.6,1.3,21.9,7.7,30.9,16.8c11.6,11.6,18,24.5,18,41.3c0,6.4,0,11.6-1.3,15.5v241.1
		l1.3,19.4c14.2,16.8,27.1,20.6,41.2,10.3c-12.9-29.7-19.3-61.9-19.3-96.7c0-67.1,24.5-125.1,72.2-172.8
		c47.7-47.7,104.5-72.2,172.8-70.9c42.6-1.3,81.2,7.7,116.1,27.1v-24.5h161.2v330.1L1756.4,947.4L1756.4,947.4L1756.4,947.4z
		 M1434.1,796.5c19.3-18,41.2-27.1,65.8-27.1c24.5,0,46.4,9,64.5,27.1c18,18,27.1,40,27.1,64.5c0,25.8-9,47.7-27.1,64.5
		c-18,18-40,27.1-64.5,27.1c-24.5,0-46.4-9-65.8-27.1c-16.8-16.8-25.8-38.7-25.8-64.5C1408.3,836.5,1417.3,814.6,1434.1,796.5z
		 M2144.6,861c0,25.8-9,47.7-28.4,65.8c-18.1,18.1-40,27.1-64.5,27.1c-25.8,0-47.7-9-65.8-27.1c-18-18-27.1-40-27.1-65.8
		c0-25.8,9-47.7,27.1-65.8c18-18.1,40-27.1,65.8-27.1c24.5,0,46.4,9,64.5,27.1C2135.5,813.3,2144.6,835.2,2144.6,861z M1511.5,1146
		c9-9,18-12.9,29.7-11.6c11.6-1.3,20.6,2.6,29.6,11.6c9,7.7,12.9,18,12.9,29.7c0,11.6-3.9,20.6-12.9,29.6c-9,9-18,12.9-29.6,12.9
		c-11.6,0-20.7-3.9-29.7-12.9c-9-9-12.9-18-11.6-29.6C1498.5,1164,1502.4,1153.7,1511.5,1146z M138.2,472.9V1106h199.9V769.4h134.1
		V607H338.1v-49h187V349.1H256.8v-1.3c-33.5,0-61.9,11.6-85.1,34.8c-23.2,23.2-34.8,51.6-34.8,85.1v5.1L138.2,472.9L138.2,472.9z
		 M548.2,947.4c0-9,3.9-16.8,10.3-23.2c6.5-6.5,12.9-9,21.9-9c9,0,16.8,2.6,23.2,9c6.5,6.4,9,14.2,9,23.2s-2.6,16.8-9,23.2
		c-6.5,6.4-14.2,9-23.2,9c-9,0-15.5-2.6-21.9-9C552.1,964.1,548.2,956.4,548.2,947.4z"/>
	<path class="st0" d="M2229.7,1245.2l18,3.9l15.5,2.6l10.3,2.6l14.2,2.6l20.7,2.6l34.8,3.9l3.9,1.3l16.7,3.9l9,2.6l7.7,1.3
		c32.2,3.9,47.7,11.6,45.1,23.2h-1.3c-6.4,10.3-21.9,16.8-49,18.1l-55.4-1.3c-308.2-11.6-480.9-27.1-517-46.4v1.3l-1.3-2.6l-2.6-2.6
		l-5.2-12.9l-3.9-6.4l-1.3-2.6c-2.6-5.1-3.9-11.6-3.9-20.6l11.6-10.3l2.6-1.3c6.4-3.9,12.9-6.4,20.6-5.1h3.9
		c11.6-1.3,23.2-1.3,34.8,0l21.9,1.3l33.6,1.3l34.8,2.6l19.4,1.3h7.7l10.3,1.3l24.5,2.6l32.2,2.6l34.8,2.6l18,1.3l36.1,5.1l34.8,6.4
		h9l9,2.6l12.9,2.6h1.3l7.7,2.6l5.2,1.3l7.7,1.3L2229.7,1245.2L2229.7,1245.2z M1269,1183.3l16.8,1.3l3.9,3.9l2.6,11.6v1.3
		c-5.2,24.5-43.8,41.3-116,47.7L957,1263.3v-1.3v1.3h-49l-45.1,2.6l-33.5,2.6l-679.5,34.8c-23.2-1.3-37.4-12.9-41.3-37.4v-1.3
		c6.5-24.5,23.2-40,52.9-47.7l64.5-9l23.2-3.9l28.4-5.1l32.2-5.1h6.5l72.2-5.2l73.5-3.9h27.1l11.6-1.3l18.1-3.9l65.8-5.1l15.5-1.3
		h64.5l70.9-1.3l30.9-1.3l41.3-1.3l45.1-2.6l25.8-2.6l63.2-1.3h101.9l5.2,2.6l10.3,2.6l25.8,3.9l64.5,7.7l29.7,2.6l20.6,1.3
		l64.5,1.3L1269,1183.3L1269,1183.3z"/>
	<path class="st0" d="M1791.3,362l-25.8,27.1c-21.9,16.8-52.9,11.6-91.5-14.2l-23.2-12.9c-20.7-16.8-24.5-34.8-10.3-54.2
		c14.2-28.4,58-65.8,131.5-110.9c31-19.3,67.1-41.3,109.6-63.2l-11.6,63.2C1853.2,262.7,1827.4,318.1,1791.3,362L1791.3,362z
		 M2015.6,362c-114.8,21.9-178,43.8-190.8,64.5c-14.2,27.1-14.2,54.2,1.3,81.2l6.5,9l12.9,16.8c29.7,34.8,58,42.5,86.4,23.2
		l24.5-23.2l27.1-25.8c46.4-45.1,89-93.8,127.6-145.7l14.2-19.4L2015.6,362z M1316.7,305.2c-18-27.1-56.7-63.2-117.3-108.3
		l-37.4-28.4l7.7,28.4c34.8,119.9,54.2,177.9,60.6,175.4c14.2,18,36.1,16.8,65.8-5.1C1328.3,355.5,1334.8,334.9,1316.7,305.2
		L1316.7,305.2z M1425.1,256.2c2.6,40,23.2,60.6,60.6,59.3c45.1,1.3,68.3-12.9,69.6-42.5c-2.6-27.1-6.5-51.6-10.3-76.1
		c-11.6-55.4-30.9-103.1-55.4-144.4c-24.5,58-42.5,107-52.8,144.4C1430.2,220.1,1426.4,239.5,1425.1,256.2L1425.1,256.2z
		 M1100.1,506.4c42.5,6.5,65.8,1.3,70.9-16.8c19.4-37.4,20.6-60.6,3.9-72.2c-96.7-19.4-176.7-18-239.8,3.9
		C975,461.3,1030.5,489.6,1100.1,506.4z"/>
</g>
</svg>
