<?xml version="1.0" encoding="utf-8"?>
<!-- Generator: Adobe Illustrator 27.8.1, SVG Export Plug-In . SVG Version: 6.00 Build 0)  -->
<svg version="1.1" id="Layer_1" xmlns="http://www.w3.org/2000/svg" xmlns:xlink="http://www.w3.org/1999/xlink" x="0px" y="0px"
	 viewBox="0 0 4735 2500" style="enable-background:new 0 0 4735 2500;" xml:space="preserve">
<style type="text/css">
	.st0{fill:#FFFFFF;}
</style>
<path class="st0" d="M1881.1,409.8V53.9c0-32.4,34.5-53.9,64.7-36.7l308.5,179c28,17.3,28,58.2,0,73.3l-308.5,176.9
	C1915.6,463.8,1881.1,442.2,1881.1,409.8z"/>
<path class="st0" d="M1881.1,873.6V517.7c0-32.4,34.5-53.9,64.7-36.7l308.5,179c28,17.3,28,58.2,0,73.3l-308.5,176.9
	C1915.6,927.5,1881.1,906,1881.1,873.6L1881.1,873.6z"/>
<path class="st0" d="M1881.1,1337.4V981.4c0-32.4,34.5-53.9,64.7-36.7l308.5,179c28,17.3,28,58.2,0,73.3L1945.8,1374
	C1915.6,1391.3,1881.1,1369.7,1881.1,1337.4L1881.1,1337.4z"/>
<path class="st0" d="M2286.6,629.9V273.9c0-32.4,34.5-53.9,64.7-36.7l308.5,179c28,17.3,28,58.2,0,73.3l-308.5,176.9
	C2321.1,683.8,2286.6,664.4,2286.6,629.9z"/>
<path class="st0" d="M2718,873.6V517.7c0-32.4,34.5-53.9,64.7-36.7l308.5,179c28,17.3,28,58.2,0,73.3l-308.5,176.9
	C2752.5,927.5,2718,906,2718,873.6L2718,873.6z"/>
<path class="st0" d="M2286.6,1104.4V748.5c0-32.4,34.5-53.9,64.7-36.7l308.5,179c28,17.3,28,58.2,0,73.3l-308.5,176.9
	C2321.1,1158.3,2286.6,1136.8,2286.6,1104.4L2286.6,1104.4z"/>
<path class="st0" d="M3529.1,1837.8c86.3-2.2,73.3,58.2,71.2,86.3c-239.4,0-319.2,77.7-319.2,185.5c0,107.9,86.3,151,163.9,151
	c75.5,0,101.4-12.9,176.9-62.6c15.1,64.7,77.7,62.6,77.7,62.6l84.1-84.1c-32.4-23.7-45.3-36.7-45.3-79.8V1909
	c0-116.5-62.6-174.7-198.4-174.7s-248.1,60.4-248.1,60.4l43.1,97.1C3358.7,1880.9,3442.8,1839.9,3529.1,1837.8L3529.1,1837.8z
	 M3600.2,2003.9v127.3c0,0-53.9,38.8-105.7,38.8s-75.5-34.5-75.5-69C3419.1,2066.4,3442.8,1999.6,3600.2,2003.9L3600.2,2003.9z"/>
<path class="st0" d="M511.4,1576.8h532.8v64.7c0,34.5-12.9,60.4-56.1,60.4H852.2v547.9H705.5v-547.9H470.4
	C468.2,1701.9,494.1,1637.2,511.4,1576.8L511.4,1576.8z M910.4,1997.4c0,176.9,116.5,267.5,267.5,267.5s254.5-88.4,254.5-278.3
	s-131.6-256.7-254.5-256.7C1031.2,1729.9,910.4,1818.4,910.4,1997.4z M1171.4,1839.9c56.1,0,120.8,30.2,120.8,151
	c0,120.8-49.6,163.9-120.8,163.9c-71.2,0-114.3-53.9-114.3-157.5S1100.2,1839.9,1171.4,1839.9L1171.4,1839.9z M1764.6,1857.2v-114.3
	H1646v-172.6l-138,41V1745h-84.1v114.3h84.1v254.5c0,170.4,127.3,146.7,161.8,146.7c43.1,0,94.9-10.8,94.9-10.8v-105.7H1687
	c-23.7,0-41-19.4-41-41v-243.7h118.6V1857.2z M2060.1,1835.6c86.3-2.2,73.3,58.2,71.2,86.3c-239.4,0-319.2,77.7-319.2,185.5
	s86.3,151,163.9,151c75.5,0,101.4-12.9,176.9-62.6c15.1,64.7,77.7,62.6,77.7,62.6l84.1-84.1c-32.4-23.7-45.3-36.7-45.3-79.8v-187.7
	c0-116.5-62.6-174.7-198.4-174.7s-248.1,60.4-248.1,60.4l43.1,97.1C1891.9,1878.8,1973.8,1837.8,2060.1,1835.6L2060.1,1835.6z
	 M2133.5,2001.7V2129c0,0-53.9,38.8-105.7,38.8c-51.8,0-75.5-34.5-75.5-69S1976,1997.4,2133.5,2001.7L2133.5,2001.7z M2321.1,2131.1
	c0,30.2,0,86.3,47.5,112.2c47.5,25.9,163.9,4.3,163.9,4.3v-107.9h-41c-17.3,0-32.4-15.1-32.4-32.4v-515.5l-140.2-51.8
	C2321.1,1540.1,2321.1,2098.8,2321.1,2131.1L2321.1,2131.1z"/>
<path class="st0" d="M3048,2131.1c0,30.2,0,86.3,47.5,112.2c47.5,25.9,174.7,4.3,174.7,4.3v-107.9h-51.8
	c-17.3,0-32.4-15.1-32.4-32.4v-515.5l-140.2-51.8C3048,1540.1,3048,2098.8,3048,2131.1L3048,2131.1z"/>
<path class="st0" d="M2534.7,1742.9h125.1l6.5,53.9c0,0,56.1-94.9,211.4-60.4c155.3,34.5,159.6,245.9,144.5,332.2
	c-15.1,86.3-71.2,181.2-181.2,189.8c-110,8.6-131.6-30.2-163.9-58.2v153.1L2536.8,2472v-729.1H2534.7z M2674.9,2055.7
	c0,38.8,19.4,101.4,101.4,101.4c82,0,101.4-77.7,101.4-174.7s-34.5-138-103.5-138c-69,0-99.2,43.1-99.2,82L2674.9,2055.7z"/>
<path class="st0" d="M3725.4,1745h157.5l116.5,343l116.5-343h151c0,0-198.4,500.4-228.6,582.4c-30.2,82-71.2,172.6-276.1,144.5
	v-118.6c0,8.6,66.9,6.5,73.3,4.3c25.9-4.3,43.1-15.1,58.2-38.8c6.5-12.9,17.3-34.5,21.6-47.5c2.2-4.3,12.9-23.7,12.9-30.2
	L3725.4,1745z"/>
</svg>
