<?xml version="1.0" encoding="utf-8"?>
<!-- Generator: Adobe Illustrator 24.0.2, SVG Export Plug-In . SVG Version: 6.00 Build 0)  -->
<svg version="1.1" id="Layer_1" xmlns="http://www.w3.org/2000/svg" xmlns:xlink="http://www.w3.org/1999/xlink" x="0px" y="0px"
	 viewBox="0 0 956 476.5" style="enable-background:new 0 0 956 476.5;" xml:space="preserve">
<style type="text/css">
	.st0{fill:#FFFFFF;}
</style>
<g>
	<g>
		<path class="st0" d="M948.8,75.2c-4.2-5.7-10.4-7.9-16.6-10.1c-19.2-6.8-39.4-9.5-59.5-12c-4.2-0.5-8.3-1.2-12.8-1.8
			c0.7-1.8,1-2.8,1.5-3.9c4.3-8.9,8.4-18,9.4-28c0.9-8.8-3.8-13.8-11.9-10.4c-0.3,0.1-0.6,0.3-1,0.4l0,0c-4,1.9-7.8,5-10.5,8.4
			c-7,9.1-13.2,18.9-19.9,28.3c-0.7,1-1.9,2-3.1,2.4h-0.1c-0.3,0.1-0.6,0.1-0.9,0.1c-6.6-0.3-13.1-1.3-19.7-1.7
			c-13.7-0.8-27.5-1.6-41.2-2c-16.3-0.5-32.6-0.9-48.8-1c-10.2,0-20.4,0.6-30.6,0.8c-12.5,0.3-24.9,0.6-37.3,1
			c-14.9,0.6-29.8,1.3-44.7,2.1c-4.8,0.2-9.6,0.5-14.4,1c-14.1,1.5-28.2,3.2-42.3,4.9C533.3,55,522.1,56.2,511,58
			c-14,2.3-27.9,4.8-41.7,7.8c-12.1,2.6-24,5.8-35.9,9.2c-0.2,0.1-0.4,0.1-0.6,0.2c-0.1,0-0.1,0-0.2,0.1c-1.6,0.9-2.9,2.9-4.4,4.3
			c2,0.7,4,2.2,5.9,2c10.5-0.8,21-1.9,31.5-3c15.8-1.6,31.5-3.5,47.3-4.8s31.7-2.2,47.6-3c17.1-0.9,34.2-2,51.2-1.9
			c47.4,0.1,94.8-1.5,142.2,1.8c15.4,1.1,30.8,1.4,46.2,2.2c3.6,0.2,7.1,0.9,11,1.4c-0.4,1.3-0.6,2.5-1.1,3.4
			c-6.2,13.5-13,26.8-18.6,40.6c-6.3,15.2-11.7,30.8-17.5,46.2c-2.4,6.3-3.7,13.4-7.3,18.8c-7.6,11.2-16.3,21.6-24.7,32.2
			c-13,16.4-27.8,30.9-44.1,44c-2.7,2.1-5.4,4.2-8.1,6.2c-0.9,0.6-1.8,1.3-2.8,1.9c-1.5,1-3,2-4.6,2.8c-0.3,0.2-0.6,0.4-1,0.5
			c-1.1,0.6-2.3,1.2-3.5,1.8c-0.4,0.2-0.9,0.4-1.3,0.6c-3.1,1.3-6.4,2.4-9.8,3.1c-12.9,2.5-21.2-1.7-21.8-16.7
			c-0.4-9.5,2.8-18.2,4.7-27.2c1-5,2.4-8.2,6.6-10.1c0.1,0,0.2-0.1,0.3-0.1c0.2-0.1,0.3-0.1,0.5-0.2c1.2-0.5,2.6-0.8,4.3-1.1
			c18.6-2.8,35.2-10,49.7-21c0.7-0.5,1.4-1.1,2.1-1.6c0.6-0.5,1.3-1,1.9-1.5c4.3-3.6,8.5-7.5,12.4-11.7
			c9.5-10.3,16.5-21.9,20.2-35.2c4.7-16.4-2.2-31.3-20.5-34.6c-9.8-1.8-18.7,1-27.3,5.1c-0.1,0-0.1,0.1-0.2,0.1
			c-2.1,1-4.2,2.1-6.2,3.2c-1.4,0.8-2.7,1.6-4.1,2.4c-1.9,1.2-3.7,2.4-5.5,3.6c-0.6,0.4-1.2,0.8-1.8,1.3c-0.8,0.6-1.6,1.2-2.3,1.7
			c-1.2,1-2.4,1.9-3.6,2.9s-2.4,2-3.5,3c-2,1.7-3.9,3.5-5.7,5.4c-0.5,0.5-1,1-1.5,1.5c-7.4,7.6-14.1,15.9-20.4,24.7
			c-13.4,18.5-22.9,39-29.1,61c-3.7,13.2-6.6,26.6-3.9,40.5c4,20.8,17.8,28.3,35.2,27.7c8.3-0.3,17-2.9,24.7-6.3
			c2.3-1,4.6-2.2,6.8-3.3c1.1-0.6,2.2-1.2,3.3-1.8c1.1-0.6,2.2-1.2,3.2-1.9c1.4-0.9,2.9-1.7,4.3-2.7c0.1-0.1,0.3-0.2,0.4-0.3
			c0.7-0.5,1.5-1,2.2-1.5c2.3-1.5,4.6-3.2,6.8-4.8c16-12.1,29.7-26.9,43.1-42.2c1.7-2,3.4-4.1,5.1-6.1c0.1-0.1,0.1-0.2,0.2-0.2
			c2.9-3.6,5.9-7.3,9-10.9c0.2,0.2,0.3,0.3,0.6,0.5l0.1,0.1c-0.5,2.9-0.8,5.9-1.6,8.8c-8.5,33.5-13.9,67.5-15.3,102
			c-0.6,15.2,0.2,30.6,1,45.8c0.2,4.6,2,9.4,4,13.6c1,2.1,4.3,4.4,6.4,4.2c0.3,0,0.6-0.1,0.8-0.2c0.1,0,0.1,0,0.2-0.1
			c1.9-0.8,3.8-3,4.8-4.8c1.5-2.6,2-5.9,2.4-9c2.1-18.9,3.5-37.8,6.2-56.6c2.8-20.2,5.7-40.5,10.4-60.3c6.6-28,14.7-55.8,22.7-83.4
			c3.5-12,7.6-24.1,13.1-35.2c9.3-18.9,20.1-37.1,30.1-55.8c3-5.6,4-7.8,6.9-8.4c1.7-0.3,4-0.1,7.6,0.3c14.2,1.8,28.3,4.2,42.5,6.6
			c12.8,2.2,25.5,5.3,38.4,6.9c1.8,0.2,4.1-0.2,6.2-1c0.2-0.1,0.3-0.1,0.5-0.2c2-0.9,3.8-2.1,5-3.5C952.5,84.7,952,79.6,948.8,75.2z
			 M668.7,187.3c8.1-14.6,17.8-28.1,29.7-40c6.8-6.9,14-13.1,23.3-16.1c2.8-0.9,6.9-1.3,8.8,0.2c1.7,1.3,1.9,5.6,1.4,8.4
			c-2.1,10.6-8,19.5-14.7,27.6c-11.7,14.2-25.4,26.2-41.9,34.7c-4.9,2.6-10.3,4.2-15.5,6.3c-0.4-0.4-0.9-0.7-1.3-1.1
			C661.9,200.6,665,193.7,668.7,187.3z M640.6,129c-0.8-0.9-1.8-1.6-2.8-2.2c-0.2-0.1-0.4-0.3-0.6-0.4c-6.4-3.6-15.5-2.5-21.9,1.4
			c-10.5,6.4-18.9,15.1-26.2,24.8c-6.3,8-12.2,16.2-18.6,24.7c0.3-3.2,0.5-6.3,0.8-9.3c0.2-2.5,0.5-4.9,0.7-7.3
			c0.7-8.5-2.8-14.5-7.8-18.8c-0.1-0.1-0.3-0.2-0.5-0.4c-0.5-0.4-1-0.8-1.5-1.2c-0.2-0.2-0.4-0.3-0.6-0.4c-2.6-1.8-5.5-3.2-8.3-4.4
			c-4.7-1.9-7.2,0.6-5.8,5.5c2.2,7.8,0.9,15.3-1.6,22.7c-4.3,13-8.4,26-13,38.9c-2.6,7.4-5.3,15-9.1,21.8
			c-4.2,7.6-9.7,14.6-14.7,21.7c-12,17.1-24.6,33.7-39.7,48.1c-8.8,8.5-18.1,16.5-30.2,20c-4.7,1.4-9.6,1.2-13.6-0.7
			c-0.2-0.1-0.3-0.2-0.5-0.2c-4.6-2.4-7.9-7.2-8.1-14.7c-0.5-16.3,2.4-32,7.7-47.2c5-14.3,11-28.4,17.9-41.8
			c7.6-14.9,17.3-28.6,30.7-38.9c4.4-3.4,9.9-6.1,15.3-7.3c1.4-0.3,2.7-0.4,3.8-0.1l0,0c3.4,0.7,4.8,4.1,3.2,8.7
			c-2.4,7.7-5.6,15.1-8.3,22.6c-0.6,1.6-1.2,4.3-0.5,4.9c0.2,0.2,0.5,0.3,0.8,0.5c0.1,0,0.2,0.1,0.3,0.1c1.3,0.5,3,0.7,4.1,0.4
			c10.8-3.4,18.2-10.7,22-21.2c3.2-8.9,0.7-17.5-6.7-23.1c-1.9-1.4-3.8-2.6-5.7-3.6c-0.3-0.1-0.6-0.3-0.8-0.4
			c-0.4-0.2-0.8-0.3-1.1-0.5c-0.4-0.2-0.9-0.4-1.3-0.5c-0.5-0.2-0.9-0.3-1.3-0.5c-6.8-2.3-14.1-2.2-21.6-0.4
			c-14.9,3.4-26.8,12.3-37.3,22.7c-17.7,17.5-31,38.1-40.5,61.1c-2.3,5.6-3.8,11.8-6.9,16.9c-17.7,28.8-37.6,56.1-62.4,79.4
			c-7.7,7.3-16,13.8-26.2,17.5c-5.7,2.1-11.1,2-15.3,0c-0.2-0.1-0.3-0.2-0.5-0.3c-5.2-2.8-8.4-8.6-8.1-17c0.4-10,2.5-19.9,3.7-29.9
			c0.5-4,1.7-6.9,6.7-6.5c2,0.2,4.2-0.7,6.3-1.3c24.8-6.5,44.7-20.4,60.3-40.4c10.5-13.5,18.2-28.3,17.9-46.2
			c-0.2-9.8-5.6-17.5-13.9-21c-0.3-0.2-0.7-0.3-1-0.4c-2.5-0.9-5.2-1.5-8.1-1.6c-13.2-0.6-24.3,4.3-34.7,11.3
			c-21.7,14.6-36.7,35-48.8,57.7c-14.5,27.3-23.4,56-21.6,87.4c0.6,10.7,5.5,22.2,15,28.2c0.3,0.2,0.6,0.4,0.9,0.6
			c0.3,0.2,0.7,0.4,1,0.5c0.4,0.2,0.7,0.4,1.1,0.5c2.2,1,4.6,1.8,7.2,2.2c8.9,1.4,17.6,1.2,26-1.6c14.6-4.9,27.1-13.4,38.4-23.8
			c17.3-16.2,31-35.2,43.8-55c1.3-2.1,2.6-4.2,4-6.5c0.1-0.1,0.1-0.2,0.2-0.3c0.5,9.1,0.4,17.5,1.5,25.8c1.2,8.6,5.4,16.1,11.4,21.2
			c0.4,0.3,0.8,0.7,1.2,1s0.9,0.7,1.4,1c0.3,0.2,0.7,0.5,1.1,0.7c0.3,0.2,0.6,0.4,0.9,0.6c0.4,0.2,0.7,0.4,1.1,0.6
			c3,1.6,6.4,2.6,9.8,3c13.8,1.5,26.7-1.5,38.7-8.4c18-10.6,31.8-25.7,44.2-42c5.7-7.5,10.8-15.4,16.6-23.8c0.1-0.1,0.1-0.2,0.2-0.3
			c-0.1,1.4,0,1.9-0.1,2.3c-3,10.1-6.9,19.9-6.7,30.8c0.1,5.8,1.5,10.4,4.3,13.8c0.3,0.4,0.7,0.8,1.1,1.2c3.5,3.5,8.8,5.4,15.5,5.4
			c3.7,0,5.7-1.4,6.2-4.9c0.8-5.9,0.9-11.9,2.4-17.6c8-30,16.8-59.7,33.1-86.5c12-19.8,25.2-38.6,44.2-52.3
			c8.1-5.9,16.6-9.3,26.7-4.8c0.1,0.1,0.3,0.1,0.4,0.2c0.1,0,0.1,0.1,0.2,0.1c1.2,0.6,3.8,0,4.6-1
			C646.9,145.7,645.1,133.7,640.6,129z M330.7,208c5.6-5.3,11.5-10.5,20-10.9c4-0.2,5.2,1.5,5.4,5.2c0.4,8.4-3.1,15.5-6.9,22.5
			c-12.2,22.5-29.5,39.9-52.2,51.9c-2.6,1.4-5.4,2-9.5,3.5C298.2,252.5,310.1,227.6,330.7,208z M305.7,101.8
			c-3.7-3.8-8.2-7.1-12.9-9.5c-8.3-4.2-17-6.7-26-8l-1.4-0.2c-0.4,0-0.7-0.1-1.1-0.1c-0.5-0.1-1-0.1-1.6-0.2
			c-0.9-0.1-1.8-0.2-2.7-0.3c-0.5,0-0.9-0.1-1.4-0.1c-0.9-0.1-1.8-0.1-2.7-0.2c-3.3-0.1-6.5-0.1-9.8,0c-0.7,0-1.4,0-2.1-0.1
			c-0.5,0-1,0-1.5,0h-0.6c-1.5,0-3.1,0-4.6,0.1c-0.5,0-1,0-1.5,0.1c-1.1,0-2.2,0.1-3.4,0.2c-0.9,0.1-1.8,0.2-2.8,0.3
			c-1,0.1-2,0.2-3,0.4c-0.5,0.1-1,0.1-1.5,0.2s-1,0.1-1.5,0.2c-10,1.5-19.8,4.3-29.5,7.7c-15.9,5.7-29.9,14.8-42,26.6
			c-14.1,13.8-23.1,30.6-28.4,49.6c-1.2,4.3-2.1,8.7-2.7,13c-0.1,0.5-0.1,1.1-0.2,1.6s-0.1,1.1-0.2,1.6c-0.1,0.7-0.1,1.5-0.2,2.2
			c0,0.1,0,0.2,0,0.3c-0.1,0.8-0.1,1.5-0.1,2.3s-0.1,1.6-0.1,2.4c0,0.8,0,1.6,0,2.4c0,1.5,0,2.9,0.1,4.4c0,0.7,0.1,1.3,0.1,2
			s0.1,1.3,0.2,2c0.1,1.3,0.3,2.6,0.4,3.9c0.1,0.6,0.2,1.3,0.3,2c1,7.2,2.8,14.3,5.2,21.4c7.6,22.6,20.6,42.4,32.4,62.9
			c8.1,14,16,28.1,22.5,42.9c1.4,3.1,2.5,6.4,3.4,9.6c0.1,0.2,0.1,0.4,0.1,0.6c0.1,0.5,0.3,1,0.4,1.5c0.1,0.6,0.3,1.1,0.4,1.7
			c0,0.2,0.1,0.3,0.1,0.5c1.9,9.7,1.5,19.7-0.6,29.9c-3.2,15.1-8.4,29-18.3,41c-11.2,13.6-25.9,22-42.6,26.7
			c-18,5.1-36.3,7.5-54.8,3.1c-15.8-3.8-24.4-14.9-24.9-27.2c0-0.7,0-1.3,0-2c0.1-4.5,1.3-9.1,3.6-13.5c0.6-1.1,1-2.8,1.1-4.3
			c0-0.1,0-0.3,0-0.4c0-0.4,0-0.8,0-1.2c-0.1-0.7-0.2-1.3-0.6-1.5c-2-1.4-5.8-1.9-8-0.9c-4.9,2.3-9.6,5.3-13.8,8.7
			c-6.6,5.4-11,12.3-12.8,19.5c-0.1,0.4-0.2,0.7-0.3,1.1c0,0.2-0.1,0.4-0.1,0.6c-0.1,0.4-0.2,0.8-0.2,1.2c-0.1,0.8-0.2,1.5-0.3,2.3
			c0,0.3,0,0.5-0.1,0.7c0,0.3,0,0.5,0,0.8c0,0.6-0.1,1.2-0.1,1.8c0,0.7,0,1.3,0.1,2c0,0.3,0,0.6,0.1,0.9c0,0.3,0.1,0.6,0.1,0.9
			c0,0.3,0.1,0.6,0.1,0.9c1.3,9,6.4,17.4,15.4,23c13.9,8.8,29.4,10.6,45.1,11.3c17.7,0.8,35.3-1.6,52.6-5.9
			c22.9-5.7,43.8-15.7,61.5-31.6c17.5-15.8,28.4-35.6,33.8-58.3c1.2-4.9,2.1-9.7,2.7-14.6c0.1-0.7,0.2-1.4,0.2-2.1
			c0.2-1.9,0.4-3.7,0.5-5.6c0-0.4,0-0.9,0.1-1.3c0-0.4,0-0.8,0-1.3c0-1.4,0.1-2.8,0-4.2c0-0.4,0-0.8,0-1.2c0-1-0.1-1.9-0.1-2.9
			c0-0.3,0-0.6-0.1-0.9c0-0.6-0.1-1.2-0.2-1.8c-0.1-0.7-0.1-1.4-0.2-2.1c-0.3-2.1-0.6-4.3-1-6.4c-4.1-19.9-12.7-38-22.9-55.6
			c-10.3-17.9-20.6-35.8-30.1-54c-5.9-11.4-10-23.1-11.2-35.3c-0.1-0.8-0.2-1.6-0.2-2.5c0-0.4-0.1-0.9-0.1-1.3c0-0.4,0-0.9-0.1-1.3
			c-0.1-2.3-0.1-4.6,0.1-6.9c0-0.7,0.1-1.4,0.2-2.1c0.3-3.6,0.8-7.2,1.7-10.8c0.3-1.4,0.7-2.8,1-4.1c0.2-0.7,0.4-1.4,0.6-2.1
			c0.1-0.5,0.3-0.9,0.4-1.3c0.1-0.4,0.3-0.9,0.4-1.3c0.2-0.6,0.4-1.2,0.6-1.8s0.4-1.1,0.6-1.7c0.5-1.3,1-2.6,1.6-3.9
			c0.3-0.6,0.5-1.3,0.8-1.9c0.6-1.3,1.2-2.5,1.8-3.7c0.3-0.6,0.6-1.2,1-1.8c0.7-1.2,1.4-2.3,2.1-3.5c0.7-1.1,1.5-2.3,2.3-3.4
			c0.3-0.4,0.6-0.8,0.9-1.2s0.6-0.8,0.9-1.2l0,0c0.3-0.4,0.6-0.7,0.9-1.1c0.3-0.4,0.7-0.8,1-1.2c0.4-0.5,0.9-1,1.3-1.5
			c5.5-6,12.1-11.3,20.1-15.5c15.6-8.2,32.3-10.8,49.7-9.9c9.2,0.4,17.5,3,25.1,8.2c4.3,2.9,6.8,6.5,7.6,10.4
			c0.1,0.3,0.1,0.6,0.2,0.9c0.1,0.8,0.1,1.6,0.1,2.4c-0.1,1.7-0.5,3.4-1.3,5.1c-0.3,0.8-0.6,1.9-0.7,2.9c0,0.4-0.1,0.8,0,1.1
			c0,0.7,0.2,1.3,0.5,1.5c1.5,1.1,4.5,1.7,6.2,1c7.1-3,13.3-7.4,17.8-13.8c2.8-4,4.4-8.1,4.5-11.8c0-0.4,0-0.8,0-1.3
			C309,106.8,307.9,104,305.7,101.8z M827.1,298c0.5,0,1,0.1,1.5,0.2c0.8-3,2.8-6.4,2-8.9c-0.7-2.1-4.6-3.7-7.3-4.5
			c-2.7-0.8-5.9-0.2-9.4-0.2c0,7.1-0.1,13.7,0.1,20.3c0,0.7,1.4,2.2,1.9,2.1c1-0.2,2.5-1.1,2.7-2c0.5-2.1,0.4-4.3,0.6-6.5
			c0.4-0.1,0.9-0.2,1.3-0.3c1.1,1.6,2.4,3.1,3.1,4.8c1.4,3.5,3.8,4.7,7.4,4.3C829.7,304.2,828.5,301,827.1,298z M821.4,293.9
			c-0.5,0.1-2.5-1.9-2.3-2.6c0.3-1.3,1.6-2.4,3.2-4.3c1.8,2.1,2.7,3.1,3.6,4.3C824.4,292.2,823,293.5,821.4,293.9z M827.1,298
			c0.5,0,1,0.1,1.5,0.2c0.8-3,2.8-6.4,2-8.9c-0.7-2.1-4.6-3.7-7.3-4.5c-2.7-0.8-5.9-0.2-9.4-0.2c0,7.1-0.1,13.7,0.1,20.3
			c0,0.7,1.4,2.2,1.9,2.1c1-0.2,2.5-1.1,2.7-2c0.5-2.1,0.4-4.3,0.6-6.5c0.4-0.1,0.9-0.2,1.3-0.3c1.1,1.6,2.4,3.1,3.1,4.8
			c1.4,3.5,3.8,4.7,7.4,4.3C829.7,304.2,828.5,301,827.1,298z M821.4,293.9c-0.5,0.1-2.5-1.9-2.3-2.6c0.3-1.3,1.6-2.4,3.2-4.3
			c1.8,2.1,2.7,3.1,3.6,4.3C824.4,292.2,823,293.5,821.4,293.9z M840,285c-0.1-0.2-0.2-0.4-0.4-0.6c-0.1-0.2-0.3-0.4-0.4-0.6
			c0,0,0-0.1-0.1-0.1c-0.2-0.3-0.4-0.6-0.6-0.9c-0.2-0.3-0.4-0.5-0.6-0.8c-3.3-3.8-8.4-6.1-15.1-6.4c-7.9-0.4-14.6,3.6-18.1,9.2
			c-0.1,0.2-0.2,0.4-0.3,0.5c-0.2,0.4-0.4,0.8-0.6,1.2c-0.1,0.2-0.2,0.4-0.3,0.6c-1.2,2.7-1.7,5.7-1.4,8.7c-0.2,1.3-0.2,2.7,0,4
			c0.1,0.5,0.1,1,0.3,1.6c0.2,0.8,0.4,1.7,0.7,2.5c0.1,0.3,0.2,0.5,0.3,0.8c0.1,0.3,0.2,0.5,0.4,0.8c0.3,0.5,0.5,1,0.8,1.5
			c0.1,0.2,0.3,0.4,0.4,0.6c2.1,3,5.1,5.6,8.8,7.1c0.3,0.1,0.6,0.2,0.9,0.3c0.3,0.1,0.5,0.2,0.8,0.3s0.6,0.2,0.9,0.3
			c1.9,0.5,4,0.8,6.2,0.7c12.2-0.3,20.4-8.2,20.2-19.9C842.6,291.9,841.7,288.1,840,285z M807.6,298.5c-1.1-6.3,1-12,6.2-15.8
			c4.8-3.5,10.3-3.6,15.5-0.7c5.3,2.9,7.6,7.9,7.5,13.7c-0.1,4.5-0.5,9.4-5.8,11.6c-2.5,4.1-6.8,5.4-12.8,3.7
			C811.8,309.3,808.7,304.5,807.6,298.5z M828.6,298.2c0.8-3,2.8-6.4,2-8.9c-0.7-2.1-4.6-3.7-7.3-4.5c-2.7-0.8-5.9-0.2-9.4-0.2
			c0,7.1-0.1,13.7,0.1,20.3c0,0.7,1.4,2.2,1.9,2.1c1-0.2,2.5-1.1,2.7-2c0.5-2.1,0.4-4.3,0.6-6.5c0.4-0.1,0.9-0.2,1.3-0.3
			c1.1,1.6,2.4,3.1,3.1,4.8c1.4,3.5,3.8,4.7,7.4,4.3c-1.3-3.1-2.5-6.3-3.9-9.3C827.6,298,828.1,298.1,828.6,298.2z M821.4,293.9
			c-0.5,0.1-2.5-1.9-2.3-2.6c0.3-1.3,1.6-2.4,3.2-4.3c1.8,2.1,2.7,3.1,3.6,4.3C824.4,292.2,823,293.5,821.4,293.9z"/>
		<path class="st0" d="M948.6,75.3c-4.3-5.8-10.4-7.9-16.6-10.1c-19.3-6.9-39.4-9.5-59.5-12c-4.1-0.5-8.3-1.2-12.8-1.8
			c0.7-1.8,1-2.9,1.5-3.9c4.2-9,8.4-18,9.4-28c0.9-8.8-3.8-13.8-11.9-10.4c-0.3,0.1-0.5,0.2-0.8,0.3l0,0c-4.1,1.8-8,5-10.7,8.5
			c-7.1,9.1-13.2,18.9-19.9,28.3c-0.6,0.9-1.8,1.9-2.9,2.3h-0.1c-0.4,0.2-0.8,0.3-1.1,0.2c-6.6-0.3-13.1-1.3-19.7-1.7
			c-13.7-0.8-27.4-1.5-41.2-2c-16.2-0.6-32.5-0.9-48.8-1c-10.2-0.1-20.4,0.5-30.6,0.8c-12.4,0.3-24.8,0.5-37.3,1
			c-14.9,0.6-29.8,1.4-44.7,2.1c-4.8,0.2-9.6,0.5-14.4,1c-14.1,1.6-28.2,3.2-42.3,4.9c-11.2,1.4-22.3,2.5-33.4,4.3
			c-13.9,2.3-27.9,4.8-41.7,7.8c-12.1,2.6-24,5.9-35.9,9.2c-0.1,0-0.3,0.1-0.4,0.1s-0.1,0-0.2,0.1c-1.7,0.8-3,2.9-4.6,4.4
			c1.9,0.7,4,2.1,5.9,2c10.5-0.8,21-1.9,31.5-3c15.8-1.6,31.5-3.5,47.3-4.8c15.9-1.3,31.7-2.2,47.6-3c17-0.8,34.1-1.9,51.2-1.9
			c47.4,0.1,94.8-1.5,142.2,1.8c15.4,1.1,30.8,1.4,46.2,2.2c3.5,0.2,7.1,0.9,11,1.4c-0.4,1.3-0.6,2.4-1.1,3.4
			c-6.2,13.5-12.9,26.9-18.6,40.6c-6.3,15.2-11.7,30.8-17.5,46.2c-2.3,6.3-3.6,13.4-7.3,18.8c-7.5,11.2-16.3,21.6-24.7,32.2
			c-13,16.4-27.8,31-44.1,44c-2.6,2.1-5.2,4.2-7.9,6.1c-0.9,0.6-1.8,1.3-2.8,1.9c-1.5,1-3,2-4.6,2.8c-0.3,0.2-0.6,0.4-1,0.5
			c-1.1,0.6-2.3,1.2-3.5,1.8c-0.4,0.2-0.9,0.4-1.3,0.6c-3.2,1.4-6.5,2.5-10,3.2c-12.8,2.4-21.1-1.7-21.8-16.7
			c-0.4-9.5,2.8-18.2,4.7-27.2c1.1-5.1,2.5-8.3,6.8-10.2c0.1,0,0.2-0.1,0.3-0.1c0.2-0.1,0.3-0.1,0.5-0.2c1.2-0.4,2.5-0.7,4.1-1
			c18.8-2.8,35.3-10,49.9-21.1c0.7-0.5,1.4-1.1,2.1-1.6c0.6-0.5,1.3-1,1.9-1.5c4.3-3.5,8.3-7.4,12.2-11.6
			c9.5-10.3,16.4-21.9,20.2-35.2c4.7-16.5-2.3-31.3-20.5-34.6c-9.8-1.7-18.7,1.1-27.3,5.1c-2.1,1-4.2,2.1-6.2,3.2
			c-1.4,0.8-2.7,1.6-4.1,2.4c-1.9,1.2-3.7,2.3-5.5,3.6c-0.6,0.4-1.2,0.8-1.8,1.3c-0.8,0.6-1.6,1.2-2.3,1.7c-1.2,0.9-2.5,1.9-3.6,2.9
			c-1.2,1-2.4,2-3.5,3c-2,1.7-3.9,3.5-5.7,5.4c-0.5,0.5-1,1-1.5,1.5c-7.5,7.6-14.2,16-20.6,24.8c-13.4,18.5-23,39-29.1,61
			c-3.7,13.2-6.6,26.6-3.9,40.5c4,20.9,17.8,28.3,35.2,27.7c8.3-0.3,17-2.9,24.7-6.3c2.4-1.1,4.7-2.2,7-3.4c1.1-0.6,2.2-1.2,3.3-1.8
			c1.1-0.6,2.2-1.2,3.2-1.9c1.4-0.9,2.9-1.7,4.3-2.7c0.1-0.1,0.3-0.2,0.4-0.3c0.7-0.5,1.5-1,2.2-1.5c2.3-1.5,4.6-3.2,6.8-4.8
			c15.9-12,29.6-26.9,42.9-42.1c1.8-2.1,3.6-4.2,5.3-6.3c0.1-0.1,0.1-0.2,0.2-0.2c3-3.6,6-7.3,9-10.9c0.2-0.1,0.4-0.3,0.6-0.5
			s0.3-0.3,0.4-0.4v0.1l0,0c-0.1,0.5-0.2,0.9-0.4,1.3c0,0.1,0,0.1-0.1,0.2c-0.6,3-0.9,5.9-1.6,8.8c-8.5,33.5-13.9,67.5-15.3,102
			c-0.6,15.2,0.2,30.5,1,45.8c0.3,4.6,2,9.4,4,13.6c1,2.1,4.3,4.4,6.4,4.2c0.3,0,0.7-0.1,1-0.3c0.1,0,0.1,0,0.2-0.1
			c1.8-0.9,3.7-3,4.7-4.7c1.5-2.6,2.1-5.9,2.4-9c2.1-18.9,3.6-37.8,6.2-56.6c2.8-20.2,5.7-40.5,10.4-60.3
			c6.6-28,14.7-55.7,22.7-83.4c3.5-12,7.6-24,13.1-35.2c9.4-19,20.1-37.2,30.1-55.8c3-5.8,4-8,7.1-8.5c1.7-0.3,3.9,0,7.4,0.4
			c14.3,1.8,28.4,4.2,42.5,6.6c12.8,2.2,25.5,5.3,38.4,6.9c1.9,0.3,4.2-0.2,6.4-1.1c0.2-0.1,0.3-0.1,0.5-0.2c1.9-0.9,3.7-2,4.8-3.4
			C952.4,84.8,951.8,79.6,948.6,75.3z M668.7,187.3c8.1-14.6,17.8-28.1,29.7-40c6.8-6.9,14-13.1,23.3-16.1c2.8-0.9,6.9-1.3,8.8,0.2
			c1.7,1.3,1.9,5.6,1.4,8.4c-2.1,10.6-8,19.5-14.7,27.6c-11.7,14.2-25.4,26.2-41.9,34.7c-4.9,2.6-10.3,4.2-15.5,6.3
			c-0.4-0.4-0.9-0.7-1.3-1.1C661.9,200.6,665,193.7,668.7,187.3z"/>
		<path class="st0" d="M640.4,128.9c-0.8-0.8-1.7-1.5-2.6-2.1c-0.2-0.1-0.4-0.3-0.6-0.4c-6.4-3.7-15.7-2.6-22.1,1.3
			c-10.5,6.4-18.9,15.1-26.2,24.8c-6.1,8.1-12.1,16.3-18.4,24.8c0.3-3.2,0.6-6.3,0.8-9.3c0.2-2.5,0.3-4.9,0.5-7.4
			c0.7-8.4-2.7-14.4-7.6-18.7c-0.1-0.1-0.3-0.2-0.5-0.4c-0.5-0.4-1-0.8-1.5-1.2c-0.2-0.2-0.4-0.3-0.6-0.4c-2.7-1.9-5.6-3.3-8.5-4.5
			c-4.7-1.8-7.1,0.6-5.8,5.5c2.2,7.8,0.9,15.3-1.6,22.7c-4.3,13-8.5,26-13,38.9c-2.6,7.4-5.3,14.9-9.1,21.8
			c-4.2,7.6-9.7,14.5-14.7,21.7c-12,17.1-24.6,33.6-39.7,48.1c-8.8,8.4-18,16.5-30.2,20c-4.6,1.3-9.4,1.2-13.4-0.6
			c-0.2-0.1-0.3-0.2-0.5-0.2c-4.7-2.4-8.1-7.2-8.3-14.8c-0.5-16.3,2.4-32.1,7.7-47.2c5-14.3,11-28.3,17.9-41.8
			c7.6-14.8,17.3-28.6,30.7-38.9c4.4-3.4,9.9-6.1,15.3-7.3c1.5-0.3,2.8-0.3,4,0l0,0c3.2,0.9,4.4,4.2,3,8.6c-2.4,7.6-5.6,15-8.3,22.6
			c-0.5,1.6-1.2,4.3-0.5,4.9c0.3,0.2,0.6,0.4,1,0.6c0.1,0,0.2,0.1,0.3,0.1c1.3,0.5,2.8,0.6,3.9,0.3c10.7-3.4,18.2-10.6,22-21.2
			c3.2-8.8,0.6-17.4-6.7-23.1c-1.8-1.4-3.6-2.6-5.5-3.5c-0.3-0.1-0.6-0.3-0.8-0.4c-0.4-0.2-0.8-0.3-1.1-0.5
			c-0.4-0.2-0.9-0.4-1.3-0.5c-0.5-0.2-0.9-0.3-1.3-0.5c-6.9-2.3-14.2-2.3-21.8-0.5c-14.9,3.5-26.8,12.3-37.3,22.7
			c-17.7,17.4-31.1,38-40.5,61.1c-2.3,5.7-3.8,11.8-6.9,16.9c-17.8,28.8-37.7,56.1-62.4,79.4c-7.7,7.3-16,13.8-26.2,17.5
			c-5.6,2.1-11,2-15.1,0.1c-0.2-0.1-0.3-0.2-0.5-0.3c-5.3-2.7-8.6-8.5-8.3-17.1c0.3-10,2.4-19.9,3.7-29.9c0.5-4,1.7-6.9,6.7-6.5
			c2.1,0.1,4.2-0.8,6.3-1.3c24.7-6.5,44.7-20.4,60.3-40.4c10.6-13.5,18.3-28.3,17.9-46.2c-0.2-9.7-5.6-17.4-13.7-20.9
			c-0.3-0.2-0.7-0.3-1-0.4c-2.5-1-5.3-1.5-8.3-1.7c-13.1-0.6-24.2,4.3-34.7,11.3c-21.8,14.6-36.7,35-48.8,57.7
			c-14.5,27.3-23.4,56.1-21.6,87.4c0.6,10.8,5.6,22.3,15.2,28.3c0.3,0.2,0.6,0.4,0.9,0.6c0.3,0.2,0.7,0.4,1,0.5
			c0.4,0.2,0.7,0.4,1.1,0.5c2.1,1,4.5,1.7,7,2.1c8.9,1.4,17.6,1.2,26-1.6c14.6-4.8,27.2-13.3,38.4-23.8c17.3-16.2,31-35.2,43.8-55
			c1.4-2.2,2.7-4.4,4.2-6.8c0,0.1,0,0.3,0,0.4c0.5,9,0.4,17.2,1.5,25.4c1.2,8.7,5.5,16.3,11.6,21.3c0.4,0.3,0.8,0.7,1.2,1
			c0.4,0.3,0.9,0.7,1.4,1c0.3,0.2,0.7,0.5,1.1,0.7c0.3,0.2,0.6,0.4,0.9,0.6c0.4,0.2,0.7,0.4,1.1,0.6c3,1.5,6.2,2.5,9.6,2.9
			c13.7,1.5,26.7-1.5,38.7-8.4c18.1-10.3,31.8-25.4,44.3-41.8c5.8-7.5,10.9-15.6,16.8-24.1v0.4c0,1.1,0,1.5-0.1,1.9
			c-3,10.1-6.9,19.9-6.7,30.8c0.1,5.8,1.7,10.5,4.5,13.9c0.3,0.4,0.7,0.8,1.1,1.2c3.5,3.5,8.7,5.3,15.3,5.3c3.8,0,5.7-1.4,6.2-4.9
			c0.9-5.9,0.9-11.9,2.4-17.6c8-30,16.8-59.7,33.1-86.5c11.9-19.8,25.1-38.6,44.2-52.3c8.2-5.9,16.9-9.4,26.9-4.7
			c0.1,0.1,0.3,0.1,0.4,0.2c1.1,0.6,3.8,0,4.6-1C646.7,145.6,644.9,133.7,640.4,128.9z M349.2,224.8c-12.2,22.5-29.5,39.9-52.2,51.9
			c-2.6,1.4-5.4,2-9.5,3.5c10.7-27.7,22.6-52.6,43.2-72.2c5.6-5.3,11.5-10.5,20-10.9c4-0.2,5.2,1.5,5.4,5.2
			C356.5,210.7,353,217.8,349.2,224.8z"/>
		<path class="st0" d="M246.1,83.3c16.2-0.5,32.1,1.7,46.7,9.1c4.7,2.4,9.2,5.7,12.9,9.5c5,5.1,4.3,13.3-1.2,21.1
			c-4.5,6.3-10.7,10.8-17.8,13.8c-1.7,0.7-4.7,0.2-6.2-1c-0.9-0.6-0.5-3.9,0.2-5.6c3-6.9,0.7-13.8-6.6-18.8
			c-7.6-5.2-15.9-7.7-25.1-8.2c-17.4-0.9-34.1,1.7-49.7,9.9c-21.3,11.2-33.1,29.2-38.3,52.1c-4.9,21.4-0.1,41.4,9.7,60.2
			c9.5,18.3,19.8,36.2,30.1,54c10.1,17.5,18.8,35.7,22.9,55.6c3,14.8,1.6,29.7-1.9,44.3c-5.5,22.8-16.3,42.6-33.8,58.3
			c-17.6,15.9-38.5,25.9-61.5,31.6c-17.2,4.3-34.8,6.7-52.6,5.9c-15.6-0.7-31.2-2.5-45.1-11.3C8.1,450.8,8.2,423.2,27,408
			c4.2-3.4,8.9-6.5,13.8-8.7c2.2-1,6-0.5,8,0.9c1.1,0.8,0.5,5.2-0.6,7.4c-9,17.2-1,37.4,21.3,42.7c18.5,4.4,36.8,1.9,54.8-3.1
			c16.7-4.7,31.4-13,42.6-26.7c9.9-12,15.1-25.9,18.3-41c3.2-15.1,2.4-29.9-3.8-43.7c-6.6-14.7-14.5-28.9-22.5-42.9
			c-11.8-20.5-24.8-40.3-32.4-62.9c-6.8-20.1-8.5-40.5-2.7-61.3c5.3-19,14.3-35.8,28.4-49.6c12.1-11.8,26.1-20.9,42-26.6
			C211,86.4,228.2,82.6,246.1,83.3z"/>
		<path class="st0" d="M840,285c-0.1-0.2-0.2-0.4-0.4-0.6c-0.1-0.2-0.3-0.4-0.4-0.6c0,0,0-0.1-0.1-0.1c-0.2-0.3-0.4-0.6-0.6-0.9
			c-0.2-0.3-0.4-0.5-0.6-0.8c-3.3-3.9-8.4-6.2-15.2-6.5c-7.9-0.4-14.5,3.6-18,9.3c-0.1,0.2-0.2,0.4-0.3,0.5
			c-0.2,0.4-0.4,0.8-0.6,1.2c-0.1,0.2-0.2,0.4-0.3,0.6c-1.2,2.7-1.7,5.7-1.4,8.7c-0.2,1.3-0.2,2.7,0,4c0.1,0.5,0.1,1,0.3,1.6
			c0.2,0.8,0.4,1.7,0.7,2.5c0.1,0.3,0.2,0.5,0.3,0.8c0.1,0.3,0.2,0.5,0.4,0.8c0.3,0.5,0.5,1,0.8,1.5c0.1,0.2,0.3,0.4,0.4,0.6
			c2,3.1,5.1,5.6,8.8,7.1c0.3,0.1,0.6,0.2,0.9,0.3s0.5,0.2,0.8,0.3c0.3,0.1,0.6,0.2,0.9,0.3c1.9,0.5,3.9,0.7,6.1,0.6
			c12.3-0.3,20.4-8.2,20.2-19.9C842.5,291.8,841.7,288.1,840,285z M831,307.3c-2.5,4.1-6.8,5.4-12.8,3.7c-6.4-1.7-9.5-6.5-10.6-12.5
			c-1.1-6.3,1-12,6.2-15.8c4.8-3.5,10.3-3.6,15.5-0.7c5.3,2.9,7.6,7.9,7.5,13.7C836.7,300.2,836.3,305.1,831,307.3z"/>
		<path class="st0" d="M756.5,217.8c0.4-0.3,0.8-0.6,1.2-1c-0.2,0.5-0.4,1-0.5,1.6C756.9,218.2,756.7,218,756.5,217.8z"/>
		<path class="st0" d="M827.1,298c0.5,0,1,0.1,1.5,0.2c0.8-3,2.8-6.4,2-8.9c-0.7-2.1-4.6-3.7-7.3-4.5c-2.7-0.8-5.9-0.2-9.4-0.2
			c0,7.1-0.1,13.7,0.1,20.3c0,0.7,1.4,2.2,1.9,2.1c1-0.2,2.5-1.1,2.7-2c0.5-2.1,0.4-4.3,0.6-6.5c0.4-0.1,0.9-0.2,1.3-0.3
			c1.1,1.6,2.4,3.1,3.1,4.8c1.4,3.5,3.8,4.7,7.4,4.3C829.7,304.2,828.5,301,827.1,298z M821.4,293.9c-0.5,0.1-2.5-1.9-2.3-2.6
			c0.3-1.3,1.6-2.4,3.2-4.3c1.8,2.1,2.7,3.1,3.6,4.3C824.4,292.2,823,293.5,821.4,293.9z"/>
	</g>
</g>
</svg>
