<?xml version="1.0" encoding="utf-8"?>
<!-- Generator: Adobe Illustrator 27.8.1, SVG Export Plug-In . SVG Version: 6.00 Build 0)  -->
<svg version="1.1"
	 id="svg2" xmlns:svg="http://www.w3.org/2000/svg" xmlns:dc="http://purl.org/dc/elements/1.1/" xmlns:cc="http://creativecommons.org/ns#" xmlns:rdf="http://www.w3.org/1999/02/22-rdf-syntax-ns#"
	 xmlns="http://www.w3.org/2000/svg" xmlns:xlink="http://www.w3.org/1999/xlink" x="0px" y="0px" viewBox="0 0 1680 559.6"
	 style="enable-background:new 0 0 1680 559.6;" xml:space="preserve">
<style type="text/css">
	.st0{fill:#FFFFFF;}
</style>
<g id="g10" transform="matrix(1.3333333,0,0,-1.3333333,0,559.56)">
	<g id="g12" transform="scale(0.1)">
		<path id="path14" class="st0" d="M8600,632c-24.1-4.7-66.5-12.6-104.3-12.6c-129.4,0-202.8,54.4-202.8,202.8
			c0,154.1,97.4,208.5,220,208.5c37.8,0,63-6.9,82.4-12.6v-72.8c-14.3,4-54.3,10.9-84.1,10.9c-71.1,0-127.2-10.9-127.2-131.1
			c0-118.6,58.5-131.8,122.6-131.8c34.4,0,62.4,6.9,93.4,13.2L8600,632"/>
		<path id="path16" class="st0" d="M8964.3,825.5c0,106.5-34.9,139.2-91.7,139.2c-57.8,0-92.7-38.4-94.5-139.2
			c-1.7-100.8,35-139.7,92.8-139.7C8928.2,685.8,8964.3,719,8964.3,825.5z M8687.1,825c0,152.4,73.8,205.6,185,205.6
			c111.1,0,183.2-56.8,183.2-205.6c0-148.3-72.7-205.6-184.4-205.6C8759.9,619.3,8687.1,674.9,8687.1,825"/>
		<path id="path18" class="st0" d="M9279.4,832.4c42.4,0,80.2,12.6,80.2,63.6c0,50.4-29.7,59-79,59h-28V832.4H9279.4z
			 M9166.1,1024.9h111.1c122.5,0,173-32.7,173-125.4c0-75.6-38.9-95.7-84.8-109.5v-6.8l12.1-2.3c41.8-15.5,66.4-95.1,92.2-144.9
			v-10.8h-95.7c-18.9,53.3-38.9,134-79,145.5h-42.3V625.1h-86.5L9166.1,1024.9"/>
		<path id="path20" class="st0" d="M9658.2,823.8h31.5c50.4,0,75.6,16,75.6,65.9c0,50.4-25.2,64.7-71.5,64.7h-35.5V823.8z
			 M9571.7,1024.9h108.8c118,0,175.2-27,175.2-129.5c0-102.6-68.1-132.3-154.1-132.3h-43.5v-138h-86.5L9571.7,1024.9"/>
		<path id="path22" class="st0" d="M10207.5,825.5c0,106.5-34.9,139.2-91.6,139.2c-57.9,0-92.8-38.4-94.6-139.2
			c-1.7-100.8,35-139.7,92.9-139.7C10171.5,685.8,10207.5,719,10207.5,825.5L10207.5,825.5z M9930.3,825
			c0,152.4,73.9,205.6,185,205.6s183.3-56.8,183.3-205.6c0-148.3-72.7-205.6-184.4-205.6C10003.1,619.3,9930.3,674.9,9930.3,825"/>
		<path id="path24" class="st0" d="M10522.6,832.4c42.5,0,80.2,12.6,80.2,63.6c0,50.4-29.7,59-79,59h-28V832.4H10522.6z
			 M10409.3,1024.9h111.1c122.6,0,173-32.7,173-125.4c0-75.6-39-95.7-84.8-109.5v-6.8l12.1-2.3c41.8-15.5,66.4-95.1,92.2-144.9
			v-10.8h-95.7c-18.9,53.3-39,134-79.1,145.5h-42.3V625.1h-86.5V1024.9"/>
		<path id="path26" class="st0" d="M11013.1,772.2l-40.1,138l-4.6,22.4h-5.7l-4.6-22.4l-41.8-138H11013.1z M10781.1,634.2
			l142.7,393.5h84.7l149.5-393.5v-9.1h-95.7l-33.2,89.3h-125.4l-29.3-89.3h-93.3V634.2"/>
		<path id="path28" class="st0" d="M11305.3,956.1l-112.3-2.9v71.6h311.7v-71.6l-112.9,2.9v-331h-86.5V956.1"/>
		<path id="path30" class="st0" d="M11596.4,625.1v399.8h86.5V625.1H11596.4"/>
		<path id="path32" class="st0" d="M12062.6,825.5c0,106.5-34.9,139.2-91.6,139.2c-57.8,0-92.8-38.4-94.5-139.2
			c-1.7-100.8,34.9-139.7,92.8-139.7C12026.5,685.8,12062.6,719,12062.6,825.5z M11785.5,825c0,152.4,73.8,205.6,184.9,205.6
			c111.1,0,183.3-56.8,183.3-205.6c0-148.3-72.7-205.6-184.4-205.6C11858.2,619.3,11785.5,674.9,11785.5,825"/>
		<path id="path34" class="st0" d="M12264.4,1024.9h75.5l147.8-210.2l20.6-34.4h5.2v244.6h86.5V625.1h-73.9l-151.8,218.2l-17.2,29.2
			h-6.2V625.1h-86.5L12264.4,1024.9"/>
		<path id="path36" class="st0" d="M2971.3,3742.3l-647.8-2367.6H1947l-457.9,1719.7l-464.7-1719.7H647.8L0,3742.3h373.1
			l461.3-1719.7l464.7,1719.7h369.7l468.1-1719.7l461.3,1719.7H2971.3"/>
		<path id="path38" class="st0" d="M3144,3735.5l373.1,30.5v-580l-6.8-217.1h13.6c172.9,64.5,312.1,95,481.6,95
			c301.9,0,505.4-135.7,505.4-654.6V1374.7h-373.1v1004.1c0,312-152.6,352.7-325.6,352.7c-108.6,0-200.2-23.8-295.1-50.9V1374.7
			H3144L3144,3735.5"/>
		<path id="path40" class="st0" d="M4836.4,3040.2h373.1V1374.7h-373.1V3040.2z M5023,3711.8c193.4,0,223.9-111.9,223.9-237.4
			c0-125.5-40.7-240.9-223.9-240.9c-183.1,0-220.5,115.4-220.5,240.9C4802.5,3599.8,4836.4,3711.8,5023,3711.8"/>
		<path id="path42" class="st0" d="M5524.9,3040.2h254.4l50.9-135.7h23.8c98.3,84.8,254.3,159.4,457.9,159.4c23.7,0,50.9,0,78-3.4
			v-366.3c-67.8,10.1-139,20.3-210.3,20.3c-101.8,0-183.2-23.7-281.5-67.8v-1272h-373.1V3040.2"/>
		<path id="path44" class="st0" d="M6549.2,1374.7v2360.8l373.1,30.5V1374.7H6549.2"/>
		<path id="path46" class="st0" d="M9927.3,2199c0,315.4-50.9,573.2-349.4,573.2c-301.8,0-376.5-247.6-376.5-573.2
			c0-301.9,61.1-563.1,359.6-563.1C9859.5,1635.9,9927.3,1883.5,9927.3,2199z M9574.6,3063.9c529.1,0,732.7-312.1,732.7-864.9
			c0-519-190-858.2-739.5-858.2c-549.5,0-742.8,339.3-742.8,858.2C8824.9,2751.9,9045.4,3063.9,9574.6,3063.9"/>
		<path id="path48" class="st0" d="M11600.3,2199c0,315.4-50.9,573.2-349.3,573.2c-301.9,0-376.6-247.6-376.6-573.2
			c0-301.9,61.1-563.1,359.6-563.1S11600.3,1883.5,11600.3,2199z M11247.6,3063.9c529.1,0,732.7-312.1,732.7-864.9
			c0-519-190-858.2-739.5-858.2s-742.9,339.3-742.9,858.2C10497.9,2751.9,10718.4,3063.9,11247.6,3063.9"/>
		<path id="path50" class="st0" d="M12221.8,1374.7v2360.8l373.1,30.5V1374.7H12221.8"/>
		<path id="path52" class="st0" d="M7600.7,1683.4c105.1-3.3,162.8-6.7,271.3-6.7c230.6,0,383.3,122.1,383.3,607.2
			c0,332.4-135.7,420.5-379.9,420.5c-95,0-183.2-16.8-274.7-47.4V1683.4z M7227.6,3040.2h281.5l30.5-122.1
			c112,61.1,318.8,145.8,505.4,145.8c339.1,0,586.7-247.6,586.7-841.1c0-583.5-261.2-871.8-695.3-871.8
			c-159.8,0-335.8,33.9-335.8,33.9V621.8l-373.1-40.7V3040.2"/>
		<path id="path54" class="st0" d="M9074.7,4063.5c-279,323.3-1164.4,39.1-2152.4-644.7v-172.3
			c870.1,618.5,1637.2,903.9,1856.8,649.3c274.3-317.8-408-1357.3-1524.2-2320.6C6138.7,611.9,5011.1,89.6,4736.8,407.5
			c-142.4,165.1-26.3,524.8,274.2,967.3h-174.7c-372.1-555-511.6-1021.2-320.6-1242.6C4864.1-271.5,6167,280.7,7425.6,1366.8
			C8684,2452.8,9423,3659.9,9074.7,4063.5"/>
	</g>
</g>
</svg>
