<svg width="246" height="45" viewBox="0 0 246 45" fill="none" xmlns="http://www.w3.org/2000/svg">
<path d="M38.6022 14.2079C39.2911 14.2027 39.969 14.3813 40.5662 14.725C41.6002 15.19 42.7362 15.7591 44.2352 16.4821C44.2352 16.4821 46.6122 14.777 46.7672 14.673C46.9069 14.5579 47.0704 14.4751 47.246 14.4306C47.4215 14.3861 47.6048 14.3808 47.7825 14.4154C47.9603 14.45 48.1282 14.5234 48.2742 14.6305C48.4203 14.7376 48.5407 14.8759 48.6271 15.0351C50.0265 17.711 51.1683 20.5138 52.0372 23.4059C52.0742 23.5212 52.0874 23.643 52.076 23.7636C52.0647 23.8842 52.0289 24.001 51.9709 24.1073C51.9129 24.2137 51.8339 24.3071 51.7387 24.382C51.6435 24.4569 51.5342 24.5116 51.4172 24.5429C50.9094 24.6758 50.3905 24.7625 49.8671 24.8019C48.9891 24.9019 49.0402 25.6289 49.0402 26.0419V31.3129C49.0303 31.7416 48.9351 32.1641 48.7603 32.5556C48.5854 32.9471 48.3342 33.3 48.0215 33.5934C47.7089 33.8868 47.3409 34.1149 46.939 34.2646C46.5372 34.4142 46.1096 34.4824 45.6812 34.465H39.2731C38.148 34.4665 37.0662 34.0307 36.2563 33.2497C35.4463 32.4686 34.9716 31.4035 34.9321 30.279V17.7741C34.9351 17.2979 35.0328 16.8269 35.2195 16.3888C35.4062 15.9508 35.6782 15.5542 36.0197 15.2223C36.3611 14.8904 36.7652 14.6299 37.2084 14.4557C37.6516 14.2816 38.1251 14.1973 38.6011 14.2079" fill="white"/>
<path d="M28.473 34.4651H7.75099V36.79H32.09C32.6418 35.4258 32.9397 33.9722 32.969 32.501V16.843C32.9245 15.938 33.2086 15.0475 33.7689 14.3354C34.3292 13.6234 35.1279 13.1377 36.018 12.968C36.07 12.968 36.173 12.916 36.225 12.916C42.5011 11.559 49.0412 12.1357 54.983 14.5701C55.758 14.9321 55.913 14.311 55.861 14.053C55.8899 12.033 55.118 10.0838 53.7139 8.63135C52.3098 7.17891 50.3878 6.34144 48.368 6.302C45.9052 6.2004 43.4652 6.81046 41.34 8.05908C41.288 8.11108 41.185 8.05898 41.082 7.95898C39.9121 6.88852 38.5173 6.09379 37 5.63306C36.742 5.58206 36.69 5.16797 37 5.16797C39.8235 4.86535 42.6752 4.95253 45.475 5.427C45.785 5.479 46.043 5.27216 45.888 5.01416C45.788 4.80716 45.733 4.70404 45.578 4.34204C45.3224 3.89722 44.9805 3.50794 44.5723 3.19727C44.1641 2.88659 43.6978 2.66072 43.201 2.53296C39.0936 1.50961 34.877 0.989324 30.644 0.983154C26.6829 1.01113 22.735 1.44404 18.862 2.27515C18.552 2.32715 18.087 2.48193 17.984 2.48193C17.9274 2.48861 17.8736 2.5105 17.8284 2.54517C17.7831 2.57983 17.748 2.62603 17.7269 2.67896C17.7057 2.73188 17.6991 2.78963 17.708 2.84595C17.7168 2.90227 17.7406 2.95512 17.777 2.99902L18.294 3.51611C18.3455 3.57353 18.385 3.64051 18.4103 3.71338C18.4356 3.78624 18.4462 3.86345 18.4413 3.94043C18.4365 4.01741 18.4164 4.09274 18.3822 4.16187C18.3479 4.23099 18.3003 4.2925 18.242 4.34302L8.842 12.7661H15.301C15.5185 12.7719 15.7255 12.8608 15.8793 13.0146C16.0332 13.1685 16.1222 13.3755 16.128 13.593C16.1249 13.8026 16.0438 14.0036 15.9005 14.1565C15.7571 14.3094 15.5619 14.4035 15.353 14.4202H6.98199L4.45 16.7461H15.405C15.6105 16.7711 15.8007 16.8673 15.9424 17.0183C16.084 17.1693 16.1681 17.3653 16.18 17.572C16.1776 17.7818 16.0967 17.9831 15.9532 18.1362C15.8098 18.2893 15.6142 18.3832 15.405 18.3992H2.584L0 20.7761H22.117C22.3227 20.8011 22.513 20.8976 22.6547 21.0488C22.7964 21.2 22.8804 21.3962 22.892 21.603C22.8999 21.7118 22.8859 21.821 22.8511 21.9243C22.8162 22.0276 22.7611 22.1231 22.6889 22.2048C22.6167 22.2866 22.529 22.3532 22.4308 22.4006C22.3326 22.4481 22.2259 22.4753 22.117 22.481H0V24.8071H22.065C22.1741 24.8123 22.281 24.8392 22.3795 24.8865C22.4779 24.9337 22.5659 25.0002 22.6382 25.082C22.7105 25.1639 22.7656 25.2595 22.8002 25.363C22.8349 25.4666 22.8484 25.5762 22.84 25.6851C22.8231 25.8939 22.7291 26.0889 22.5762 26.2322C22.4233 26.3755 22.2225 26.4567 22.013 26.46H0V28.7852H28.835C28.9439 28.7909 29.0506 28.818 29.1488 28.8655C29.247 28.9129 29.3347 28.9795 29.4069 29.0613C29.4791 29.143 29.5342 29.2385 29.5691 29.3418C29.6039 29.4451 29.6178 29.5543 29.61 29.6631C29.6069 29.8727 29.5258 30.0736 29.3825 30.2266C29.2391 30.3795 29.0439 30.4733 28.835 30.49H7.75099V32.8149H28.886C29.0937 32.8461 29.2825 32.9531 29.416 33.1152C29.5495 33.2774 29.6182 33.4833 29.609 33.6931C29.6078 33.8948 29.5342 34.0894 29.4014 34.2412C29.2687 34.3931 29.0857 34.4919 28.886 34.52L28.473 34.4651ZM15.503 42.4231V44.8H20.408C23.0081 44.7807 25.5372 43.9497 27.642 42.4231H15.503ZM15.503 38.4441V40.769H29.608C30.277 40.0732 30.8504 39.2914 31.313 38.4441H15.503ZM242.615 24.1821V24.082C242.535 22.4263 242.018 20.8214 241.115 19.4312C240.19 18.0553 238.921 16.9451 237.434 16.2109C235.948 15.4768 234.295 15.1443 232.64 15.2461C230.984 15.1384 229.329 15.4683 227.842 16.2029C226.354 16.9375 225.086 18.051 224.165 19.4312C223.24 20.8107 222.72 22.4219 222.665 24.082V24.1821C222.148 30.1761 225.665 34.3621 231.656 34.8271C231.999 34.8684 232.344 34.8853 232.689 34.8779C233.034 34.8865 233.38 34.8697 233.723 34.8271C239.614 34.3621 243.076 30.2271 242.611 24.1821M233.051 32.0371H232.121C231.33 31.95 230.579 31.6456 229.951 31.158C229.766 30.9988 229.593 30.8261 229.434 30.6411C228.528 29.4225 227.99 27.9698 227.884 26.4551C227.626 23.1991 228.246 18.445 232.225 18.135H232.948C236.927 18.445 237.599 23.1991 237.34 26.4551C237.282 27.9798 236.739 29.4461 235.79 30.6411C235.631 30.8261 235.458 30.9988 235.273 31.158C234.616 31.6292 233.853 31.9313 233.051 32.0371ZM202.925 19.7371C202.925 18.2371 203.08 15.655 203.08 15.655H198.171C198.171 15.655 198.326 18.2901 198.326 19.7371V30.437C198.326 31.937 198.171 34.468 198.171 34.468H203.028C203.028 34.468 202.873 31.936 202.873 30.437L202.925 19.7371ZM174.297 31.519H170.886C170.834 29.607 170.834 27.798 170.834 26.145V25.887V25.835H176.467V23.2H170.838C170.838 20.358 170.89 18.446 170.89 18.446H177.918V15.604H165.929C165.929 15.604 166.029 18.187 166.029 19.686V30.386C166.029 31.73 165.929 34.055 165.929 34.469H178.383V31.469C178.435 31.469 175.954 31.52 174.301 31.52M92.758 31.52H89.347C89.295 29.608 89.295 27.799 89.295 26.146V25.8879V25.8359H94.928V23.1492H89.295C89.295 20.3072 89.347 18.396 89.347 18.396H96.375V15.554H84.385C84.385 15.554 84.485 18.138 84.485 19.636V30.384C84.485 31.728 84.385 34.053 84.385 34.467H96.839V31.467C96.839 31.467 94.359 31.5181 92.757 31.5181M190.32 24.335L195.746 15.6541H192.025L191.973 15.7542C190.836 17.7182 189.441 20.0951 188.873 20.9731L188.666 21.335L185.514 15.5991H179.881L185.307 25.366L179.674 34.4609H183.395C185.824 30.3269 187.064 28.467 187.064 28.467L190.423 34.4609H196.008L190.32 24.335ZM218.173 31.8792C213.832 31.8792 211.455 28.679 211.61 24.748C211.71 21.338 213.264 18.392 217.036 18.134C218.597 18.0902 220.153 18.3176 221.636 18.8062L221.429 15.8601C220.079 15.4971 218.692 15.2889 217.295 15.24C214.195 15.14 211.404 15.705 209.13 17.772C208.133 18.6864 207.335 19.7959 206.784 21.0315C206.234 22.2671 205.943 23.6025 205.93 24.9551C205.911 26.3758 206.212 27.7824 206.812 29.0706C207.411 30.3588 208.293 31.4954 209.392 32.396C211.717 34.36 214.249 34.825 217.192 34.825C218.883 34.8513 220.57 34.6428 222.204 34.2051L221.894 31.311C220.696 31.7152 219.437 31.9075 218.173 31.8792ZM155.336 12.811H160.762L160.917 14.051C162.157 26.608 162.881 34.4631 162.881 34.4631H157.197L156.629 26.6631L156.112 19.687L151.306 34.415H148.257C148.257 34.415 146.757 29.1961 146.448 28.4211L143.708 19.582C143.708 19.582 143.295 24.4911 143.14 26.6101C142.83 30.8471 142.52 34.4102 142.52 34.4102H138.283C138.283 34.4102 140.04 16.7891 140.143 15.7041C140.298 14.6191 140.505 12.7041 140.505 12.7041H146.086L150.686 25.364L155.336 12.811ZM136.01 24.231V24.1311C135.93 22.4756 135.413 20.8708 134.51 19.481C132.753 16.742 129.704 15.2952 126.035 15.3472C122.366 15.2952 119.317 16.747 117.56 19.481C116.635 20.8601 116.115 22.4713 116.06 24.1311V24.231C115.543 30.225 119.06 34.359 125 34.824C125.343 34.8659 125.689 34.8832 126.034 34.876C126.379 34.8845 126.725 34.8671 127.068 34.824C133.011 34.359 136.468 30.224 136.008 24.231M126.5 32.031H125.57C124.779 31.9446 124.028 31.6408 123.4 31.1531C123.215 30.9939 123.042 30.821 122.883 30.636C121.977 29.4173 121.439 27.9647 121.333 26.45C121.075 23.194 121.695 18.4922 125.674 18.1812H126.397C130.376 18.4912 130.997 23.245 130.738 26.45C130.665 27.9633 130.143 29.4206 129.238 30.636C129.079 30.821 128.906 30.9939 128.721 31.1531C128.059 31.6158 127.298 31.9165 126.499 32.031M83.199 34.46C83.044 34.046 82.01 31.669 81.287 29.76L74.931 12.8101H69.968C69.968 12.8101 68.568 16.7889 68.368 17.4609L63.717 30.5859C63.097 32.2919 62.27 34.4622 62.27 34.4622H66.301C66.301 34.4622 67.438 30.7931 67.701 30.1731L68.321 28.364H75.349L76.331 31.155C76.538 31.672 77.365 34.4622 77.365 34.5142L83.199 34.46ZM69.35 25.21L71.727 18.1821L71.882 17.769L74.362 25.21H69.35ZM116.323 34.46C115.134 32.806 114.723 32.083 113.843 30.843L110.484 25.572C111.46 25.1537 112.296 24.464 112.891 23.5845C113.487 22.705 113.817 21.6729 113.843 20.6111C113.896 19.931 113.803 19.2475 113.571 18.606C113.34 17.9644 112.974 17.3796 112.499 16.8901C111.747 16.2033 110.778 15.8009 109.76 15.7529C108.882 15.6529 108.21 15.6531 107.693 15.5981H99.735C99.735 15.5981 99.835 18.1809 99.835 19.6799V30.325C99.835 31.825 99.735 34.408 99.735 34.408H104.644C104.644 34.408 104.489 31.825 104.489 30.325L104.541 26.915H106.35L109.45 32.5991C109.863 33.3221 110.484 34.199 110.587 34.459L116.323 34.46ZM107.642 23.918C106.599 24.1952 105.512 24.2656 104.442 24.125L104.494 18.751L104.959 18.699C105.986 18.5829 107.026 18.6887 108.008 19.009C108.375 19.1912 108.677 19.4828 108.871 19.8438C109.066 20.2047 109.143 20.6173 109.093 21.0242C109.202 21.5984 109.119 22.1923 108.858 22.7151C108.596 23.2378 108.171 23.6603 107.646 23.918M242.098 32.6021C242.097 32.3575 242.144 32.1151 242.237 31.8889C242.331 31.6628 242.467 31.4574 242.64 31.2844C242.813 31.1115 243.019 30.9747 243.245 30.8816C243.471 30.7885 243.713 30.7409 243.958 30.7419C244.203 30.7409 244.445 30.7885 244.671 30.8816C244.897 30.9747 245.103 31.1115 245.276 31.2844C245.448 31.4574 245.585 31.6628 245.679 31.8889C245.772 32.1151 245.819 32.3575 245.818 32.6021C245.819 32.8466 245.771 33.0889 245.678 33.3149C245.585 33.541 245.448 33.7465 245.275 33.9194C245.102 34.0923 244.897 34.2291 244.671 34.3223C244.445 34.4154 244.203 34.4631 243.958 34.4622C243.713 34.4631 243.471 34.4154 243.245 34.3223C243.019 34.2291 242.814 34.0923 242.641 33.9194C242.468 33.7465 242.331 33.541 242.238 33.3149C242.145 33.0889 242.097 32.8466 242.098 32.6021ZM245.354 32.6021C245.365 32.4105 245.338 32.2186 245.273 32.0381C245.208 31.8575 245.107 31.692 244.976 31.5518C244.845 31.4115 244.687 31.2992 244.511 31.2219C244.335 31.1446 244.146 31.1039 243.954 31.1021C243.762 31.1039 243.573 31.1446 243.397 31.2219C243.221 31.2992 243.063 31.4115 242.932 31.5518C242.801 31.692 242.7 31.8575 242.635 32.0381C242.57 32.2186 242.543 32.4105 242.554 32.6021C242.543 32.7936 242.57 32.9855 242.635 33.166C242.7 33.3466 242.801 33.5121 242.932 33.6523C243.063 33.7926 243.221 33.9049 243.397 33.9822C243.573 34.0595 243.762 34.1002 243.954 34.1021C244.146 34.1002 244.335 34.0595 244.511 33.9822C244.687 33.9049 244.845 33.7926 244.976 33.6523C245.107 33.5121 245.208 33.3466 245.273 33.166C245.338 32.9855 245.365 32.7936 245.354 32.6021ZM243.235 31.5691H244.01C244.527 31.5691 244.785 31.724 244.785 32.189C244.785 32.551 244.578 32.7061 244.217 32.7581L244.785 33.688H244.372L243.804 32.7581H243.546V33.688H243.133V31.5691H243.235ZM243.597 32.447H243.959C244.166 32.447 244.372 32.395 244.372 32.137C244.372 31.879 244.165 31.8271 243.959 31.8271H243.597V32.447Z" fill="white"/>
<path d="M190.403 40.1312C153.855 32.1822 138.266 44.6732 138.266 44.6732C138.266 44.6732 155.301 34.6071 190.403 42.2471C226.228 50.0421 242.54 37.4981 242.54 37.4981C242.54 37.4981 224.318 47.5642 190.403 40.1312Z" fill="white"/>
</svg>
