<svg id="Layer_1" data-name="Layer 1" xmlns="http://www.w3.org/2000/svg" viewBox="0 0 2078.59 1317.1"><defs><style>.cls-1,.cls-2{fill:#fff;}.cls-1{fill-rule:evenodd;}</style></defs><title>fargo3</title><path class="cls-1" d="M-2488.3,1735.9c5.8,5.8,9.2,15,9.2,26.6v3.5h-53.2c1.1,8.1,3.5,13.9,6.9,18.5a19.12,19.12,0,0,0,13.9,5.8,19.34,19.34,0,0,0,11.6-3.5c3.5-2.3,5.8-5.8,6.9-11.6l12.7,2.3c-1.2,6.9-4.6,12.7-10.4,16.2a39.64,39.64,0,0,1-20.8,5.8c-10.4,0-18.5-3.5-24.3-9.3s-9.3-15-9.3-26.6,3.5-20.8,9.3-27.8c5.8-5.8,13.9-9.3,24.3-9.3A32.87,32.87,0,0,1-2488.3,1735.9Z" transform="translate(2621.3 -507.8)"/><rect class="cls-2" x="156.1" y="1193.4" width="11.6" height="97.1"/><path class="cls-1" d="M-2339.1,1744c-2.3-5.8-5.8-9.2-10.4-12.7s-10.4-4.6-16.2-4.6c-4.6,0-8.1,1.2-11.6,2.3l-9.3,8.1v-9.3H-2397v97.1h11.5v-33.5l8.1,5.8,10.4,2.3a28.66,28.66,0,0,0,16.2-4.6c4.6-3.5,8.1-6.9,10.4-12.7,3.5-5.8,4.6-12.7,4.6-19.7A48,48,0,0,0-2339.1,1744Zm-15.1,39.3a16.57,16.57,0,0,1-13.9,6.9c-4.6,0-9.3-2.3-12.7-6.9-3.5-3.5-5.8-10.4-5.8-19.7s2.3-16.2,5.8-20.8a16.57,16.57,0,0,1,13.9-6.9c5.8,0,9.3,2.3,12.7,6.9,3.5,3.5,5.8,10.4,5.8,19.7S-2350.7,1778.7-2354.2,1783.3Z" transform="translate(2621.3 -507.8)"/><path class="cls-1" d="M-2265.1,1790.3c-1.2-3.5-1.2-10.4-1.2-20.8v-27.8l-4.6-8.1c-1.2-2.3-4.6-4.6-8.1-5.8l-13.9-1.2a71,71,0,0,0-16.2,2.3,17.28,17.28,0,0,0-10.4,6.9c-3.5,3.5-4.6,7-5.8,11.6l11.6,2.3c1.2-5.8,3.5-9.3,5.8-10.4,3.5-2.3,6.9-3.5,12.7-3.5s10.4,1.1,13.9,4.6c2.3,1.1,3.5,4.6,3.5,10.4v2.3c-4.6,1.1-11.6,3.5-22,4.6l-10.4,1.2-8.1,4.6a10.37,10.37,0,0,0-6.9,6.9,22.71,22.71,0,0,0-2.3,9.3c0,5.8,2.3,11.5,6.9,15,3.5,3.5,9.3,4.6,17.3,4.6l13.9-2.3,12.7-6.9c0,3.5,1.2,5.8,2.3,8.1h11.6A15.37,15.37,0,0,1-2265.1,1790.3Zm-12.7-23.1a37,37,0,0,1-2.3,12.7c-1.2,3.5-4.6,5.8-8.1,8.1a33.2,33.2,0,0,1-11.6,2.3c-4.6,0-8.1-1.2-11.6-2.3a10.51,10.51,0,0,1-3.5-8.1l2.3-5.8,4.6-4.6,10.4-2.3c8.1-1.1,15-2.3,19.7-4.6v4.6Z" transform="translate(2621.3 -507.8)"/><path class="cls-1" d="M-2594.7,884.8h-1.2v-4.6q0-45.15,31.2-76.3c20.8-20.8,46.3-31.2,76.3-31.2v1.2h240.6V961.2h-167.7v43.9h120.3v145.7h-120.3v301.8h-179.2V884.8Z" transform="translate(2621.3 -507.8)"/><path class="cls-1" d="M-2194.6,1734.8l3.5,8.1v55.5h-11.6v-42.8c0-4.6,0-8.1-1.2-11.6a8.63,8.63,0,0,0-4.6-4.6l-9.3-2.3c-4.6,0-9.3,1.2-12.7,4.6s-5.8,9.3-5.8,18.5v38.2h-11.6v-70.5h10.4v10.4c5.8-8.1,12.7-11.6,23.1-11.6l11.6,2.3Z" transform="translate(2621.3 -507.8)"/><path class="cls-1" d="M-2089.4,1701.2v34.7c-2.3-3.5-4.6-5.8-8.1-6.9l-11.6-2.3c-5.8,0-11.6,1.2-16.2,4.6s-8.1,6.9-10.4,12.7l-3.5,19.7a47.17,47.17,0,0,0,3.5,18.5,41.4,41.4,0,0,0,11.6,12.7c4.6,3.5,9.2,4.6,15,4.6,9.3,0,16.2-3.5,19.7-10.4v9.3h11.6v-97.1h-11.6Zm-4.5,82.1a16.57,16.57,0,0,1-13.9,6.9c-4.6,0-9.3-2.3-12.7-6.9s-5.8-11.6-5.8-19.7c0-9.2,1.1-16.2,4.6-20.8a16.57,16.57,0,0,1,13.9-6.9,16.57,16.57,0,0,1,13.9,6.9c3.5,4.6,5.8,11.6,5.8,20.8S-2090.5,1779.9-2093.9,1783.3Z" transform="translate(2621.3 -507.8)"/><path class="cls-1" d="M-1998,1762.5c0-11.6-3.5-20.8-9.3-26.6a32.3,32.3,0,0,0-23.1-9.3c-10.4,0-18.5,3.5-24.3,9.3-5.8,6.9-9.3,16.2-9.3,27.8s3.5,20.8,9.3,26.6,13.9,9.3,24.3,9.3a39.64,39.64,0,0,0,20.8-5.8c5.8-3.5,9.3-9.3,10.4-16.2l-12.7-2.3c-1.2,5.8-3.5,9.2-6.9,11.6a19.66,19.66,0,0,1-11.6,3.5,19.12,19.12,0,0,1-13.9-5.8c-3.5-4.6-5.8-10.4-6.9-18.5h53.2v-3.6Zm-52-5.8c0-5.8,2.3-11.6,5.8-15a19.52,19.52,0,0,1,13.9-5.8c5.8,0,11.5,2.3,15,6.9,2.3,3.5,3.5,8.1,4.6,13.9Z" transform="translate(2621.3 -507.8)"/><rect class="cls-2" x="638.3" y="1193.4" width="11.6" height="97.1"/><path class="cls-1" d="M-1869.6,1701.2v34.7c-2.3-3.5-4.6-5.8-8.1-6.9l-11.6-2.3c-5.8,0-11.6,1.2-16.2,4.6s-8.1,6.9-10.4,12.7l-3.5,19.7a47.17,47.17,0,0,0,3.5,18.5,41.4,41.4,0,0,0,11.6,12.7c4.6,3.5,9.3,4.6,15,4.6,9.2,0,16.2-3.5,19.7-10.4v9.3h11.6v-97.1h-11.6Zm-4.7,82.1a16.57,16.57,0,0,1-13.9,6.9c-4.6,0-9.2-2.3-12.7-6.9s-5.8-11.6-5.8-19.7c0-9.2,1.2-16.2,4.6-20.8a16.57,16.57,0,0,1,13.9-6.9,16.57,16.57,0,0,1,13.9,6.9c3.5,4.6,5.8,11.6,5.8,20.8S-1870.8,1779.9-1874.3,1783.3Z" transform="translate(2621.3 -507.8)"/><rect class="cls-2" x="785.2" y="1220" width="12.7" height="70.5"/><polygon class="cls-1" points="793.3 1192.3 809.5 1192.3 794.5 1210.8 785.2 1210.8 793.3 1192.3"/><path class="cls-1" d="M-1743.6,1790.3c-1.2-3.5-1.2-10.4-1.2-20.8v-27.8l-4.6-8.1c-1.2-2.3-4.6-4.6-8.1-5.8l-13.9-1.2a71,71,0,0,0-16.2,2.3,17.28,17.28,0,0,0-10.4,6.9c-3.5,3.5-4.6,7-5.8,11.6l11.6,2.3c1.1-5.8,3.5-9.3,5.8-10.4,3.5-2.3,6.9-3.5,12.7-3.5s10.4,1.1,13.9,4.6c2.3,1.1,3.5,4.6,3.5,10.4v2.3c-4.6,1.1-11.6,3.5-22,4.6l-10.4,1.2-8.1,4.6a10.37,10.37,0,0,0-6.9,6.9,21.23,21.23,0,0,0-2.3,9.3c0,5.8,2.3,11.5,6.9,15,3.5,3.5,9.3,4.6,17.4,4.6l13.9-2.3,12.7-6.9a16.14,16.14,0,0,0,2.3,8.1h11.6A15.38,15.38,0,0,1-1743.6,1790.3Zm-12.7-23.1a34.72,34.72,0,0,1-2.3,12.7c-1.2,3.5-4.6,5.8-8.1,8.1a33.2,33.2,0,0,1-11.6,2.3c-4.6,0-8.1-1.2-11.6-2.3a10.33,10.33,0,0,1-3.5-8.1l2.3-5.8,4.6-4.6,10.4-2.3c8.1-1.1,15-2.3,19.7-4.6v4.6Z" transform="translate(2621.3 -507.8)"/><path class="cls-1" d="M-1732,914.9c-62.4-15-112.2-40.5-148-76.3q85.05-29.55,215.1-3.5c15,10.4,13.9,31.2-3.5,64.8C-1673.1,916-1693.9,920.7-1732,914.9Z" transform="translate(2621.3 -507.8)"/><path class="cls-1" d="M-1562,1526.6l2.3,10.4v1.2c-4.6,22-39.3,37-104.1,42.8l-196.6,12.7h-43.9l-40.5,2.3-30.1,2.3-609.4,31.2c-20.8-1.2-33.5-11.6-37-33.5v-1.2c5.8-22,20.8-35.9,47.4-42.8l57.8-8.1,20.8-3.5,25.4-4.6,28.9-4.6h5.8l64.8-4.6,65.9-3.5h24.3l10.4-1.2,16.2-3.5,59-4.6,13.9-1.2h57.8l63.6-1.1,27.8-1.2,37-1.1,40.5-2.3,23.1-2.3,56.7-1.2h91.3l4.6,2.3,9.3,2.3,23.1,3.5,57.8,6.9,26.6,2.3,18.5,1.2,57.8,1.2,4.6-1.2,15.1,1.2Z" transform="translate(2621.3 -507.8)"/><path class="cls-1" d="M-1669.6,637.3l-6.9-25.4,33.5,25.4c54.3,40.5,89,72.8,105.2,97.1,16.2,26.6,10.4,45.1-18.5,55.5-26.6,19.7-46.3,20.8-59,4.6C-1621,796.9-1638.3,744.9-1669.6,637.3Z" transform="translate(2621.3 -507.8)"/><path class="cls-1" d="M-1440.6,690.5c1.2-15,4.7-32.4,10.4-53.2,9.2-33.5,25.4-77.5,47.4-129.5,22,37,39.3,79.8,49.7,129.5,3.5,22,6.9,43.9,9.3,68.2q-1.8,39.9-62.4,38.2C-1419.8,744.9-1438.3,726.4-1440.6,690.5Z" transform="translate(2621.3 -507.8)"/><path class="cls-1" d="M-1247.5,736.8c12.7-25.4,52-59,117.9-99.4,27.8-17.3,60.1-37,98.3-56.7l-10.4,56.7c-15,59-38.1,108.7-70.5,148l-23.1,24.3c-19.7,15-47.4,10.4-82.1-12.7l-20.8-11.6C-1256.8,770.3-1260.2,754.1-1247.5,736.8Z" transform="translate(2621.3 -507.8)"/><path class="cls-1" d="M-911,785.4l98.3-17.3-12.7,17.3A1093.41,1093.41,0,0,1-939.9,916.1l-24.3,23.1-22,20.8c-25.5,17.3-50.9,10.4-77.5-20.8l-11.6-15-5.8-8.1c-13.9-24.3-13.9-48.6-1.1-72.9C-1070.6,824.7-1013.9,805-911,785.4Z" transform="translate(2621.3 -507.8)"/><path class="cls-1" d="M-715.5,1062.9c-45.1-45.1-100.6-67.1-164.2-67.1-64.8,0-119.1,22-164.2,67.1s-68.2,100.6-68.2,164.2c0,33.5,5.8,63.6,17.3,91.4-23.1,15-39.3,12.7-48.6-8.1h0V1015.5H-1288v22q-46.8-25.95-104.1-24.3c-61.3-1.1-112.2,20.8-154.9,63.6s-64.7,94.8-64.7,155q0,46.8,17.3,86.7c-12.7,9.3-24.3,5.8-37-9.3l-1.2-17.3V1075.6c1.2-3.5,1.2-8.1,1.2-13.9,0-15.1-5.8-26.6-16.2-37-8.1-8.1-17.3-13.9-27.8-15v-2.3h-148a76.81,76.81,0,0,0-22-32.4,88,88,0,0,0-63.6-26.6c-25.4,0-47.4,9.3-64.8,26.6-18.5,17.3-27.8,39.3-26.6,64.8-1.2,24.3,8.1,46.3,26.6,64.8l1.1,1.2v148l-2.3,57.8c-15,17.3-28.9,18.5-42.8,2.3V1067.6l1.1-10.4c0-15-4.6-26.6-15-37s-22-15-35.8-13.9h-6.9v-1.1h-172.3v145.7h84.4v28.9c-19.6-10.4-42.8-15-67.1-15-41.6,0-77.5,15-106.4,43.9-30.1,28.9-45.1,64.8-43.9,106.4-1.2,42.8,13.9,78.7,43.9,107.6,28.9,28.9,64.8,43.9,106.4,43.9s77.5-15,107.5-43.9l2.3-3.5,3.5,3.5,4.6,3.5,2.3,3.5a286,286,0,0,0,37,27.8l10.4,4.6c20.8,9.3,44,13.9,68.2,13.9,45.1,0,84.4-16.2,118-49.7,32.4-32.4,48.6-71.7,48.6-116.8V1293l-1.2-1.2h2.3V1155.3h44v139.9l1.2,38.2,1.2,9.3c3.5,25.4,19.7,53.2,48.6,82.1,32.4,33.5,71.7,49.7,117.9,49.7,34.7,0,65.9-9.3,92.5-27.8q-13.95,33-13.9,72.8c0,54.3,19.7,100.6,57.8,138.8s84.4,57.8,138.8,57.8,101.8-19.7,139.9-57.8,56.7-84.4,57.8-138.8l-3.5-38.2V1463c60.1,5.8,107.5-6.9,141.1-38.2v1.2c35.8,22,77.5,33.5,122.6,33.5,63.6,0,119.1-23.1,164.2-68.2s68.2-100.6,68.2-164.2C-647.3,1163.5-670.4,1108-715.5,1062.9Zm-1461.7,268.3c-5.8,5.8-12.7,8.1-20.8,8.1s-13.9-2.3-19.7-8.1-9.3-12.7-9.3-20.8,3.5-15,9.3-20.8,11.6-8.1,19.7-8.1,15,2.3,20.8,8.1,8.1,12.7,8.1,20.8S-2171.4,1325.4-2177.2,1331.2Zm867.3,210.4c-8.1,8.1-16.2,11.6-26.6,11.6s-18.5-3.5-26.6-11.6-11.6-16.2-10.4-26.6a29.23,29.23,0,0,1,10.4-26.6c8.1-8.1,16.2-11.6,26.6-10.4,10.4-1.2,18.5,2.3,26.6,10.4,8.1,6.9,11.6,16.2,11.6,26.6S-1301.8,1533.6-1309.9,1541.6Zm-5.8-250.9c-16.2,16.2-35.8,24.3-57.8,24.3s-41.6-8.1-59-24.3c-15-15-23.1-34.7-23.1-57.8,0-22,8.1-41.6,23.1-57.8q25.95-24.3,59-24.3c22,0,41.6,8.1,57.8,24.3s24.3,35.8,24.3,57.8C-1291.4,1256-1299.5,1275.7-1315.7,1290.7Zm494.9,1.2c-16.2,16.2-35.9,24.3-57.8,24.3q-34.65,0-59-24.3c-16.2-16.2-24.3-35.8-24.3-59s8.1-42.8,24.3-59,35.8-24.3,59-24.3c22,0,41.6,8.1,57.8,24.3,17.3,16.2,25.4,35.9,25.4,59S-803.5,1275.7-820.8,1291.9Z" transform="translate(2621.3 -507.8)"/><path class="cls-1" d="M-543.3,1622.6h-1.2c-5.8,9.3-19.7,15-44,16.2l-49.7-1.2c-276.4-10.4-431.3-24.3-463.7-41.6v1.2l-1.2-2.3-2.3-2.3-4.6-11.6-3.5-5.8-1.2-2.3c-2.3-4.6-3.5-10.4-3.5-18.5l10.4-9.3,2.3-1.2c5.8-3.5,11.6-5.8,18.5-4.6h3.5a135.65,135.65,0,0,1,31.2,0l19.7,1.2,30.1,1.2,31.2,2.3,17.4,1.2h6.9l9.2,1.2,22,2.3,28.9,2.3,31.2,2.3,16.2,1.2,32.4,4.6,31.2,5.8h8.1l8.1,2.3,11.5,2.3h1.2l6.9,2.3,4.6,1.2,6.9,1.2,9.3,3.4,16.2,3.5,13.9,2.3,9.2,2.3,12.7,2.3,18.5,2.3,31.2,3.5,3.5,1.2,15,3.5,8.1,2.3,6.9,1.2C-554.8,1605.3-540.9,1612.2-543.3,1622.6Z" transform="translate(2621.3 -507.8)"/><path class="cls-1" d="M-2247.8,961.1V773.8h-240.6v-1.2q-45.15,0-76.3,31.2c-20.8,20.8-31.2,46.3-31.2,76.3v4.6h1.2v567.8h179.2V1150.7h120.3V1005h-120.3V961.1Zm1532.3,101.8c-45.1-45.1-100.6-67.1-164.2-67.1-64.8,0-119.1,22-164.2,67.1s-68.2,100.6-68.2,164.2c0,33.5,5.8,63.6,17.3,91.4-23.1,15-39.3,12.7-48.6-8.1h0V1015.5H-1288v22q-46.8-25.95-104.1-24.3c-61.3-1.1-112.2,20.8-154.9,63.6s-64.7,94.8-64.7,155q0,46.8,17.3,86.7c-12.7,9.3-24.3,5.8-37-9.3l-1.2-17.3V1075.6c1.2-3.5,1.2-8.1,1.2-13.9,0-15.1-5.8-26.6-16.2-37-8.1-8.1-17.3-13.9-27.8-15v-2.3h-148a76.81,76.81,0,0,0-22-32.4,88,88,0,0,0-63.6-26.6c-25.4,0-47.4,9.3-64.8,26.6-18.5,17.3-27.8,39.3-26.6,64.8-1.2,24.3,8.1,46.3,26.6,64.8l1.1,1.2v148l-2.3,57.8c-15,17.3-28.9,18.5-42.8,2.3V1067.6l1.1-10.4c0-15-4.6-26.6-15-37s-22-15-35.8-13.9h-6.9v-1.1h-172.3v145.7h84.4v28.9c-19.6-10.4-42.8-15-67.1-15-41.6,0-77.5,15-106.4,43.9-30.1,28.9-45.1,64.8-43.9,106.4-1.2,42.8,13.9,78.7,43.9,107.6,28.9,28.9,64.8,43.9,106.4,43.9s77.5-15,107.5-43.9l2.3-3.5,3.5,3.5,4.6,3.5,2.3,3.5a286,286,0,0,0,37,27.8l10.4,4.6c20.8,9.3,44,13.9,68.2,13.9,45.1,0,84.4-16.2,118-49.7,32.4-32.4,48.6-71.7,48.6-116.8V1293l-1.2-1.2h2.3V1155.3h44v139.9l1.2,38.2,1.2,9.3c3.5,25.4,19.7,53.2,48.6,82.1,32.4,33.5,71.7,49.7,117.9,49.7,34.7,0,65.9-9.3,92.5-27.8q-13.95,33-13.9,72.8c0,54.3,19.7,100.6,57.8,138.8s84.4,57.8,138.8,57.8,101.8-19.7,139.9-57.8,56.7-84.4,57.8-138.8l-3.5-38.2V1463c60.1,5.8,107.5-6.9,141.1-38.2v1.2c35.8,22,77.5,33.5,122.6,33.5,63.6,0,119.1-23.1,164.2-68.2s68.2-100.6,68.2-164.2C-647.3,1163.5-670.4,1108-715.5,1062.9Zm-1461.7,268.3c-5.8,5.8-12.7,8.1-20.8,8.1s-13.9-2.3-19.7-8.1-9.3-12.7-9.3-20.8,3.5-15,9.3-20.8,11.6-8.1,19.7-8.1,15,2.3,20.8,8.1,8.1,12.7,8.1,20.8S-2171.4,1325.4-2177.2,1331.2Zm867.3,210.4c-8.1,8.1-16.2,11.6-26.6,11.6s-18.5-3.5-26.6-11.6-11.6-16.2-10.4-26.6a29.23,29.23,0,0,1,10.4-26.6c8.1-8.1,16.2-11.6,26.6-10.4,10.4-1.2,18.5,2.3,26.6,10.4,8.1,6.9,11.6,16.2,11.6,26.6S-1301.8,1533.6-1309.9,1541.6Zm-5.8-250.9c-16.2,16.2-35.8,24.3-57.8,24.3s-41.6-8.1-59-24.3c-15-15-23.1-34.7-23.1-57.8,0-22,8.1-41.6,23.1-57.8q25.95-24.3,59-24.3c22,0,41.6,8.1,57.8,24.3s24.3,35.8,24.3,57.8C-1291.4,1256-1299.5,1275.7-1315.7,1290.7Zm494.9,1.2c-16.2,16.2-35.9,24.3-57.8,24.3q-34.65,0-59-24.3c-16.2-16.2-24.3-35.8-24.3-59s8.1-42.8,24.3-59,35.8-24.3,59-24.3c22,0,41.6,8.1,57.8,24.3,17.3,16.2,25.4,35.9,25.4,59S-803.5,1275.7-820.8,1291.9Z" transform="translate(2621.3 -507.8)"/><path class="cls-1" d="M-1562,1526.6l-3.5-3.5-15.1-1.2-4.6,1.2-57.8-1.2-18.5-1.2-26.6-2.3-57.8-6.9-23.1-3.5-9.3-2.3-4.6-2.3h-91.3l-56.7,1.2-23.1,2.3-40.5,2.3-37,1.1-27.8,1.2-63.6,1.1h-57.8l-13.9,1.2-59,4.6-16.2,3.5-10.4,1.2h-24.3l-65.9,3.5-64.8,4.6h-5.8l-28.9,4.6-25.4,4.6-20.8,3.5-57.8,8.1c-26.6,6.9-41.6,20.8-47.4,42.8v1.2c3.5,22,16.2,32.4,37,33.5l609.4-31.2,30.1-2.3,40.5-2.3h43.9l196.6-12.7c64.8-5.8,99.4-20.8,104.1-42.8V1537Zm978.3,75.2-6.9-1.2-8.1-2.3-15-3.5-3.5-1.2-31.2-3.5-18.5-2.3-12.7-2.3-9.2-2.3-13.9-2.3-16.2-3.5-9.3-3.4-6.9-1.2-4.6-1.2-6.9-2.3h-1.2l-11.5-2.3-8.1-2.3h-8.1l-31.2-5.8-32.4-4.6-16.2-1.2-31.2-2.3-28.9-2.3-22-2.3-9.2-1.2h-6.9l-17.4-1.2-31.2-2.3-30.1-1.2-19.7-1.2a135.65,135.65,0,0,0-31.2,0h-3.5c-6.9-1.2-12.7,1.1-18.5,4.6l-2.3,1.2-10.4,9.3c0,8.1,1.2,13.9,3.5,18.5l1.2,2.3,3.5,5.8,4.6,11.6,2.3,2.3,1.2,2.3v-1.2c32.4,17.3,187.3,31.2,463.7,41.6l49.7,1.2c24.3-1.2,38.2-6.9,44-16.2h1.2C-540.9,1612.2-554.8,1605.3-583.7,1601.8Z" transform="translate(2621.3 -507.8)"/><path class="cls-1" d="M-1664.9,835.1q-130-26.1-215.1,3.5c35.8,35.8,85.6,61.3,148,76.3,38.2,5.8,59,1.2,63.6-15C-1651.1,866.3-1649.9,845.5-1664.9,835.1Zm331.8-197.8c-10.4-49.7-27.7-92.5-49.7-129.5-22,52-38.1,96-47.4,129.5-5.8,20.8-9.2,38.1-10.4,53.2,2.3,35.8,20.8,54.3,54.4,53.2,40.4,1.2,61.3-11.6,62.4-38.2C-1326.2,681.3-1329.6,659.3-1333.1,637.3Zm-204.7,97.2c-16.2-24.3-50.9-56.7-105.2-97.1l-33.5-25.4,6.9,25.4c31.2,107.5,48.6,159.6,54.4,157.3,12.7,16.2,32.4,15,59-4.6C-1527.3,779.6-1521.6,761.1-1537.8,734.5ZM-911,785.4c-102.9,19.7-159.6,39.3-171.1,57.8-12.7,24.3-12.7,48.6,1.1,72.9l5.8,8.1,11.6,15c26.6,31.2,52,38.2,77.5,20.8l22-20.8,24.3-23.1A1078.05,1078.05,0,0,0-825.3,785.4l12.7-17.3Zm-218.5-148.1c-65.9,40.5-105.2,74-117.9,99.4-12.7,17.3-9.3,33.5,9.2,48.6l20.8,11.6c34.7,23.1,62.4,27.8,82.1,12.7l23.1-24.3c32.4-39.3,55.5-89,70.5-148l10.4-56.7C-1069.4,600.3-1101.8,620-1129.5,637.3Z" transform="translate(2621.3 -507.8)"/><path class="cls-1" d="M-1743.6,1790.3c-1.2-3.5-1.2-10.4-1.2-20.8v-27.8l-4.6-8.1c-1.2-2.3-4.6-4.6-8.1-5.8l-13.9-1.2a71,71,0,0,0-16.2,2.3,17.28,17.28,0,0,0-10.4,6.9c-3.5,3.5-4.6,7-5.8,11.6l11.6,2.3c1.1-5.8,3.5-9.3,5.8-10.4,3.5-2.3,6.9-3.5,12.7-3.5s10.4,1.1,13.9,4.6c2.3,1.1,3.5,4.6,3.5,10.4v2.3c-4.6,1.1-11.6,3.5-22,4.6l-10.4,1.2-8.1,4.6a10.37,10.37,0,0,0-6.9,6.9,21.23,21.23,0,0,0-2.3,9.3c0,5.8,2.3,11.5,6.9,15,3.5,3.5,9.3,4.6,17.4,4.6l13.9-2.3,12.7-6.9a16.14,16.14,0,0,0,2.3,8.1h11.6A15.38,15.38,0,0,1-1743.6,1790.3Zm-12.7-23.1a34.72,34.72,0,0,1-2.3,12.7c-1.2,3.5-4.6,5.8-8.1,8.1a33.2,33.2,0,0,1-11.6,2.3c-4.6,0-8.1-1.2-11.6-2.3a10.33,10.33,0,0,1-3.5-8.1l2.3-5.8,4.6-4.6,10.4-2.3c8.1-1.1,15-2.3,19.7-4.6v4.6Zm-79.8-39.4v70.5h12.7v-70.5Zm8.1-27.7-8.1,18.5h9.3l15-18.5Zm-41.6,1.1v34.7c-2.3-3.5-4.6-5.8-8.1-6.9l-11.6-2.3c-5.8,0-11.6,1.2-16.2,4.6s-8.1,6.9-10.4,12.7l-3.5,19.7a47.17,47.17,0,0,0,3.5,18.5,41.4,41.4,0,0,0,11.6,12.7c4.6,3.5,9.3,4.6,15,4.6,9.2,0,16.2-3.5,19.7-10.4v9.3h11.6v-97.1h-11.6Zm-4.7,82.1a16.57,16.57,0,0,1-13.9,6.9c-4.6,0-9.2-2.3-12.7-6.9s-5.8-11.6-5.8-19.7c0-9.2,1.2-16.2,4.6-20.8a16.57,16.57,0,0,1,13.9-6.9,16.57,16.57,0,0,1,13.9,6.9c3.5,4.6,5.8,11.6,5.8,20.8S-1870.8,1779.9-1874.3,1783.3Zm-108.7-82.1v97.1h11.6v-97.1Zm-15,61.3c0-11.6-3.5-20.8-9.3-26.6a32.3,32.3,0,0,0-23.1-9.3c-10.4,0-18.5,3.5-24.3,9.3-5.8,6.9-9.3,16.2-9.3,27.8s3.5,20.8,9.3,26.6,13.9,9.3,24.3,9.3a39.64,39.64,0,0,0,20.8-5.8c5.8-3.5,9.3-9.3,10.4-16.2l-12.7-2.3c-1.2,5.8-3.5,9.2-6.9,11.6a19.66,19.66,0,0,1-11.6,3.5,19.12,19.12,0,0,1-13.9-5.8c-3.5-4.6-5.8-10.4-6.9-18.5h53.2v-3.6Zm-52-5.8c0-5.8,2.3-11.6,5.8-15a19.52,19.52,0,0,1,13.9-5.8c5.8,0,11.5,2.3,15,6.9,2.3,3.5,3.5,8.1,4.6,13.9Zm-39.4-55.5v34.7c-2.3-3.5-4.6-5.8-8.1-6.9l-11.6-2.3c-5.8,0-11.6,1.2-16.2,4.6s-8.1,6.9-10.4,12.7l-3.5,19.7a47.17,47.17,0,0,0,3.5,18.5,41.4,41.4,0,0,0,11.6,12.7c4.6,3.5,9.2,4.6,15,4.6,9.3,0,16.2-3.5,19.7-10.4v9.3h11.6v-97.1h-11.6Zm-4.5,82.1a16.57,16.57,0,0,1-13.9,6.9c-4.6,0-9.3-2.3-12.7-6.9s-5.8-11.6-5.8-19.7c0-9.2,1.1-16.2,4.6-20.8a16.57,16.57,0,0,1,13.9-6.9,16.57,16.57,0,0,1,13.9,6.9c3.5,4.6,5.8,11.6,5.8,20.8S-2090.5,1779.9-2093.9,1783.3Zm-100.7-48.5-8.1-5.8-11.6-2.3c-10.4,0-17.3,3.5-23.1,11.6v-10.4h-10.4v70.5h11.6v-38.2c0-9.3,2.3-15,5.8-18.5s8.1-4.6,12.7-4.6l9.3,2.3a8.63,8.63,0,0,1,4.6,4.6c1.2,3.5,1.2,6.9,1.2,11.6v42.8h11.6v-55.5Zm-70.5,55.5c-1.2-3.5-1.2-10.4-1.2-20.8v-27.8l-4.6-8.1c-1.2-2.3-4.6-4.6-8.1-5.8l-13.9-1.2a71,71,0,0,0-16.2,2.3,17.28,17.28,0,0,0-10.4,6.9c-3.5,3.5-4.6,7-5.8,11.6l11.6,2.3c1.2-5.8,3.5-9.3,5.8-10.4,3.5-2.3,6.9-3.5,12.7-3.5s10.4,1.1,13.9,4.6c2.3,1.1,3.5,4.6,3.5,10.4v2.3c-4.6,1.1-11.6,3.5-22,4.6l-10.4,1.2-8.1,4.6a10.37,10.37,0,0,0-6.9,6.9,22.71,22.71,0,0,0-2.3,9.3c0,5.8,2.3,11.5,6.9,15,3.5,3.5,9.3,4.6,17.3,4.6l13.9-2.3,12.7-6.9c0,3.5,1.2,5.8,2.3,8.1h11.6A15.37,15.37,0,0,1-2265.1,1790.3Zm-12.7-23.1a37,37,0,0,1-2.3,12.7c-1.2,3.5-4.6,5.8-8.1,8.1a33.2,33.2,0,0,1-11.6,2.3c-4.6,0-8.1-1.2-11.6-2.3a10.51,10.51,0,0,1-3.5-8.1l2.3-5.8,4.6-4.6,10.4-2.3c8.1-1.1,15-2.3,19.7-4.6v4.6Zm-61.3-23.2c-2.3-5.8-5.8-9.2-10.4-12.7s-10.4-4.6-16.2-4.6c-4.6,0-8.1,1.2-11.6,2.3l-9.3,8.1v-9.3H-2397v97.1h11.5v-33.5l8.1,5.8,10.4,2.3a28.66,28.66,0,0,0,16.2-4.6c4.6-3.5,8.1-6.9,10.4-12.7,3.5-5.8,4.6-12.7,4.6-19.7A48,48,0,0,0-2339.1,1744Zm-15.1,39.3a16.57,16.57,0,0,1-13.9,6.9c-4.6,0-9.3-2.3-12.7-6.9-3.5-3.5-5.8-10.4-5.8-19.7s2.3-16.2,5.8-20.8a16.57,16.57,0,0,1,13.9-6.9c5.8,0,9.3,2.3,12.7,6.9,3.5,3.5,5.8,10.4,5.8,19.7S-2350.7,1778.7-2354.2,1783.3Zm-111-82.1v97.1h11.6v-97.1Zm-13.9,61.3c0-11.6-3.5-20.8-9.2-26.6a32.3,32.3,0,0,0-23.1-9.3c-10.4,0-18.5,3.5-24.3,9.3-5.8,6.9-9.3,16.2-9.3,27.8s3.5,20.8,9.3,26.6,13.9,9.3,24.3,9.3a39.64,39.64,0,0,0,20.8-5.8c5.8-3.5,9.3-9.3,10.4-16.2l-12.7-2.3c-1.2,5.8-3.5,9.2-6.9,11.6a19.83,19.83,0,0,1-11.6,3.5,19.12,19.12,0,0,1-13.9-5.8c-3.5-4.6-5.8-10.4-6.9-18.5h53.2v-3.6Zm-52-5.8c0-5.8,2.3-11.6,5.8-15a19.69,19.69,0,0,1,13.9-5.8c5.8,0,11.6,2.3,15,6.9,2.3,3.5,3.5,8.1,4.6,13.9Z" transform="translate(2621.3 -507.8)"/></svg>