<svg id="Layer_1" data-name="Layer 1" xmlns="http://www.w3.org/2000/svg" viewBox="0 0 2078.29 1317.12"><defs><style>.cls-1,.cls-2{fill:#fff;}.cls-1,.cls-3,.cls-4,.cls-5{fill-rule:evenodd;}.cls-3{fill:#cc2229;}.cls-4{fill:#7da791;}.cls-5{fill:#f2cb59;}</style></defs><title>fargo2</title><path class="cls-1" d="M-2479.07,1762.5c0-11.57-3.46-20.83-9.24-26.6a32.32,32.32,0,0,0-23.13-9.26c-10.41,0-18.51,3.48-24.29,9.26-5.77,6.95-9.25,16.19-9.25,27.76s3.46,20.81,9.25,26.6,13.88,9.25,24.29,9.25a39.82,39.82,0,0,0,20.81-5.78c5.78-3.47,9.26-9.26,10.41-16.18l-12.71-2.32c-1.15,5.79-3.46,9.24-6.94,11.57a19.47,19.47,0,0,1-11.57,3.46,19.13,19.13,0,0,1-13.88-5.79c-3.46-4.61-5.78-10.4-6.93-18.49h53.18Zm-52-5.77c0-5.78,2.31-11.57,5.79-15a19.2,19.2,0,0,1,13.87-5.77c5.79,0,11.56,2.32,15,6.94,2.31,3.46,3.46,8.09,4.61,13.86Z" transform="translate(2621.29 -507.82)"/><rect class="cls-2" x="156.1" y="1193.4" width="11.57" height="97.13"/><path class="cls-1" d="M-2339.12,1744c-2.32-5.78-5.8-9.24-10.42-12.72s-10.41-4.63-16.18-4.63a34.13,34.13,0,0,0-11.57,2.33l-9.25,8.09v-9.26h-10.4v97.13h11.55V1791.4l8.1,5.78,10.4,2.31a28.89,28.89,0,0,0,16.2-4.61c4.63-3.47,8.11-6.94,10.41-12.71,3.47-5.79,4.62-12.73,4.62-19.67A47.93,47.93,0,0,0-2339.12,1744Zm-15.05,39.35a16.51,16.51,0,0,1-13.87,6.92c-4.62,0-9.25-2.32-12.71-6.92-3.48-3.48-5.79-10.42-5.79-19.68s2.31-16.19,5.79-20.8a16.47,16.47,0,0,1,13.86-6.94c5.78,0,9.26,2.32,12.72,6.94,3.48,3.47,5.79,10.4,5.79,19.66S-2350.69,1778.72-2354.17,1783.35Z" transform="translate(2621.29 -507.82)"/><path class="cls-1" d="M-2265.13,1790.26c-1.15-3.46-1.15-10.39-1.15-20.8v-27.77l-4.62-8.1c-1.16-2.29-4.62-4.61-8.09-5.77l-13.88-1.15a68.63,68.63,0,0,0-16.2,2.32,16.76,16.76,0,0,0-10.4,6.94c-3.47,3.47-4.62,7-5.79,11.57l11.57,2.31c1.16-5.79,3.48-9.25,5.79-10.41,3.46-2.32,6.94-3.47,12.71-3.47s10.4,1.14,13.87,4.62c2.31,1.15,3.47,4.63,3.47,10.41v2.31c-4.63,1.15-11.57,3.46-22,4.62l-10.41,1.16-8.1,4.62a10.44,10.44,0,0,0-6.94,6.94,21.91,21.91,0,0,0-2.31,9.26c0,5.77,2.31,11.54,6.94,15,3.46,3.46,9.25,4.62,17.34,4.62l13.88-2.31,12.72-6.94a16.75,16.75,0,0,0,2.31,8.09h11.57A16.64,16.64,0,0,1-2265.13,1790.26Zm-12.71-23.11a35.68,35.68,0,0,1-2.31,12.72c-1.15,3.48-4.62,5.77-8.09,8.08a34,34,0,0,1-11.57,2.32,34,34,0,0,1-11.57-2.32,10.48,10.48,0,0,1-3.46-8.08l2.31-5.78,4.63-4.62,10.4-2.32c8.09-1.14,15-2.31,19.66-4.62Z" transform="translate(2621.29 -507.82)"/><path class="cls-1" d="M-2594.69,884.8h-1.16v-4.62q0-45.1,31.22-76.32t76.32-31.22v1.15h240.55V961.13h-167.69v43.94h120.26v145.71h-120.26v301.81h-179.24Z" transform="translate(2621.29 -507.82)"/><path class="cls-1" d="M-2194.59,1734.76l3.48,8.09v55.5h-11.56v-42.79c0-4.61,0-8.09-1.16-11.56a8.91,8.91,0,0,0-4.62-4.62l-9.26-2.32c-4.62,0-9.25,1.16-12.71,4.61s-5.79,9.26-5.79,18.51v38.16h-11.55v-70.53h10.39v10.43c5.78-8.11,12.72-11.59,23.12-11.59l11.57,2.33Z" transform="translate(2621.29 -507.82)"/><path class="cls-1" d="M-2089.35,1701.23v34.7c-2.32-3.46-4.63-5.79-8.09-6.94l-11.57-2.32c-5.79,0-11.57,1.15-16.2,4.63s-8.09,6.94-10.4,12.71l-3.47,19.66a47.89,47.89,0,0,0,3.47,18.51,41.72,41.72,0,0,0,11.57,12.71c4.63,3.46,9.24,4.62,15,4.62,9.26,0,16.18-3.47,19.66-10.41v9.25h11.57v-97.12Zm-4.6,82.1a16.53,16.53,0,0,1-13.88,6.93c-4.62,0-9.25-2.32-12.73-6.93s-5.78-11.58-5.78-19.67c0-9.24,1.15-16.19,4.62-20.81a16.49,16.49,0,0,1,13.87-6.93,16.56,16.56,0,0,1,13.9,6.93c3.46,4.62,5.78,11.56,5.78,20.81S-2090.49,1779.86-2093.95,1783.33Z" transform="translate(2621.29 -507.82)"/><path class="cls-1" d="M-1998,1762.5c0-11.57-3.47-20.83-9.25-26.6a32.32,32.32,0,0,0-23.13-9.26c-10.41,0-18.5,3.48-24.29,9.26-5.77,6.95-9.25,16.19-9.25,27.76s3.47,20.81,9.25,26.6,13.88,9.25,24.29,9.25a39.83,39.83,0,0,0,20.82-5.78c5.78-3.47,9.25-9.26,10.4-16.18l-12.71-2.32c-1.15,5.79-3.46,9.24-6.94,11.57a19.5,19.5,0,0,1-11.58,3.46,19.16,19.16,0,0,1-13.88-5.79c-3.46-4.61-5.77-10.4-6.94-18.49H-1998Zm-52-5.77c0-5.78,2.3-11.57,5.79-15a19.21,19.21,0,0,1,13.88-5.77c5.78,0,11.55,2.32,15,6.94,2.31,3.46,3.46,8.09,4.62,13.86Z" transform="translate(2621.29 -507.82)"/><rect class="cls-2" x="638.32" y="1193.4" width="11.57" height="97.13"/><path class="cls-1" d="M-1869.64,1701.23v34.7c-2.32-3.46-4.63-5.79-8.11-6.94l-11.55-2.32c-5.8,0-11.59,1.15-16.2,4.63s-8.1,6.94-10.41,12.71l-3.47,19.66a48.08,48.08,0,0,0,3.47,18.51,41.49,41.49,0,0,0,11.57,12.71c4.62,3.46,9.25,4.62,15,4.62,9.24,0,16.18-3.47,19.66-10.41v9.25h11.57v-97.12Zm-4.62,82.1a16.5,16.5,0,0,1-13.88,6.93c-4.6,0-9.23-2.32-12.71-6.93s-5.78-11.58-5.78-19.67c0-9.24,1.15-16.19,4.63-20.81a16.49,16.49,0,0,1,13.86-6.93,16.53,16.53,0,0,1,13.88,6.93c3.48,4.62,5.78,11.56,5.78,20.81S-1870.78,1779.86-1874.26,1783.33Z" transform="translate(2621.29 -507.82)"/><rect class="cls-2" x="785.2" y="1220" width="12.71" height="70.53"/><polygon class="cls-1" points="793.29 1192.25 809.48 1192.25 794.45 1210.74 785.2 1210.74 793.29 1192.25"/><path class="cls-1" d="M-1743.6,1790.26c-1.16-3.46-1.16-10.39-1.16-20.8v-27.77l-4.61-8.1c-1.16-2.29-4.63-4.61-8.1-5.77l-13.89-1.15a68.55,68.55,0,0,0-16.2,2.32,16.79,16.79,0,0,0-10.4,6.94c-3.47,3.47-4.63,7-5.78,11.57l11.57,2.31c1.15-5.79,3.47-9.25,5.78-10.41,3.46-2.32,6.93-3.47,12.71-3.47s10.4,1.14,13.88,4.62c2.31,1.15,3.46,4.63,3.46,10.41v2.31c-4.62,1.15-11.55,3.46-22,4.62l-10.41,1.16-8.09,4.62a10.4,10.4,0,0,0-6.94,6.94,21.61,21.61,0,0,0-2.32,9.26c0,5.77,2.32,11.54,6.93,15,3.48,3.46,9.25,4.62,17.36,4.62l13.88-2.31,12.72-6.94a16.64,16.64,0,0,0,2.31,8.09h11.57A16.64,16.64,0,0,1-1743.6,1790.26Zm-12.7-23.11a35.68,35.68,0,0,1-2.31,12.72c-1.17,3.48-4.63,5.77-8.1,8.08a33.89,33.89,0,0,1-11.56,2.32,34,34,0,0,1-11.57-2.32,10.4,10.4,0,0,1-3.46-8.08l2.31-5.78,4.63-4.62,10.4-2.32c8.1-1.14,15-2.31,19.66-4.62Z" transform="translate(2621.29 -507.82)"/><path class="cls-1" d="M-1732,914.88c-62.45-15-112.18-40.48-148-76.33q85-29.47,215.09-3.46c15,10.41,13.88,31.22-3.48,64.76C-1673,916-1693.86,920.66-1732,914.88Z" transform="translate(2621.29 -507.82)"/><path class="cls-1" d="M-1562,1526.61l2.31,10.41v1.17c-4.63,22-39.31,37-104.07,42.78l-196.59,12.72h-43.94l-40.48,2.32-30.08,2.31-609.41,31.2c-20.8-1.15-33.53-11.56-37-33.52v-1.17c5.78-22,20.81-35.85,47.4-42.79l57.82-8.09,20.82-3.48,25.44-4.61,28.91-4.62h5.79l64.76-4.63,65.92-3.46h24.28l10.4-1.17,16.2-3.48,59-4.61,13.87-1.16h57.82l63.61-1.15,27.75-1.17,37-1.15,40.48-2.33,23.12-2.3,56.67-1.17h91.34l4.63,2.32,9.25,2.31,23.13,3.49,57.81,6.92,26.61,2.32L-1643,1522l57.83,1.17,4.59-1.17,15,1.17Z" transform="translate(2621.29 -507.82)"/><path class="cls-1" d="M-1669.57,637.34l-6.94-25.44,33.53,25.44c54.35,40.48,89,72.85,105.22,97.14,16.19,26.59,10.42,45.1-18.48,55.51-26.6,19.65-46.26,20.81-59,4.62C-1621,796.92-1638.35,744.88-1669.57,637.34Z" transform="translate(2621.29 -507.82)"/><path class="cls-1" d="M-1440.62,690.53c1.17-15,4.65-32.38,10.41-53.19,9.24-33.53,25.43-77.48,47.39-129.52,22,37,39.33,79.8,49.72,129.52,3.48,22,6.94,43.95,9.28,68.23q-1.74,39.88-62.44,38.16C-1419.8,744.87-1438.31,726.37-1440.62,690.53Z" transform="translate(2621.29 -507.82)"/><path class="cls-1" d="M-1247.48,736.79c12.71-25.43,52-59,117.94-99.45,27.77-17.34,60.14-37,98.29-56.67l-10.42,56.67c-15,59-38.14,108.71-70.51,148l-23.13,24.28c-19.66,15-47.41,10.42-82.1-12.72l-20.83-11.56C-1256.76,770.32-1260.22,754.13-1247.48,736.79Z" transform="translate(2621.29 -507.82)"/><path class="cls-1" d="M-911,785.36-812.7,768l-12.71,17.35A1090.32,1090.32,0,0,1-939.88,916l-24.29,23.13-22,20.81c-25.46,17.34-50.89,10.4-77.49-20.81l-11.56-15L-1081,916c-13.87-24.28-13.87-48.57-1.14-72.85C-1070.58,824.67-1013.91,805-911,785.36Z" transform="translate(2621.29 -507.82)"/><path class="cls-1" d="M-715.54,1062.9c-45.11-45.09-100.62-67.07-164.22-67.07-64.75,0-119.08,22-164.2,67.07s-68.22,100.61-68.22,164.2c0,33.54,5.77,63.6,17.33,91.36-23.13,15-39.32,12.72-48.56-8.1h0V1015.47H-1288v22q-46.86-26-104.09-24.29c-61.27-1.15-112.16,20.82-155,63.61s-64.74,94.82-64.74,155q0,46.85,17.33,86.73c-12.71,9.26-24.27,5.78-37-9.25l-1.16-17.35V1075.61c1.16-3.46,1.16-8.09,1.16-13.86,0-15-5.79-26.62-16.19-37-8.11-8.09-17.35-13.88-27.76-15v-2.31h-148a76.93,76.93,0,0,0-22-32.38c-17.34-17.36-39.32-26.61-63.6-26.61-25.45,0-47.42,9.26-64.76,26.61-18.51,17.34-27.76,39.32-26.6,64.75-1.16,24.28,8.09,46.27,26.6,64.76l1.15,1.16v148l-2.32,57.81c-15,17.35-28.9,18.52-42.77,2.32V1067.52l1.15-10.42c0-15-4.62-26.58-15-37s-22-15-35.85-13.88h-6.94v-1.15h-172.3v145.7h84.41v28.91c-19.65-10.4-42.78-15-67.07-15-41.63,0-77.48,15-106.39,43.95-30.07,28.9-45.1,64.76-43.94,106.38-1.16,42.79,13.87,78.65,43.94,107.56,28.91,28.91,64.77,43.94,106.39,43.94s77.48-15,107.54-43.94l2.33-3.48,3.47,3.48,4.62,3.46,2.31,3.48a281,281,0,0,0,37,27.75l10.41,4.63c20.81,9.25,43.95,13.87,68.23,13.87,45.1,0,84.42-16.19,118-49.73,32.37-32.37,48.57-71.68,48.57-116.79V1293l-1.16-1.16h2.31V1155.4h44v139.93l1.15,38.16,1.16,9.26c3.46,25.43,19.66,53.19,48.57,82.1,32.37,33.54,71.68,49.72,117.94,49.72,34.71,0,65.92-9.26,92.52-27.75q-13.87,32.94-13.88,72.85c0,54.34,19.66,100.61,57.83,138.76s84.41,57.82,138.77,57.82,101.76-19.66,139.9-57.82,56.69-84.42,57.83-138.76l-3.47-38.16V1463c60.14,5.78,107.55-6.94,141.09-38.16V1426c35.84,22,77.46,33.54,122.56,33.54,63.6,0,119.1-23.12,164.22-68.23s68.22-100.61,68.22-164.21S-670.44,1108-715.54,1062.9Zm-1461.69,268.28c-5.79,5.77-12.73,8.09-20.82,8.09s-13.86-2.32-19.66-8.09-9.25-12.72-9.25-20.82,3.48-15,9.25-20.8,11.57-8.09,19.66-8.09,15,2.31,20.82,8.09,8.09,12.71,8.09,20.8S-2171.45,1325.4-2177.23,1331.18Zm867.28,210.46c-8.08,8.09-16.18,11.57-26.57,11.57s-18.52-3.48-26.6-11.57-11.58-16.18-10.42-26.59a29.33,29.33,0,0,1,10.42-26.6c8.08-8.1,16.19-11.58,26.6-10.41,10.39-1.17,18.49,2.31,26.57,10.41,8.11,6.93,11.59,16.19,11.59,26.6S-1301.84,1533.55-1309.95,1541.64Zm-5.78-250.94c-16.19,16.19-35.85,24.28-57.81,24.28s-41.64-8.09-59-24.28c-15-15-23.12-34.69-23.12-57.82,0-22,8.08-41.63,23.12-57.82q26-24.27,59-24.28c22,0,41.62,8.1,57.81,24.28s24.29,35.85,24.29,57.82C-1291.44,1256-1299.54,1275.67-1315.73,1290.7Zm495,1.16c-16.21,16.2-35.87,24.29-57.83,24.29q-34.68,0-59-24.29t-24.3-59q0-34.68,24.3-59t59-24.29c22,0,41.62,8.1,57.83,24.29,17.33,16.19,25.44,35.85,25.44,59S-803.45,1275.67-820.78,1291.86Z" transform="translate(2621.29 -507.82)"/><path class="cls-1" d="M-543.25,1622.61h-1.17c-5.77,9.26-19.66,15-44,16.2l-49.73-1.17c-276.37-10.4-431.32-24.28-463.69-41.62v1.16l-1.17-2.32-2.31-2.33-4.63-11.56-3.47-5.78-1.17-2.32c-2.31-4.61-3.48-10.4-3.48-18.49l10.42-9.26,2.33-1.16c5.77-3.47,11.56-5.77,18.5-4.61h3.47a140.39,140.39,0,0,1,31.21,0l19.66,1.15,30.09,1.15,31.2,2.33,17.36,1.15h6.94l9.24,1.17,22,2.31,28.92,2.32,31.21,2.31,16.19,1.16,32.37,4.62,31.23,5.79h8.08l8.11,2.3,11.55,2.31h1.17l6.94,2.32,4.63,1.16,6.94,1.17,9.28,3.42,16.19,3.46,13.88,2.32,9.24,2.33,12.72,2.3,18.52,2.33,31.2,3.47,3.48,1.16,15,3.47,8.1,2.32,6.94,1.16C-554.82,1605.28-540.94,1612.22-543.25,1622.61Z" transform="translate(2621.29 -507.82)"/><path class="cls-3" d="M-715.54,1062.9c-45.11-45.09-100.62-67.07-164.22-67.07-64.75,0-119.08,22-164.2,67.07s-68.22,100.61-68.22,164.2c0,33.54,5.77,63.6,17.33,91.36-23.13,15-39.32,12.72-48.56-8.1h0V1015.47H-1288v22q-46.86-26-104.09-24.29c-61.27-1.15-112.16,20.82-155,63.61s-64.74,94.82-64.74,155q0,46.85,17.33,86.73c-12.71,9.26-24.27,5.78-37-9.25l-1.16-17.35V1075.61c1.16-3.46,1.16-8.09,1.16-13.86,0-15-5.79-26.62-16.19-37-8.11-8.09-17.35-13.88-27.76-15v-2.31h-148a76.93,76.93,0,0,0-22-32.38c-17.34-17.36-39.32-26.61-63.6-26.61-25.45,0-47.42,9.26-64.76,26.61-18.51,17.34-27.76,39.32-26.6,64.75-1.16,24.28,8.09,46.27,26.6,64.76l1.15,1.16v148l-2.32,57.81c-15,17.35-28.9,18.52-42.77,2.32V1067.52l1.15-10.42c0-15-4.62-26.58-15-37s-22-15-35.85-13.88h-6.94v-1.15h-172.3v145.7h84.41v28.91c-19.65-10.4-42.78-15-67.07-15-41.63,0-77.48,15-106.39,43.95-30.07,28.9-45.1,64.76-43.94,106.38-1.16,42.79,13.87,78.65,43.94,107.56,28.91,28.91,64.77,43.94,106.39,43.94s77.48-15,107.54-43.94l2.33-3.48,3.47,3.48,4.62,3.46,2.31,3.48a281,281,0,0,0,37,27.75l10.41,4.63c20.81,9.25,43.95,13.87,68.23,13.87,45.1,0,84.42-16.19,118-49.73,32.37-32.37,48.57-71.68,48.57-116.79V1293l-1.16-1.16h2.31V1155.4h44v139.93l1.15,38.16,1.16,9.26c3.46,25.43,19.66,53.19,48.57,82.1,32.37,33.54,71.68,49.72,117.94,49.72,34.71,0,65.92-9.26,92.52-27.75q-13.87,32.94-13.88,72.85c0,54.34,19.66,100.61,57.83,138.76s84.41,57.82,138.77,57.82,101.76-19.66,139.9-57.82,56.69-84.42,57.83-138.76l-3.47-38.16V1463c60.14,5.78,107.55-6.94,141.09-38.16V1426c35.84,22,77.46,33.54,122.56,33.54,63.6,0,119.1-23.12,164.22-68.23s68.22-100.61,68.22-164.21S-670.44,1108-715.54,1062.9Zm-1461.69,268.28c-5.79,5.77-12.73,8.09-20.82,8.09s-13.86-2.32-19.66-8.09-9.25-12.72-9.25-20.82,3.48-15,9.25-20.8,11.57-8.09,19.66-8.09,15,2.31,20.82,8.09,8.09,12.71,8.09,20.8S-2171.45,1325.4-2177.23,1331.18Zm867.28,210.46c-8.08,8.09-16.18,11.57-26.57,11.57s-18.52-3.48-26.6-11.57-11.58-16.18-10.42-26.59a29.33,29.33,0,0,1,10.42-26.6c8.08-8.1,16.19-11.58,26.6-10.41,10.39-1.17,18.49,2.31,26.57,10.41,8.11,6.93,11.59,16.19,11.59,26.6S-1301.84,1533.55-1309.95,1541.64Zm-5.78-250.94c-16.19,16.19-35.85,24.28-57.81,24.28s-41.64-8.09-59-24.28c-15-15-23.12-34.69-23.12-57.82,0-22,8.08-41.63,23.12-57.82q26-24.27,59-24.28c22,0,41.62,8.1,57.81,24.28s24.29,35.85,24.29,57.82C-1291.44,1256-1299.54,1275.67-1315.73,1290.7Zm495,1.16c-16.21,16.2-35.87,24.29-57.83,24.29q-34.68,0-59-24.29t-24.3-59q0-34.68,24.3-59t59-24.29c22,0,41.62,8.1,57.83,24.29,17.33,16.19,25.44,35.85,25.44,59S-803.45,1275.67-820.78,1291.86Zm-1427-330.73V773.79h-240.55v-1.15q-45.11,0-76.32,31.22t-31.22,76.32v4.62h1.16v567.79h179.24V1150.78h120.26V1005.07h-120.26V961.13Z" transform="translate(2621.29 -507.82)"/><path class="cls-4" d="M-583.73,1601.81l-6.94-1.16-8.1-2.32-15-3.47-3.48-1.16-31.2-3.47L-667,1587.9l-12.72-2.3-9.24-2.33-13.88-2.32-16.19-3.46-9.28-3.42-6.94-1.17-4.63-1.16-6.94-2.32H-748l-11.55-2.31-8.11-2.3h-8.08l-31.23-5.79-32.37-4.62-16.19-1.16-31.21-2.31-28.92-2.32-22-2.31-9.24-1.17h-6.94l-17.36-1.15-31.2-2.33-30.09-1.15-19.66-1.15a140.39,140.39,0,0,0-31.21,0h-3.47c-6.94-1.16-12.73,1.14-18.5,4.61l-2.33,1.16-10.42,9.26c0,8.09,1.17,13.88,3.48,18.49l1.17,2.32,3.47,5.78,4.63,11.56,2.31,2.33,1.17,2.32V1596c32.37,17.34,187.32,31.22,463.69,41.62l49.73,1.17c24.29-1.17,38.18-6.94,44-16.2h1.17C-540.94,1612.22-554.82,1605.28-583.73,1601.81Zm-978.3-75.2-3.47-3.46-15-1.17-4.59,1.17L-1643,1522l-18.49-1.16-26.61-2.32-57.81-6.92-23.13-3.49-9.25-2.31-4.63-2.32h-91.34l-56.67,1.17-23.12,2.3-40.48,2.33-37,1.15-27.75,1.17-63.61,1.15h-57.82l-13.87,1.16-59,4.61-16.2,3.48-10.4,1.17h-24.28l-65.92,3.46-64.76,4.63h-5.79l-28.91,4.62-25.44,4.61-20.82,3.48-57.82,8.09c-26.59,6.94-41.62,20.82-47.4,42.79V1596c3.47,22,16.2,32.37,37,33.52l609.41-31.2,30.08-2.31,40.48-2.32h43.94l196.59-12.72c64.76-5.78,99.44-20.82,104.07-42.78V1537Z" transform="translate(2621.29 -507.82)"/><path class="cls-5" d="M-1129.54,637.34c-65.91,40.48-105.23,74-117.94,99.45-12.74,17.34-9.28,33.53,9.24,48.57l20.83,11.56c34.69,23.14,62.44,27.75,82.1,12.72l23.13-24.28c32.37-39.31,55.5-89.05,70.51-148l10.42-56.67C-1069.4,600.33-1101.77,620-1129.54,637.34Zm218.56,148c-102.93,19.66-159.6,39.31-171.14,57.82-12.73,24.28-12.73,48.57,1.14,72.85l5.8,8.09,11.56,15c26.6,31.21,52,38.15,77.49,20.81l22-20.81L-939.88,916A1090.32,1090.32,0,0,0-825.41,785.36L-812.7,768Zm-626.78-50.88c-16.19-24.29-50.87-56.66-105.22-97.14l-33.53-25.44,6.94,25.44c31.22,107.54,48.58,159.58,54.36,157.27,12.71,16.19,32.37,15,59-4.62C-1527.34,779.58-1521.57,761.07-1537.76,734.48Zm204.66-97.14c-10.39-49.72-27.74-92.5-49.72-129.52-22,52-38.15,96-47.39,129.52-5.76,20.81-9.24,38.15-10.41,53.19,2.31,35.84,20.82,54.34,54.36,53.2q60.67,1.72,62.44-38.16C-1326.16,681.29-1329.62,659.32-1333.1,637.34Zm-331.84,197.75q-130.1-26-215.09,3.46c35.83,35.85,85.56,61.3,148,76.33,38.16,5.78,59,1.15,63.6-15C-1651.06,866.31-1649.91,845.5-1664.94,835.09Z" transform="translate(2621.29 -507.82)"/><path class="cls-3" d="M-2479.07,1762.5c0-11.57-3.46-20.83-9.24-26.6a32.32,32.32,0,0,0-23.13-9.26c-10.41,0-18.51,3.48-24.29,9.26-5.77,6.95-9.25,16.19-9.25,27.76s3.46,20.81,9.25,26.6,13.88,9.25,24.29,9.25a39.82,39.82,0,0,0,20.81-5.78c5.78-3.47,9.26-9.26,10.41-16.18l-12.71-2.32c-1.15,5.79-3.46,9.24-6.94,11.57a19.47,19.47,0,0,1-11.57,3.46,19.13,19.13,0,0,1-13.88-5.79c-3.46-4.61-5.78-10.4-6.93-18.49h53.18Zm-52-5.77c0-5.78,2.31-11.57,5.79-15a19.2,19.2,0,0,1,13.87-5.77c5.79,0,11.56,2.32,15,6.94,2.31,3.46,3.46,8.09,4.61,13.86Zm65.9-55.51v97.13h11.57v-97.13Zm126.07,42.78c-2.32-5.78-5.8-9.24-10.42-12.72s-10.41-4.63-16.18-4.63a34.13,34.13,0,0,0-11.57,2.33l-9.25,8.09v-9.26h-10.4v97.13h11.55V1791.4l8.1,5.78,10.4,2.31a28.89,28.89,0,0,0,16.2-4.61c4.63-3.47,8.11-6.94,10.41-12.71,3.47-5.79,4.62-12.73,4.62-19.67A47.93,47.93,0,0,0-2339.12,1744Zm-15.05,39.35a16.51,16.51,0,0,1-13.87,6.92c-4.62,0-9.25-2.32-12.71-6.92-3.48-3.48-5.79-10.42-5.79-19.68s2.31-16.19,5.79-20.8a16.47,16.47,0,0,1,13.86-6.94c5.78,0,9.26,2.32,12.72,6.94,3.48,3.47,5.79,10.4,5.79,19.66S-2350.69,1778.72-2354.17,1783.35Zm89,6.91c-1.15-3.46-1.15-10.39-1.15-20.8v-27.77l-4.62-8.1c-1.16-2.29-4.62-4.61-8.09-5.77l-13.88-1.15a68.63,68.63,0,0,0-16.2,2.32,16.76,16.76,0,0,0-10.4,6.94c-3.47,3.47-4.62,7-5.79,11.57l11.57,2.31c1.16-5.79,3.48-9.25,5.79-10.41,3.46-2.32,6.94-3.47,12.71-3.47s10.4,1.14,13.87,4.62c2.31,1.15,3.47,4.63,3.47,10.41v2.31c-4.63,1.15-11.57,3.46-22,4.62l-10.41,1.16-8.1,4.62a10.44,10.44,0,0,0-6.94,6.94,21.91,21.91,0,0,0-2.31,9.26c0,5.77,2.31,11.54,6.94,15,3.46,3.46,9.25,4.62,17.34,4.62l13.88-2.31,12.72-6.94a16.75,16.75,0,0,0,2.31,8.09h11.57A16.64,16.64,0,0,1-2265.13,1790.26Zm-12.71-23.11a35.68,35.68,0,0,1-2.31,12.72c-1.15,3.48-4.62,5.77-8.09,8.08a34,34,0,0,1-11.57,2.32,34,34,0,0,1-11.57-2.32,10.48,10.48,0,0,1-3.46-8.08l2.31-5.78,4.63-4.62,10.4-2.32c8.09-1.14,15-2.31,19.66-4.62Zm83.25-32.39-8.09-5.78-11.57-2.33c-10.4,0-17.34,3.48-23.12,11.59v-10.43h-10.39v70.53h11.55v-38.16c0-9.25,2.31-15,5.79-18.51s8.09-4.61,12.71-4.61l9.26,2.32a8.91,8.91,0,0,1,4.62,4.62c1.16,3.47,1.16,7,1.16,11.56v42.79h11.56v-55.5Zm105.24-33.53v34.7c-2.32-3.46-4.63-5.79-8.09-6.94l-11.57-2.32c-5.79,0-11.57,1.15-16.2,4.63s-8.09,6.94-10.4,12.71l-3.47,19.66a47.89,47.89,0,0,0,3.47,18.51,41.72,41.72,0,0,0,11.57,12.71c4.63,3.46,9.24,4.62,15,4.62,9.26,0,16.18-3.47,19.66-10.41v9.25h11.57v-97.12Zm-4.6,82.1a16.53,16.53,0,0,1-13.88,6.93c-4.62,0-9.25-2.32-12.73-6.93s-5.78-11.58-5.78-19.67c0-9.24,1.15-16.19,4.62-20.81a16.49,16.49,0,0,1,13.87-6.93,16.56,16.56,0,0,1,13.9,6.93c3.46,4.62,5.78,11.56,5.78,20.81S-2090.49,1779.86-2093.95,1783.33Zm95.95-20.83c0-11.57-3.47-20.83-9.25-26.6a32.32,32.32,0,0,0-23.13-9.26c-10.41,0-18.5,3.48-24.29,9.26-5.77,6.95-9.25,16.19-9.25,27.76s3.47,20.81,9.25,26.6,13.88,9.25,24.29,9.25a39.83,39.83,0,0,0,20.82-5.78c5.78-3.47,9.25-9.26,10.4-16.18l-12.71-2.32c-1.15,5.79-3.46,9.24-6.94,11.57a19.5,19.5,0,0,1-11.58,3.46,19.16,19.16,0,0,1-13.88-5.79c-3.46-4.61-5.77-10.4-6.94-18.49H-1998Zm-52-5.77c0-5.78,2.3-11.57,5.79-15a19.21,19.21,0,0,1,13.88-5.77c5.78,0,11.55,2.32,15,6.94,2.31,3.46,3.46,8.09,4.62,13.86Zm67.06-55.51v97.13h11.57v-97.13Zm113.33,0v34.7c-2.32-3.46-4.63-5.79-8.11-6.94l-11.55-2.32c-5.8,0-11.59,1.15-16.2,4.63s-8.1,6.94-10.41,12.71l-3.47,19.66a48.08,48.08,0,0,0,3.47,18.51,41.49,41.49,0,0,0,11.57,12.71c4.62,3.46,9.25,4.62,15,4.62,9.24,0,16.18-3.47,19.66-10.41v9.25h11.57v-97.12Zm-4.62,82.1a16.5,16.5,0,0,1-13.88,6.93c-4.6,0-9.23-2.32-12.71-6.93s-5.78-11.58-5.78-19.67c0-9.24,1.15-16.19,4.63-20.81a16.49,16.49,0,0,1,13.86-6.93,16.53,16.53,0,0,1,13.88,6.93c3.48,4.62,5.78,11.56,5.78,20.81S-1870.78,1779.86-1874.26,1783.33Zm46.26-83.26-8.09,18.49h9.25l15-18.49Zm-8.09,27.75v70.53h12.71v-70.53Zm92.49,62.44c-1.16-3.46-1.16-10.39-1.16-20.8v-27.77l-4.61-8.1c-1.16-2.29-4.63-4.61-8.1-5.77l-13.89-1.15a68.55,68.55,0,0,0-16.2,2.32,16.79,16.79,0,0,0-10.4,6.94c-3.47,3.47-4.63,7-5.78,11.57l11.57,2.31c1.15-5.79,3.47-9.25,5.78-10.41,3.46-2.32,6.93-3.47,12.71-3.47s10.4,1.14,13.88,4.62c2.31,1.15,3.46,4.63,3.46,10.41v2.31c-4.62,1.15-11.55,3.46-22,4.62l-10.41,1.16-8.09,4.62a10.4,10.4,0,0,0-6.94,6.94,21.61,21.61,0,0,0-2.32,9.26c0,5.77,2.32,11.54,6.93,15,3.48,3.46,9.25,4.62,17.36,4.62l13.88-2.31,12.72-6.94a16.64,16.64,0,0,0,2.31,8.09h11.57A16.64,16.64,0,0,1-1743.6,1790.26Zm-12.7-23.11a35.68,35.68,0,0,1-2.31,12.72c-1.17,3.48-4.63,5.77-8.1,8.08a33.89,33.89,0,0,1-11.56,2.32,34,34,0,0,1-11.57-2.32,10.4,10.4,0,0,1-3.46-8.08l2.31-5.78,4.63-4.62,10.4-2.32c8.1-1.14,15-2.31,19.66-4.62Z" transform="translate(2621.29 -507.82)"/></svg>