<svg width="138" height="87" viewBox="0 0 138 87" fill="none" xmlns="http://www.w3.org/2000/svg">
<path d="M15.776 72.693L17.854 72.929C18.799 73.023 18.893 73.829 18.893 74.299V76.755H9.3V74.299C9.3 73.779 9.394 73.024 10.339 72.929L12.417 72.693V70.567H0V72.693L2.078 72.929C3.023 73.023 3.117 73.829 3.117 74.299V82.376C3.117 82.896 3.023 83.651 2.078 83.746L0 83.982V86.06H12.422V83.982L10.344 83.746C9.399 83.652 9.305 82.846 9.305 82.376V79.92H18.893V82.376C18.893 82.896 18.799 83.651 17.854 83.746L15.776 83.982V86.06H28.246V83.982L26.168 83.746C25.223 83.652 25.129 82.846 25.129 82.376V74.299C25.129 73.779 25.223 73.024 26.168 72.929L28.246 72.693V70.567H15.823V72.693H15.776ZM98.765 70.615H83.414V72.741L85.256 72.93C85.4153 72.93 85.5726 72.9646 85.7172 73.0314C85.8618 73.0981 85.9902 73.1955 86.0934 73.3167C86.1967 73.438 86.2724 73.5802 86.3153 73.7336C86.3582 73.8869 86.3673 74.0478 86.342 74.205V82.424C86.342 82.944 86.248 83.699 85.303 83.794L83.225 84.03V86.108H98.765C104.339 86.108 108.92 83.888 108.92 78.362C108.92 72.836 104.338 70.615 98.765 70.615ZM97.631 83.179H92.431V73.591H97.631C100.701 73.591 101.74 75.055 101.74 78.362C101.74 81.714 100.7 83.179 97.631 83.179Z" fill="white"/>
<path d="M135.04 83.794C134.048 83.7 133.765 83.038 133.434 82.566L126.302 71.655C125.782 70.855 125.402 70.616 124.649 70.616H112.841V72.741L115.675 73.072C115.815 73.0984 115.945 73.1609 116.053 73.2532C116.161 73.3456 116.243 73.4645 116.29 73.5982C116.338 73.732 116.35 73.8759 116.325 74.0157C116.3 74.1554 116.239 74.2862 116.147 74.395L110.857 82.995C110.752 83.2094 110.6 83.3972 110.412 83.5444C110.224 83.6916 110.005 83.7944 109.771 83.845L107.645 84.081V86.159H117.56V84.033L115.86 83.844C115.152 83.75 114.726 83.277 115.104 82.663L115.904 81.388H125.445L126.153 82.474C126.767 83.419 126.011 83.797 125.303 83.891L123.555 84.08V86.205H137.017V84.127L135.033 83.796L135.04 83.794ZM117.611 78.646L120.539 73.875L123.656 78.646H117.611ZM72.2673 72.694L74.3453 72.93C75.2903 73.024 75.3843 73.83 75.3843 74.3V82.046L67.1653 71.23C66.7873 70.71 66.4563 70.569 65.6063 70.569H54.9333V72.694L57.0113 72.93C57.9563 73.024 58.0503 73.83 58.0503 74.3V82.377C58.0503 82.897 57.9563 83.652 57.0113 83.747L54.9333 83.983V86.061H64.8523V83.983L62.7743 83.747C61.8293 83.653 61.7353 82.847 61.7353 82.377V74.631L69.9543 85.447C70.3323 85.967 70.6623 86.108 71.5133 86.108H79.0703V74.294C79.0703 73.774 79.1643 73.019 80.1093 72.924L82.1873 72.688V70.563H72.2683L72.2673 72.694ZM41.5673 70.094C31.4593 70.094 28.8613 74.534 28.8613 78.407C28.8613 82.28 31.4613 86.72 41.5673 86.72C51.6733 86.72 54.2733 82.28 54.2733 78.407C54.2723 74.487 51.6743 70.094 41.5663 70.094H41.5673ZM41.5673 83.694C37.6473 83.694 36.0413 82.041 36.0413 78.357C36.0413 74.673 37.6943 73.02 41.5673 73.02C45.4873 73.02 47.0933 74.673 47.0933 78.357C47.0933 82.041 45.4863 83.694 41.5663 83.694H41.5673Z" fill="white"/>
<path d="M85.7279 5.10095C84.0279 12.753 83.3189 16.248 81.9489 21.774C80.6259 27.0639 79.5869 32.024 77.7919 34.385C77.0877 35.2953 76.1969 36.0445 75.1793 36.5821C74.1617 37.1197 73.0408 37.4333 71.8919 37.502C69.6916 37.6909 67.4792 37.6909 65.2789 37.502C64.1311 37.4285 63.012 37.1127 61.995 36.5755C60.9781 36.0382 60.0865 35.2917 59.3789 34.385C57.5839 31.976 56.5449 27.0639 55.2219 21.774C53.8519 16.248 53.1439 12.752 51.4429 5.10095C51.4429 5.10095 49.7429 5.14795 48.9869 5.24295C47.9479 5.33695 47.1449 5.38495 46.2949 5.52595C46.2949 5.52595 47.2869 21.207 47.7119 27.867C48.1839 34.858 48.9869 46.667 49.7899 55.546C49.7899 55.546 51.2069 55.782 53.6159 55.924C56.1159 56.0659 57.2529 56.066 57.2529 56.066C58.2919 52.146 59.5669 46.7139 60.9839 44.3989C61.4255 43.7335 62.021 43.1843 62.7199 42.7978C63.4188 42.4114 64.2005 42.1991 64.9989 42.179C67.3816 41.8641 69.7953 41.8641 72.1779 42.179C72.9756 42.2001 73.7565 42.4131 74.4545 42.7999C75.1525 43.1866 75.7471 43.7358 76.1879 44.401C77.6519 46.715 78.9279 52.147 79.9189 56.068C79.9189 56.068 81.0529 56.068 83.5559 55.926C85.9179 55.784 87.3819 55.548 87.3819 55.548C88.1379 46.6679 88.9879 34.86 89.4599 27.869C89.8849 21.209 90.8769 5.52795 90.8769 5.52795C90.0269 5.43395 89.2239 5.33895 88.1849 5.24495C87.4289 5.15095 85.7289 5.10295 85.7289 5.10295L85.7279 5.10095Z" fill="white"/>
<path d="M105.519 14.359C104.527 4.39298 97.8673 2.26698 92.0103 1.32298C89.0823 0.850977 83.8393 0.422977 80.4853 0.283977C77.5573 0.0949766 70.6603 0.000976562 68.5853 0.000976562C66.5543 0.000976562 59.6113 0.0949766 56.6853 0.283977C53.3313 0.425977 48.0853 0.850977 45.1603 1.32298C39.3033 2.31498 32.6903 4.39298 31.6513 14.359C31.3505 17.7036 31.254 21.0636 31.3623 24.42C31.4352 28.9523 31.7506 33.4774 32.3073 37.976C32.6817 41.7942 33.3928 45.5719 34.4323 49.265C35.9433 53.61 37.2663 54.839 38.8723 56.165C41.7533 58.527 46.5243 59.235 47.5163 59.424C52.9013 60.369 63.7643 60.558 68.5823 60.558C73.4003 60.558 84.2633 60.369 89.6483 59.424C90.6403 59.235 95.4104 58.524 98.2924 56.165C99.8513 54.89 101.22 53.614 102.732 49.265C103.772 45.5719 104.483 41.7942 104.857 37.976C105.414 33.4774 105.73 28.9523 105.802 24.42C105.914 21.0637 105.82 17.7037 105.519 14.359ZM101.882 31.08C101.315 39.062 100.607 43.833 99.5684 47.28C98.6684 50.303 97.5843 52.334 95.9783 53.798C93.2863 56.207 89.6023 56.774 87.4293 57.057C81.1886 57.7643 74.9096 58.0799 68.6293 58.002C62.3491 58.0799 56.0701 57.7643 49.8293 57.057C47.6563 56.726 43.9723 56.207 41.2803 53.798C39.6743 52.334 38.5883 50.298 37.6903 47.28C36.6983 43.832 35.9903 39.061 35.3763 31.08C35.0016 25.4935 35.0805 19.8857 35.6123 14.312C36.4123 8.07698 39.4853 4.95998 46.1453 3.77898C49.8501 3.1735 53.5884 2.79479 57.3393 2.64498C60.5043 2.40898 65.6993 2.31398 68.6283 2.36198C71.5563 2.31498 76.7523 2.45598 79.9173 2.64498C83.6686 2.78987 87.4072 3.16861 91.1113 3.77898C97.7243 4.95998 100.841 8.07898 101.644 14.312C102.152 19.887 102.231 25.4928 101.88 31.08H101.882Z" fill="white"/>
</svg>
