<?xml version="1.0" encoding="utf-8"?>
<!-- Generator: Adobe Illustrator 24.0.2, SVG Export Plug-In . SVG Version: 6.00 Build 0)  -->
<svg version="1.1"
	 id="Capa_1" xmlns:cc="http://creativecommons.org/ns#" xmlns:dc="http://purl.org/dc/elements/1.1/" xmlns:inkscape="http://www.inkscape.org/namespaces/inkscape" xmlns:rdf="http://www.w3.org/1999/02/22-rdf-syntax-ns#" xmlns:sodipodi="http://sodipodi.sourceforge.net/DTD/sodipodi-0.dtd" xmlns:svg="http://www.w3.org/2000/svg"
	 xmlns="http://www.w3.org/2000/svg" xmlns:xlink="http://www.w3.org/1999/xlink" x="0px" y="0px" viewBox="0 0 1000 150"
	 style="enable-background:new 0 0 1000 150;" xml:space="preserve">
<style type="text/css">
	.st0{fill:#027450;}
	.st1{fill:#BD2E1B;}
	.st2{fill:#067450;}
	.st3{fill:#077351;}
	.st4{fill:#067451;}
	.st5{fill:#047550;}
	.st6{fill:#077450;}
	.st7{fill:#037450;}
	.st8{fill:#057450;}
</style>
<sodipodi:namedview  bordercolor="#ffffff" borderopacity="0" gridtolerance="10" guidetolerance="10" id="namedview106" inkscape:current-layer="Capa_1" inkscape:cx="615.74696" inkscape:cy="111.06084" inkscape:pageopacity="0" inkscape:pageshadow="2" inkscape:window-height="837" inkscape:window-maximized="1" inkscape:window-width="1600" inkscape:window-x="-8" inkscape:window-y="-8" inkscape:zoom="0.7225" objecttolerance="10" pagecolor="#ffffff" showgrid="false">
	</sodipodi:namedview>
<path id="path65" inkscape:connector-curvature="0" sodipodi:nodetypes="ccccccccccccccccccccccccc" class="st0" d="M157.6-212
	c-9.3,1.6-18.4,3.7-28.9,6.6c8.6,3.2,16,5.6,23.2,8.7c24,10.2,46,22.9,60.4,43.9c5.4,7.8,8.9,16.4,7,26c-2,9.7-8.5,16.4-17.8,21
	c-16.8,8.3-35,8.9-53.8,6.9c3.7-1.2,7.4-2.1,11-3.5c12.7-4.8,22.5-12,24.9-25.2c1.5-8.1-0.9-15.5-4.9-22.5
	c-9.9-17.4-26.1-29-44-39.1l-0.6-0.3c-27.3-12.9-18.2-13.2-45.5,0.3C72.1-181,58-169.8,47.8-155.1c-17.3,24.9-8.1,47.6,23.2,55.5
	c1.9,0.3,2.5,0.7,4.2,1.7c-19.4,1-38.4,0.5-55.3-8.9c-18.2-10.1-21.6-27.9-9.4-45.7c10.5-15.3,25.3-26.2,42.1-35.4
	c11.4-6.2,23.4-11.3,36.1-15.2c1.5-0.5,3.4-0.4,4.4-2.6c-9-2.9-18.2-4.7-27.5-6.4c10.2-1.5,20.4-1.4,30.4,0.5
	c10.7,2,21,1.8,31.7-0.1C136.4-212.7,147.5-213.6,157.6-212L157.6-212z"/>
<path id="path67" inkscape:connector-curvature="0" class="st1" d="M145.9-140.6c0,17.5-15.3,31.3-34.7,31.4
	c-20,0.1-35.5-13.5-35.5-31.2c0-18,15.2-31.7,34.9-31.7C130.4-172.1,145.9-158.3,145.9-140.6z"/>
<path class="st2" d="M669.5-116c-8.1-17.3-16.3-34.6-24.6-51.8c0,0-0.5-3.4-2.8-3.5c-2.5-0.1-2.9,2-3.6,3.5
	c-5.1,11.2-9.7,22.8-15.4,33.8c-5.6,10.3-7.1,19.6-18.1,29.2c6.8,1.9,18.4,1.6,22-0.5c-3.2-1.9-8.9-0.6-7.6-6.7c2-9.4,3.6-11,14-11
	h7.7c6.7-0.1,10.2,3.5,11.5,11.6c0.9,5.7-4.5,4.4-7.7,5.6c-0.4,0.1-0.5,0.9-1.1,2.1c10.2,0,19.7,0.1,29.3,0c2,0,4.2,0.6,7.4-1.3
	C673.9-107,671.6-111.4,669.5-116z M641.5-126.9c-4.1-0.2-8.1-0.1-12.2,0c-3.2,0.1-4.4-0.6-3-3.6c2.9-6.3,5.5-12.6,8.7-20
	c3.4,7.4,6.1,13.7,9.1,19.9C645.4-127.9,645.1-126.7,641.5-126.9z"/>
<path id="path71" inkscape:connector-curvature="0" class="st3" d="M858.4-142.7c-2.5-1.4-2.1-3.6-2.9-5.3
	c-3.1-6.4-16.6-11-23.4-7.8c-2,0.9-2.4,2.6-2.4,4.4c0,4.9,0.2,9.7-0.1,14.6c-0.1,3.1,1.4,3.7,4.3,3.2c4.3-0.7,7.4-2.7,9.1-6.6
	c0.8-1.7-0.1-4,3-5.5c0,9.5,0,18.5,0,27.6c-2.2,0.3-2-1.3-2.3-2.6c-0.5-2.7-1.3-5.3-3.9-7.1c-2.6-1.9-5.8-3.5-8.9-2.4
	c-2.7,1-1.1,4.1-1.3,6.3c-0.2,3.7,0.1,7.4-0.1,11.1c-0.3,5.2,2.5,7,7.8,6.8c9.2-0.3,16.6-3.4,21.6-10.6c1-1.4,1.3-3.2,3.8-4.4
	c1.2,5.9-1.8,10.9-2.4,16.1c-0.1,1.2-1.5,1.3-2.5,1.3c-17,0-34.1,0-51.9-0.8c10.7-1.2,8.6-8,8.6-13.7c0.1-8.8,0-17.5,0-26.3
	c0-9.5,0-9.5-8.1-13.7c0.9-1.6,2.6-1,4-1c14.6-0.1,29.2,0.1,43.8-0.1c3.8,0,5.6,1,5.1,4.6C858.9-150.8,860.4-146.8,858.4-142.7
	L858.4-142.7z"/>
<path id="path73" inkscape:connector-curvature="0" class="st2" d="M442.3-157.5c-6.2,1.1-7.9,4.5-7.7,10.1
	c0.4,13.6,0.2,27.2,0.1,40.8c0,1.4,1,3.5-1.1,4.1c-1.9,0.5-2.9-1.3-4-2.4c-12.3-13.4-24.6-26.8-38.3-41.8c0,7.3,0,12.9,0,18.6
	c0,3.7,0.2,7.4,0,11.1c-0.4,6,0.9,10.8,8.5,12.8c-6.7,0-13.3,0-20,0c8.5-1.5,7.5-7.4,7.5-12.8c0-9.3-0.3-18.7,0.1-28
	c0.2-4.8-1.3-8.4-5.6-11c-1.6-0.9-3.1-1.7-0.9-3.4c14.2-2.3,23.4,3.6,30.9,14.2c4.9,7,11.5,12.9,17.4,19.4c0.1,0.1,0.4,0.2,1.6,0.7
	c-0.2-9.2,0.5-17.9-0.6-26.7c-0.5-4.3-4.7-4.4-8.3-5.5C426.7-159.9,438.2-159.8,442.3-157.5z"/>
<path id="path75" inkscape:connector-curvature="0" class="st4" d="M739.7-123.2c1.8,6-0.4,11.4-0.7,17c-0.1,2.4-2,2.6-4.1,2.6
	c-15,0-30.1,0-45.1,0c-6.6,0-3-3.3-1.8-5.1c9.6-14.2,19.4-28.4,29.2-42.6c0.9-1.3,2.1-2.4,2-4.1c-14.6-2.2-19.8,0-27.1,11.2
	c-0.5,0.8-0.9,2-2.2,1.8c-1.9-0.3-1.3-1.7-1.2-2.8c0.5-3.9,1.1-7.7,1.5-11.6c0.3-3.2,2.8-2.4,4.8-2.4c12.7-0.1,25.4,0.1,38-0.1
	c5.7-0.1,5.6,1.6,3.1,5.2c-10.1,14.7-20,29.4-30,44.1c-0.5,0.8-1,1.7-1.8,3c7.8,1.3,15.1,0.5,22.2-1.5
	C734.3-110.6,736.4-117.3,739.7-123.2L739.7-123.2z"/>
<path id="path77" inkscape:connector-curvature="0" class="st5" d="M747.9-142.6c-1.6-5-0.5-9.8-0.7-14.5c-0.1-2.3,2.1-2.1,3.7-2.1
	c15.9,0,31.8,0,47.6,0c2.2,0,3.7,0.4,3.7,2.9c-0.1,4.4,0,8.7,0,13.1c-3.3,0.2-3.1-1.8-3.5-3.1c-0.9-2.9-2.5-5.4-5.2-7.2
	c-3-2-6.6-3.8-10.1-2.3c-2.8,1.2-1.2,4.6-1.3,6.9c-0.1,10.5-0.1,21-0.1,31.5c0,9.5,0,9.5,8.6,12.5c-4.4,1.5-24.1,1.7-32.6,0.1
	c11.4-1.3,8.9-8.7,8.9-14.9c0.1-10.7-0.2-21.4,0-32.1c0.1-4.7-2.2-5.2-6.3-4.1c-4.3,1.2-7.6,3.5-9.4,7.4
	C750.6-146.5,750.5-144.2,747.9-142.6L747.9-142.6z"/>
<path id="path79" inkscape:connector-curvature="0" class="st2" d="M927.4-141.2c-5-3-6.6-7.5-10.4-10.7c-11.4-9.7-24.2-6.6-28.2,7
	c-2.5,8.4-2.5,17-0.4,25.4c3.1,12.1,13.4,16.4,26,11.4c3.6-1.4,6.7-3.4,9.4-5.9c1-0.9,2.1-2.3,3.8-1.1c1.8,1.3,0.2,2.5-0.7,3.4
	c-8.3,8.4-19,11.1-30.9,9.1c-11.6-1.9-20.2-7.9-23.6-18.3c-3.8-11.7-2.1-22.9,8.3-31.6c10.4-8.7,22.5-9.7,35.3-5.2
	c3.1,1.1,5.8,2.5,8.3-1.1c1.3-1.8,3.1-1.4,3.1,1.1C927.5-152.3,927.4-146.8,927.4-141.2L927.4-141.2z"/>
<path class="st6" d="M964.4-104.2h32.4c-5.9-2.6-8-6-9.7-9.7c-6.8-14.5-13.7-28.9-20.5-43.3c-0.6-1.3-0.7-2.9-2.5-3.1
	c-2.4-0.3-2.4,1.7-3,3.1c-3.4,7.4-6.4,14.8-10.2,22c-6.1,10.4-7.7,20-17.9,31.1c6.5,0.5,12.4,0.7,18.4-0.7c-3.2-1.4-7.4-1.1-6.9-5.7
	c0.7-6.6,3.9-9.3,11.3-9.3h6.4c6.9,0,8.5,1.7,10.3,9C973.8-105.5,968.7-106.5,964.4-104.2z M965.2-123.3c-4.4,0.3-9,0.5-13.4,0
	c-2.4-0.3-1.1-2.5-0.6-3.8c2.2-4.9,4.4-9.7,6.9-15.5c2.9,6.2,5.4,11.3,7.7,16.5C966.3-125.1,966.9-123.4,965.2-123.3z"/>
<path class="st7" d="M293.1-137.7c-1.6-0.6-3.9-0.2-4.9-2.4c1.5-0.5,3-0.8,4.3-1.3c7.1-3,11.3-8.3,10.6-13.9
	c-0.9-6.7-5.4-10.7-12.4-12.7c-4.7-1.3-9.5-2.2-14.5-2.2h-31.6c-1.4,0-3.1-0.6-4.5,1.8c4.4,1.7,10,1.7,10.2,7.6v47.8
	c0,3.3-1.9,5.3-5.4,6.4c-1.4,0.5-3.6-0.1-4.2,2c1,1.6,2.7,0.9,4,0.9h32.2c5.4,0,10.7-0.7,15.8-2.3c8.5-2.7,14-8.9,14.1-15.8
	C306.9-128.8,301.9-134.5,293.1-137.7z M267.6-145c0.3-2.7,0.1-5.4,0.1-8.1c0-0.1,0-0.1,0-0.1c0-2.1-0.2-4.3,0-6.4
	c0.2-2.4-1.1-5.4,2.4-6.6c3.3-1.2,6.8-1,9.9,0.9c4.4,2.7,6.1,10.8,3.8,17.8c-1.7,5.1-5.9,6.6-11.2,7
	C268.4-140.1,267.3-141.6,267.6-145z M274.3-106.8c-4.1-0.1-6.5-1.6-6.5-5.5c0-7.2,0-14.3-0.1-21.5c-0.1-3,1.5-3.4,4.4-3.4
	c9.8,0,15.6,5.8,15.6,16C287.7-111.9,282.8-106.7,274.3-106.8z"/>
<path class="st8" d="M545.5-160.4c-18.9,0-32.4,12.3-32.4,29.4c0,17,13,28.7,32.1,28.8c19.4,0.1,32.9-11.7,32.9-28.8
	C578.1-148,564.3-160.4,545.5-160.4z M558.6-113.4c-2.3,5.1-6.4,8.4-12.6,8.6s-10.8-2.6-13-7.9c-5.1-12.3-5-24.7,0.3-36.9
	c2.2-5,6.7-8.1,13.1-7.7c6.4,0.4,10,4.2,12.2,9.1c2.5,5.6,3.4,11.5,2.8,17.5C561.8-124.6,561.1-118.9,558.6-113.4z"/>
<path class="st6" d="M343.6-104.3h30.8c-5.4-2.6-7.1-7.5-9.2-12c-6.4-13.6-12.8-27.1-19.2-40.7c-0.7-1.3-0.9-3.3-3.2-3.1
	c-1.8,0.1-2,1.7-2.6,3c-2.1,4.8-4,10-6.6,14.7c-7.7,12.3-9.9,26.8-21,38.7h16.5c0.8,0,1.8,0.2,2-0.9c-8.2-3.8-8-3.7-5-11.7
	c1.2-2.9,2.9-3.8,6.1-3.6c3.2,0.3,6.5,0.1,9.7,0.1c6.5,0,8.7,2.2,10.1,9.3C353.1-105.1,347.6-106.7,343.6-104.3z M345.1-124.1
	c-3.5,2.7-10,1.2-15.7,0.6c2.7-6.2,5.2-12.1,7.8-18.2C339.7-139.8,347.3-125.7,345.1-124.1z"/>
<path id="path89" inkscape:connector-curvature="0" class="st2" d="M503.2-140.8c-2.6-3.7-4.8-7.7-8.3-10.9
	c-10.6-9.7-23.8-6.9-28.3,6c-2.9,8.4-3,17-0.9,25.3c3.5,13.8,16,18.3,29.4,10.9c2.4-1.3,4.4-3.1,6.5-4.7c1.1-0.9,2.2-2.3,3.7-0.8
	c1.6,1.5-0.3,2.4-1.1,3.4c-8.6,9.4-24.8,12.3-38.4,6.9c-11.8-4.6-19.4-17.2-17.6-29.2c3-20.8,23.5-31.8,45-24
	c3.3,1.2,6.2,2.9,8.8-1.1c1.2-1.8,2.7-1.2,2.8,0.7c0.2,5.7,0.1,11.4,0.1,17.1C504.4-141,503.8-140.9,503.2-140.8z"/>
<path id="path103" class="st0" d="M-141-90"/>
</svg>
