<svg id="Capa_1" data-name="Capa 1" xmlns="http://www.w3.org/2000/svg" viewBox="0 0 993.6 115.6"><defs><style>.cls-1{fill:#027450;}.cls-2{fill:#bd2e1b;}.cls-3{fill:#067450;}.cls-4{fill:#077351;}.cls-5{fill:#067451;}.cls-6{fill:#047550;}.cls-7{fill:#077450;}.cls-8{fill:#037450;}.cls-9{fill:#057450;}</style></defs><title>Logo_Banco_Azteca2</title><path id="path65" class="cls-1" d="M157.6-212a292.65,292.65,0,0,0-28.9,6.6c8.6,3.2,16,5.6,23.2,8.7,24,10.2,46,22.9,60.4,43.9,5.4,7.8,8.9,16.4,7,26s-8.5,16.4-17.8,21c-16.8,8.3-35,8.9-53.8,6.9,3.7-1.2,7.4-2.1,11-3.5,12.7-4.8,22.5-12,24.9-25.2,1.5-8.1-.9-15.5-4.9-22.5-9.9-17.4-26.1-29-44-39.1l-.6-.3c-27.3-12.9-18.2-13.2-45.5.3C72.1-181,58-169.79,47.76-155.09c-17.3,24.9-8.12,47.58,23.18,55.48a9.24,9.24,0,0,1,4.16,1.68c-19.4,1-38.4.5-55.3-8.9-18.2-10.1-21.6-27.9-9.4-45.7,10.5-15.3,25.3-26.2,42.1-35.4a195.37,195.37,0,0,1,36.1-15.2c1.5-.5,3.4-.4,4.4-2.6a215.1,215.1,0,0,0-27.5-6.4,91.19,91.19,0,0,1,30.4.5,86.62,86.62,0,0,0,31.7-.1c8.82-1,19.9-1.9,30-.3Z" transform="translate(-3.2 213.17)"/><path id="path67" class="cls-2" d="M145.9-140.63c0,17.5-15.3,31.3-34.7,31.4-20,.1-35.5-13.5-35.5-31.2,0-18,15.2-31.7,34.9-31.7S145.9-158.33,145.9-140.63Z" transform="translate(-3.2 213.17)"/><path class="cls-3" d="M669.5-116q-12.15-26-24.6-51.8s-.5-3.4-2.8-3.5c-2.5-.1-2.9,2-3.6,3.5-5.1,11.2-9.7,22.8-15.4,33.8-5.63,10.34-7.06,19.62-18.1,29.2,6.8,1.9,18.4,1.6,22-.5-3.2-1.9-8.89-.6-7.59-6.7,2-9.4,3.59-11,14-11h7.7c6.7-.1,10.2,3.5,11.5,11.6.9,5.7-4.5,4.4-7.7,5.6-.4.1-.5.9-1.1,2.1,10.2,0,19.7.1,29.3,0,2,0,4.2.6,7.4-1.3C673.9-107,671.6-111.43,669.5-116Zm-28-10.9c-4.1-.2-8.1-.1-12.2,0-3.2.1-4.4-.6-3-3.6,2.9-6.3,5.5-12.6,8.7-20,3.4,7.4,6.1,13.7,9.1,19.9C645.4-127.93,645.1-126.73,641.5-126.93Z" transform="translate(-3.2 213.17)"/><path id="path71" class="cls-4" d="M858.4-142.73c-2.5-1.4-2.1-3.6-2.9-5.3-3.1-6.4-16.6-11-23.4-7.8-2,.9-2.4,2.6-2.4,4.4,0,4.9.2,9.7-.1,14.6-.1,3.1,1.4,3.7,4.3,3.2,4.3-.7,7.4-2.7,9.1-6.6.8-1.7-.1-4,3-5.5v27.6c-2.2.3-2-1.3-2.3-2.6-.5-2.7-1.3-5.3-3.9-7.1s-5.8-3.5-8.9-2.4c-2.7,1-1.1,4.1-1.3,6.3-.2,3.7.1,7.4-.1,11.1-.3,5.2,2.5,7,7.8,6.8,9.2-.3,16.6-3.4,21.6-10.6,1-1.4,1.3-3.2,3.8-4.4,1.2,5.9-1.8,10.9-2.4,16.1-.1,1.2-1.5,1.3-2.5,1.3-17,0-34.1,0-51.9-.8,10.7-1.2,8.6-8,8.6-13.7.1-8.8,0-17.5,0-26.3,0-9.5,0-9.5-8.1-13.7.9-1.6,2.6-1,4-1,14.6-.1,29.2.1,43.8-.1,3.8,0,5.6,1,5.1,4.6-.4,3.8,1.1,7.8-.9,11.9Z" transform="translate(-3.2 213.17)"/><path id="path73" class="cls-3" d="M442.3-157.53c-6.2,1.1-7.9,4.5-7.7,10.1.4,13.6.2,27.2.1,40.8,0,1.4,1,3.5-1.1,4.1-1.9.5-2.9-1.3-4-2.4-12.3-13.4-24.6-26.8-38.3-41.8v18.6c0,3.7.2,7.4,0,11.1-.4,6,.9,10.8,8.5,12.8h-20c8.5-1.5,7.5-7.4,7.5-12.8,0-9.3-.3-18.7.1-28,.2-4.8-1.3-8.4-5.6-11-1.6-.9-3.1-1.7-.9-3.4,14.2-2.3,23.4,3.6,30.9,14.2,4.9,7,11.5,12.9,17.4,19.4a10.24,10.24,0,0,0,1.6.7c-.2-9.2.5-17.9-.6-26.7-.5-4.3-4.7-4.4-8.3-5.5C426.7-159.93,438.2-159.83,442.3-157.53Z" transform="translate(-3.2 213.17)"/><path id="path75" class="cls-5" d="M739.7-123.23c1.8,6-.4,11.4-.7,17-.1,2.4-2,2.6-4.1,2.6H689.8c-6.6,0-3-3.3-1.8-5.1,9.6-14.2,19.4-28.4,29.2-42.6.9-1.3,2.1-2.4,2-4.1-14.6-2.2-19.8,0-27.1,11.2-.5.8-.9,2-2.2,1.8-1.9-.3-1.3-1.7-1.2-2.8.5-3.9,1.1-7.7,1.5-11.6.3-3.2,2.8-2.4,4.8-2.4,12.7-.1,25.4.1,38-.1,5.7-.1,5.6,1.6,3.1,5.2-10.1,14.7-20,29.4-30,44.1-.5.8-1,1.7-1.8,3a50,50,0,0,0,22.2-1.5c7.8-2.1,9.9-8.8,13.2-14.7Z" transform="translate(-3.2 213.17)"/><path id="path77" class="cls-6" d="M747.9-142.63c-1.6-5-.5-9.8-.7-14.5-.1-2.3,2.1-2.1,3.7-2.1h47.6c2.2,0,3.7.4,3.7,2.9-.1,4.4,0,8.7,0,13.1-3.3.2-3.1-1.8-3.5-3.1a12.89,12.89,0,0,0-5.2-7.2c-3-2-6.6-3.8-10.1-2.3-2.8,1.2-1.2,4.6-1.3,6.9-.1,10.5-.1,21-.1,31.5,0,9.5,0,9.5,8.6,12.5-4.4,1.5-24.1,1.7-32.6.1,11.4-1.3,8.9-8.7,8.9-14.9.1-10.7-.2-21.4,0-32.1.1-4.7-2.2-5.2-6.3-4.1-4.3,1.2-7.6,3.5-9.4,7.4-.6,2-.7,4.3-3.3,5.9Z" transform="translate(-3.2 213.17)"/><path id="path79" class="cls-3" d="M927.4-141.23c-5-3-6.6-7.5-10.4-10.7-11.4-9.7-24.2-6.6-28.2,7a47.63,47.63,0,0,0-.4,25.4c3.1,12.1,13.4,16.4,26,11.4a29.38,29.38,0,0,0,9.4-5.9c1-.9,2.1-2.3,3.8-1.1s.2,2.5-.7,3.4c-8.3,8.4-19,11.1-30.9,9.1-11.6-1.9-20.2-7.9-23.6-18.3-3.8-11.7-2.1-22.9,8.3-31.6s22.5-9.7,35.3-5.2c3.1,1.1,5.8,2.5,8.3-1.1,1.3-1.8,3.1-1.4,3.1,1.1.1,5.4,0,10.9,0,16.5Z" transform="translate(-3.2 213.17)"/><path class="cls-7" d="M964.4-104.23h32.4a17.22,17.22,0,0,1-9.7-9.7c-6.8-14.5-13.7-28.9-20.5-43.3-.6-1.3-.7-2.9-2.5-3.1-2.4-.3-2.4,1.7-3,3.1-3.4,7.4-6.4,14.8-10.2,22-6.1,10.38-7.69,20-17.9,31.1,6.5.5,12.4.7,18.4-.7-3.2-1.4-7.4-1.1-6.9-5.7.7-6.6,3.9-9.3,11.3-9.3h6.4c6.9,0,8.5,1.7,10.3,9C973.8-105.53,968.7-106.53,964.4-104.23Zm.8-19.1a75,75,0,0,1-13.4,0c-2.4-.3-1.1-2.5-.6-3.8,2.2-4.9,4.4-9.7,6.9-15.5,2.9,6.2,5.4,11.3,7.7,16.5C966.3-125.13,966.9-123.43,965.2-123.33Z" transform="translate(-3.2 213.17)"/><path class="cls-8" d="M293.1-137.73c-1.6-.6-3.9-.2-4.9-2.4,1.5-.5,3-.8,4.3-1.3,7.1-3,11.3-8.3,10.6-13.9-.9-6.7-5.4-10.7-12.4-12.7a54.14,54.14,0,0,0-14.5-2.2H244.6c-1.4,0-3.1-.6-4.5,1.8,4.4,1.7,10,1.7,10.2,7.6V-113c0,3.3-1.9,5.3-5.4,6.4-1.4.5-3.6-.1-4.2,2,1,1.6,2.7.9,4,.9h32.2a52.55,52.55,0,0,0,15.8-2.3c8.5-2.7,14-8.9,14.1-15.8S301.9-134.53,293.1-137.73ZM267.6-145a73,73,0,0,0,.1-8.1v-.1c0-2.1-.2-4.3,0-6.4.2-2.4-1.1-5.4,2.4-6.6a11.19,11.19,0,0,1,9.9.9c4.4,2.7,6.1,10.8,3.8,17.8-1.7,5.1-5.9,6.6-11.2,7C268.4-140.13,267.3-141.63,267.6-145Zm6.7,38.2c-4.1-.1-6.5-1.6-6.5-5.5,0-7.2,0-14.3-.1-21.5-.1-3,1.5-3.4,4.4-3.4,9.8,0,15.6,5.8,15.6,16C287.7-111.93,282.8-106.73,274.3-106.83Z" transform="translate(-3.2 213.17)"/><path class="cls-9" d="M545.5-160.43c-18.9,0-32.4,12.3-32.4,29.4s13,28.7,32.1,28.8c19.4.1,32.9-11.7,32.9-28.8S564.3-160.43,545.5-160.43Zm13.1,47c-2.3,5.1-6.4,8.4-12.6,8.6s-10.8-2.6-13-7.9a45.59,45.59,0,0,1,.3-36.9c2.2-5,6.7-8.1,13.1-7.7s10,4.2,12.2,9.1a34.1,34.1,0,0,1,2.8,17.5A35.16,35.16,0,0,1,558.6-113.43Z" transform="translate(-3.2 213.17)"/><path class="cls-7" d="M343.6-104.33h30.8c-5.4-2.6-7.1-7.5-9.2-12-6.4-13.6-12.8-27.1-19.2-40.7-.7-1.3-.9-3.3-3.2-3.1-1.8.1-2,1.7-2.6,3-2.1,4.8-4,10-6.62,14.74-7.73,12.31-9.93,26.75-21,38.66h16.5c.8,0,1.8.2,2-.9-8.2-3.8-8-3.7-5-11.7,1.2-2.9,2.9-3.8,6.1-3.6s6.5.1,9.7.1c6.5,0,8.7,2.2,10.1,9.3C353.1-105.13,347.6-106.73,343.6-104.33Zm1.5-19.8c-3.5,2.7-10,1.2-15.7.6,2.7-6.2,5.2-12.1,7.8-18.2C339.7-139.83,347.3-125.73,345.1-124.13Z" transform="translate(-3.2 213.17)"/><path id="path89" class="cls-3" d="M503.2-140.83c-2.6-3.7-4.8-7.7-8.3-10.9-10.6-9.7-23.8-6.9-28.3,6a43.72,43.72,0,0,0-.9,25.3c3.5,13.8,16,18.3,29.4,10.9a51.28,51.28,0,0,0,6.5-4.7c1.1-.9,2.2-2.3,3.7-.8s-.3,2.4-1.1,3.4c-8.6,9.4-24.8,12.3-38.4,6.9-11.8-4.6-19.4-17.2-17.6-29.2,3-20.8,23.5-31.8,45-24,3.3,1.2,6.2,2.9,8.8-1.1,1.2-1.8,2.7-1.2,2.8.7.2,5.7.1,11.4.1,17.1A8.47,8.47,0,0,1,503.2-140.83Z" transform="translate(-3.2 213.17)"/><path id="path103" class="cls-1" d="M-141-90" transform="translate(-3.2 213.17)"/></svg>