<?xml version="1.0" encoding="utf-8"?>
<!-- Generator: Adobe Illustrator 24.0.2, SVG Export Plug-In . SVG Version: 6.00 Build 0)  -->
<svg version="1.1" id="Layer_1" xmlns="http://www.w3.org/2000/svg" xmlns:xlink="http://www.w3.org/1999/xlink" x="0px" y="0px"
	 viewBox="0 0 2500 2500" style="enable-background:new 0 0 2500 2500;" xml:space="preserve">
<style type="text/css">
	.st0{fill-rule:evenodd;clip-rule:evenodd;fill:#FFFFFF;}
	.st1{fill-rule:evenodd;clip-rule:evenodd;}
</style>
<g>
	<polygon class="st0" points="-2129,526.6 -1883.6,526.6 -1883.6,2252.7 -2115.2,2252.7 -2115.2,1119.5 -2322,1659.9 -2504,1254.6 
		-2504,1966 -2713.6,1753.7 -2713.6,1023 -2495.7,818.9 -2349.6,1116.7 	"/>
	<path class="st0" d="M-1164.7,1224.2v-82.7L-1490,802.4V1977c0,0,278.5-273,306.1-306.1c27.6-33.1,24.8-77.2-13.8-71.7h-143.4
		v-209.6h386v364l-501.8,499.1h-264.7V526.6h270.2l496.3,504.6v193H-1164.7z"/>
	<path class="st0" d="M-1299.5,179.2h-1058.8l-689.3,689.3v1050.6l683.8,686.6h1053.3l689.3-689.3V863.1L-1299.5,179.2z
		 M-830.7,1822.6l-573.5,573.5h-860.3l-573.5-570.8V962.3l573.5-570.8h871.3l562.5,565.3V1822.6z"/>
	<path class="st1" d="M-1299.5,179.2h-1058.8l-689.3,689.3v1050.6l683.8,686.6h1053.3l689.3-689.3V863.1L-1299.5,179.2z
		 M-830.7,1822.6l-573.5,573.5h-860.3l-573.5-570.8V962.3l573.5-570.8h871.3l562.5,565.3V1822.6z"/>
	<path class="st1" d="M-2129,526.6l-220.6,590.1l-146.1-297.8l-217.8,204.1v730.7L-2504,1966v-711.4l182,405.3l206.8-540.4v1133.3
		h231.6V526.6H-2129z M-1341.1,1389.7v209.6h143.4c38.6-5.5,41.4,38.6,13.8,71.7C-1211.5,1704-1490,1977-1490,1977V802.4
		l325.4,339.2v82.7h209.6v-193l-496.3-504.6h-270.2v1726.1h264.7l501.8-499.1v-364H-1341.1z"/>
</g>
</svg>
