<?xml version="1.0" encoding="utf-8"?>
<!-- Generator: Adobe Illustrator 24.0.2, SVG Export Plug-In . SVG Version: 6.00 Build 0)  -->
<svg version="1.1" id="Layer_1" xmlns="http://www.w3.org/2000/svg" xmlns:xlink="http://www.w3.org/1999/xlink" x="0px" y="0px"
	 viewBox="0 0 2426.5 2426.5" style="enable-background:new 0 0 2426.5 2426.5;" xml:space="preserve">
<style type="text/css">
	.st0{fill-rule:evenodd;clip-rule:evenodd;fill:#FFFFFF;}
</style>
<title>mg2</title>
<polygon class="st0" points="-1930.4,762.4 -1685,762.4 -1685,2488.5 -1916.6,2488.5 -1916.6,1355.2 -2123.4,1895.6 -2305.4,1490.3 
	-2305.4,2201.7 -2515,1989.4 -2515,1258.7 -2297.1,1054.6 -2151,1352.4 "/>
<path class="st0" d="M-966.1,1460v-82.7l-325.3-339.2v1174.6c0,0,278.5-273,306.1-306.1s24.8-77.2-13.8-71.7h-143.4v-209.6h386v364
	l-501.8,499.1H-1523V762.4h270.2l496.3,504.6v193L-966.1,1460z"/>
<path class="st0" d="M-1100.9,415h-1058.8l-689.3,689.3v1050.5l683.8,686.6h1053.3l689.3-689.3V1098.8L-1100.9,415z M-632.1,2058.4
	l-573.5,573.5H-2066l-573.5-570.8v-863.1l573.5-570.8h871.3l562.5,565.3V2058.4z"/>
<path class="st0" d="M-1100.9,415h-1058.8l-689.3,689.3v1050.5l683.8,686.6h1053.3l689.3-689.3V1098.8L-1100.9,415z M-632.1,2058.4
	l-573.5,573.5H-2066l-573.5-570.8v-863.1l573.5-570.8h871.3l562.5,565.3V2058.4z"/>
<path class="st0" d="M-1930.4,762.4l-220.6,590.1l-146.1-297.8l-217.8,204.1v730.7l209.6,212.3v-711.4l182,405.3l206.8-540.4v1133.2
	h231.6V762.4H-1930.4z M-1142.5,1625.4v209.6h143.4c38.6-5.5,41.4,38.6,13.8,71.7s-306,306.1-306,306.1V1038.1l325.4,339.2v82.7
	h209.6v-193l-496.3-504.6H-1523v1726.1h264.7l501.8-499.1v-364L-1142.5,1625.4z"/>
</svg>
