<svg id="Layer_1" data-name="Layer 1" xmlns="http://www.w3.org/2000/svg" viewBox="0 0 2426.47 2426.47"><defs><style>.cls-1{fill:#fff;fill-rule:evenodd;}</style></defs><title>mg3</title><polygon class="cls-1" points="918.64 347.41 1164.03 347.41 1164.03 2073.51 932.42 2073.51 932.42 940.24 725.63 1480.68 543.64 1075.35 543.64 1786.75 334.07 1574.44 334.07 843.73 551.91 639.68 698.05 937.48 918.64 347.41"/><path class="cls-1" d="M-966.06,1460v-82.72l-325.34-339.15V2212.75s278.5-273,306.06-306.08,24.84-77.21-13.77-71.68h-143.38V1625.42h386v364l-501.84,499.07H-1523V762.38h270.21L-756.5,1267v193Z" transform="translate(2849.03 -414.97)"/><path class="cls-1" d="M-1100.88,415H-2159.69L-2849,1104.3V2154.85l683.83,686.59h1053.3l689.34-689.34V1098.8Zm468.76,1643.39-573.53,573.53h-860.3l-573.52-570.77V1198.06l573.52-570.78h871.31l562.52,565.27Z" transform="translate(2849.03 -414.97)"/><path class="cls-1" d="M-1100.88,415H-2159.69L-2849,1104.3V2154.85l683.83,686.59h1053.3l689.34-689.34V1098.8Zm468.76,1643.39-573.53,573.53h-860.3l-573.52-570.77V1198.06l573.52-570.78h871.31l562.52,565.27Z" transform="translate(2849.03 -414.97)"/><path class="cls-1" d="M-1930.4,762.38-2151,1352.45l-146.14-297.8L-2515,1258.75v730.71l209.56,212.29v-711.4l182,405.33,206.79-540.44V2488.48H-1685V762.38Zm787.88,863V1835h143.38c38.61-5.53,41.36,38.61,13.77,71.68s-306,306.12-306,306.12V1038.11L-966,1377.26V1460h209.57V1267L-1252.8,762.39H-1523v1726.1h264.71l501.84-499.07v-364Z" transform="translate(2849.03 -414.97)"/></svg>