<svg width="144" height="121" viewBox="0 0 144 121" fill="none" xmlns="http://www.w3.org/2000/svg">
<path d="M83.7518 64.931C83.496 64.9566 83.2388 64.9663 82.9818 64.96H68.2668V68.382H83.2378C83.3518 68.382 84.2378 68.382 84.4068 68.353C85.6539 68.2424 86.8108 67.6569 87.6386 66.7177C88.4664 65.7784 88.9018 64.5571 88.8548 63.306C88.9115 62.0951 88.5079 60.9076 87.7252 59.9819C86.9424 59.0563 85.8383 58.4612 84.6348 58.316C84.2361 58.2756 83.8355 58.2566 83.4348 58.259H73.6568C73.2934 58.2701 72.9299 58.2412 72.5728 58.173C72.2575 58.0872 71.9811 57.8963 71.7892 57.6318C71.5973 57.3674 71.5016 57.0453 71.5178 56.719C71.5148 56.3948 71.6196 56.0787 71.8159 55.8206C72.0121 55.5624 72.2886 55.3768 72.6018 55.293C72.9391 55.2209 73.2842 55.192 73.6288 55.207H87.7438V51.842H73.3998C72.923 51.8349 72.4463 51.8636 71.9738 51.928C70.821 52.1024 69.7683 52.6827 69.0054 53.5644C68.2425 54.4461 67.8195 55.5712 67.8126 56.7371C67.8057 57.9031 68.2154 59.0331 68.9679 59.9238C69.7203 60.8144 70.7661 61.4071 71.9168 61.595C72.4298 61.652 73.1428 61.652 73.4568 61.652H82.9808C83.2092 61.6455 83.4378 61.6552 83.6648 61.681C84.0755 61.7113 84.458 61.9015 84.7299 62.2109C85.0018 62.5202 85.1414 62.9238 85.1188 63.335C85.1219 63.7212 84.9853 64.0955 84.7341 64.3889C84.4828 64.6822 84.1339 64.8748 83.7518 64.931Z" fill="white"/>
<path d="M55.8631 64.931C55.617 64.956 55.3695 64.9657 55.1221 64.96H40.3781V68.382H55.3491C55.4631 68.382 56.3491 68.382 56.5181 68.353C57.7654 68.2426 58.9226 67.6573 59.7505 66.718C60.5785 65.7787 61.0141 64.5573 60.9671 63.306C61.0238 62.0951 60.6203 60.9076 59.8375 59.9819C59.0547 59.0563 57.9506 58.4612 56.7471 58.316C56.3484 58.2756 55.9479 58.2566 55.5471 58.259H45.7701C45.4067 58.2701 45.0432 58.2412 44.6861 58.173C44.3709 58.0872 44.0944 57.8963 43.9025 57.6318C43.7106 57.3674 43.6149 57.0453 43.6311 56.719C43.6281 56.3948 43.7329 56.0787 43.9292 55.8206C44.1254 55.5624 44.4019 55.3768 44.7151 55.293C45.0524 55.2209 45.3975 55.192 45.7421 55.207H59.8571V51.842H45.5111C45.0343 51.8349 44.5576 51.8636 44.0851 51.928C42.9323 52.1024 41.8796 52.6827 41.1167 53.5644C40.3538 54.4461 39.9308 55.5712 39.9239 56.7371C39.917 57.9031 40.3267 59.0331 41.0792 59.9238C41.8317 60.8144 42.8774 61.4071 44.0281 61.595C44.5411 61.652 45.2541 61.652 45.5681 61.652H55.0921C55.3205 61.6455 55.5491 61.6552 55.7761 61.681C56.1696 61.7256 56.5336 61.9109 56.8012 62.2028C57.0688 62.4946 57.222 62.8733 57.2325 63.2691C57.2429 63.6649 57.11 64.0512 56.8582 64.3568C56.6064 64.6623 56.2527 64.8666 55.8621 64.932L55.8631 64.931Z" fill="white"/>
<path d="M32.708 51.7279H29.001V68.4669H32.708V51.7279Z" fill="white"/>
<path d="M0 51.7279V68.4669H3.707V55.9199L16.14 68.4669H20.817V51.7279H17.11V64.2139L4.762 51.7279H0Z" fill="white"/>
<path d="M126.64 68.467V55.92L139.04 68.467H143.718V51.728H140.039V64.214L127.692 51.724H122.93V68.463L126.64 68.467Z" fill="white"/>
<path d="M103.627 51.7279L93.1904 68.4669H97.6994L99.5534 65.4729H111.729L113.583 68.4669H118.06L107.623 51.7279H103.627ZM109.815 62.3069H101.46L105.652 55.5769L109.815 62.3069Z" fill="white"/>
<path d="M20.6177 42.2319C24.3164 31.5799 31.241 22.3443 40.4294 15.8083C49.6178 9.27223 60.6138 5.76025 71.8897 5.76025C83.1656 5.76025 94.1616 9.27223 103.35 15.8083C112.538 22.3443 119.463 31.5799 123.162 42.2319L123.219 42.403H139.559V40.436L132.772 39.636C128.58 39.151 127.696 37.298 126.556 34.959L126.271 34.389C121.39 24.0945 113.686 15.3974 104.056 9.30927C94.4262 3.22118 83.2656 -0.00767168 71.8726 -0.00170072C60.4796 0.00427024 49.3224 3.24481 39.6989 9.343C30.0753 15.4412 22.3809 24.1464 17.5107 34.4459L17.2257 35.0159C16.0847 37.354 15.2007 39.208 11.0087 39.693L4.22168 40.493V42.4599H20.5317L20.6177 42.2319Z" fill="white"/>
<path d="M123.218 77.821L123.161 77.992C119.483 88.655 112.563 97.901 103.369 104.436C94.1754 110.97 83.1685 114.467 71.889 114.435C60.606 114.465 49.5962 110.964 40.402 104.424C31.2079 97.884 24.2898 88.6316 20.617 77.963L20.56 77.792H4.24902V79.755L11.036 80.555C15.228 81.04 16.112 82.893 17.253 85.232L17.538 85.802C22.4154 96.1003 30.1138 104.804 39.7395 110.902C49.3651 117.001 60.5231 120.244 71.918 120.255C83.3087 120.244 94.463 117.005 104.088 110.913C113.713 104.821 121.414 96.1262 126.298 85.836L126.583 85.266C127.724 82.928 128.608 81.074 132.799 80.589L139.586 79.789V77.821H123.218Z" fill="white"/>
</svg>
