<svg width="138" height="64" viewBox="0 0 138 64" fill="none" xmlns="http://www.w3.org/2000/svg">
<path fill-rule="evenodd" clip-rule="evenodd" d="M116.206 42.171C119.224 42.1655 122.117 40.9643 124.251 38.8304C126.386 36.6966 127.587 33.804 127.593 30.786C127.589 27.7672 126.387 24.8733 124.253 22.7384C122.119 20.6035 119.225 19.4015 116.206 19.396C113.188 19.4018 110.294 20.6038 108.16 22.7387C106.026 24.8735 104.824 27.7673 104.819 30.786C104.825 33.804 106.027 36.6966 108.161 38.8304C110.296 40.9643 113.188 42.1655 116.206 42.171Z" fill="white"/>
<path fill-rule="evenodd" clip-rule="evenodd" d="M0 58.93C0.00447648 60.0598 0.455261 61.142 1.25414 61.9409C2.05301 62.7397 3.13523 63.1905 4.265 63.195H132.852C133.983 63.1918 135.068 62.741 135.868 61.9409C136.668 61.1408 137.119 60.0565 137.122 58.925V56.995H0V58.93Z" fill="white"/>
<path fill-rule="evenodd" clip-rule="evenodd" d="M22.346 19.396C19.3269 19.4013 16.433 20.6031 14.2983 22.738C12.1635 24.8729 10.9621 27.7669 10.957 30.786C10.9628 33.8046 12.1647 36.6978 14.2993 38.8321C16.434 40.9664 19.3274 42.1677 22.346 42.173C25.3642 42.1672 28.257 40.9656 30.3911 38.8314C32.5251 36.6971 33.7265 33.8042 33.732 30.786C33.7273 27.7673 32.5263 24.8736 30.3921 22.7387C28.258 20.6038 25.3647 19.4018 22.346 19.396Z" fill="white"/>
<path fill-rule="evenodd" clip-rule="evenodd" d="M92.6221 24.228L85.8371 32.092L96.5811 44.955C99.1411 48.908 94.2551 52.83 91.2241 49.213L81.2901 37.363L71.6091 48.585C68.5261 52.157 63.6971 48.166 66.3091 44.251L76.8181 32.031L69.9331 23.818L74.3621 18.333L81.3621 26.744L87.3981 19.724C90.3591 16.282 93.3791 11.724 97.298 9.37401H-0.00195312V53.827H22.7471C33.2901 53.827 38.076 47.527 45.0741 39.027L51.6741 31.006L40.634 18.396C37.986 14.503 42.7791 10.47 45.8931 14.016L56.093 25.634L65.5141 14.191C68.5141 10.547 73.433 14.427 70.914 18.402L60.6891 30.863L67.7621 38.915L63.3061 44.192L56.2661 36.252L50.3951 43.408C47.5131 46.918 44.5951 51.395 40.7361 53.83H137.118V9.373H115.309C104.771 9.131 99.8151 15.89 92.6221 24.228ZM40.3351 30.784C40.3263 35.5527 38.4282 40.1235 35.0563 43.4956C31.6845 46.8676 27.1137 48.766 22.345 48.775C17.576 48.7666 13.0046 46.8684 9.63213 43.4963C6.25967 40.1242 4.36104 35.5531 4.35205 30.784C4.36051 26.0147 6.25895 21.4431 9.63148 18.0707C13.004 14.6984 17.5757 12.8002 22.345 12.792C27.1139 12.801 31.6848 14.6995 35.0567 18.0718C38.4286 21.4441 40.3266 26.0152 40.3351 30.784ZM134.198 30.784C134.189 35.5528 132.291 40.1238 128.919 43.4959C125.547 46.868 120.976 48.7663 116.207 48.775C111.438 48.766 106.867 46.8677 103.495 43.4957C100.123 40.1237 98.2243 35.5529 98.2151 30.784C98.2238 26.0149 100.122 21.4436 103.494 18.0714C106.867 14.6991 111.438 12.8007 116.207 12.792C120.976 12.8005 125.547 14.6988 128.92 18.0712C132.292 21.4435 134.19 26.0149 134.198 30.784Z" fill="white"/>
<path fill-rule="evenodd" clip-rule="evenodd" d="M132.852 0H4.26511C3.13378 0.00343026 2.04977 0.45442 1.24989 1.25449C0.450014 2.05455 -0.000740972 3.13866 -0.00390625 4.26999V6.20499H137.122V4.26999C137.119 3.13857 136.668 2.05446 135.868 1.25443C135.068 0.454387 133.984 0.00342897 132.852 0Z" fill="white"/>
</svg>
