<svg width="92" height="96" viewBox="0 0 92 96" fill="none" xmlns="http://www.w3.org/2000/svg">
<path fill-rule="evenodd" clip-rule="evenodd" d="M82.1175 95.1769V87.7019H81.6365L77.6155 95.1779H71.5555L67.5345 87.7019H67.1665V95.1779H58.1055V81.8119H72.2915L74.7835 85.9739L77.4455 81.8119H91.0655V95.1769H82.1175Z" fill="white"/>
<path fill-rule="evenodd" clip-rule="evenodd" d="M20.076 90.5909C20.076 90.5909 23.899 89.7979 23.899 86.7679C23.899 81.8409 17.899 81.8409 17.899 81.8409H0V95.3189H9.769V90.8729H11.269L14.61 95.2339H25L20.076 90.5909ZM11.976 87.7309H9.68199V84.5879H12.202C12.6545 84.6188 13.0785 84.82 13.3886 85.1511C13.6987 85.4821 13.8718 85.9184 13.873 86.3719C13.873 87.7029 12.004 87.7309 12.004 87.7309H11.976Z" fill="white"/>
<path fill-rule="evenodd" clip-rule="evenodd" d="M48.6757 81.8409H34.0357L27.0137 95.2059H36.8957L38.2547 91.9779H44.2857L45.5857 95.1779H55.6137L48.6757 81.8409ZM39.1897 88.9199L41.3137 84.7579L43.4137 88.9209L39.1897 88.9199Z" fill="white"/>
<path d="M45.5607 0.00693318H52.4137C55.5847 0.0639332 58.7847 0.176934 61.9567 0.289934C64.8447 0.402934 67.7047 0.544933 70.5927 0.742933C72.4359 0.822974 74.2713 1.03114 76.0857 1.36593C76.4857 1.45093 76.8507 1.56593 77.2187 1.67693C77.6801 1.83175 78.0955 2.09934 78.4273 2.4554C78.7591 2.81147 78.9968 3.24475 79.1187 3.71593C79.3447 4.5658 79.459 5.44151 79.4587 6.32093V20.4509C79.4587 23.5089 79.3737 26.5669 79.2887 29.6509C79.2037 32.5109 79.0887 35.3709 78.9207 38.2309C78.7527 41.0909 78.6097 43.8659 78.2127 46.6689C77.8719 50.0443 76.5643 53.2495 74.4467 55.8999C72.6383 57.99 70.4831 59.7525 68.0757 61.1099C62.2423 64.5646 56.2677 67.7359 50.1517 70.6239C49.1037 71.1049 48.0277 71.6149 47.0087 72.1529C46.5743 72.3899 46.0874 72.514 45.5927 72.514C45.0979 72.514 44.611 72.3899 44.1767 72.1529C41.5437 70.9349 38.9667 69.6049 36.3897 68.2739C31.7737 65.8949 27.1587 63.4889 22.7127 60.8269C20.0627 59.3211 17.7573 57.2773 15.9447 54.8269C14.439 52.5741 13.4613 50.0103 13.0847 47.3269C12.7447 45.2029 12.6037 43.0799 12.4617 40.9269C12.2917 38.2649 12.15 35.6033 12.0367 32.9419C11.9517 31.4979 11.9517 30.0539 11.9237 28.5809C11.7237 21.3319 11.7237 14.0809 11.7537 6.83393C11.7263 5.89376 11.8119 4.9537 12.0087 4.03393C12.1132 3.43541 12.3877 2.87959 12.7994 2.43276C13.2111 1.98594 13.7427 1.66699 14.3307 1.51393C15.4163 1.23393 16.5252 1.05385 17.6437 0.975931C21.2437 0.607931 24.9207 0.465934 28.5737 0.324934C31.3737 0.211934 34.1517 0.124933 36.9557 0.041933C39.6987 -0.021067 42.6717 0.00693318 45.5607 0.00693318ZM45.5607 1.81893C42.3607 1.81893 39.1607 1.81893 35.9607 1.90393C33.6673 1.9606 31.3737 2.0456 29.0797 2.15893C25.4797 2.30093 21.9727 2.46993 18.4047 2.75393C17.3639 2.80556 16.3304 2.95726 15.3187 3.20693C14.9014 3.28922 14.5187 3.49549 14.2206 3.7988C13.9224 4.1021 13.7228 4.48832 13.6477 4.90693C13.5336 5.42787 13.4766 5.95967 13.4777 6.49293C13.4777 8.59293 13.4777 10.6839 13.3927 12.7789C13.3357 17.8189 13.3077 22.8599 13.4777 27.8999C13.4777 28.8059 13.4777 29.6839 13.5627 30.6469C13.7627 34.0729 13.9027 37.5279 14.1857 40.9539C14.3557 43.1059 14.4687 45.2539 14.8367 47.3819C15.1928 49.737 16.0735 51.9819 17.4137 53.9509C19.2092 56.3322 21.4863 58.3085 24.0967 59.7509C28.5967 62.4409 33.2967 64.8509 37.9717 67.2509C40.2657 68.4399 42.5587 69.6299 44.9087 70.7059C45.1068 70.8037 45.3247 70.8546 45.5457 70.8546C45.7666 70.8546 45.9846 70.8037 46.1827 70.7059C47.5987 70.0259 49.0147 69.3749 50.4297 68.6959C55.1587 66.4019 59.7737 63.9669 64.3297 61.3339C66.5033 60.1768 68.5771 58.8412 70.5297 57.3409C73.3311 55.1545 75.2836 52.0606 76.0517 48.5909C76.5224 46.1607 76.8251 43.7008 76.9577 41.2289C77.1277 39.0489 77.2127 36.8399 77.3577 34.6289C77.6127 30.8349 77.7257 27.0689 77.7827 23.2739C77.7827 19.9329 77.8397 16.5629 77.7827 13.2219C77.7257 11.0699 77.7827 8.88993 77.7257 6.73793C77.7256 6.28361 77.6972 5.82973 77.6407 5.37893C77.5985 4.84734 77.3809 4.34482 77.0222 3.95025C76.6635 3.55568 76.1839 3.29141 75.6587 3.19893C74.7524 2.94956 73.8222 2.7977 72.8837 2.74593C69.8257 2.54593 66.7957 2.34593 63.7657 2.20793C60.0847 2.03793 56.3757 1.92493 52.6657 1.83993C50.2587 1.72693 47.9087 1.81193 45.5587 1.81193L45.5607 1.81893Z" fill="white"/>
<path d="M36.6688 41.0369C37.0368 42.0559 37.3767 42.9369 37.6877 43.8119C37.7781 43.9836 37.9299 44.115 38.1128 44.1799C39.0188 44.6899 39.8968 45.1989 40.8028 45.7089C40.9534 45.7756 41.083 45.882 41.1778 46.0168C41.2726 46.1515 41.3289 46.3096 41.3407 46.4739C41.7087 48.9939 42.1057 51.4859 42.4737 54.0059C42.4925 54.4151 42.4544 54.825 42.3608 55.2239C42.2758 55.8189 42.1908 56.4129 42.0777 57.0079C42.0643 57.0544 42.0602 57.1031 42.0657 57.1512C42.0713 57.1993 42.0864 57.2458 42.1101 57.2879C42.1339 57.3301 42.1658 57.3671 42.204 57.3968C42.2422 57.4265 42.286 57.4483 42.3328 57.4609C43.2388 57.8289 44.1167 58.2259 45.0797 58.6219C45.1682 58.6638 45.2649 58.6855 45.3628 58.6855C45.4606 58.6855 45.5573 58.6638 45.6457 58.6219C46.6087 58.2539 47.5998 57.8569 48.5627 57.4889C48.6594 57.4719 48.7458 57.4182 48.8038 57.339C48.8618 57.2598 48.8869 57.1612 48.8738 57.0639C48.876 57.0485 48.8746 57.0328 48.8698 57.0181C48.8649 57.0033 48.8567 56.9899 48.8458 56.9789C48.7038 56.1579 48.5627 55.3369 48.4777 54.5159C48.4726 53.9806 48.5399 53.4471 48.6778 52.9299C48.9888 50.7779 49.3288 48.6299 49.6688 46.4739C49.6806 46.3096 49.7369 46.1515 49.8317 46.0168C49.9265 45.882 50.0561 45.7756 50.2067 45.7089C51.1127 45.2279 51.9908 44.6899 52.8968 44.2089C53.0186 44.1508 53.1269 44.0679 53.2148 43.9654C53.3026 43.8629 53.368 43.7432 53.4067 43.6139C53.6897 42.7929 54.0018 41.9719 54.3408 41.0659C53.6898 41.1789 53.1228 41.3209 52.5568 41.4059C52.3488 41.4306 52.1492 41.5021 51.9728 41.6148C51.7963 41.7275 51.6476 41.8786 51.5377 42.0569C51.1697 42.5669 50.7727 43.0759 50.3767 43.5569C50.3197 43.6419 50.2637 43.7569 50.1497 43.7269C50.0357 43.6969 50.0647 43.5569 50.0927 43.4439C50.3197 41.9999 50.5177 40.5559 50.7158 39.1119C50.7267 38.9714 50.7819 38.8381 50.8736 38.7311C50.9653 38.6242 51.0886 38.5491 51.2257 38.5169C52.2167 38.1769 53.1798 37.8089 54.1708 37.4979C54.2847 37.47 54.388 37.4098 54.4684 37.3244C54.5488 37.2391 54.6028 37.1322 54.6238 37.0169C54.7938 35.9409 54.9917 34.8929 55.1898 33.8169C55.2194 33.726 55.2155 33.6276 55.1788 33.5394C55.1421 33.4511 55.075 33.3789 54.9898 33.3359C54.6218 33.1089 54.2817 32.8829 53.9137 32.6559C53.8685 32.6381 53.8273 32.6114 53.7925 32.5774C53.7578 32.5434 53.7303 32.5027 53.7116 32.4578C53.693 32.4129 53.6835 32.3648 53.6839 32.3161C53.6843 32.2675 53.6944 32.2195 53.7138 32.1749C54.661 28.8025 56.2575 25.6475 58.4137 22.8869C59.7104 21.23 61.4941 20.0216 63.5138 19.4319C67.1138 18.4689 69.9418 19.7429 71.6688 23.1129C72.5206 24.7753 72.9395 26.6257 72.8867 28.4929C72.8867 28.8609 72.7448 29.0029 72.3768 29.0309L69.8287 29.3139C69.4887 29.3139 69.3188 29.4839 69.2338 29.8519C68.6388 33.3069 68.1337 36.7609 67.2797 40.1589C66.9799 41.4733 66.5236 42.747 65.9208 43.9529C65.6802 44.4571 65.298 44.8804 64.8207 45.1709C64.1697 45.5109 63.6877 45.3129 63.5207 44.6049C63.2943 43.5887 63.2943 42.5351 63.5207 41.5189C63.8327 39.7349 64.3697 38.0359 64.5967 36.2519C64.8747 34.6145 64.9128 32.9453 64.7098 31.2969C64.6299 30.6158 64.3654 29.9695 63.9448 29.4279C63.5698 29.0315 63.0545 28.7976 62.5093 28.7765C61.9641 28.7554 61.4322 28.9487 61.0277 29.3149C60.8793 29.462 60.7454 29.6231 60.6278 29.7959C60.5709 29.9512 60.5709 30.1216 60.6278 30.2769C60.7926 31.4397 60.8305 32.6169 60.7407 33.7879C60.6889 34.5489 60.4691 35.289 60.0969 35.9549C59.7248 36.6208 59.2098 37.1959 58.5888 37.6389C58.0228 38.0389 57.5128 38.5449 56.9748 38.9699C56.8097 39.1222 56.6916 39.3186 56.6347 39.5359C55.9547 42.2829 55.2188 45.0289 54.5348 47.7759C54.1019 49.0661 53.5021 50.2942 52.7508 51.4289C52.4933 51.9726 52.1902 52.4934 51.8447 52.9859C51.2428 54.0535 50.8941 55.2452 50.8258 56.4689C50.5988 57.6579 50.4577 58.6489 50.2877 59.7249C50.2304 60.2874 49.9879 60.8149 49.5985 61.2248C49.209 61.6347 48.6946 61.9038 48.1357 61.9899C46.425 62.4146 44.6364 62.4146 42.9257 61.9899C42.3847 61.8822 41.8922 61.6043 41.5203 61.1968C41.1484 60.7893 40.9166 60.2735 40.8588 59.7249C40.5758 57.9409 40.2638 56.2139 39.9527 54.4579C39.8929 54.2226 39.8074 53.9945 39.6977 53.7779C38.9047 52.4189 38.1408 51.0879 37.3478 49.6999C36.9876 49.0685 36.7116 48.3928 36.5268 47.6899C35.8758 44.9999 35.1677 42.3099 34.5167 39.5899C34.4377 39.2692 34.2592 38.9818 34.0068 38.7689C33.4688 38.3159 32.9308 37.8629 32.3648 37.4099C31.7938 36.9705 31.3221 36.4155 30.9805 35.7811C30.6389 35.1468 30.4352 34.4474 30.3827 33.7289C30.2695 32.6445 30.2981 31.5499 30.4677 30.4729C30.5382 30.1137 30.473 29.7411 30.2848 29.4271C30.0966 29.1132 29.7988 28.8801 29.4488 28.7729C29.2017 28.6652 28.9357 28.6076 28.6663 28.6035C28.3968 28.5993 28.1292 28.6488 27.8789 28.7489C27.6287 28.8489 27.4008 28.9977 27.2085 29.1866C27.0163 29.3754 26.8634 29.6005 26.7587 29.8489C26.7587 29.8563 26.7558 29.8634 26.7505 29.8687C26.7453 29.8739 26.7382 29.8769 26.7307 29.8769C26.4176 30.5329 26.2533 31.25 26.2497 31.9769C26.2016 34.5764 26.5259 37.1693 27.2127 39.6769C27.5708 40.928 27.733 42.2271 27.6937 43.5279C27.6925 43.8654 27.635 44.2003 27.5237 44.5189C27.509 44.6231 27.4739 44.7234 27.4204 44.8139C27.3669 44.9045 27.296 44.9837 27.2118 45.0469C27.1277 45.11 27.0319 45.156 26.9299 45.1821C26.828 45.2081 26.7219 45.2139 26.6177 45.1989C26.4855 45.1817 26.3593 45.133 26.2497 45.0569C25.7401 44.7738 25.3335 44.3361 25.0888 43.8069C24.3822 42.3811 23.8681 40.8679 23.5597 39.3069C22.7947 36.1359 22.3137 32.9069 21.7757 29.7069C21.7773 29.6334 21.7636 29.5604 21.7353 29.4925C21.707 29.4247 21.6649 29.3634 21.6116 29.3128C21.5584 29.2622 21.4951 29.2232 21.4259 29.1984C21.3567 29.1736 21.2831 29.1636 21.2098 29.1689L18.6327 28.8859C18.3497 28.8859 18.1518 28.7729 18.1518 28.4329C18.0063 25.8121 18.856 23.233 20.5308 21.2119C21.2802 20.2813 22.2851 19.5899 23.4221 19.2227C24.5591 18.8555 25.7786 18.8284 26.9307 19.1449C29.4003 19.7253 31.5684 21.1975 33.0187 23.2789C34.8018 25.6935 36.1615 28.3936 37.0398 31.2639C37.4078 32.3399 37.4078 32.3399 36.4168 32.9639C35.7368 33.3889 35.7367 33.3889 35.8787 34.1819C36.0207 34.9749 36.1897 35.9659 36.3317 36.8719C36.3426 37.0123 36.3979 37.1457 36.4896 37.2526C36.5813 37.3596 36.7046 37.4346 36.8417 37.4669C37.8327 37.7779 38.7957 38.1469 39.7867 38.4859C39.9029 38.5091 40.0089 38.5679 40.09 38.6541C40.1712 38.7403 40.2236 38.8496 40.2398 38.9669C40.4668 40.4669 40.6928 41.9399 40.8908 43.4669C40.8908 43.5519 40.9477 43.6669 40.8337 43.6939C40.7197 43.7209 40.6917 43.6089 40.6337 43.5519C40.1807 42.9859 39.7278 42.4189 39.3028 41.8519C39.1385 41.6287 38.8953 41.4767 38.6227 41.4269C38.0567 41.3479 37.4048 41.2069 36.6688 41.0369ZM33.8937 36.3929C33.8087 35.6569 33.7238 34.8069 33.6108 33.9579C33.5971 33.7941 33.5382 33.6373 33.4407 33.5049L31.8267 31.3809C31.7697 31.2959 31.7137 31.2109 31.6267 31.2389C31.5417 31.2959 31.5418 31.3519 31.5418 31.4389C31.3483 32.2936 31.2533 33.1676 31.2587 34.0439C31.2471 34.5962 31.4147 35.1374 31.7362 35.5866C32.0578 36.0358 32.5162 36.3689 33.0427 36.5359C33.2127 36.6209 33.4108 36.6779 33.5808 36.7629C33.8658 36.9309 33.9507 36.7899 33.8937 36.3929ZM59.4067 31.0929C58.8407 31.8289 58.3587 32.5089 57.8207 33.1319C57.5367 33.4441 57.3671 33.8436 57.3397 34.2649C57.2827 34.8599 57.1977 35.4259 57.1397 36.0489C57.0547 36.9549 57.0547 36.9549 57.9327 36.5869C58.4071 36.4495 58.8299 36.1742 59.1476 35.796C59.4652 35.4179 59.6633 34.9538 59.7167 34.4629C59.8244 33.3317 59.7193 32.1904 59.4067 31.0979V31.0929Z" fill="white"/>
<path d="M16.339 29.6819C16.5066 29.9364 16.6579 30.2012 16.792 30.4749C16.8516 30.6398 16.965 30.7798 17.114 30.8724C17.2629 30.9649 17.4387 31.0045 17.613 30.9849C18.013 30.9849 18.434 31.0699 18.831 31.0699C19.231 31.0979 19.312 31.2119 19.369 31.5799C19.901 35.9656 21.0745 40.2494 22.852 44.2939C23.5057 45.8829 24.4683 47.3265 25.684 48.5409C26.2259 49.1166 26.9628 49.4699 27.751 49.5319C27.8757 49.557 28.0041 49.557 28.1288 49.532C28.2535 49.5071 28.3721 49.4575 28.4775 49.3864C28.5829 49.3152 28.6731 49.2238 28.7429 49.1174C28.8127 49.0111 28.8606 48.8919 28.884 48.7669C29.1158 48.0251 29.221 47.2496 29.195 46.4729C29.2751 45.2681 29.1988 44.0581 28.968 42.8729V42.6459C29.195 42.6459 29.195 42.8729 29.223 42.9859C29.8471 44.8467 30.1534 46.7993 30.129 48.7619C30.044 51.9049 27.977 53.1789 25.259 53.0089C24.2997 52.9561 23.3603 52.7138 22.4953 52.2958C21.6302 51.8779 20.8565 51.2926 20.219 50.5739L20.106 50.4609H19.993C20.4308 51.3397 20.9936 52.1505 21.664 52.8679C23.2315 54.5095 25.0469 55.895 27.044 56.9739C32.905 60.3439 38.908 63.4299 44.968 66.4029C45.1088 66.4727 45.2638 66.509 45.421 66.509C45.5781 66.509 45.7332 66.4727 45.874 66.4029C49.697 64.7319 53.406 62.8629 57.059 60.9099C59.749 59.4939 62.439 57.9929 65.016 56.4099C67.285 55.1533 69.233 53.3894 70.708 51.2559C70.9904 50.833 71.2188 50.3765 71.388 49.8969C70.599 50.9387 69.5698 51.7741 68.388 52.3319C66.9162 53.0396 65.2431 53.2097 63.659 52.8129C62.8949 52.6315 62.2097 52.2084 61.7053 51.6064C61.2008 51.0045 60.904 50.2559 60.859 49.4719C60.7051 47.233 61.0135 44.9865 61.765 42.8719C61.7642 42.7909 61.7923 42.7122 61.8441 42.65C61.8959 42.5877 61.9682 42.5459 62.048 42.5319C61.991 42.8149 61.963 43.0699 61.906 43.3529C61.7077 44.8945 61.7077 46.4552 61.906 47.9969C62.076 49.4409 62.755 49.8969 64.256 49.2149C65.0482 48.785 65.7274 48.1737 66.238 47.4309C67.6593 45.4285 68.7492 43.2105 69.466 40.8619C70.4801 37.8741 71.1917 34.7919 71.59 31.6619C71.59 31.2939 71.76 31.1239 72.156 31.1239C72.552 31.1239 73.062 30.9819 73.456 31.0109C73.6579 31.0185 73.8565 30.9586 74.0206 30.8407C74.1847 30.7228 74.3048 30.5537 74.362 30.3599C74.401 30.195 74.5024 30.0516 74.645 29.9599C74.758 30.0729 74.702 30.1869 74.702 30.2999V34.4619C74.6944 38.2046 74.2286 41.9324 73.315 45.5619C73.0865 46.8058 72.784 48.035 72.409 49.2429C71.4673 51.6859 69.834 53.8015 67.709 55.3309C65.8352 56.6873 63.8668 57.9081 61.819 58.9839C58.053 61.1359 54.174 63.1749 50.266 65.0439C48.822 65.7519 47.321 66.3749 45.849 67.0539C45.7233 67.1235 45.5821 67.16 45.4385 67.16C45.2949 67.16 45.1536 67.1235 45.028 67.0539C40.951 65.0999 36.928 63.0049 32.937 60.8809C30.615 59.6629 28.35 58.4169 26.085 57.0579C24.0179 55.9194 22.1909 54.3913 20.705 52.5579C19.6536 51.1871 18.8925 49.6165 18.468 47.9419C17.987 46.2149 17.42 44.5419 17.081 42.7879C16.6413 40.5458 16.3854 38.2716 16.316 35.9879C16.231 34.0629 16.316 32.1369 16.316 30.1879C16.2655 30.1121 16.2404 30.0221 16.2446 29.9311C16.2487 29.8401 16.2818 29.7528 16.339 29.6819Z" fill="white"/>
<path d="M71.6971 20.1959L70.876 18.7799C69.8388 16.8434 68.5114 15.077 66.94 13.5419C65.4381 11.9923 63.4035 11.0711 61.2481 10.9649C59.4992 10.9349 57.7755 11.3845 56.264 12.2649C54.0032 13.6298 52.0621 15.4646 50.5721 17.6449C49.153 19.6324 47.9026 21.735 46.8341 23.9309C46.7723 24.1375 46.6427 24.3172 46.466 24.4409C46.3001 23.8754 46.1771 23.298 46.0981 22.7139C46.043 22.2753 45.9578 21.8409 45.8431 21.4139C45.7568 21.1249 45.7349 20.8205 45.779 20.5221C45.823 20.2238 45.932 19.9387 46.0981 19.6869C47.2344 17.252 48.7537 15.015 50.5981 13.0609C52.6307 10.9196 55.3425 9.54886 58.272 9.18192C59.4955 9.02906 60.7372 9.12855 61.9207 9.47426C63.1042 9.81996 64.2043 10.4045 65.1531 11.1919C67.9802 13.5047 70.1895 16.4826 71.583 19.8589C71.611 19.9159 71.6111 19.9719 71.6401 20.0289C71.6971 20.0829 71.7531 20.1119 71.6971 20.1959Z" fill="white"/>
<path d="M18.8018 20.196C19.2517 19.055 19.8012 17.9557 20.4438 16.911C21.6556 14.8532 23.2064 13.015 25.0308 11.474C26.2558 10.4047 27.7352 9.66829 29.3268 9.33556C30.9185 9.00283 32.569 9.08492 34.1198 9.57396C36.6893 10.3373 38.9752 11.8447 40.6888 13.906C42.328 15.8256 43.6822 17.9713 44.7098 20.277C44.8223 20.4744 44.8529 20.7082 44.7948 20.928C44.5948 21.976 44.3948 23.052 44.2288 24.099C44.2288 24.212 44.2288 24.382 44.1158 24.41C44.0028 24.438 43.9158 24.24 43.8608 24.127C42.7256 21.7552 41.3799 19.4901 39.8398 17.359C38.3075 15.0925 36.2348 13.2435 33.8088 11.979C32.2961 11.1354 30.5576 10.7856 28.8363 10.9785C27.1151 11.1714 25.4972 11.8974 24.2088 13.055C23.3136 13.8223 22.5063 14.6866 21.8018 15.632C20.8609 16.912 20.0095 18.2556 19.2538 19.653C19.1681 19.8794 19.0089 20.0706 18.8018 20.196Z" fill="white"/>
<path d="M17.6412 20.5929V28.6929C17.6249 28.7996 17.5695 28.8964 17.4858 28.9645C17.402 29.0325 17.2959 29.0669 17.1882 29.0609C16.9882 29.0609 17.0752 28.8059 17.0462 28.6929C16.9042 26.5129 16.9892 24.3039 16.9612 22.1239V14.9299C16.9612 12.9759 16.9612 10.9939 17.0462 9.03994C17.0418 8.70615 17.0798 8.37316 17.1592 8.04894C17.1973 7.5385 17.4363 7.06401 17.8238 6.72957C18.2113 6.39513 18.7157 6.22804 19.2262 6.26494C20.5572 6.15194 21.9162 6.06494 23.1902 5.98194L31.1752 5.55694C32.8172 5.47194 34.4312 5.41494 36.0752 5.35694C40.2372 5.24394 44.3752 5.21494 48.5342 5.27194C51.7342 5.32894 54.9622 5.44194 58.1622 5.55494C60.8242 5.63994 63.4622 5.75494 66.1192 5.89494C68.0695 5.93793 70.0163 6.07978 71.9522 6.31994C72.5068 6.33097 73.0348 6.56009 73.4217 6.95765C73.8086 7.35522 74.0232 7.8892 74.0192 8.44394C74.0258 8.52073 74.0163 8.59806 73.9912 8.67094C74.2182 14.9569 74.1912 21.2429 74.1332 27.6139C74.1432 28.0018 74.1241 28.3899 74.0762 28.7749C74.0762 28.9169 74.1612 29.1429 73.9632 29.1749C73.8571 29.1774 73.7531 29.1457 73.6665 29.0845C73.5798 29.0232 73.5152 28.9357 73.4822 28.8349C73.4539 28.6759 73.4539 28.513 73.4822 28.3539V13.5459C73.4822 11.8459 73.4822 10.1759 73.3402 8.47694C73.2552 7.57094 73.0002 7.25894 72.1222 7.06094C70.9083 6.83426 69.676 6.72043 68.4412 6.72094C64.5622 6.52094 60.6542 6.38094 56.7462 6.23994L51.8462 6.06994C47.7692 5.92794 43.6632 5.92794 39.5852 5.98494C35.3382 6.04194 31.0622 6.21194 26.8142 6.49494C24.5202 6.63694 22.1982 6.74994 19.9052 6.89494C19.5723 6.90459 19.2407 6.94239 18.9142 7.00794C18.6401 7.03472 18.383 7.15246 18.1836 7.34239C17.9842 7.53232 17.8542 7.78352 17.8142 8.05594C17.7347 8.38967 17.6968 8.73192 17.7012 9.07494V20.6219H17.6442L17.6412 20.5929Z" fill="white"/>
</svg>
