<svg id="Layer_1" data-name="Layer 1" xmlns="http://www.w3.org/2000/svg" viewBox="0 0 938.27 467.16"><defs><style>.cls-1{fill:#fefefe;}.cls-2{fill:#64c5ec;}.cls-3{fill:none;}</style></defs><title>Secret_logo2</title><path class="cls-1" d="M1044-452.37c-4.23-5.72-10.39-7.86-16.58-10.06q-3.63-1.29-7.31-2.37c-3-.91-6.09-1.74-9.17-2.48l-1.84-.44c-1.23-.29-2.47-.57-3.7-.83s-2.47-.52-3.71-.77c-9.92-2-20-3.33-30-4.6l-3.73-.47-2.09-.27-2.09-.29c-2.28-.32-4.59-.67-7-1l-1.63-.24c.69-1.76,1-2.84,1.52-3.86,4.26-8.94,8.42-18,9.41-28,.49-4.92-.77-8.66-3.38-10.38l-.46-.28-.33-.17-.35-.16-.31-.12a6.36,6.36,0,0,0-1.18-.29l-.56-.07a8.32,8.32,0,0,0-1.72,0l-.42.06-.65.12-.22,0a15.54,15.54,0,0,0-2.33.78,29.72,29.72,0,0,0-11.49,8.93c-7,9.12-13.21,18.92-19.89,28.33a6.79,6.79,0,0,1-3.5,2.55,2.41,2.41,0,0,1-.64.07c-6.58-.31-13.13-1.29-19.72-1.68l-5.15-.3-7.73-.44-7.72-.41q-5.13-.27-10.26-.49c-3.45-.14-6.91-.28-10.36-.39-16.28-.53-32.56-.88-48.85-1-10.2-.05-20.39.56-30.59.85-7.31.21-14.63.37-21.94.56l-3,.08q-3,.08-6,.18l-1,0-5.4.19c-14.91.57-29.81,1.33-44.71,2.07-4.77.23-9.56.53-14.31,1.05q-21.13,2.33-42.26,4.87c-11.13,1.33-22.3,2.46-33.36,4.26l-2.5.41q-5.82.94-11.64,2l-4.22.76c-4.09.75-8.17,1.52-12.25,2.34l-3.76.76-3.68.76-3.68.79c-12.06,2.6-24,5.83-35.89,9.15-2,.55-3.42,3-5.12,4.6,1.23.45,2.49,1.18,3.72,1.65h0l.61.2h0c.2.06.41.1.61.14a4.09,4.09,0,0,0,.92.05q4-.3,7.94-.65t7.84-.75h0l7.84-.8,7.88-.81,7.08-.74c7.07-.74,14.15-1.52,21.23-2.25q1.47-.17,2.94-.3c1-.11,2-.2,2.94-.29q1.86-.19,3.72-.36l3.44-.33c2-.18,3.95-.36,5.92-.52,15.83-1.31,31.7-2.22,47.57-3,17.07-.86,34.15-2,51.22-1.94,47.41.08,94.84-1.52,142.21,1.77,1.53.11,3,.2,4.58.29l.44,0,3.21.18q.82.06,1.65.09l3,.15,5.68.26,11.47.46c5.4.21,10.8.42,16.2.7,2.91.15,5.8.65,8.9,1.11l2.19.31a31.71,31.71,0,0,1-1.09,3.45c-6.23,13.52-13,26.84-18.64,40.58-6.3,15.21-11.68,30.79-17.46,46.22-2.37,6.32-3.65,13.37-7.32,18.8-7.57,11.19-16.33,21.59-24.74,32.19a276.75,276.75,0,0,1-44.13,44c-9.3,7.44-19,14.63-31,16.93-.86.17-1.7.3-2.52.4s-1.36.15-2,.19c-.32,0-.63,0-.94,0l-.94,0c-.39,0-.77,0-1.15,0h-.26c-.35,0-.69-.05-1-.09l-.41-.05-.44-.06c-.45-.07-.89-.16-1.32-.26-6.46-1.56-10.39-6.72-10.83-16.83-.41-9.5,2.78-18.2,4.7-27.21,1.16-5.44,2.7-8.81,7.84-10.56l.52-.16a.19.19,0,0,1,.1,0,2.58,2.58,0,0,1,.42-.12l.08,0c.42-.12.85-.22,1.31-.31L756-306l.28,0,.56-.09c26-3.9,48-16.35,66.06-35.83a86,86,0,0,0,20.25-35.21c4.68-16.41-2.25-31.29-20.47-34.56a30.83,30.83,0,0,0-3.11-.41,34.16,34.16,0,0,0-5.72,0l-1.38.13-.55.07c-.33,0-.65.08-1,.14s-.6.09-.9.15-.59.1-.88.17l-1.09.23a64.11,64.11,0,0,0-12.69,4.59c-23.34,11-40.16,29.34-54.93,49.75a190.38,190.38,0,0,0-29.06,61c-3.69,13.23-6.58,26.62-3.92,40.54,2.84,14.86,10.67,22.92,21.25,26.1l1,.29c.79.21,1.6.39,2.42.55l1.24.22q.63.11,1.26.18a47.77,47.77,0,0,0,7.91.33c1.56-.06,3.14-.19,4.71-.4,1.06-.14,2.11-.31,3.16-.51L752-229l1.58-.36,1.77-.45a78.77,78.77,0,0,0,12-4.3c28.69-12.85,49.79-35.17,70.08-58.3,2.47-2.84,4.87-5.74,7.27-8.66s4.78-5.86,7.2-8.77c.21.19.43.38.64.55l0,0h0c-.51,2.92-.83,5.89-1.56,8.75a497,497,0,0,0-15.35,102c-.63,15.25.22,30.58,1,45.84.23,4.62,2,9.38,4,13.6a8.86,8.86,0,0,0,5.79,4.19,2.27,2.27,0,0,0,.58,0h0c2.15-.18,4.71-2.88,5.93-5.11a24.92,24.92,0,0,0,2.36-9c2.11-18.86,3.54-37.81,6.17-56.59,2.84-20.21,5.74-40.5,10.43-60.33,6.64-28,14.65-55.75,22.7-83.43,3.49-12,7.57-24,13.08-35.23,9.32-18.93,20.11-37.12,30.06-55.75,3.32-6.22,4.2-8.31,8-8.55a15.1,15.1,0,0,1,1.65,0l1,.06c.71.06,1.51.14,2.41.25l.75.09.8.1c14.2,1.83,28.34,4.16,42.45,6.59,12.82,2.2,25.5,5.33,38.38,6.94l.52.05c.39,0,.8,0,1.22,0s.9-.1,1.36-.18.64-.13,1-.22l.56-.15.75-.24a15.12,15.12,0,0,0,6.35-4C1047.79-442.88,1047.26-448,1044-452.37ZM764-340.46a179.56,179.56,0,0,1,29.72-40c6.83-6.81,14.06-13,23.35-16.05,2.75-.9,6.93-1.28,8.8.2,1.69,1.33,1.93,5.68,1.4,8.43-2.07,10.62-8,19.48-14.71,27.61-11.7,14.2-25.41,26.24-41.87,34.74-4.93,2.55-10.33,4.21-15.52,6.28l-1.31-1.08C757.27-327.07,760.4-333.91,764-340.46Zm-23.73-46.23c0-.21,0-.42,0-.63a.38.38,0,0,0,0-.1c0-.23,0-.46-.07-.69,0-.4-.1-.79-.17-1.18,0-.19-.07-.38-.1-.57-.07-.36-.15-.73-.24-1.09s-.15-.61-.24-.92-.14-.48-.22-.71-.23-.71-.36-1.06c-.2-.53-.42-1.05-.65-1.55l-.45-.88a12.21,12.21,0,0,0-1.86-2.63c-6.18-6.48-17.74-5.83-25.35-1.22-10.52,6.39-18.86,15.05-26.2,24.75-.77,1-1.53,2-2.29,3.05l-1.34,1.8c-1.07,1.44-2.15,2.88-3.22,4.33l-4.57,6.19c-2.3,3.12-4.61,6.27-7,9.47.52-5.9,1-11.27,1.45-16.62a23.33,23.33,0,0,0,.06-3.53q0-.4-.06-.81l0-.34c0-.2,0-.4-.07-.59s0-.3-.07-.45-.09-.54-.14-.8-.09-.46-.15-.69-.11-.48-.18-.71-.18-.65-.29-1a20.44,20.44,0,0,0-3.15-6,17.36,17.36,0,0,0-1.23-1.49c-.21-.24-.43-.47-.66-.7s-.44-.46-.68-.68c-.47-.44-1-.87-1.45-1.28a16.76,16.76,0,0,0-1.52-1.18c-.69-.5-1.4-1-2.12-1.42l-.45-.27-.64-.38q-.52-.3-1-.57c-.48-.27-1-.52-1.46-.75l-.84-.4c-.84-.4-1.68-.76-2.51-1.1-2.12-.85-3.79-.8-4.84,0l-.26.2a1.66,1.66,0,0,0-.29.3,2,2,0,0,0-.24.33,1.38,1.38,0,0,0-.14.24,2.65,2.65,0,0,0-.18.42,2.53,2.53,0,0,0-.14.49,4,4,0,0,0-.08.48s0,.05,0,.09a4.93,4.93,0,0,0,0,.55,9.15,9.15,0,0,0,.37,2.43c2.17,7.8.86,15.27-1.61,22.71-.81,2.43-1.61,4.87-2.4,7.3-2.4,7.31-4.76,14.62-7.22,21.91q-1.64,4.86-3.34,9.69c-2.62,7.43-5.34,15-9.14,21.82-4.23,7.62-9.68,14.57-14.71,21.74-12,17.07-24.58,33.66-39.7,48.11-8.85,8.46-18.09,16.5-30.25,20.05a20,20,0,0,1-11.54.08c-.53-.17-1-.36-1.55-.58l-.75-.35a14.73,14.73,0,0,1-1.43-.83,15.68,15.68,0,0,1-1.33-1c-.22-.18-.43-.37-.63-.56s-.52-.5-.76-.77-.34-.39-.5-.59a11.25,11.25,0,0,1-.76-1l-.35-.54a15.47,15.47,0,0,1-1.2-2.41c-.09-.21-.17-.43-.25-.66a13.15,13.15,0,0,1-.39-1.26,5.47,5.47,0,0,1-.15-.58c-.13-.51-.23-1-.32-1.58,0-.24-.08-.48-.1-.73-.1-.74-.16-1.52-.19-2.33a115.86,115.86,0,0,1,.47-14.94c.17-1.83.39-3.66.65-5.47.13-.92.27-1.84.41-2.76.44-2.72,1-5.41,1.59-8.09.2-.9.41-1.79.64-2.68s.44-1.78.69-2.67.48-1.78.74-2.66c.51-1.77,1.06-3.53,1.63-5.29.29-.88.58-1.76.89-2.64s.62-1.77.94-2.66l1-2.68c.65-1.78,1.33-3.56,2-5.32s1.39-3.53,2.11-5.29c.59-1.44,1.18-2.87,1.8-4.3.5-1.2,1-2.38,1.53-3.57.45-1,.91-2.05,1.38-3.08.26-.59.52-1.17.79-1.75.45-1,.9-2,1.37-3s.8-1.72,1.22-2.57.82-1.71,1.24-2.56q1.25-2.56,2.55-5.1c7.61-14.85,17.29-28.58,30.73-38.91a40.49,40.49,0,0,1,15.27-7.3,9.48,9.48,0,0,1,2.92-.24,5.4,5.4,0,0,1,2.12.57,3.14,3.14,0,0,1,.44.25,4.23,4.23,0,0,1,1.36,1.4,4,4,0,0,1,.44.91,9,9,0,0,1-.23,5.68c-.25.78-.51,1.56-.77,2.33a5.17,5.17,0,0,1-.18.51c-.08.25-.17.49-.26.74-.48,1.42-1,2.83-1.52,4.24-.39,1.06-.79,2.12-1.2,3.17s-.81,2.12-1.22,3.17c-.72,1.88-1.45,3.76-2.15,5.65-.36.94-.7,1.88-1,2.82,0,.14-.1.3-.15.46a16.88,16.88,0,0,0-.45,1.64c0,.19-.08.38-.11.56s0,.29-.07.43a3.77,3.77,0,0,0,0,1.39.75.75,0,0,0,.23.39,6.54,6.54,0,0,0,5.33,1,33.32,33.32,0,0,0,22-21.23c.12-.32.23-.63.33-.95s.11-.35.16-.53.1-.36.15-.53.1-.36.14-.53.09-.36.12-.53.07-.34.1-.5.07-.33.09-.5a2.51,2.51,0,0,0,0-.27c0-.21.07-.43.1-.64l0-.33c0-.14,0-.28.05-.42a19.76,19.76,0,0,0,0-2.66c0-.14,0-.27,0-.41,0-.36-.06-.73-.11-1.09s-.09-.68-.15-1l-.21-1c0-.2-.1-.4-.16-.6s-.11-.38-.17-.58c-.12-.4-.26-.79-.41-1.17s-.22-.57-.35-.85a20,20,0,0,0-3.76-5.61c-.26-.28-.54-.56-.83-.84a20.52,20.52,0,0,0-1.85-1.61c-9.56-7.42-20.49-8.67-31.9-6C556-374,544.09-365.17,533.57-354.8c-17.73,17.47-31,38.09-40.48,61.15-2.3,5.63-3.77,11.77-6.91,16.88-17.74,28.84-37.62,56.08-62.36,79.43-7.7,7.27-16.05,13.75-26.24,17.49a20.74,20.74,0,0,1-13.3.78,15.39,15.39,0,0,1-2.76-1.18c-.27-.15-.53-.31-.79-.47s-.51-.34-.75-.52l-.64-.5c-.21-.17-.41-.35-.61-.54s-.32-.3-.48-.47l-.42-.44-.08-.1-.39-.47-.37-.48a15.71,15.71,0,0,1-1.51-2.52l-.23-.51q-.25-.58-.48-1.2a23.28,23.28,0,0,1-1.19-8.68c.36-10,2.48-19.91,3.74-29.87.05-.41.11-.81.18-1.19,0-.18.07-.36.11-.53s.11-.47.17-.69a5.79,5.79,0,0,1,.19-.63v0c0-.11.08-.22.13-.33s.09-.21.14-.32a4.82,4.82,0,0,1,1.3-1.76,2.53,2.53,0,0,1,.42-.31h0a3.1,3.1,0,0,1,.51-.27,6.88,6.88,0,0,1,3.52-.48c2,.16,4.19-.73,6.26-1.27C415-241.38,435-255.28,450.6-275.28l.95-1.22a3.33,3.33,0,0,0,.24-.32l1.16-1.56c.39-.52.77-1,1.14-1.57l.56-.79.55-.8,1.07-1.6c.35-.54.7-1.07,1-1.62s.51-.8.75-1.2a80.58,80.58,0,0,0,4.71-8.83c.21-.46.41-.92.61-1.38s.28-.66.41-1c.25-.6.49-1.21.72-1.82.63-1.65,1.18-3.31,1.66-5,.12-.39.22-.78.33-1.18a56.92,56.92,0,0,0,1.44-7.31c.13-.92.23-1.85.31-2.78a55.68,55.68,0,0,0,.2-6.23v0c0-.81-.07-1.61-.16-2.39s-.22-1.58-.37-2.34C465.72-336.81,457-344,445.5-344.49c-13.16-.61-24.26,4.33-34.72,11.33C389-318.61,374.1-298.2,362-275.47c-.31.59-.62,1.17-.92,1.76q-1.41,2.73-2.75,5.46c-.36.74-.72,1.48-1.07,2.22-1.5,3.16-2.93,6.34-4.26,9.55-.66,1.6-1.31,3.21-1.93,4.82-.31.8-.62,1.61-.91,2.42s-.6,1.62-.88,2.44-.57,1.62-.85,2.44q-1.65,4.89-3,9.86-1.68,6.21-2.85,12.55c-.16.84-.3,1.69-.44,2.54s-.28,1.7-.41,2.55-.27,2-.39,2.93-.21,1.68-.3,2.52c-.34,3.09-.58,6.19-.71,9.32,0,.3,0,.61,0,.91-.06,1.7-.1,3.42-.1,5.13q0,4,.23,8c0,.44.06.88.1,1.32s.08.88.14,1.33c.15,1.21.35,2.42.61,3.62.06.3.13.59.2.89a36.51,36.51,0,0,0,1,3.54c.2.58.41,1.16.63,1.73s.45,1.15.71,1.71c.12.28.25.57.39.85.29.61.59,1.22.92,1.82,0,0,0,0,0,0,.43.8.89,1.58,1.39,2.34.26.4.53.8.81,1.19s.77,1.06,1.19,1.57l.66.78c.28.34.58.67.9,1s.64.66,1,1q.24.24.48.45l.49.44a1.32,1.32,0,0,0,.26.22q.48.42,1,.81c.37.29.76.58,1.15.85s.71.48,1.07.71a1,1,0,0,0,.13.09l.07,0h0c.41.25.82.49,1.24.72s.87.46,1.32.67.85.39,1.29.57c.87.35,1.78.67,2.71,1,.47.13,1,.26,1.43.37l1,.21,1,.17c8.87,1.42,17.6,1.22,26-1.56,14.62-4.85,27.15-13.36,38.38-23.84,17.3-16.16,31-35.18,43.79-55,1.4-2.17,2.72-4.39,4.21-6.8v0c.48,9.06.36,17.51,1.5,25.78.06.45.13.91.21,1.35s.16.83.25,1.24c0,.2.08.38.13.58.15.65.31,1.29.51,1.93.08.27.16.55.25.82s.17.54.27.81l.3.83c.16.44.33.88.52,1.31s.3.69.46,1,.32.69.49,1,.34.67.52,1c.27.49.55,1,.84,1.45s.59.94.9,1.4c.21.3.42.61.64.9s.44.59.66.88l.69.85q.17.21.36.42c.11.14.23.27.36.41.47.55,1,1.07,1.5,1.57.26.25.52.5.79.74l.81.71.83.68a.13.13,0,0,0,.06.05c.2.17.4.32.61.47l.19.14s0,0,0,0a28.41,28.41,0,0,0,13.66,5.4,62.61,62.61,0,0,0,38.7-8.35c18.11-10.38,31.86-25.47,44.3-41.82,5.76-7.56,10.87-15.62,16.75-24.13v0a13.43,13.43,0,0,1-.12,2.3c-.18.61-.36,1.21-.55,1.82-.6,1.95-1.22,3.9-1.82,5.85-.35,1.11-.69,2.22-1,3.34-.1.3-.19.61-.27.92-.16.53-.31,1.07-.46,1.61s-.36,1.31-.53,2l0,.11L600.9-244c-.15.62-.29,1.24-.41,1.87s-.25,1.25-.36,1.88a.59.59,0,0,0,0,.13c-.12.67-.22,1.35-.31,2-.07.51-.13,1-.19,1.53s-.1,1-.14,1.54q-.09,1.09-.12,2.22c0,.19,0,.38,0,.58q0,.75,0,1.5c0,.68,0,1.34.1,2,0,.16,0,.31,0,.47,0,.32.06.65.11,1l.06.45c.07.54.16,1.08.27,1.59l.12.56c0,.19.08.37.13.55.1.4.21.78.33,1.16s.22.69.34,1a.42.42,0,0,1,0,.1c.14.35.28.7.43,1s.31.67.47,1a3.67,3.67,0,0,0,.26.48,1.71,1.71,0,0,0,.13.23,1.49,1.49,0,0,0,.14.24q.27.47.57.9c.2.29.41.57.62.85a17.19,17.19,0,0,0,1.39,1.56c3.53,3.47,8.69,5.29,15.32,5.28a6.63,6.63,0,0,0,4.44-1.27,4,4,0,0,0,.41-.41l.27-.34c.08-.11.16-.24.23-.36a3.17,3.17,0,0,0,.21-.41,7.32,7.32,0,0,0,.34-.9,8.06,8.06,0,0,0,.25-1.21c.08-.59.16-1.18.22-1.77.09-.8.18-1.6.26-2.4l0-.27c.21-2.23.39-4.46.67-6.66l.15-1.1a8.29,8.29,0,0,1,.13-.87q.09-.66.21-1.32t.33-1.62l.18-.81c.06-.27.13-.53.2-.8q.93-3.48,1.87-6.94c2.17-8,4.44-15.91,6.94-23.77.33-1,.66-2.08,1-3.11.11-.36.23-.72.35-1.08s.28-.88.44-1.32q.92-2.75,1.87-5.48c.31-.91.64-1.83,1-2.73q1-2.73,2-5.43c.49-1.29,1-2.58,1.51-3.87l.18-.45c.5-1.25,1-2.5,1.53-3.74.37-.9.75-1.78,1.14-2.67s.76-1.77,1.16-2.65.83-1.85,1.25-2.77.78-1.67,1.19-2.5c.21-.46.43-.91.65-1.35.31-.65.63-1.3,1-1.94s.64-1.29,1-1.93c.43-.86.88-1.72,1.34-2.58.66-1.25,1.33-2.48,2-3.71.4-.73.81-1.45,1.23-2.18v0c.81-1.44,1.65-2.88,2.52-4.3.37-.61.75-1.22,1.13-1.83.75-1.23,1.51-2.45,2.27-3.67s1.55-2.46,2.33-3.67,1.55-2.4,2.35-3.59l1.5-2.23c.52-.77,1-1.53,1.58-2.29.31-.45.62-.9.94-1.34l.87-1.22,1.26-1.74c.42-.58.84-1.15,1.28-1.72s.87-1.16,1.3-1.73c.86-1.13,1.74-2.25,2.64-3.35A144,144,0,0,1,693-360.6a113.69,113.69,0,0,1,13.1-11c8.3-6,17-9.47,27.28-4.48a5,5,0,0,0,4.64-1,8,8,0,0,0,.7-1,10.72,10.72,0,0,0,.81-1.74c.14-.41.27-.84.38-1.29l0-.11.12-.57c0-.2.07-.4.1-.59l.06-.43c0-.23.06-.45.07-.68s.05-.59.06-.89c0-.6,0-1.22,0-1.83Zm-295.7,83.88c-12.23,22.51-29.54,39.95-52.25,51.91-2.52,1.33-5.38,2-9.45,3.45,10.65-27.67,22.61-52.55,43.24-72.13,5.59-5.3,11.46-10.52,20-10.91,4-.18,5.2,1.53,5.38,5.22C451.88-316.91,448.42-309.81,444.61-302.81Zm-43.44-123a49.2,49.2,0,0,0-12.92-9.5c-14.66-7.31-30.47-9.52-46.72-9.05-17.95-.73-35.14,3.11-51.88,9.13-1,.36-2,.73-3,1.12-.75.29-1.49.59-2.23.91-.32.12-.65.26-1,.4-.87.37-1.74.75-2.59,1.15s-1.9.88-2.83,1.34c-.77.37-1.53.76-2.28,1.16s-1.44.75-2.15,1.15a.54.54,0,0,0-.18.1c-1,.53-2,1.09-2.93,1.66l-1.09.65q-1.5.9-3,1.86c-.63.4-1.26.82-1.88,1.24-.86.58-1.72,1.17-2.56,1.77s-1.68,1.22-2.51,1.85Q257-417,254.62-415t-4.71,4.16c-.77.72-1.53,1.44-2.29,2.18C233.51-394.86,224.5-378,219.19-359c-5.82,20.79-4.11,41.22,2.66,61.3,7.61,22.56,20.63,42.41,32.42,62.88,8,14,16,28.14,22.54,42.85,6.17,13.82,6.93,28.61,3.76,43.72q-.54,2.58-1.17,5.11-.19.81-.42,1.62a0,0,0,0,1,0,0,.74.74,0,0,1,0,.14c-.08.35-.18.71-.28,1.06s-.19.7-.29,1c-.14.54-.3,1.06-.46,1.59a.6.6,0,0,1-.06.19q-.09.34-.21.69a5.1,5.1,0,0,1-.2.63c-.16.57-.34,1.13-.53,1.69-.24.74-.49,1.47-.76,2.19-.12.36-.25.71-.38,1.06s-.21.6-.33.89c0,0,0,0,0,0h0c-.23.63-.48,1.26-.73,1.88-.38,1-.78,1.91-1.2,2.86q-.39.89-.81,1.77c-.31.67-.63,1.32-1,2l-.48.94c-.32.62-.65,1.23-1,1.85a0,0,0,0,1,0,0l-.91,1.61c-.28.49-.57,1-.87,1.46l-.76,1.22c-.2.31-.4.62-.61.93-.75,1.16-1.55,2.3-2.38,3.42l-.79,1c-.53.7-1.09,1.41-1.66,2.1-11.23,13.64-25.89,22-42.6,26.67-18,5.07-36.31,7.55-54.82,3.15l-1.26-.32-.61-.17-.61-.18-.83-.26c-.72-.23-1.41-.48-2.09-.75l-.41-.16c-.71-.28-1.39-.58-2.06-.91l-.77-.37a2.79,2.79,0,0,1-.34-.18l-.71-.38c-.75-.4-1.48-.84-2.19-1.3a31.92,31.92,0,0,1-4.08-3.18c-.18-.16-.36-.33-.54-.52s-.36-.34-.53-.52l-.56-.58c-.15-.17-.3-.33-.44-.5-.29-.32-.56-.65-.83-1a2.43,2.43,0,0,1-.2-.25c-.21-.26-.41-.53-.6-.8-.32-.43-.62-.87-.91-1.31l-.37-.59-.43-.74c-.23-.41-.45-.82-.66-1.24s-.46-1-.67-1.46c-.09-.2-.17-.4-.25-.61s-.24-.59-.34-.88-.21-.6-.3-.9c-.23-.71-.43-1.43-.59-2.15,0-.21-.1-.42-.14-.63l-.09-.42c-.05-.26-.09-.52-.13-.77-.06-.41-.12-.82-.16-1.23a1.52,1.52,0,0,1,0-.21c0-.41-.08-.82-.1-1.24,0-.25,0-.51,0-.75V-105c0-.71,0-1.41,0-2.12q0-.66.09-1.32c0-.59.13-1.19.22-1.79,0-.3.1-.6.16-.9s.09-.48.15-.72l0-.18c.09-.38.18-.77.28-1.16h0c.11-.41.23-.83.36-1.25s.24-.77.38-1.16c.21-.59.44-1.19.68-1.78.17-.4.34-.79.53-1.19s.46-1,.71-1.45c1.11-2.12,1.66-6.58.59-7.35-2-1.41-5.81-1.94-8-.93a67,67,0,0,0-13.76,8.73,41.08,41.08,0,0,0-3.23,2.92l-.75.77c-.36.39-.72.78-1.06,1.18q-1,1.2-1.95,2.46c-.31.41-.6.84-.89,1.26s-.56.86-.82,1.29-.52.87-.77,1.32-.43.78-.63,1.18q-.54,1.05-1,2.13c-.09.2-.17.41-.26.62s-.28.7-.41,1c-.28.77-.54,1.55-.77,2.33s-.43,1.57-.6,2.36l-.18.89c-.09.45-.16.89-.23,1.34s-.12.89-.17,1.34l-.09.89c0,.29,0,.59-.05.89,0,.89-.06,1.79,0,2.68q0,.87.09,1.74c0,.29,0,.58.08.87s.1.83.16,1.24.12.82.2,1.23c0,.09,0,.19,0,.28.08.4.17.8.26,1.19s.2.81.31,1.21c.07.25.14.5.22.76a.93.93,0,0,0,0,.13c.08.26.16.52.25.78s.19.55.29.82a0,0,0,0,0,0,0c.1.27.2.54.31.81s.22.54.34.81a29.87,29.87,0,0,0,1.55,3.1c.19.34.39.68.6,1,0,0,0,0,0,0,.23.38.47.75.72,1.12.53.78,1.1,1.55,1.72,2.3l.57.67.47.54c.41.46.84.92,1.3,1.37l.34.33a35.79,35.79,0,0,0,4.86,3.93c.32.22.65.43,1,.64,13.91,8.78,29.41,10.6,45.06,11.27,17.73.76,35.3-1.61,52.55-5.9,1.18-.29,2.36-.6,3.53-.92l2.87-.8,2.88-.86c.74-.23,1.49-.46,2.23-.71l1.17-.38q3.1-1,6.16-2.19h0c1.35-.52,2.69-1,4-1.6h0c.9-.37,1.8-.76,2.68-1.14q1.65-.7,3.27-1.47c1-.46,1.95-.93,2.92-1.41s1.93-1,2.89-1.47q2.16-1.12,4.26-2.33T265-76.19l1.31-.82c.48-.3,1-.61,1.43-.93h0q1.59-1,3.15-2.13l1.56-1.11q3.09-2.23,6.08-4.66,1.41-1.14,2.79-2.34c.69-.59,1.37-1.19,2-1.8,17.49-15.75,28.36-35.57,33.81-58.32,3.49-14.59,4.92-29.48,1.89-44.29-4.08-19.92-12.74-38-22.86-55.59-10.31-17.86-20.59-35.76-30.11-54-9.82-18.85-14.63-38.83-9.69-60.23.14-.62.29-1.25.45-1.86s.3-1.2.47-1.8.32-1.2.5-1.8.35-1.19.53-1.78.37-1.22.58-1.83c.06-.21.14-.43.21-.64.2-.6.42-1.2.63-1.79s.51-1.39.78-2.08.55-1.37.83-2.05c.18-.44.37-.88.56-1.31l.6-1.34c.39-.84.79-1.68,1.21-2.5.21-.42.43-.83.65-1.25s.43-.82.66-1.23l.69-1.22c.35-.61.71-1.21,1.07-1.8s.74-1.18,1.12-1.76l.75-1.12c.53-.8,1.09-1.59,1.68-2.36l.57-.77,0-.05c.31-.41.62-.81,1-1.21l.34-.42c.24-.31.5-.61.76-.91s.65-.77,1-1.15.55-.63.84-.94q1.69-1.86,3.55-3.59l.94-.87c.76-.7,1.55-1.38,2.35-2l.61-.5q2.16-1.77,4.53-3.38c.26-.19.53-.37.8-.54s.75-.5,1.13-.74l.82-.52c1.65-1,3.36-2,5.14-3,15.64-8.2,32.29-10.8,49.73-9.94l1.38.09c.46,0,.91.07,1.37.12s.68.06,1,.1l.26,0h0l1.24.16q1.54.23,3.06.54l1.62.36q1.6.4,3.18.9c.66.21,1.31.43,1.95.67.38.14.76.28,1.14.44s.9.36,1.34.56l.44.2c.42.18.83.38,1.24.58.91.44,1.8.91,2.68,1.42.2.11.4.22.59.34.86.51,1.72,1,2.56,1.63a22.37,22.37,0,0,1,3.43,2.85,1.59,1.59,0,0,0,.13.13,16.17,16.17,0,0,1,1.67,2c.16.22.3.43.44.65l.29.46c.09.16.18.31.26.47l.24.46c.09.17.17.33.24.5s.11.28.17.41a1.89,1.89,0,0,1,.09.21,7.58,7.58,0,0,1,.28.8c.1.32.19.65.27,1,0,.18.09.36.12.54a.29.29,0,0,1,0,.09,1.13,1.13,0,0,1,0,.18s0,0,0,0c0,.24.07.47.1.7s.05.47.06.71a13.45,13.45,0,0,1,0,1.68c0,.3-.05.59-.09.89a6.85,6.85,0,0,1-.13.79q-.07.4-.18.81a15.43,15.43,0,0,1-.84,2.48,10.41,10.41,0,0,0-.7,3.27,4.92,4.92,0,0,0,.11,1.59,1.24,1.24,0,0,0,.39.7,7.63,7.63,0,0,0,3.72,1.27l.57,0a6,6,0,0,0,1.06-.08,3,3,0,0,0,.45-.1,2.59,2.59,0,0,0,.42-.14A40.55,40.55,0,0,0,400-404.77C405.47-412.56,406.17-420.73,401.17-425.82Zm521.43,196,1.49.25c.78-3,2.79-6.47,1.95-8.93-.73-2.13-4.56-3.73-7.31-4.48s-5.86-.16-9.41-.16c0,7.11-.07,13.72.09,20.32,0,.76,1.43,2.22,1.91,2.11,1-.24,2.48-1.13,2.71-2a38.92,38.92,0,0,0,.62-6.51l1.31-.29c1,1.59,2.41,3.07,3.09,4.81,1.36,3.48,3.75,4.76,7.28,4.35Q924.46-225.1,922.6-229.82Zm-5.83-4c-.56.15-2.48-1.88-2.32-2.58.29-1.29,1.66-2.33,3.23-4.26q1.82,2.13,3.64,4.25C919.82-235.49,918.4-234.26,916.77-233.82Zm5.83,4,1.49.25c.78-3,2.79-6.47,1.95-8.93-.73-2.13-4.56-3.73-7.31-4.48s-5.86-.16-9.41-.16c0,7.11-.07,13.72.09,20.32,0,.76,1.43,2.22,1.91,2.11,1-.24,2.48-1.13,2.71-2a38.92,38.92,0,0,0,.62-6.51l1.31-.29c1,1.59,2.41,3.07,3.09,4.81,1.36,3.48,3.75,4.76,7.28,4.35Q924.46-225.1,922.6-229.82Zm-5.83-4c-.56.15-2.48-1.88-2.32-2.58.29-1.29,1.66-2.33,3.23-4.26q1.82,2.13,3.64,4.25C919.82-235.49,918.4-234.26,916.77-233.82Zm5.83,4,1.49.25c.78-3,2.79-6.47,1.95-8.93-.73-2.13-4.56-3.73-7.31-4.48s-5.86-.16-9.41-.16c0,7.11-.07,13.72.09,20.32,0,.76,1.43,2.22,1.91,2.11,1-.24,2.48-1.13,2.71-2a38.92,38.92,0,0,0,.62-6.51l1.31-.29c1,1.59,2.41,3.07,3.09,4.81,1.36,3.48,3.75,4.76,7.28,4.35Q924.46-225.1,922.6-229.82Zm-5.83-4c-.56.15-2.48-1.88-2.32-2.58.29-1.29,1.66-2.33,3.23-4.26q1.82,2.13,3.64,4.25C919.82-235.49,918.4-234.26,916.77-233.82Zm5.83,4,1.49.25c.78-3,2.79-6.47,1.95-8.93-.73-2.13-4.56-3.73-7.31-4.48s-5.86-.16-9.41-.16c0,7.11-.07,13.72.09,20.32,0,.76,1.43,2.22,1.91,2.11,1-.24,2.48-1.13,2.71-2a38.92,38.92,0,0,0,.62-6.51l1.31-.29c1,1.59,2.41,3.07,3.09,4.81,1.36,3.48,3.75,4.76,7.28,4.35Q924.46-225.1,922.6-229.82Zm-5.83-4c-.56.15-2.48-1.88-2.32-2.58.29-1.29,1.66-2.33,3.23-4.26q1.82,2.13,3.64,4.25C919.82-235.49,918.4-234.26,916.77-233.82Zm21.06-.41a27.54,27.54,0,0,0-.68-3.78.31.31,0,0,0,0-.13c-.11-.38-.21-.75-.33-1.11s-.26-.77-.4-1.15a17.82,17.82,0,0,0-1.06-2.3q-.36-.66-.78-1.29c-.17-.26-.35-.52-.54-.77a17.22,17.22,0,0,0-1.16-1.4,18.06,18.06,0,0,0-8.11-4.94c-.24-.08-.49-.15-.74-.21l-.53-.14-1.27-.28c-.66-.13-1.35-.23-2.06-.31s-1.36-.14-2.08-.17a19.05,19.05,0,0,0-2.14,0c-.37,0-.74.05-1.1.09s-.73.09-1.09.15-.71.12-1.06.2c-.54.11-1.07.25-1.59.41l-.93.31a19.31,19.31,0,0,0-3.47,1.63c-.53.31-1.06.66-1.56,1l-.75.58c-.49.39-1,.8-1.39,1.22a19.69,19.69,0,0,0-1.84,2.05c-.34.44-.65.88-.94,1.34q-.32.47-.57.93c-.3.52-.57,1.06-.82,1.6a18.84,18.84,0,0,0-.73,1.94c-.13.41-.24.83-.34,1.26a16.51,16.51,0,0,0-.35,5.53,16.35,16.35,0,0,0,1,8c.17.45.36.9.58,1.35a16.67,16.67,0,0,0,1.47,2.55c.34.49.71,1,1.09,1.43a19.15,19.15,0,0,0,5,4.18,17,17,0,0,0,1.69.9,20.77,20.77,0,0,0,4.8,1.56,22.91,22.91,0,0,0,4.9.39c12.22-.32,20.38-8.25,20.16-19.94C938-232.42,937.92-233.34,937.83-234.23Zm-11.46,13.88,0,0h-.08l0,0h0a9.88,9.88,0,0,1-3.08,3.16c-3.72,2.3-8,1.09-9.76.61-6.46-1.7-9.55-6.51-10.61-12.54-1.11-6.31.94-12,6.17-15.82,4.8-3.49,10.29-3.62,15.53-.72s7.64,7.95,7.51,13.7C932-227.44,931.64-222.53,926.37-220.35Zm-2.28-9.22c.78-3,2.79-6.47,1.95-8.93-.73-2.13-4.56-3.73-7.31-4.48s-5.86-.16-9.41-.16c0,7.11-.07,13.72.09,20.32,0,.76,1.43,2.22,1.91,2.11,1-.24,2.48-1.13,2.71-2a38.92,38.92,0,0,0,.62-6.51l1.31-.29c1,1.59,2.41,3.07,3.09,4.81,1.36,3.48,3.75,4.76,7.28,4.35q-1.87-4.73-3.73-9.44Zm-7.32-4.25c-.56.15-2.48-1.88-2.32-2.58.29-1.29,1.66-2.33,3.23-4.26q1.82,2.13,3.64,4.25C919.82-235.49,918.4-234.26,916.77-233.82Zm5.83,4,1.49.25c.78-3,2.79-6.47,1.95-8.93-.73-2.13-4.56-3.73-7.31-4.48s-5.86-.16-9.41-.16c0,7.11-.07,13.72.09,20.32,0,.76,1.43,2.22,1.91,2.11,1-.24,2.48-1.13,2.71-2a38.92,38.92,0,0,0,.62-6.51l1.31-.29c1,1.59,2.41,3.07,3.09,4.81,1.36,3.48,3.75,4.76,7.28,4.35Q924.46-225.1,922.6-229.82Zm-5.83-4c-.56.15-2.48-1.88-2.32-2.58.29-1.29,1.66-2.33,3.23-4.26q1.82,2.13,3.64,4.25C919.82-235.49,918.4-234.26,916.77-233.82Zm5.83,4,1.49.25c.78-3,2.79-6.47,1.95-8.93-.73-2.13-4.56-3.73-7.31-4.48s-5.86-.16-9.41-.16c0,7.11-.07,13.72.09,20.32,0,.76,1.43,2.22,1.91,2.11,1-.24,2.48-1.13,2.71-2a38.92,38.92,0,0,0,.62-6.51l1.31-.29c1,1.59,2.41,3.07,3.09,4.81,1.36,3.48,3.75,4.76,7.28,4.35Q924.46-225.1,922.6-229.82Zm-5.83-4c-.56.15-2.48-1.88-2.32-2.58.29-1.29,1.66-2.33,3.23-4.26q1.82,2.13,3.64,4.25C919.82-235.49,918.4-234.26,916.77-233.82Z" transform="translate(-108.51 519.53)"/><path class="cls-2" d="M1044-452.37c-4.23-5.72-10.39-7.86-16.58-10.06q-3.62-1.27-7.26-2.37c-3-.91-6.09-1.74-9.17-2.48l-1.84-.44c-1.23-.29-2.47-.57-3.7-.83s-2.47-.52-3.71-.77c-9.92-2-20-3.33-30-4.6l-3.78-.47-2-.27-2.09-.29c-2.28-.32-4.59-.67-7-1l-1.68-.24c.68-1.76,1-2.84,1.52-3.86,4.26-8.95,8.42-18,9.41-28,.51-5.18-.9-9-3.79-10.66l-.33-.17-.35-.16-.31-.12a6.36,6.36,0,0,0-1.18-.29l-.56-.07a8.32,8.32,0,0,0-1.72,0l-.42.06-.65.12-.22,0a14,14,0,0,0-2.38.78,29.72,29.72,0,0,0-11.49,8.93c-7,9.12-13.21,18.92-19.89,28.33a6.92,6.92,0,0,1-3.45,2.55,2.41,2.41,0,0,1-.64.07c-6.58-.31-13.13-1.29-19.72-1.68l-5.15-.3-7.73-.44-7.72-.41c-3.42-.17-6.84-.34-10.26-.49s-6.91-.28-10.36-.39c-16.28-.53-32.56-.88-48.85-1-10.2-.05-20.39.56-30.59.85-7.31.21-14.63.37-21.94.56l-3,.08q-3,.08-6,.18l-1,0-5.4.19c-14.91.57-29.81,1.33-44.71,2.07-4.77.23-9.56.53-14.31,1.05h0q-21.15,2.33-42.26,4.87c-11.13,1.33-22.3,2.46-33.36,4.26l-2.45.41q-5.82.94-11.64,2l-4.22.76c-4.09.75-8.17,1.52-12.25,2.34l-3.76.76-3.68.76-3.73.79c-12.07,2.6-24,5.83-35.89,9.15-2,.56-3.43,3-5.12,4.6,1.66.61,3.37,1.73,5,2a4.09,4.09,0,0,0,.92.05q4-.3,7.94-.65t7.84-.75h0l7.84-.8,7.88-.81,7.08-.74c7.07-.74,14.15-1.52,21.23-2.25q1.47-.17,2.94-.3c1-.11,2-.2,2.94-.29q1.86-.19,3.72-.36l3.44-.33c2-.18,3.95-.36,5.92-.52,15.83-1.31,31.7-2.22,47.57-3,17.07-.86,34.15-2,51.22-1.94,47.41.08,94.84-1.52,142.21,1.77,1.53.11,3,.2,4.58.29l.44,0,3.21.18q.82.06,1.65.09l3,.15,5.68.26,11.47.46c5.4.21,10.8.42,16.2.7,2.91.15,5.8.65,8.9,1.11l2.14.31a30.28,30.28,0,0,1-1.09,3.45c-6.23,13.52-12.94,26.84-18.64,40.58-6.3,15.21-11.68,30.8-17.46,46.22-2.36,6.32-3.65,13.37-7.32,18.8-7.56,11.19-16.32,21.58-24.74,32.19a276.33,276.33,0,0,1-44.13,44c-9.3,7.45-19,14.64-31,16.93-.84.16-1.67.29-2.47.4s-1.36.15-2,.19c-.32,0-.63,0-.94,0l-.94,0c-.39,0-.77,0-1.15,0h-.26c-.35,0-.69-.05-1-.09l-.41-.05-.44-.06c-.45-.07-.89-.15-1.32-.26-6.49-1.52-10.44-6.7-10.88-16.83-.42-9.5,2.78-18.2,4.7-27.21,1.2-5.63,2.8-9.05,8.41-10.72a.19.19,0,0,1,.1,0,2.58,2.58,0,0,1,.42-.12l.08,0c.42-.12.85-.22,1.31-.31L756-306l.28,0,.51-.09c26-3.9,48-16.35,66.06-35.83a85.89,85.89,0,0,0,20.25-35.21c4.69-16.41-2.24-31.28-20.47-34.56-1-.18-2.05-.32-3.06-.41a34.16,34.16,0,0,0-5.72,0l-1.38.13-.55.07c-.33,0-.65.08-1,.14s-.6.09-.9.15-.59.1-.88.17l-1.09.23a62.48,62.48,0,0,0-12.74,4.59c-23.34,11-40.16,29.34-54.93,49.75a190.59,190.59,0,0,0-29.06,61c-3.69,13.23-6.58,26.61-3.92,40.54,2.94,15.37,11.21,23.46,22.33,26.39.79.22,1.6.4,2.42.55l1.24.22q.63.11,1.26.18a47.77,47.77,0,0,0,7.91.33c1.56-.06,3.14-.19,4.71-.4,1.06-.14,2.11-.31,3.16-.51L752-229l1.58-.36a80.23,80.23,0,0,0,13.69-4.75c28.69-12.85,49.79-35.17,70.08-58.3,2.49-2.84,4.91-5.74,7.32-8.66s4.78-5.86,7.2-8.77l.6-.49.57-.48v0c-.17.49-.35,1-.52,1.49v0c-.51,2.92-.83,5.88-1.56,8.75a496.85,496.85,0,0,0-15.35,102c-.63,15.25.22,30.58,1,45.84.23,4.62,1.95,9.37,4,13.6a8.8,8.8,0,0,0,5.84,4.19,2.27,2.27,0,0,0,.58,0c2.16-.17,4.71-2.88,5.93-5.11a24.72,24.72,0,0,0,2.36-9c2.1-18.86,3.53-37.81,6.17-56.59,2.83-20.21,5.73-40.5,10.43-60.33,6.64-28,14.65-55.76,22.7-83.43,3.49-12,7.57-24,13.08-35.23,9.33-18.93,20.11-37.12,30.06-55.75,3.77-7.07,4.4-8.81,9.68-8.55l1,.06c.71.06,1.51.14,2.41.25l1.5.19c14.2,1.83,28.34,4.16,42.45,6.59,12.82,2.21,25.5,5.33,38.38,6.94h0l.52.05c.39,0,.8,0,1.22,0s.9-.1,1.36-.18.64-.13,1-.22l.56-.15.75-.24a15.3,15.3,0,0,0,6.3-4C1047.74-442.89,1047.21-448,1044-452.37ZM817.11-396.55c2.75-.9,6.93-1.28,8.8.2,1.69,1.33,1.93,5.68,1.4,8.43-2.07,10.62-8,19.48-14.71,27.61-11.7,14.2-25.41,26.24-41.87,34.74-4.93,2.55-10.33,4.21-15.52,6.28l-1.31-1.08c3.37-6.7,6.5-13.54,10.14-20.09a179.56,179.56,0,0,1,29.72-40C800.59-387.31,807.82-393.53,817.11-396.55Z" transform="translate(-108.51 519.53)"/><path class="cls-3" d="M827.31-387.92c-2.07,10.62-8,19.48-14.71,27.61-11.7,14.2-25.41,26.24-41.87,34.74-4.93,2.55-10.33,4.21-15.52,6.28l-1.31-1.08c3.37-6.7,6.5-13.54,10.14-20.09a179.56,179.56,0,0,1,29.72-40c6.83-6.81,14.06-13,23.35-16.05,2.75-.9,6.93-1.28,8.8.2C827.6-395,827.84-390.67,827.31-387.92Z" transform="translate(-108.51 519.53)"/><path class="cls-2" d="M740.31-386.69c0-.21,0-.42,0-.63a.38.38,0,0,0,0-.1c0-.23,0-.46-.07-.69,0-.4-.1-.79-.17-1.18,0-.19-.07-.38-.1-.57-.07-.36-.15-.73-.24-1.09s-.15-.61-.24-.92-.14-.48-.22-.71-.23-.71-.36-1.06c-.2-.53-.42-1.05-.65-1.55l-.45-.88a12.42,12.42,0,0,0-1.86-2.61c-6.18-6.49-17.75-5.84-25.35-1.22-10.52,6.38-18.85,15-26.2,24.75l-2.29,3-1.34,1.8c-1.07,1.44-2.15,2.88-3.22,4.33l-4.57,6.19c-2.3,3.12-4.61,6.27-7,9.47.52-5.9,1-11.27,1.45-16.62a23.33,23.33,0,0,0,.06-3.53q0-.4-.06-.81l0-.34c0-.2,0-.4-.07-.59s0-.3-.07-.45-.09-.54-.14-.8-.09-.46-.15-.69-.11-.48-.18-.71-.18-.65-.29-1a20.44,20.44,0,0,0-3.15-6c-.39-.52-.8-1-1.23-1.49-.21-.24-.43-.47-.66-.7s-.45-.46-.68-.68c-.47-.44-1-.87-1.45-1.28s-1-.8-1.52-1.18c-.69-.5-1.4-1-2.12-1.42l-.45-.27-.64-.38q-.52-.3-1-.57c-.48-.27-1-.52-1.46-.75l-.84-.4c-.84-.39-1.68-.75-2.51-1.08-2.11-.84-3.77-.8-4.84-.07l-.26.2a1.66,1.66,0,0,0-.29.3,2,2,0,0,0-.24.33,1.38,1.38,0,0,0-.14.24,2.65,2.65,0,0,0-.18.42,2.53,2.53,0,0,0-.14.49,4,4,0,0,0-.08.48s0,.05,0,.09a4.93,4.93,0,0,0,0,.55,9.15,9.15,0,0,0,.37,2.43c2.17,7.8.86,15.27-1.61,22.71-.81,2.43-1.61,4.87-2.4,7.3-2.4,7.31-4.76,14.62-7.22,21.91q-1.64,4.86-3.34,9.71c-2.62,7.44-5.34,15-9.14,21.82-4.23,7.62-9.68,14.57-14.71,21.74-12,17.07-24.58,33.66-39.7,48.11-8.85,8.46-18.09,16.5-30.25,20a20,20,0,0,1-11.54.06,12,12,0,0,1-1.55-.58,6.41,6.41,0,0,1-.75-.35,10.83,10.83,0,0,1-1.43-.83,11.08,11.08,0,0,1-1.33-1,8.15,8.15,0,0,1-.63-.56c-.26-.24-.52-.5-.76-.77s-.34-.38-.5-.59a11.25,11.25,0,0,1-.76-1c-.12-.17-.24-.35-.35-.54a15.47,15.47,0,0,1-1.2-2.41c-.09-.21-.17-.43-.25-.66a13.15,13.15,0,0,1-.39-1.26,5.47,5.47,0,0,1-.15-.58c-.13-.51-.23-1-.32-1.58,0-.24-.07-.48-.1-.73-.1-.74-.16-1.52-.19-2.33a115.86,115.86,0,0,1,.47-14.94c.18-1.83.39-3.66.65-5.47.13-.92.27-1.84.41-2.76q.67-4.07,1.59-8.09c.2-.9.42-1.79.64-2.68s.45-1.79.69-2.67.49-1.78.74-2.66c.51-1.77,1.06-3.53,1.63-5.29.29-.87.59-1.75.89-2.62s.62-1.79.94-2.68l1-2.68q1-2.67,2-5.32c.69-1.76,1.39-3.53,2.11-5.29.59-1.44,1.18-2.87,1.8-4.3q.75-1.78,1.53-3.57c.45-1,.91-2.05,1.38-3.08.25-.58.52-1.17.79-1.75.45-1,.9-2,1.37-3s.81-1.72,1.22-2.57.82-1.71,1.24-2.56q1.26-2.56,2.55-5.08c7.62-14.85,17.3-28.58,30.73-38.91a40.64,40.64,0,0,1,15.27-7.3,10.21,10.21,0,0,1,2.92-.26,5.76,5.76,0,0,1,2.12.57,3.83,3.83,0,0,1,.44.25,4.23,4.23,0,0,1,1.36,1.4,4.78,4.78,0,0,1,.44.91,9,9,0,0,1-.23,5.68c-.25.78-.5,1.56-.77,2.33a5.17,5.17,0,0,1-.18.51c-.08.25-.16.49-.26.74-.48,1.42-1,2.83-1.52,4.24-.39,1.06-.79,2.12-1.2,3.17s-.81,2.11-1.22,3.17c-.72,1.88-1.45,3.76-2.15,5.65-.35.95-.7,1.89-1,2.84,0,.14-.1.28-.15.44a16.88,16.88,0,0,0-.45,1.64c0,.19-.08.38-.11.56s0,.29-.07.43a3.77,3.77,0,0,0,0,1.39.72.72,0,0,0,.23.41,6.57,6.57,0,0,0,5.33,1,33.32,33.32,0,0,0,22-21.23c.12-.32.23-.65.33-1s.11-.35.16-.53.1-.36.15-.53.1-.36.14-.53.09-.36.12-.53.07-.34.1-.5.07-.33.09-.5a2.51,2.51,0,0,0,0-.27c0-.21.07-.43.1-.64l0-.33c0-.14,0-.28.05-.42a19.76,19.76,0,0,0,0-2.66c0-.14,0-.27,0-.41,0-.36-.06-.73-.11-1.09s-.09-.68-.15-1l-.21-1c0-.2-.1-.4-.16-.6s-.11-.38-.17-.58c-.12-.4-.26-.79-.41-1.17s-.22-.57-.35-.85a20,20,0,0,0-3.76-5.61c-.26-.28-.54-.56-.83-.84-.58-.55-1.2-1.08-1.85-1.59-9.56-7.42-20.49-8.67-31.9-6C556-374,544.09-365.15,533.57-354.78a181.07,181.07,0,0,0-40.48,61.15c-2.31,5.64-3.77,11.77-6.91,16.88-17.74,28.84-37.62,56.09-62.36,79.43-7.71,7.27-16.05,13.75-26.24,17.49a20.66,20.66,0,0,1-13.3.76,13.5,13.5,0,0,1-2.76-1.18,7.14,7.14,0,0,1-.79-.47,7.71,7.71,0,0,1-.75-.52,7.38,7.38,0,0,1-.64-.5,7.61,7.61,0,0,1-.61-.54c-.16-.15-.32-.3-.48-.47l-.42-.44-.08-.1c-.13-.15-.27-.31-.39-.47s-.25-.31-.37-.48a15.71,15.71,0,0,1-1.51-2.52c-.08-.17-.16-.34-.23-.51-.18-.39-.33-.79-.48-1.2a23.28,23.28,0,0,1-1.19-8.68c.36-10,2.48-19.91,3.74-29.87.05-.41.11-.81.18-1.19,0-.18.07-.36.11-.53a7,7,0,0,1,.17-.69,5.79,5.79,0,0,1,.19-.63v0c0-.11.08-.22.13-.33a3.09,3.09,0,0,1,.14-.32,4.82,4.82,0,0,1,1.3-1.76,4.56,4.56,0,0,1,.42-.31h0a4.11,4.11,0,0,1,.51-.27,7,7,0,0,1,3.52-.46c2,.17,4.19-.72,6.26-1.27C415-241.36,435-255.26,450.6-275.26c.32-.41.64-.82.95-1.24a3.33,3.33,0,0,0,.24-.32l1.16-1.56c.39-.52.77-1,1.14-1.57l.56-.79.55-.8,1.07-1.6c.36-.54.71-1.08,1-1.62s.51-.8.75-1.2a80.58,80.58,0,0,0,4.71-8.83c.21-.46.41-.92.61-1.38s.28-.66.41-1c.25-.6.49-1.21.72-1.82.63-1.65,1.18-3.31,1.66-5,.12-.39.22-.78.33-1.18a56.92,56.92,0,0,0,1.44-7.31c.13-.92.23-1.84.31-2.78a55.68,55.68,0,0,0,.2-6.23v0c0-.81-.07-1.61-.16-2.39s-.22-1.58-.37-2.34c-2.21-10.56-11-17.7-22.42-18.23-13.16-.61-24.27,4.33-34.72,11.33-21.73,14.55-36.68,35-48.75,57.69l-.92,1.74q-1.41,2.73-2.75,5.46c-.36.74-.72,1.48-1.07,2.22-1.5,3.16-2.93,6.34-4.26,9.55-.66,1.6-1.31,3.21-1.93,4.82-.31.8-.62,1.61-.91,2.42s-.6,1.62-.88,2.44-.57,1.62-.85,2.44q-1.65,4.89-3,9.86-1.68,6.21-2.85,12.55c-.16.84-.3,1.69-.44,2.54s-.28,1.7-.41,2.55-.27,2-.39,2.93-.21,1.68-.3,2.52c-.34,3.09-.58,6.19-.71,9.32,0,.3,0,.61,0,.91-.07,1.7-.1,3.41-.1,5.13q0,4,.23,8c0,.44.06.88.1,1.32s.08.88.14,1.33c.15,1.21.35,2.42.61,3.62.06.3.13.59.2.89a36.51,36.51,0,0,0,1,3.54c.2.58.41,1.16.63,1.73s.45,1.15.71,1.71c.12.28.25.57.39.85.29.61.59,1.22.92,1.82,0,0,0,0,0,0,.43.8.89,1.58,1.39,2.34.26.4.53.8.81,1.19s.77,1.06,1.19,1.57l.66.78c.28.34.58.67.9,1s.64.66,1,1q.24.24.48.45l.49.44a1.32,1.32,0,0,0,.26.22q.48.42,1,.81c.37.29.76.58,1.15.85s.71.48,1.07.71a1,1,0,0,0,.13.09l.07,0h0c.41.25.82.49,1.24.72s.87.46,1.32.67.85.39,1.29.57a22.25,22.25,0,0,0,2.71,1c.47.13,1,.26,1.43.37l1,.21c.33.08.66.14,1,.19,8.87,1.41,17.6,1.22,26-1.56,14.63-4.84,27.15-13.36,38.38-23.84,17.31-16.16,31-35.18,43.79-54.95,1.4-2.17,2.72-4.39,4.21-6.8.48,9.06.36,17.51,1.5,25.78.06.45.13.91.21,1.35s.16.83.25,1.24c0,.2.08.38.13.58.15.65.31,1.29.51,1.93.08.27.16.55.25.82s.17.54.27.81l.3.83c.16.44.33.88.52,1.31s.3.69.46,1,.32.69.49,1,.34.67.52,1c.27.49.55,1,.84,1.45s.59.94.9,1.4c.21.3.42.61.64.9s.44.59.66.88l.69.85q.17.21.36.42c.11.14.23.27.36.41.47.55,1,1.07,1.5,1.57.26.25.52.5.79.74l.81.71.83.68a.13.13,0,0,0,.06.05c.2.17.4.32.61.47l.19.14s0,0,0,0a28.18,28.18,0,0,0,13.66,5.42,62.62,62.62,0,0,0,38.7-8.35c18.11-10.37,31.85-25.46,44.3-41.82,5.75-7.56,10.87-15.61,16.75-24.13a13.43,13.43,0,0,1-.12,2.3c-.18.61-.36,1.21-.55,1.82-.6,1.95-1.22,3.9-1.82,5.85-.35,1.11-.69,2.22-1,3.34-.1.3-.19.61-.27.92-.16.53-.31,1.07-.46,1.61s-.36,1.31-.53,2l0,.11L600.9-244c-.15.62-.29,1.24-.41,1.87s-.25,1.25-.36,1.88a.59.59,0,0,0,0,.13c-.12.67-.22,1.35-.31,2-.07.51-.13,1-.19,1.53s-.1,1-.14,1.54q-.09,1.09-.12,2.22c0,.19,0,.38,0,.58q0,.75,0,1.5c0,.68,0,1.34.1,2,0,.16,0,.31,0,.47,0,.32.06.65.11,1l.06.45c.07.54.16,1.08.27,1.59l.12.56c0,.19.08.37.13.55.1.4.21.78.33,1.16s.22.69.34,1a.42.42,0,0,1,0,.1c.14.35.28.7.43,1s.31.67.47,1a3.67,3.67,0,0,0,.26.48,1.71,1.71,0,0,0,.13.23,1.49,1.49,0,0,0,.14.24q.27.47.57.9c.2.29.41.57.62.85a13.61,13.61,0,0,0,1.39,1.56c3.52,3.48,8.68,5.31,15.32,5.3a6.5,6.5,0,0,0,4.44-1.29,4,4,0,0,0,.41-.41l.27-.34a1.69,1.69,0,0,0,.23-.36,3.17,3.17,0,0,0,.21-.41,4.8,4.8,0,0,0,.34-.9,8.06,8.06,0,0,0,.25-1.21c.08-.59.16-1.18.22-1.77.09-.8.18-1.6.26-2.4l0-.27c.22-2.22.4-4.45.67-6.66l.15-1.1c0-.29.08-.58.13-.87q.09-.66.21-1.32c.1-.54.2-1.08.33-1.62q.07-.41.18-.81c.06-.27.13-.53.2-.8q.93-3.48,1.87-6.94c2.17-8,4.44-15.91,6.94-23.77.33-1,.66-2.08,1-3.11.11-.36.23-.72.35-1.08s.29-.88.44-1.32q.92-2.75,1.87-5.48c.32-.91.64-1.82,1-2.73q1-2.73,2-5.43c.49-1.29,1-2.58,1.51-3.87l.18-.45c.5-1.25,1-2.5,1.53-3.74.38-.9.75-1.78,1.14-2.67s.77-1.77,1.16-2.65.83-1.85,1.25-2.77.79-1.67,1.19-2.5c.21-.46.43-.91.65-1.35.31-.65.63-1.29,1-1.94s.64-1.29,1-1.93c.44-.86.89-1.72,1.34-2.58.66-1.25,1.33-2.48,2-3.71.4-.73.81-1.46,1.23-2.18v0q1.23-2.14,2.52-4.28c.37-.62.75-1.23,1.13-1.85.75-1.23,1.51-2.45,2.27-3.67s1.55-2.46,2.33-3.67,1.56-2.4,2.35-3.59l1.5-2.23c.52-.77,1.05-1.53,1.58-2.29.31-.45.62-.9.94-1.34l.87-1.22,1.26-1.74c.42-.58.85-1.15,1.28-1.72s.87-1.16,1.3-1.73c.86-1.13,1.74-2.25,2.64-3.35A144,144,0,0,1,693-360.6a116.3,116.3,0,0,1,13.1-11c8.3-6,17-9.47,27.28-4.48a5,5,0,0,0,4.64-1,6.48,6.48,0,0,0,.7-1,8.16,8.16,0,0,0,.81-1.74c.14-.41.27-.84.38-1.29l0-.11.12-.57c0-.2.07-.4.1-.59l.06-.43c0-.23.06-.45.07-.68s.05-.59.06-.89c0-.6,0-1.22,0-1.83ZM426.15-319.58c5.59-5.3,11.46-10.52,20-10.91,4-.18,5.2,1.53,5.38,5.22.39,8.36-3.07,15.46-6.88,22.46-12.23,22.51-29.54,39.95-52.25,51.91-2.52,1.33-5.38,2-9.45,3.45C393.56-275.12,405.52-300,426.15-319.58Z" transform="translate(-108.51 519.53)"/><path class="cls-3" d="M444.61-302.81c-12.23,22.51-29.54,39.95-52.25,51.91-2.52,1.33-5.38,2-9.45,3.45,10.65-27.67,22.61-52.55,43.24-72.13,5.59-5.3,11.46-10.52,20-10.91,4-.18,5.2,1.53,5.38,5.22C451.88-316.91,448.42-309.81,444.61-302.81Z" transform="translate(-108.51 519.53)"/><path class="cls-2" d="M341.53-444.37c16.25-.47,32.06,1.74,46.72,9.05a49.2,49.2,0,0,1,12.92,9.5c5,5.09,4.3,13.26-1.22,21.05A40.55,40.55,0,0,1,382.16-391a7.43,7.43,0,0,1-6.22-1c-.87-.65-.52-3.89.2-5.56,3-6.9.74-13.8-6.59-18.81a47.52,47.52,0,0,0-25.1-8.15c-17.44-.86-34.09,1.74-49.73,9.94-21.28,11.16-33.06,29.2-38.34,52.09-4.94,21.4-.13,41.38,9.69,60.23,9.52,18.28,19.8,36.18,30.11,54C306.3-230.64,315-212.51,319-192.59c3,14.81,1.6,29.7-1.89,44.29-5.45,22.75-16.32,42.57-33.81,58.32-17.65,15.9-38.51,25.86-61.46,31.56-17.25,4.29-34.82,6.66-52.55,5.9-15.65-.67-31.15-2.49-45.06-11.27-20.74-13.09-20.64-40.62-1.85-55.84a67,67,0,0,1,13.76-8.73c2.18-1,6-.48,8,.93,1.07.77.52,5.23-.59,7.35-9,17.21-1,37.37,21.26,42.66,18.51,4.4,36.84,1.92,54.82-3.15,16.71-4.71,31.37-13,42.6-26.67,9.88-12,15.15-25.94,18.31-41s2.41-29.9-3.76-43.72c-6.57-14.71-14.49-28.87-22.54-42.85-11.79-20.47-24.81-40.32-32.42-62.88-6.77-20.08-8.48-40.51-2.66-61.3,5.31-19,14.32-35.82,28.43-49.6a116.18,116.18,0,0,1,42-26.6C306.39-441.26,323.58-445.1,341.53-444.37Z" transform="translate(-108.51 519.53)"/><path class="cls-2" d="M935.33-242.7q-.36-.66-.78-1.29c-.17-.26-.35-.52-.54-.77a17.22,17.22,0,0,0-1.16-1.4,18.06,18.06,0,0,0-8.11-4.94c-.24-.08-.49-.15-.74-.21l-.53-.14-1.27-.28a29.26,29.26,0,0,0-4.13-.47,20.37,20.37,0,0,0-5.4.45c-.54.11-1.07.25-1.59.41l-.93.31a19.31,19.31,0,0,0-3.47,1.63c-.53.31-1.06.66-1.56,1l-.75.58c-.49.39-1,.8-1.39,1.22a19.69,19.69,0,0,0-1.84,2.05c-.34.44-.65.88-.94,1.34q-.32.47-.57.93c-.3.52-.57,1.06-.82,1.6a18.84,18.84,0,0,0-.73,1.94c-.13.41-.24.83-.34,1.26a16.51,16.51,0,0,0-.35,5.53,16.35,16.35,0,0,0,1,8c.17.45.36.9.58,1.35a16.67,16.67,0,0,0,1.47,2.55c.34.49.71,1,1.09,1.43a19.15,19.15,0,0,0,5,4.18,17,17,0,0,0,1.69.9,20.77,20.77,0,0,0,4.8,1.56,22.94,22.94,0,0,0,4.91.4c12.22-.32,20.38-8.25,20.16-19.94A24.16,24.16,0,0,0,935.33-242.7Zm-32.42,13.6c-1.11-6.31.94-12,6.17-15.82,4.8-3.49,10.29-3.62,15.53-.72s7.64,7.95,7.51,13.7c-.1,4.5-.48,9.41-5.75,11.59h0a9.88,9.88,0,0,1-3.08,3.16c-3.72,2.3-8,1.09-9.76.61C907.06-218.26,904-223.07,902.91-229.1Z" transform="translate(-108.51 519.53)"/><path class="cls-3" d="M932.12-231.94c-.1,4.5-.48,9.41-5.75,11.59l0,0h-.08q-1.87-4.73-3.73-9.44l1.49.25c.78-3,2.79-6.47,1.95-8.93-.73-2.13-4.56-3.73-7.31-4.48s-5.86-.16-9.41-.16c0,7.11-.07,13.72.09,20.32,0,.76,1.43,2.22,1.91,2.11,1-.24,2.48-1.13,2.71-2a38.92,38.92,0,0,0,.62-6.51l1.31-.29c1,1.59,2.41,3.07,3.09,4.81,1.36,3.48,3.75,4.76,7.28,4.35l0,0a9.88,9.88,0,0,1-3.08,3.16c-3.72,2.3-8,1.09-9.76.61-6.46-1.7-9.55-6.51-10.61-12.54-1.11-6.31.94-12,6.17-15.82,4.8-3.49,10.29-3.62,15.53-.72S932.25-237.69,932.12-231.94Z" transform="translate(-108.51 519.53)"/><path class="cls-1" d="M851.86-309.83l1.21-1-.54,1.55C852.31-309.43,852.08-309.63,851.86-309.83Z" transform="translate(-108.51 519.53)"/><path class="cls-2" d="M922.6-229.82l1.49.25c.78-3,2.79-6.47,1.95-8.93-.73-2.13-4.56-3.73-7.31-4.48s-5.86-.16-9.41-.16c0,7.11-.07,13.72.09,20.32,0,.76,1.43,2.22,1.91,2.11,1-.24,2.48-1.13,2.71-2a38.92,38.92,0,0,0,.62-6.51l1.31-.29c1,1.59,2.41,3.07,3.09,4.81,1.36,3.48,3.75,4.76,7.28,4.35Q924.46-225.1,922.6-229.82Zm-5.83-4c-.56.15-2.48-1.88-2.32-2.58.29-1.29,1.66-2.33,3.23-4.26q1.82,2.13,3.64,4.25C919.82-235.49,918.4-234.26,916.77-233.82Zm9.56,13.44,0,0h0l0,0Z" transform="translate(-108.51 519.53)"/><path class="cls-3" d="M921.32-236.41c-1.5.92-2.92,2.15-4.55,2.59-.56.15-2.48-1.88-2.32-2.58.29-1.29,1.66-2.33,3.23-4.26Q919.5-238.53,921.32-236.41Z" transform="translate(-108.51 519.53)"/><path class="cls-2" d="M909.32-241Z" transform="translate(-108.51 519.53)"/><path class="cls-2" d="M923.26-232.84Z" transform="translate(-108.51 519.53)"/></svg>