<?xml version="1.0" encoding="utf-8"?>
<!-- Generator: Adobe Illustrator 23.1.0, SVG Export Plug-In . SVG Version: 6.00 Build 0)  -->
<svg version="1.1" id="Layer_1" xmlns="http://www.w3.org/2000/svg" xmlns:xlink="http://www.w3.org/1999/xlink" x="0px" y="0px"
	 viewBox="0 0 1080 518.55" style="enable-background:new 0 0 1080 518.55;" xml:space="preserve">
<style type="text/css">
	.st0{fill:#FEFEFE;}
	.st1{fill:#64C5EC;}
</style>
<g>
	<g>
		<path class="st0" d="M826.47,225.82c0.22,0.2,0.44,0.39,0.68,0.58c-0.51,2.92-0.83,5.89-1.56,8.75
			c-8.51,33.51-13.93,67.52-15.35,102.04c-0.63,15.25,0.22,30.58,0.99,45.84c0.23,4.62,1.95,9.38,3.97,13.6
			c0.99,2.08,4.33,4.38,6.42,4.21c2.15-0.18,4.71-2.88,5.93-5.11c1.45-2.65,2.01-5.94,2.36-9.02c2.11-18.86,3.54-37.81,6.17-56.59
			c2.84-20.21,5.74-40.5,10.43-60.33c6.64-28.03,14.65-55.75,22.7-83.43c3.49-12.01,7.57-24.05,13.08-35.23
			c9.32-18.93,20.11-37.12,30.06-55.75c4.7-8.8,4.51-9.34,14.55-8.05c14.2,1.83,28.34,4.16,42.45,6.59
			c12.82,2.2,25.5,5.33,38.38,6.94c3.77,0.47,9.21-1.81,11.73-4.71c2.94-3.38,2.41-8.52-0.81-12.87
			c-4.23-5.72-10.39-7.86-16.58-10.06c-19.25-6.83-39.36-9.45-59.48-11.96c-4.15-0.52-8.29-1.17-12.82-1.82
			c0.69-1.76,1.04-2.84,1.52-3.86c4.26-8.94,8.42-17.96,9.41-27.96c0.87-8.82-3.85-13.82-11.91-10.43
			c-4.35,1.83-8.6,5.18-11.49,8.93c-7.04,9.12-13.21,18.92-19.89,28.33c-0.89,1.26-2.75,2.68-4.09,2.62
			c-6.59-0.31-13.14-1.29-19.72-1.68c-13.73-0.81-27.47-1.59-41.22-2.03c-16.28-0.53-32.57-0.88-48.85-0.96
			c-10.19-0.05-20.39,0.56-30.59,0.85c-12.45,0.35-24.91,0.56-37.35,1.04c-14.91,0.57-29.81,1.33-44.71,2.07
			c-4.79,0.24-9.59,0.53-14.36,1.05c-14.09,1.55-28.18,3.19-42.26,4.87c-11.13,1.33-22.3,2.46-33.36,4.26
			c-13.97,2.27-27.9,4.82-41.73,7.81c-12.06,2.6-24,5.83-35.89,9.15c-1.98,0.55-3.42,3.02-5.12,4.6c1.98,0.72,4.01,2.18,5.93,2.04
			c10.53-0.78,21.04-1.94,31.55-3.01c15.76-1.6,31.49-3.49,47.27-4.79c15.83-1.31,31.7-2.22,47.57-3.02
			c17.06-0.86,34.15-1.97,51.22-1.94c47.4,0.08,94.83-1.52,142.21,1.77c15.38,1.07,30.81,1.38,46.21,2.16
			c3.57,0.18,7.11,0.9,11.04,1.42c-0.42,1.35-0.64,2.46-1.09,3.45c-6.23,13.52-12.95,26.84-18.64,40.58
			c-6.3,15.21-11.68,30.79-17.46,46.22c-2.37,6.32-3.65,13.37-7.32,18.8c-7.57,11.19-16.33,21.59-24.74,32.19
			c-12.99,16.37-27.84,30.92-44.13,43.96c-9.3,7.44-19.02,14.63-31.05,16.93c-12.86,2.45-21.19-1.68-21.85-16.67
			c-0.41-9.5,2.78-18.2,4.7-27.21c1.42-6.65,3.39-10.21,11.83-11.47c26.01-3.9,47.99-16.35,66.06-35.83
			c9.55-10.29,16.45-21.9,20.25-35.21c4.68-16.41-2.25-31.29-20.47-34.56c-9.81-1.76-18.73,1.03-27.3,5.05
			c-23.34,10.96-40.16,29.34-54.93,49.75c-13.39,18.5-22.93,38.99-29.06,60.97c-3.69,13.23-6.58,26.62-3.92,40.54
			c3.98,20.83,17.76,28.29,35.16,27.67c8.33-0.3,17.03-2.89,24.72-6.34c28.69-12.85,49.79-35.17,70.08-58.3
			C816.93,237.57,821.64,231.64,826.47,225.82z M640.55,185.32c0.51-5.9,0.98-11.27,1.45-16.64c1.24-14.08-9.31-21.34-18.69-25.07
			c-4.7-1.87-7.19,0.61-5.84,5.46c2.17,7.8,0.86,15.27-1.61,22.71c-4.31,12.98-8.41,26.03-12.96,38.92
			c-2.62,7.43-5.34,14.96-9.14,21.82c-4.23,7.62-9.68,14.57-14.71,21.74c-11.98,17.07-24.58,33.66-39.7,48.11
			c-8.85,8.46-18.09,16.5-30.25,20.05c-10.27,3-21.73-1.43-22.2-15.71c-0.54-16.31,2.44-32.05,7.71-47.18
			c4.97-14.3,11-28.35,17.91-41.83c7.61-14.85,17.29-28.58,30.73-38.91c4.4-3.39,9.88-6.08,15.27-7.3c6.05-1.37,8.97,2.52,7.05,8.55
			c-2.44,7.66-5.63,15.08-8.34,22.65c-0.56,1.57-1.25,4.3-0.55,4.87c1.27,1.03,3.75,1.53,5.33,1.02
			c10.75-3.44,18.16-10.68,22.01-21.23c3.24-8.87,0.66-17.46-6.67-23.14c-9.56-7.42-20.49-8.67-31.9-6.04
			c-14.86,3.43-26.75,12.31-37.27,22.68c-17.73,17.47-31.04,38.09-40.48,61.15c-2.3,5.63-3.77,11.77-6.91,16.88
			c-17.74,28.84-37.62,56.08-62.36,79.43c-7.7,7.27-16.05,13.75-26.24,17.49c-13.07,4.8-24.55-1.83-24-17.32
			c0.36-9.99,2.48-19.91,3.74-29.87c0.51-4.01,1.69-6.94,6.7-6.54c2.04,0.16,4.19-0.73,6.26-1.27
			c24.76-6.53,44.71-20.43,60.32-40.43c10.53-13.49,18.24-28.33,17.85-46.23c-0.29-13.12-9.83-22.37-22.95-22.98
			c-13.16-0.61-24.26,4.33-34.72,11.33c-21.74,14.55-36.68,34.96-48.75,57.69c-14.49,27.29-23.37,56.05-21.58,87.36
			c0.8,14.06,9.04,29.39,25.24,31.97c8.87,1.42,17.6,1.22,25.98-1.56c14.62-4.85,27.15-13.36,38.38-23.84
			c17.3-16.16,31.01-35.18,43.79-54.95c1.4-2.17,2.72-4.39,4.21-6.8c0.48,9.06,0.36,17.51,1.5,25.78
			c2.07,14.98,13.32,26.54,26.85,28.03c13.76,1.51,26.71-1.48,38.7-8.35c18.11-10.38,31.86-25.47,44.3-41.82
			c5.76-7.56,10.87-15.62,16.75-24.13c-0.06,1.37,0.01,1.86-0.12,2.3c-2.99,10.09-6.9,19.92-6.69,30.76
			c0.25,13.16,7.62,20.44,20.87,20.43c3.73,0,5.66-1.43,6.15-4.92c0.82-5.87,0.86-11.94,2.38-17.62c8-29.98,16.83-59.69,33.1-86.5
			c11.99-19.75,25.15-38.56,44.25-52.28c8.3-5.97,17.04-9.47,27.28-4.48c1.16,0.57,3.81,0,4.64-0.99
			c4.15-4.95,2.42-16.86-2.12-21.62c-6.18-6.48-17.74-5.83-25.35-1.22c-10.52,6.39-18.86,15.05-26.2,24.75
			C652.82,168.59,646.86,176.8,640.55,185.32z M316.14,91.28c-17.95-0.73-35.14,3.11-51.88,9.13c-15.94,5.74-29.95,14.8-42.03,26.6
			c-14.11,13.78-23.12,30.61-28.43,49.6c-5.81,20.78-4.11,41.22,2.66,61.3c7.61,22.56,20.63,42.41,32.42,62.88
			c8.05,13.98,15.97,28.14,22.54,42.85c6.17,13.82,6.93,28.61,3.76,43.72c-3.17,15.12-8.43,29.05-18.31,41.05
			c-11.23,13.64-25.9,21.96-42.6,26.67c-17.98,5.07-36.3,7.55-54.82,3.15c-22.26-5.3-30.26-25.45-21.26-42.66
			c1.11-2.12,1.66-6.59,0.59-7.35c-1.96-1.41-5.81-1.94-7.99-0.93c-4.89,2.27-9.55,5.32-13.76,8.73
			c-18.78,15.22-18.89,42.75,1.85,55.84c13.9,8.78,29.41,10.6,45.06,11.27c17.73,0.76,35.31-1.61,52.55-5.9
			c22.94-5.71,43.8-15.67,61.46-31.56c17.49-15.75,28.36-35.57,33.81-58.32c3.49-14.59,4.92-29.48,1.89-44.29
			c-4.07-19.92-12.73-38.05-22.86-55.59c-10.31-17.86-20.59-35.75-30.11-54.04c-9.82-18.86-14.63-38.84-9.69-60.23
			c5.29-22.89,17.07-40.93,38.34-52.09c15.63-8.2,32.29-10.8,49.73-9.94c9.17,0.45,17.55,2.99,25.1,8.15
			c7.33,5.01,9.56,11.91,6.59,18.81c-0.72,1.67-1.08,4.91-0.2,5.56c1.52,1.14,4.5,1.71,6.22,0.98c7.09-2.98,13.3-7.45,17.79-13.79
			c5.52-7.79,6.22-15.96,1.22-21.05c-3.71-3.78-8.19-7.14-12.92-9.5C348.2,93.02,332.39,90.81,316.14,91.28z M872,303.72
			c-1.36,10,7.19,20.74,20.45,20.39c12.22-0.32,20.38-8.25,20.16-19.94c-0.23-12.14-6.88-20.12-19.94-20.73
			C880.31,282.87,870.87,293.08,872,303.72z"/>
		<path class="st1" d="M826.47,225.82c-4.83,5.82-9.54,11.74-14.52,17.43c-20.29,23.13-41.39,45.45-70.08,58.3
			c-7.69,3.44-16.39,6.04-24.72,6.34c-17.4,0.62-31.18-6.84-35.16-27.67c-2.66-13.93,0.23-27.31,3.92-40.54
			c6.13-21.98,15.68-42.47,29.06-60.97c14.77-20.41,31.59-38.79,54.93-49.75c8.57-4.02,17.5-6.82,27.3-5.05
			c18.23,3.28,25.16,18.15,20.47,34.56c-3.8,13.32-10.7,24.92-20.25,35.21c-18.07,19.48-40.05,31.93-66.06,35.83
			c-8.44,1.27-10.42,4.83-11.83,11.47c-1.92,9.01-5.12,17.71-4.7,27.21c0.65,14.99,8.98,19.12,21.85,16.67
			c12.03-2.29,21.75-9.48,31.05-16.93c16.29-13.03,31.14-27.59,44.13-43.96c8.42-10.61,17.18-21,24.74-32.19
			c3.67-5.43,4.96-12.48,7.32-18.8c5.78-15.42,11.16-31.01,17.46-46.22c5.7-13.74,12.41-27.06,18.64-40.58
			c0.46-1,0.67-2.1,1.09-3.45c-3.93-0.52-7.47-1.24-11.04-1.42c-15.4-0.79-30.83-1.09-46.21-2.16c-47.37-3.29-94.8-1.69-142.21-1.77
			c-17.07-0.03-34.15,1.08-51.22,1.94c-15.87,0.8-31.74,1.71-47.57,3.02c-15.78,1.31-31.52,3.19-47.27,4.79
			c-10.51,1.07-21.02,2.22-31.55,3.01c-1.91,0.14-3.95-1.32-5.93-2.04c1.69-1.58,3.14-4.04,5.12-4.6
			c11.89-3.32,23.82-6.55,35.89-9.15c13.83-2.98,27.76-5.54,41.73-7.81c11.06-1.8,22.23-2.93,33.36-4.26
			c14.08-1.68,28.16-3.32,42.26-4.87c4.77-0.52,9.57-0.82,14.36-1.05c14.9-0.74,29.8-1.5,44.71-2.07
			c12.45-0.48,24.9-0.68,37.35-1.04c10.2-0.29,20.39-0.9,30.59-0.85c16.29,0.08,32.57,0.43,48.85,0.96
			c13.75,0.45,27.49,1.22,41.22,2.03c6.59,0.39,13.14,1.37,19.72,1.68c1.34,0.06,3.2-1.36,4.09-2.62
			c6.68-9.41,12.85-19.21,19.89-28.33c2.89-3.75,7.14-7.1,11.49-8.93c8.06-3.39,12.78,1.61,11.91,10.43
			c-0.99,10-5.15,19.01-9.41,27.96c-0.48,1.02-0.84,2.1-1.52,3.86c4.53,0.64,8.66,1.3,12.82,1.82c20.13,2.51,40.23,5.13,59.48,11.96
			c6.19,2.2,12.35,4.34,16.58,10.06c3.22,4.35,3.75,9.48,0.81,12.87c-2.52,2.9-7.96,5.18-11.73,4.71
			c-12.88-1.61-25.56-4.73-38.38-6.94c-14.11-2.43-28.25-4.76-42.45-6.59c-10.03-1.29-9.85-0.76-14.55,8.05
			c-9.95,18.63-20.73,36.82-30.06,55.75c-5.51,11.19-9.59,23.22-13.08,35.23c-8.05,27.67-16.06,55.4-22.7,83.43
			c-4.7,19.83-7.6,40.12-10.43,60.33c-2.64,18.78-4.07,37.73-6.17,56.59c-0.34,3.08-0.91,6.37-2.36,9.02
			c-1.22,2.23-3.77,4.94-5.93,5.11c-2.08,0.17-5.42-2.13-6.42-4.21c-2.02-4.23-3.74-8.98-3.97-13.6
			c-0.77-15.26-1.62-30.59-0.99-45.84c1.42-34.53,6.84-68.53,15.35-102.04c0.73-2.87,1.05-5.83,1.56-8.75
			c0.18-0.52,0.36-1.04,0.54-1.55C827.28,225.17,826.88,225.5,826.47,225.82z M728.51,215.28c0.44,0.36,0.88,0.72,1.31,1.08
			c5.19-2.07,10.59-3.73,15.52-6.28c16.46-8.5,30.17-20.54,41.87-34.74c6.7-8.13,12.64-16.99,14.71-27.61
			c0.53-2.75,0.29-7.1-1.4-8.43c-1.87-1.48-6.05-1.1-8.8-0.2c-9.29,3.02-16.52,9.24-23.35,16.05
			c-11.91,11.89-21.56,25.42-29.72,40.04C735.01,201.74,731.88,208.58,728.51,215.28z"/>
		<path class="st1" d="M640.55,185.32c6.3-8.52,12.27-16.73,18.4-24.82c7.35-9.7,15.68-18.37,26.2-24.75
			c7.6-4.62,19.17-5.27,25.35,1.22c4.53,4.76,6.27,16.67,2.12,21.62c-0.83,0.99-3.48,1.55-4.64,0.99
			c-10.24-4.99-18.98-1.49-27.28,4.48c-19.11,13.72-32.27,32.53-44.25,52.28c-16.28,26.81-25.11,56.53-33.1,86.5
			c-1.51,5.68-1.55,11.74-2.38,17.62c-0.49,3.49-2.42,4.92-6.15,4.92c-13.24,0.01-20.62-7.27-20.87-20.43
			c-0.21-10.85,3.71-20.68,6.69-30.76c0.13-0.43,0.06-0.92,0.12-2.3c-5.88,8.52-11,16.57-16.75,24.13
			c-12.45,16.36-26.19,31.45-44.3,41.82c-11.99,6.87-24.95,9.86-38.7,8.35c-13.53-1.49-24.78-13.05-26.85-28.03
			c-1.14-8.27-1.02-16.72-1.5-25.78c-1.49,2.41-2.81,4.63-4.21,6.8c-12.77,19.77-26.48,38.79-43.79,54.95
			c-11.23,10.48-23.75,19-38.38,23.84c-8.38,2.78-17.11,2.97-25.98,1.56c-16.2-2.59-24.44-17.91-25.24-31.97
			c-1.78-31.31,7.09-60.07,21.58-87.36c12.07-22.73,27.02-43.14,48.75-57.69c10.45-7,21.56-11.94,34.72-11.33
			c13.11,0.61,22.66,9.86,22.95,22.98c0.39,17.89-7.32,32.73-17.85,46.23c-15.61,20-35.56,33.9-60.32,40.43
			c-2.07,0.55-4.22,1.44-6.26,1.27c-5.01-0.4-6.19,2.53-6.7,6.54c-1.26,9.96-3.38,19.89-3.74,29.87
			c-0.55,15.48,10.93,22.12,24,17.32c10.19-3.74,18.53-10.22,26.24-17.49c24.74-23.34,44.62-50.59,62.36-79.43
			c3.14-5.11,4.6-11.24,6.91-16.88c9.44-23.07,22.75-43.68,40.48-61.15c10.52-10.37,22.41-19.25,37.27-22.68
			c11.41-2.63,22.34-1.38,31.9,6.04c7.33,5.69,9.91,14.28,6.67,23.14c-3.85,10.55-11.26,17.79-22.01,21.23
			c-1.58,0.51-4.07,0-5.33-1.02c-0.7-0.56-0.01-3.3,0.55-4.87c2.72-7.58,5.9-15,8.34-22.65c1.93-6.04-1-9.93-7.05-8.55
			c-5.39,1.23-10.87,3.91-15.27,7.3c-13.43,10.33-23.11,24.06-30.73,38.91c-6.91,13.47-12.94,27.53-17.91,41.83
			c-5.26,15.13-8.25,30.87-7.71,47.18c0.47,14.28,11.93,18.7,22.2,15.71c12.16-3.55,21.4-11.59,30.25-20.05
			c15.12-14.45,27.73-31.04,39.7-48.11c5.03-7.17,10.48-14.12,14.71-21.74c3.8-6.86,6.52-14.38,9.14-21.82
			c4.55-12.89,8.65-25.94,12.96-38.92c2.47-7.44,3.78-14.91,1.61-22.71c-1.35-4.85,1.14-7.33,5.84-5.46
			c9.38,3.73,19.93,10.99,18.69,25.07C641.53,174.05,641.07,179.42,640.55,185.32z M357.52,288.2c4.07-1.46,6.93-2.12,9.45-3.45
			c22.71-11.96,40.02-29.4,52.25-51.91c3.81-7,7.27-14.1,6.88-22.46c-0.18-3.69-1.42-5.4-5.38-5.22
			c-8.5,0.39-14.37,5.61-19.96,10.91C380.13,235.65,368.17,260.53,357.52,288.2z"/>
		<path class="st1" d="M316.14,91.28c16.25-0.47,32.06,1.74,46.72,9.05c4.73,2.36,9.22,5.72,12.92,9.5c5,5.09,4.3,13.26-1.22,21.05
			c-4.49,6.34-10.7,10.81-17.79,13.79c-1.72,0.72-4.69,0.16-6.22-0.98c-0.87-0.65-0.52-3.89,0.2-5.56c2.98-6.9,0.74-13.8-6.59-18.81
			c-7.56-5.17-15.94-7.7-25.1-8.15c-17.44-0.86-34.09,1.74-49.73,9.94c-21.28,11.16-33.06,29.2-38.34,52.09
			c-4.94,21.4-0.13,41.38,9.69,60.23c9.52,18.28,19.8,36.18,30.11,54.04c10.12,17.54,18.78,35.67,22.86,55.59
			c3.03,14.81,1.6,29.7-1.89,44.29c-5.45,22.75-16.32,42.57-33.81,58.32c-17.65,15.9-38.51,25.86-61.46,31.56
			c-17.25,4.29-34.82,6.66-52.55,5.9c-15.65-0.67-31.15-2.49-45.06-11.27c-20.74-13.09-20.64-40.62-1.85-55.84
			c4.21-3.41,8.87-6.46,13.76-8.73c2.18-1.01,6.03-0.48,7.99,0.93c1.07,0.77,0.52,5.23-0.59,7.35c-9,17.21-1,37.37,21.26,42.66
			c18.51,4.4,36.84,1.92,54.82-3.15c16.71-4.71,31.37-13.03,42.6-26.67c9.88-12.01,15.15-25.94,18.31-41.05
			c3.17-15.11,2.41-29.9-3.76-43.72c-6.57-14.71-14.49-28.87-22.54-42.85c-11.79-20.47-24.81-40.32-32.42-62.88
			c-6.77-20.08-8.48-40.51-2.66-61.3c5.31-18.98,14.32-35.82,28.43-49.6c12.07-11.79,26.09-20.86,42.03-26.6
			C281,94.39,298.19,90.55,316.14,91.28z"/>
		<path class="st1" d="M872,303.72c-1.12-10.64,8.31-20.85,20.68-20.27c13.06,0.61,19.71,8.59,19.94,20.73
			c0.22,11.69-7.94,19.62-20.16,19.94C879.19,324.46,870.64,313.72,872,303.72z M900.97,315.31c5.28-2.18,5.66-7.1,5.76-11.6
			c0.13-5.75-2.2-10.76-7.51-13.7c-5.24-2.9-10.73-2.77-15.53,0.72c-5.23,3.81-7.28,9.51-6.17,15.82
			c1.06,6.03,4.15,10.84,10.61,12.54c6.11,1.61,10.36,0.34,12.89-3.85L900.97,315.31z"/>
		<path class="st0" d="M826.47,225.82c0.4-0.33,0.81-0.65,1.21-0.98c-0.18,0.52-0.36,1.04-0.54,1.55
			C826.92,226.22,826.69,226.02,826.47,225.82z"/>
		<path class="st1" d="M901.02,315.26c-3.57,0.44-5.99-0.83-7.36-4.34c-0.68-1.74-2.04-3.22-3.09-4.81
			c-0.44,0.1-0.88,0.19-1.31,0.29c-0.17,2.18-0.09,4.42-0.62,6.51c-0.23,0.9-1.67,1.79-2.71,2.03c-0.48,0.11-1.89-1.35-1.91-2.11
			c-0.16-6.6-0.09-13.21-0.09-20.32c3.55,0,6.66-0.59,9.41,0.16c2.75,0.75,6.58,2.35,7.31,4.48c0.84,2.46-1.17,5.91-1.95,8.93
			c-0.5-0.08-1-0.17-1.49-0.25c1.25,3.17,2.5,6.33,3.76,9.5C900.97,315.31,901.02,315.26,901.02,315.26z M892.29,294.99
			c-1.57,1.93-2.94,2.97-3.23,4.26c-0.16,0.7,1.76,2.73,2.32,2.58c1.63-0.44,3.05-1.67,4.55-2.59
			C895,298.15,894.06,297.06,892.29,294.99z"/>
	</g>
</g>
</svg>
