<?xml version="1.0" encoding="utf-8"?>
<!-- Generator: Adobe Illustrator 24.0.2, SVG Export Plug-In . SVG Version: 6.00 Build 0)  -->
<svg version="1.1" id="Layer_1" xmlns="http://www.w3.org/2000/svg" xmlns:xlink="http://www.w3.org/1999/xlink" x="0px" y="0px"
	 viewBox="0 0 1080 518.5" style="enable-background:new 0 0 1080 518.5;" xml:space="preserve">
<style type="text/css">
	.st0{fill:#FEFEFE;}
	.st1{fill:#64C5EC;}
	.st2{fill:none;}
</style>
<g>
	<g>
		<path class="st0" d="M1044-452.4c-4.2-5.7-10.4-7.9-16.6-10.1c-2.4-0.9-4.9-1.7-7.3-2.4c-3-0.9-6.1-1.7-9.2-2.5
			c-0.6-0.1-1.2-0.3-1.8-0.4c-1.2-0.3-2.5-0.6-3.7-0.8c-1.2-0.3-2.5-0.5-3.7-0.8c-9.9-2-20-3.3-30-4.6c-1.2-0.2-2.5-0.3-3.7-0.5
			c-0.7-0.1-1.4-0.2-2.1-0.3c-0.7-0.1-1.4-0.2-2.1-0.3c-2.3-0.3-4.6-0.7-7-1c-0.5-0.1-1.1-0.2-1.6-0.2c0.7-1.8,1-2.8,1.5-3.9
			c4.3-8.9,8.4-18,9.4-28c0.5-4.9-0.8-8.7-3.4-10.4c-0.2-0.1-0.3-0.2-0.5-0.3c-0.1-0.1-0.2-0.1-0.3-0.2c-0.1-0.1-0.2-0.1-0.3-0.2
			c-0.1,0-0.2-0.1-0.3-0.1c-0.4-0.1-0.8-0.2-1.2-0.3c-0.2,0-0.4-0.1-0.6-0.1c-0.5,0-1.1,0-1.7,0c-0.1,0-0.3,0-0.4,0.1
			c-0.2,0-0.4,0.1-0.7,0.1c-0.1,0-0.1,0-0.2,0c-0.7,0.2-1.5,0.4-2.3,0.8c-4.3,1.8-8.6,5.2-11.5,8.9c-7,9.1-13.2,18.9-19.9,28.3
			c-0.8,1.1-2.3,2.3-3.5,2.5c-0.2,0.1-0.4,0.1-0.6,0.1c-6.6-0.3-13.1-1.3-19.7-1.7c-1.7-0.1-3.4-0.2-5.2-0.3
			c-2.6-0.2-5.1-0.3-7.7-0.4c-2.6-0.1-5.2-0.3-7.7-0.4c-3.4-0.2-6.8-0.3-10.3-0.5c-3.5-0.1-6.9-0.3-10.4-0.4
			c-16.3-0.5-32.6-0.9-48.8-1c-10.2,0-20.4,0.6-30.6,0.8c-7.3,0.2-14.6,0.4-21.9,0.6c-1,0-2,0.1-3,0.1c-2,0-4,0.1-6,0.2
			c-0.3,0-0.6,0-1,0c-1.8,0.1-3.6,0.1-5.4,0.2c-14.9,0.6-29.8,1.3-44.7,2.1c-4.8,0.2-9.6,0.5-14.3,1c-14.1,1.5-28.2,3.2-42.3,4.9
			c-11.1,1.3-22.3,2.5-33.4,4.3c-0.8,0.1-1.7,0.3-2.5,0.4c-3.9,0.6-7.8,1.3-11.6,2c-1.4,0.3-2.8,0.5-4.2,0.8
			c-4.1,0.8-8.2,1.5-12.3,2.3c-1.3,0.3-2.5,0.5-3.8,0.8c-1.2,0.3-2.5,0.5-3.7,0.8c-1.2,0.3-2.5,0.5-3.7,0.8
			c-12.1,2.6-24,5.8-35.9,9.1c-2,0.6-3.4,3-5.1,4.6c1.2,0.5,2.5,1.2,3.7,1.6c0,0,0,0,0,0c0.2,0.1,0.4,0.1,0.6,0.2c0,0,0,0,0,0
			c0.2,0.1,0.4,0.1,0.6,0.1c0.3,0,0.6,0.1,0.9,0c2.7-0.2,5.3-0.4,7.9-0.6c2.6-0.2,5.2-0.5,7.8-0.8h0c2.6-0.3,5.2-0.5,7.8-0.8
			c2.6-0.3,5.3-0.5,7.9-0.8c2.4-0.2,4.7-0.5,7.1-0.7c7.1-0.7,14.2-1.5,21.2-2.3c1-0.1,2-0.2,2.9-0.3c1-0.1,2-0.2,2.9-0.3
			c1.2-0.1,2.5-0.3,3.7-0.4c1.1-0.1,2.3-0.2,3.4-0.3c2-0.2,4-0.4,5.9-0.5c15.8-1.3,31.7-2.2,47.6-3c17.1-0.9,34.1-2,51.2-1.9
			c47.4,0.1,94.8-1.5,142.2,1.8c1.5,0.1,3,0.2,4.6,0.3c0.1,0,0.3,0,0.4,0c1.1,0.1,2.1,0.1,3.2,0.2c0.6,0,1.1,0.1,1.7,0.1
			c1,0,2,0.1,3,0.1c1.9,0.1,3.8,0.2,5.7,0.3c3.8,0.2,7.6,0.3,11.5,0.5c5.4,0.2,10.8,0.4,16.2,0.7c2.9,0.2,5.8,0.7,8.9,1.1
			c0.7,0.1,1.5,0.2,2.2,0.3c-0.4,1.3-0.6,2.5-1.1,3.5c-6.2,13.5-13,26.8-18.6,40.6c-6.3,15.2-11.7,30.8-17.5,46.2
			c-2.4,6.3-3.6,13.4-7.3,18.8c-7.6,11.2-16.3,21.6-24.7,32.2c-13,16.4-27.8,30.9-44.1,44c-9.3,7.4-19,14.6-31,16.9
			c-0.9,0.2-1.7,0.3-2.5,0.4c-0.7,0.1-1.4,0.2-2,0.2c-0.3,0-0.6,0-0.9,0c-0.3,0-0.6,0-0.9,0c-0.4,0-0.8,0-1.2,0c-0.1,0-0.2,0-0.3,0
			c-0.3,0-0.7,0-1-0.1c-0.1,0-0.3,0-0.4,0c-0.1,0-0.3,0-0.4-0.1c-0.5-0.1-0.9-0.2-1.3-0.3c-6.5-1.6-10.4-6.7-10.8-16.8
			c-0.4-9.5,2.8-18.2,4.7-27.2c1.2-5.4,2.7-8.8,7.8-10.6c0.2-0.1,0.3-0.1,0.5-0.2c0,0,0.1,0,0.1,0c0.1,0,0.3-0.1,0.4-0.1
			c0,0,0.1,0,0.1,0c0.4-0.1,0.9-0.2,1.3-0.3c0.2,0,0.5-0.1,0.7-0.1c0.1,0,0.2,0,0.3,0c0.2,0,0.4-0.1,0.6-0.1
			c26-3.9,48-16.3,66.1-35.8c9.5-10.3,16.5-21.9,20.3-35.2c4.7-16.4-2.3-31.3-20.5-34.6c-1-0.2-2.1-0.3-3.1-0.4
			c-1.9-0.2-3.8-0.2-5.7,0c-0.5,0-0.9,0.1-1.4,0.1c-0.2,0-0.4,0-0.5,0.1c-0.3,0-0.7,0.1-1,0.1c-0.3,0-0.6,0.1-0.9,0.2
			c-0.3,0-0.6,0.1-0.9,0.2c-0.4,0.1-0.7,0.2-1.1,0.2c-4.4,1-8.6,2.7-12.7,4.6c-23.3,11-40.2,29.3-54.9,49.8
			c-13.4,18.5-22.9,39-29.1,61c-3.7,13.2-6.6,26.6-3.9,40.5c2.8,14.9,10.7,22.9,21.3,26.1c0.3,0.1,0.7,0.2,1,0.3
			c0.8,0.2,1.6,0.4,2.4,0.5c0.4,0.1,0.8,0.1,1.2,0.2s0.8,0.1,1.3,0.2c2.5,0.3,5.2,0.4,7.9,0.3c1.6-0.1,3.1-0.2,4.7-0.4
			c1.1-0.1,2.1-0.3,3.2-0.5c0.5-0.1,1.1-0.2,1.6-0.3c0.5-0.1,1-0.2,1.6-0.4c0.6-0.1,1.2-0.3,1.8-0.5c4.1-1.1,8.2-2.6,12-4.3
			c28.7-12.9,49.8-35.2,70.1-58.3c2.5-2.8,4.9-5.7,7.3-8.7c2.4-2.9,4.8-5.9,7.2-8.8c0.2,0.2,0.4,0.4,0.6,0.5c0,0,0,0,0,0l0,0
			c-0.5,2.9-0.8,5.9-1.6,8.8c-8.5,33.5-13.9,67.5-15.3,102c-0.6,15.3,0.2,30.6,1,45.8c0.2,4.6,2,9.4,4,13.6c0.9,1.9,3.7,3.9,5.8,4.2
			c0.2,0,0.4,0,0.6,0h0c2.1-0.2,4.7-2.9,5.9-5.1c1.5-2.7,2-5.9,2.4-9c2.1-18.9,3.5-37.8,6.2-56.6c2.8-20.2,5.7-40.5,10.4-60.3
			c6.6-28,14.6-55.8,22.7-83.4c3.5-12,7.6-24.1,13.1-35.2c9.3-18.9,20.1-37.1,30.1-55.8c3.3-6.2,4.2-8.3,8-8.5c0.5,0,1,0,1.7,0
			c0.3,0,0.6,0,1,0.1c0.7,0.1,1.5,0.1,2.4,0.3c0.2,0,0.5,0.1,0.8,0.1c0.3,0,0.5,0.1,0.8,0.1c14.2,1.8,28.3,4.2,42.5,6.6
			c12.8,2.2,25.5,5.3,38.4,6.9c0.2,0,0.3,0,0.5,0c0.4,0,0.8,0,1.2,0c0.4,0,0.9-0.1,1.4-0.2c0.3-0.1,0.6-0.1,1-0.2
			c0.2,0,0.4-0.1,0.6-0.1c0.3-0.1,0.5-0.2,0.8-0.2c2.5-0.8,4.9-2.3,6.3-4C1047.8-442.9,1047.3-448,1044-452.4z M764-340.5
			c8.2-14.6,17.8-28.1,29.7-40c6.8-6.8,14.1-13,23.3-16c2.8-0.9,6.9-1.3,8.8,0.2c1.7,1.3,1.9,5.7,1.4,8.4
			c-2.1,10.6-8,19.5-14.7,27.6c-11.7,14.2-25.4,26.2-41.9,34.7c-4.9,2.5-10.3,4.2-15.5,6.3c-0.4-0.4-0.9-0.7-1.3-1.1
			C757.3-327.1,760.4-333.9,764-340.5z M740.3-386.7c0-0.2,0-0.4,0-0.6c0,0,0-0.1,0-0.1c0-0.2,0-0.5-0.1-0.7c0-0.4-0.1-0.8-0.2-1.2
			c0-0.2-0.1-0.4-0.1-0.6c-0.1-0.4-0.1-0.7-0.2-1.1c-0.1-0.3-0.1-0.6-0.2-0.9c-0.1-0.2-0.1-0.5-0.2-0.7c-0.1-0.4-0.2-0.7-0.4-1.1
			c-0.2-0.5-0.4-1-0.6-1.5c-0.2-0.3-0.3-0.6-0.5-0.9c-0.5-1-1.2-1.9-1.9-2.6c-6.2-6.5-17.7-5.8-25.4-1.2
			c-10.5,6.4-18.9,15-26.2,24.8c-0.8,1-1.5,2-2.3,3c-0.4,0.6-0.9,1.2-1.3,1.8c-1.1,1.4-2.2,2.9-3.2,4.3c-1.5,2-3,4.1-4.6,6.2
			c-2.3,3.1-4.6,6.3-7,9.5c0.5-5.9,1-11.3,1.5-16.6c0.1-1.2,0.1-2.4,0.1-3.5c0-0.3,0-0.5-0.1-0.8c0-0.1,0-0.2,0-0.3
			c0-0.2,0-0.4-0.1-0.6c0-0.2,0-0.3-0.1-0.5c0-0.3-0.1-0.5-0.1-0.8c0-0.2-0.1-0.5-0.2-0.7c0-0.2-0.1-0.5-0.2-0.7
			c-0.1-0.3-0.2-0.7-0.3-1c-0.7-2.2-1.8-4.2-3.2-6c-0.4-0.5-0.8-1-1.2-1.5c-0.2-0.2-0.4-0.5-0.7-0.7c-0.2-0.2-0.4-0.5-0.7-0.7
			c-0.5-0.4-1-0.9-1.5-1.3c-0.5-0.4-1-0.8-1.5-1.2c-0.7-0.5-1.4-1-2.1-1.4c-0.2-0.1-0.3-0.2-0.5-0.3c-0.2-0.1-0.4-0.3-0.6-0.4
			c-0.3-0.2-0.7-0.4-1-0.6c-0.5-0.3-1-0.5-1.5-0.8c-0.3-0.1-0.6-0.3-0.8-0.4c-0.8-0.4-1.7-0.8-2.5-1.1c-2.1-0.9-3.8-0.8-4.8-0.1
			c-0.1,0.1-0.2,0.1-0.3,0.2c-0.1,0.1-0.2,0.2-0.3,0.3c-0.1,0.1-0.2,0.2-0.2,0.3c0,0.1-0.1,0.2-0.1,0.2c-0.1,0.1-0.1,0.3-0.2,0.4
			c-0.1,0.1-0.1,0.3-0.1,0.5c0,0.2-0.1,0.3-0.1,0.5c0,0,0,0,0,0.1c0,0.2,0,0.4,0,0.5c0,0.7,0.1,1.5,0.4,2.4
			c2.2,7.8,0.9,15.3-1.6,22.7c-0.8,2.4-1.6,4.9-2.4,7.3c-2.4,7.3-4.8,14.6-7.2,21.9c-1.1,3.2-2.2,6.5-3.3,9.7
			c-2.6,7.4-5.3,15-9.1,21.8c-4.2,7.6-9.7,14.6-14.7,21.7c-12,17.1-24.6,33.7-39.7,48.1c-8.8,8.5-18.1,16.5-30.3,20.1
			c-3.9,1.1-8,1.2-11.5,0.1c-0.5-0.2-1-0.4-1.5-0.6c-0.3-0.1-0.5-0.2-0.8-0.4c-0.5-0.3-1-0.5-1.4-0.8c-0.5-0.3-0.9-0.6-1.3-1
			c-0.2-0.2-0.4-0.4-0.6-0.6c-0.3-0.2-0.5-0.5-0.8-0.8c-0.2-0.2-0.3-0.4-0.5-0.6c-0.3-0.3-0.5-0.7-0.8-1c-0.1-0.2-0.2-0.4-0.3-0.5
			c-0.5-0.7-0.9-1.5-1.2-2.4c-0.1-0.2-0.2-0.4-0.3-0.7c-0.2-0.4-0.3-0.8-0.4-1.3c-0.1-0.2-0.1-0.4-0.1-0.6c-0.1-0.5-0.2-1-0.3-1.6
			c0-0.2-0.1-0.5-0.1-0.7c-0.1-0.7-0.2-1.5-0.2-2.3c-0.2-5,0-10,0.5-14.9c0.2-1.8,0.4-3.7,0.6-5.5c0.1-0.9,0.3-1.8,0.4-2.8
			c0.4-2.7,1-5.4,1.6-8.1c0.2-0.9,0.4-1.8,0.6-2.7c0.2-0.9,0.4-1.8,0.7-2.7c0.2-0.9,0.5-1.8,0.7-2.7c0.5-1.8,1.1-3.5,1.6-5.3
			c0.3-0.9,0.6-1.8,0.9-2.6c0.3-0.9,0.6-1.8,0.9-2.7c0.3-0.9,0.7-1.8,1-2.7c0.7-1.8,1.3-3.6,2-5.3c0.7-1.8,1.4-3.5,2.1-5.3
			c0.6-1.4,1.2-2.9,1.8-4.3c0.5-1.2,1-2.4,1.5-3.6c0.5-1,0.9-2,1.4-3.1c0.3-0.6,0.5-1.2,0.8-1.8c0.4-1,0.9-2,1.4-2.9
			c0.4-0.9,0.8-1.7,1.2-2.6c0.4-0.9,0.8-1.7,1.2-2.6c0.8-1.7,1.7-3.4,2.5-5.1c7.6-14.8,17.3-28.6,30.7-38.9
			c4.4-3.4,9.9-6.1,15.3-7.3c1.1-0.2,2.1-0.3,2.9-0.2c0.8,0.1,1.5,0.3,2.1,0.6c0.2,0.1,0.3,0.2,0.4,0.3c0.6,0.4,1,0.8,1.4,1.4
			c0.2,0.3,0.3,0.6,0.4,0.9c0.5,1.5,0.5,3.4-0.2,5.7c-0.3,0.8-0.5,1.6-0.8,2.3c0,0.2-0.1,0.3-0.2,0.5c-0.1,0.3-0.2,0.5-0.3,0.7
			c-0.5,1.4-1,2.8-1.5,4.2c-0.4,1.1-0.8,2.1-1.2,3.2c-0.4,1.1-0.8,2.1-1.2,3.2c-0.7,1.9-1.5,3.8-2.2,5.6c-0.4,0.9-0.7,1.9-1,2.8
			c0,0.1-0.1,0.3-0.2,0.5c-0.2,0.5-0.3,1.1-0.4,1.6c0,0.2-0.1,0.4-0.1,0.6c0,0.1,0,0.3-0.1,0.4c-0.1,0.5-0.1,1,0,1.4
			c0,0.2,0.1,0.3,0.2,0.4c1.3,1,3.8,1.5,5.3,1c10.8-3.4,18.2-10.7,22-21.2c0.1-0.3,0.2-0.6,0.3-1c0.1-0.2,0.1-0.3,0.2-0.5
			c0.1-0.2,0.1-0.4,0.1-0.5c0-0.2,0.1-0.4,0.1-0.5c0-0.2,0.1-0.4,0.1-0.5c0-0.2,0.1-0.3,0.1-0.5c0-0.2,0.1-0.3,0.1-0.5
			c0-0.1,0-0.2,0-0.3c0-0.2,0.1-0.4,0.1-0.6c0-0.1,0-0.2,0-0.3c0-0.1,0-0.3,0-0.4c0.1-0.9,0.1-1.8,0-2.7c0-0.1,0-0.3,0-0.4
			c0-0.4-0.1-0.7-0.1-1.1c0-0.3-0.1-0.7-0.2-1c-0.1-0.3-0.1-0.7-0.2-1c-0.1-0.2-0.1-0.4-0.2-0.6c0-0.2-0.1-0.4-0.2-0.6
			c-0.1-0.4-0.3-0.8-0.4-1.2c-0.1-0.3-0.2-0.6-0.4-0.8c-0.9-2-2.1-3.9-3.8-5.6c-0.3-0.3-0.5-0.6-0.8-0.8c-0.6-0.6-1.2-1.1-1.9-1.6
			c-9.6-7.4-20.5-8.7-31.9-6c-14.9,3.4-26.8,12.3-37.3,22.7c-17.7,17.5-31,38.1-40.5,61.1c-2.3,5.6-3.8,11.8-6.9,16.9
			c-17.7,28.8-37.6,56.1-62.4,79.4c-7.7,7.3-16,13.8-26.2,17.5c-4.8,1.8-9.4,2-13.3,0.8c-1-0.3-1.9-0.7-2.8-1.2
			c-0.3-0.2-0.5-0.3-0.8-0.5c-0.3-0.2-0.5-0.3-0.8-0.5c-0.2-0.2-0.4-0.3-0.6-0.5c-0.2-0.2-0.4-0.4-0.6-0.5c-0.2-0.1-0.3-0.3-0.5-0.5
			c-0.1-0.1-0.3-0.3-0.4-0.4c0,0,0-0.1-0.1-0.1c-0.1-0.2-0.3-0.3-0.4-0.5c-0.1-0.2-0.3-0.3-0.4-0.5c-0.6-0.8-1.1-1.6-1.5-2.5
			c-0.1-0.2-0.1-0.3-0.2-0.5c-0.2-0.4-0.3-0.8-0.5-1.2c-0.9-2.5-1.3-5.4-1.2-8.7c0.4-10,2.5-19.9,3.7-29.9c0-0.4,0.1-0.8,0.2-1.2
			c0-0.2,0.1-0.4,0.1-0.5c0-0.2,0.1-0.5,0.2-0.7c0-0.2,0.1-0.4,0.2-0.6c0,0,0,0,0,0c0-0.1,0.1-0.2,0.1-0.3c0-0.1,0.1-0.2,0.1-0.3
			c0.3-0.7,0.7-1.3,1.3-1.8c0.1-0.1,0.3-0.2,0.4-0.3c0,0,0,0,0,0c0.2-0.1,0.3-0.2,0.5-0.3c0.9-0.4,2-0.6,3.5-0.5
			c2,0.2,4.2-0.7,6.3-1.3c24.8-6.5,44.7-20.4,60.3-40.4c0.3-0.4,0.6-0.8,1-1.2c0.1-0.1,0.2-0.2,0.2-0.3c0.4-0.5,0.8-1,1.2-1.6
			c0.4-0.5,0.8-1,1.1-1.6c0.2-0.3,0.4-0.5,0.6-0.8s0.4-0.5,0.5-0.8c0.4-0.5,0.7-1.1,1.1-1.6c0.3-0.5,0.7-1.1,1-1.6
			c0.3-0.4,0.5-0.8,0.8-1.2c1.8-2.9,3.3-5.8,4.7-8.8c0.2-0.5,0.4-0.9,0.6-1.4c0.2-0.3,0.3-0.7,0.4-1c0.3-0.6,0.5-1.2,0.7-1.8
			c0.6-1.7,1.2-3.3,1.7-5c0.1-0.4,0.2-0.8,0.3-1.2c0.6-2.4,1.1-4.8,1.4-7.3c0.1-0.9,0.2-1.9,0.3-2.8c0.2-2,0.3-4.1,0.2-6.2
			c0,0,0,0,0,0c0-0.8-0.1-1.6-0.2-2.4c-0.1-0.8-0.2-1.6-0.4-2.3c-2.2-10.6-10.9-17.7-22.4-18.3c-13.2-0.6-24.3,4.3-34.7,11.3
			c-21.7,14.5-36.7,35-48.8,57.7c-0.3,0.6-0.6,1.2-0.9,1.8c-0.9,1.8-1.9,3.6-2.8,5.5c-0.4,0.7-0.7,1.5-1.1,2.2
			c-1.5,3.2-2.9,6.3-4.3,9.6c-0.7,1.6-1.3,3.2-1.9,4.8c-0.3,0.8-0.6,1.6-0.9,2.4c-0.3,0.8-0.6,1.6-0.9,2.4c-0.3,0.8-0.6,1.6-0.8,2.4
			c-1.1,3.3-2.1,6.5-3,9.9c-1.1,4.1-2.1,8.3-2.9,12.5c-0.2,0.8-0.3,1.7-0.4,2.5c-0.1,0.8-0.3,1.7-0.4,2.5c-0.1,1-0.3,2-0.4,2.9
			c-0.1,0.8-0.2,1.7-0.3,2.5c-0.3,3.1-0.6,6.2-0.7,9.3c0,0.3,0,0.6,0,0.9c-0.1,1.7-0.1,3.4-0.1,5.1c0,2.6,0.1,5.3,0.2,8
			c0,0.4,0.1,0.9,0.1,1.3c0,0.4,0.1,0.9,0.1,1.3c0.2,1.2,0.3,2.4,0.6,3.6c0.1,0.3,0.1,0.6,0.2,0.9c0.3,1.2,0.6,2.4,1,3.5
			c0.2,0.6,0.4,1.2,0.6,1.7c0.2,0.6,0.5,1.1,0.7,1.7c0.1,0.3,0.3,0.6,0.4,0.9c0.3,0.6,0.6,1.2,0.9,1.8c0,0,0,0,0,0
			c0.4,0.8,0.9,1.6,1.4,2.3c0.3,0.4,0.5,0.8,0.8,1.2c0.4,0.5,0.8,1.1,1.2,1.6c0.2,0.3,0.4,0.5,0.7,0.8c0.3,0.3,0.6,0.7,0.9,1
			c0.3,0.3,0.6,0.7,1,1c0.2,0.2,0.3,0.3,0.5,0.4c0.2,0.2,0.3,0.3,0.5,0.4c0.1,0.1,0.2,0.2,0.3,0.2c0.3,0.3,0.7,0.5,1,0.8
			c0.4,0.3,0.8,0.6,1.2,0.8c0.3,0.3,0.7,0.5,1.1,0.7c0,0,0.1,0.1,0.1,0.1c0,0,0,0,0.1,0h0c0.4,0.3,0.8,0.5,1.2,0.7
			c0.4,0.2,0.9,0.5,1.3,0.7c0.4,0.2,0.8,0.4,1.3,0.6c0.9,0.4,1.8,0.7,2.7,1c0.5,0.1,0.9,0.3,1.4,0.4c0.3,0.1,0.6,0.1,1,0.2
			c0.3,0.1,0.7,0.1,1,0.2c8.9,1.4,17.6,1.2,26-1.6c14.6-4.8,27.2-13.4,38.4-23.8c17.3-16.2,31-35.2,43.8-55c1.4-2.2,2.7-4.4,4.2-6.8
			c0,0,0,0,0,0c0.5,9.1,0.4,17.5,1.5,25.8c0.1,0.5,0.1,0.9,0.2,1.3c0.1,0.4,0.2,0.8,0.3,1.2c0,0.2,0.1,0.4,0.1,0.6
			c0.1,0.7,0.3,1.3,0.5,1.9c0.1,0.3,0.2,0.5,0.3,0.8c0.1,0.3,0.2,0.5,0.3,0.8c0.1,0.3,0.2,0.6,0.3,0.8c0.2,0.4,0.3,0.9,0.5,1.3
			c0.2,0.3,0.3,0.7,0.5,1c0.2,0.4,0.3,0.7,0.5,1c0.2,0.3,0.3,0.7,0.5,1c0.3,0.5,0.5,1,0.8,1.5c0.3,0.5,0.6,0.9,0.9,1.4
			c0.2,0.3,0.4,0.6,0.6,0.9c0.2,0.3,0.4,0.6,0.7,0.9c0.2,0.3,0.5,0.6,0.7,0.8c0.1,0.1,0.2,0.3,0.4,0.4c0.1,0.1,0.2,0.3,0.4,0.4
			c0.5,0.5,1,1.1,1.5,1.6c0.3,0.3,0.5,0.5,0.8,0.7c0.3,0.2,0.5,0.5,0.8,0.7s0.5,0.5,0.8,0.7c0,0,0,0,0.1,0c0.2,0.2,0.4,0.3,0.6,0.5
			c0.1,0,0.1,0.1,0.2,0.1c0,0,0,0,0,0c4,2.9,8.7,4.8,13.7,5.4c13.8,1.5,26.7-1.5,38.7-8.4c18.1-10.4,31.9-25.5,44.3-41.8
			c5.8-7.6,10.9-15.6,16.8-24.1c0,0,0,0,0,0c-0.1,1.4,0,1.9-0.1,2.3c-0.2,0.6-0.4,1.2-0.6,1.8c-0.6,2-1.2,3.9-1.8,5.9
			c-0.3,1.1-0.7,2.2-1,3.3c-0.1,0.3-0.2,0.6-0.3,0.9c-0.2,0.5-0.3,1.1-0.5,1.6c-0.2,0.6-0.4,1.3-0.5,2c0,0,0,0.1,0,0.1
			c-0.1,0.6-0.3,1.2-0.4,1.9c-0.2,0.6-0.3,1.2-0.4,1.9c-0.1,0.6-0.3,1.3-0.4,1.9c0,0,0,0.1,0,0.1c-0.1,0.7-0.2,1.4-0.3,2
			c-0.1,0.5-0.1,1-0.2,1.5c0,0.5-0.1,1-0.1,1.5c-0.1,0.7-0.1,1.5-0.1,2.2c0,0.2,0,0.4,0,0.6c0,0.5,0,1,0,1.5c0,0.7,0,1.3,0.1,2
			c0,0.2,0,0.3,0,0.5c0,0.3,0.1,0.7,0.1,1c0,0.1,0,0.3,0.1,0.4c0.1,0.5,0.2,1.1,0.3,1.6c0,0.2,0.1,0.4,0.1,0.6
			c0,0.2,0.1,0.4,0.1,0.5c0.1,0.4,0.2,0.8,0.3,1.2c0.1,0.3,0.2,0.7,0.3,1c0,0,0,0.1,0,0.1c0.1,0.3,0.3,0.7,0.4,1
			c0.2,0.3,0.3,0.7,0.5,1c0.1,0.2,0.2,0.3,0.3,0.5c0,0.1,0.1,0.2,0.1,0.2c0,0.1,0.1,0.2,0.1,0.2c0.2,0.3,0.4,0.6,0.6,0.9
			c0.2,0.3,0.4,0.6,0.6,0.8c0.4,0.5,0.9,1.1,1.4,1.6c3.5,3.5,8.7,5.3,15.3,5.3c2,0,3.4-0.4,4.4-1.3c0.1-0.1,0.3-0.3,0.4-0.4
			c0.1-0.1,0.2-0.2,0.3-0.3c0.1-0.1,0.2-0.2,0.2-0.4c0.1-0.1,0.2-0.3,0.2-0.4c0.1-0.3,0.2-0.6,0.3-0.9c0.1-0.4,0.2-0.8,0.3-1.2
			c0.1-0.6,0.2-1.2,0.2-1.8c0.1-0.8,0.2-1.6,0.3-2.4c0-0.1,0-0.2,0-0.3c0.2-2.2,0.4-4.5,0.7-6.7c0.1-0.4,0.1-0.7,0.2-1.1
			c0-0.3,0.1-0.6,0.1-0.9c0.1-0.4,0.1-0.9,0.2-1.3c0.1-0.5,0.2-1.1,0.3-1.6c0.1-0.3,0.1-0.5,0.2-0.8s0.1-0.5,0.2-0.8
			c0.6-2.3,1.2-4.6,1.9-6.9c2.2-8,4.4-15.9,6.9-23.8c0.3-1,0.7-2.1,1-3.1c0.1-0.4,0.2-0.7,0.4-1.1c0.1-0.4,0.3-0.9,0.4-1.3
			c0.6-1.8,1.2-3.7,1.9-5.5c0.3-0.9,0.6-1.8,1-2.7c0.7-1.8,1.3-3.6,2-5.4c0.5-1.3,1-2.6,1.5-3.9c0.1-0.2,0.1-0.3,0.2-0.5
			c0.5-1.3,1-2.5,1.5-3.7c0.4-0.9,0.8-1.8,1.1-2.7c0.4-0.9,0.8-1.8,1.2-2.6c0.4-0.9,0.8-1.9,1.3-2.8c0.4-0.8,0.8-1.7,1.2-2.5
			c0.2-0.5,0.4-0.9,0.7-1.3c0.3-0.7,0.6-1.3,1-1.9s0.6-1.3,1-1.9c0.4-0.9,0.9-1.7,1.3-2.6c0.7-1.3,1.3-2.5,2-3.7
			c0.4-0.7,0.8-1.5,1.2-2.2c0,0,0,0,0,0c0.8-1.4,1.6-2.9,2.5-4.3c0.4-0.6,0.8-1.2,1.1-1.8c0.8-1.2,1.5-2.5,2.3-3.7
			c0.8-1.2,1.5-2.5,2.3-3.7c0.8-1.2,1.5-2.4,2.3-3.6c0.5-0.8,1-1.5,1.5-2.2c0.5-0.8,1-1.5,1.6-2.3c0.3-0.5,0.6-0.9,0.9-1.3
			c0.3-0.4,0.6-0.8,0.9-1.2c0.4-0.6,0.8-1.2,1.3-1.7c0.4-0.6,0.8-1.2,1.3-1.7c0.4-0.6,0.9-1.2,1.3-1.7c0.9-1.1,1.7-2.3,2.6-3.4
			c3.6-4.5,7.5-8.8,11.7-12.9c4-3.9,8.4-7.6,13.1-11c8.3-6,17-9.5,27.3-4.5c1.2,0.6,3.8,0,4.6-1c0.3-0.3,0.5-0.6,0.7-1
			c0.3-0.5,0.6-1.1,0.8-1.7c0.1-0.4,0.3-0.8,0.4-1.3c0,0,0-0.1,0-0.1c0-0.2,0.1-0.4,0.1-0.6c0-0.2,0.1-0.4,0.1-0.6
			c0-0.2,0-0.3,0.1-0.4c0-0.2,0.1-0.5,0.1-0.7c0-0.3,0-0.6,0.1-0.9c0-0.6,0-1.2,0-1.8C740.3-386.4,740.3-386.5,740.3-386.7z
			 M444.6-302.8c-12.2,22.5-29.5,40-52.3,51.9c-2.5,1.3-5.4,2-9.5,3.5c10.7-27.7,22.6-52.5,43.2-72.1c5.6-5.3,11.5-10.5,20-10.9
			c4-0.2,5.2,1.5,5.4,5.2C451.9-316.9,448.4-309.8,444.6-302.8z M401.2-425.8c-3.7-3.8-8.2-7.1-12.9-9.5c-14.7-7.3-30.5-9.5-46.7-9
			c-18-0.7-35.1,3.1-51.9,9.1c-1,0.4-2,0.7-3,1.1c-0.8,0.3-1.5,0.6-2.2,0.9c-0.3,0.1-0.7,0.3-1,0.4c-0.9,0.4-1.7,0.8-2.6,1.2
			c-1,0.4-1.9,0.9-2.8,1.3c-0.8,0.4-1.5,0.8-2.3,1.2c-0.7,0.4-1.4,0.8-2.2,1.1c-0.1,0-0.1,0-0.2,0.1c-1,0.5-2,1.1-2.9,1.7
			c-0.4,0.2-0.7,0.4-1.1,0.7c-1,0.6-2,1.2-3,1.9c-0.6,0.4-1.3,0.8-1.9,1.2c-0.9,0.6-1.7,1.2-2.6,1.8c-0.8,0.6-1.7,1.2-2.5,1.8
			c-1.7,1.3-3.3,2.5-4.9,3.9c-1.6,1.3-3.2,2.7-4.7,4.2c-0.8,0.7-1.5,1.4-2.3,2.2c-14.1,13.8-23.1,30.6-28.4,49.6
			c-5.8,20.8-4.1,41.2,2.7,61.3c7.6,22.6,20.6,42.4,32.4,62.9c8,14,16,28.1,22.5,42.8c6.2,13.8,6.9,28.6,3.8,43.7
			c-0.4,1.7-0.8,3.4-1.2,5.1c-0.1,0.5-0.3,1.1-0.4,1.6c0,0,0,0,0,0c0,0.1,0,0.1,0,0.1c-0.1,0.4-0.2,0.7-0.3,1.1
			c-0.1,0.4-0.2,0.7-0.3,1c-0.1,0.5-0.3,1.1-0.5,1.6c0,0.1,0,0.1-0.1,0.2c-0.1,0.2-0.1,0.5-0.2,0.7c0,0.2-0.1,0.4-0.2,0.6
			c-0.2,0.6-0.3,1.1-0.5,1.7c-0.2,0.7-0.5,1.5-0.8,2.2c-0.1,0.4-0.3,0.7-0.4,1.1c-0.1,0.3-0.2,0.6-0.3,0.9c0,0,0,0,0,0v0
			c-0.2,0.6-0.5,1.3-0.7,1.9c-0.4,1-0.8,1.9-1.2,2.9c-0.3,0.6-0.5,1.2-0.8,1.8c-0.3,0.7-0.6,1.3-1,2c-0.2,0.3-0.3,0.6-0.5,0.9
			c-0.3,0.6-0.6,1.2-1,1.9c0,0,0,0,0,0c-0.3,0.5-0.6,1.1-0.9,1.6c-0.3,0.5-0.6,1-0.9,1.5c-0.3,0.4-0.5,0.8-0.8,1.2
			c-0.2,0.3-0.4,0.6-0.6,0.9c-0.8,1.2-1.6,2.3-2.4,3.4c-0.3,0.4-0.5,0.7-0.8,1c-0.5,0.7-1.1,1.4-1.7,2.1
			c-11.2,13.6-25.9,22-42.6,26.7c-18,5.1-36.3,7.5-54.8,3.2c-0.4-0.1-0.9-0.2-1.3-0.3c-0.2-0.1-0.4-0.1-0.6-0.2
			c-0.2-0.1-0.4-0.1-0.6-0.2c-0.3-0.1-0.6-0.2-0.8-0.3c-0.7-0.2-1.4-0.5-2.1-0.8c-0.1-0.1-0.3-0.1-0.4-0.2c-0.7-0.3-1.4-0.6-2.1-0.9
			c-0.3-0.1-0.5-0.2-0.8-0.4c-0.1-0.1-0.2-0.1-0.3-0.2c-0.2-0.1-0.5-0.3-0.7-0.4c-0.8-0.4-1.5-0.8-2.2-1.3c-1.5-1-2.9-2-4.1-3.2
			c-0.2-0.2-0.4-0.3-0.5-0.5c-0.2-0.2-0.4-0.3-0.5-0.5c-0.2-0.2-0.4-0.4-0.6-0.6c-0.2-0.2-0.3-0.3-0.4-0.5c-0.3-0.3-0.6-0.6-0.8-1
			c-0.1-0.1-0.1-0.2-0.2-0.3c-0.2-0.3-0.4-0.5-0.6-0.8c-0.3-0.4-0.6-0.9-0.9-1.3c-0.1-0.2-0.2-0.4-0.4-0.6c-0.1-0.2-0.3-0.5-0.4-0.7
			c-0.2-0.4-0.4-0.8-0.7-1.2c-0.2-0.5-0.5-1-0.7-1.5c-0.1-0.2-0.2-0.4-0.3-0.6c-0.1-0.3-0.2-0.6-0.3-0.9c-0.1-0.3-0.2-0.6-0.3-0.9
			c-0.2-0.7-0.4-1.4-0.6-2.1c0-0.2-0.1-0.4-0.1-0.6c0-0.1-0.1-0.3-0.1-0.4c0-0.3-0.1-0.5-0.1-0.8c-0.1-0.4-0.1-0.8-0.2-1.2
			c0-0.1,0-0.1,0-0.2c0-0.4-0.1-0.8-0.1-1.2c0-0.3,0-0.5,0-0.8v-0.2c0-0.7,0-1.4,0-2.1c0-0.4,0-0.9,0.1-1.3c0-0.6,0.1-1.2,0.2-1.8
			c0-0.3,0.1-0.6,0.2-0.9c0-0.2,0.1-0.5,0.1-0.7l0-0.2c0.1-0.4,0.2-0.8,0.3-1.2c0,0,0,0,0,0c0.1-0.4,0.2-0.8,0.4-1.3
			c0.1-0.4,0.2-0.8,0.4-1.2c0.2-0.6,0.4-1.2,0.7-1.8c0.2-0.4,0.3-0.8,0.5-1.2c0.2-0.5,0.5-1,0.7-1.5c1.1-2.1,1.7-6.6,0.6-7.3
			c-2-1.4-5.8-1.9-8-0.9c-4.9,2.3-9.5,5.3-13.8,8.7c-1.1,0.9-2.2,1.9-3.2,2.9c-0.3,0.3-0.5,0.5-0.8,0.8c-0.4,0.4-0.7,0.8-1.1,1.2
			c-0.7,0.8-1.3,1.6-2,2.5c-0.3,0.4-0.6,0.8-0.9,1.3c-0.3,0.4-0.6,0.9-0.8,1.3c-0.3,0.4-0.5,0.9-0.8,1.3c-0.2,0.4-0.4,0.8-0.6,1.2
			c-0.4,0.7-0.7,1.4-1,2.1c-0.1,0.2-0.2,0.4-0.3,0.6c-0.1,0.3-0.3,0.7-0.4,1c-0.3,0.8-0.5,1.5-0.8,2.3c-0.2,0.8-0.4,1.6-0.6,2.4
			c-0.1,0.3-0.1,0.6-0.2,0.9c-0.1,0.5-0.2,0.9-0.2,1.3c-0.1,0.4-0.1,0.9-0.2,1.3c0,0.3-0.1,0.6-0.1,0.9c0,0.3,0,0.6,0,0.9
			c0,0.9-0.1,1.8,0,2.7c0,0.6,0,1.2,0.1,1.7c0,0.3,0,0.6,0.1,0.9c0,0.4,0.1,0.8,0.2,1.2c0.1,0.4,0.1,0.8,0.2,1.2c0,0.1,0,0.2,0,0.3
			c0.1,0.4,0.2,0.8,0.3,1.2c0.1,0.4,0.2,0.8,0.3,1.2c0.1,0.3,0.1,0.5,0.2,0.8c0,0,0,0.1,0,0.1c0.1,0.3,0.2,0.5,0.3,0.8
			c0.1,0.3,0.2,0.5,0.3,0.8c0,0,0,0,0,0c0.1,0.3,0.2,0.5,0.3,0.8c0.1,0.3,0.2,0.5,0.3,0.8c0.5,1,1,2.1,1.5,3.1
			c0.2,0.3,0.4,0.7,0.6,1c0,0,0,0,0,0c0.2,0.4,0.5,0.8,0.7,1.1c0.5,0.8,1.1,1.5,1.7,2.3c0.2,0.2,0.4,0.5,0.6,0.7
			c0.1,0.2,0.3,0.4,0.5,0.5c0.4,0.5,0.8,0.9,1.3,1.4c0.1,0.1,0.2,0.2,0.3,0.3c1.5,1.4,3.1,2.7,4.9,3.9c0.3,0.2,0.7,0.4,1,0.6
			c13.9,8.8,29.4,10.6,45.1,11.3c17.7,0.8,35.3-1.6,52.5-5.9c1.2-0.3,2.4-0.6,3.5-0.9c1-0.3,1.9-0.5,2.9-0.8c1-0.3,1.9-0.6,2.9-0.9
			c0.7-0.2,1.5-0.5,2.2-0.7c0.4-0.1,0.8-0.3,1.2-0.4c2.1-0.7,4.1-1.4,6.2-2.2c0,0,0,0,0,0c1.4-0.5,2.7-1,4-1.6c0,0,0,0,0,0
			c0.9-0.4,1.8-0.8,2.7-1.1c1.1-0.5,2.2-1,3.3-1.5c1-0.5,1.9-0.9,2.9-1.4c1-0.5,1.9-1,2.9-1.5c1.4-0.8,2.9-1.5,4.3-2.3
			c1.4-0.8,2.8-1.6,4.2-2.5c0.4-0.3,0.9-0.5,1.3-0.8c0.5-0.3,1-0.6,1.4-0.9c0,0,0,0,0,0c1.1-0.7,2.1-1.4,3.1-2.1
			c0.5-0.4,1-0.7,1.6-1.1c2.1-1.5,4.1-3,6.1-4.7c0.9-0.8,1.9-1.5,2.8-2.3c0.7-0.6,1.4-1.2,2.1-1.8c17.5-15.8,28.4-35.6,33.8-58.3
			c3.5-14.6,4.9-29.5,1.9-44.3c-4.1-19.9-12.7-38-22.9-55.6c-10.3-17.9-20.6-35.8-30.1-54c-9.8-18.9-14.6-38.8-9.7-60.2
			c0.1-0.6,0.3-1.3,0.5-1.9c0.1-0.6,0.3-1.2,0.5-1.8c0.2-0.6,0.3-1.2,0.5-1.8c0.2-0.6,0.4-1.2,0.5-1.8c0.2-0.6,0.4-1.2,0.6-1.8
			c0.1-0.2,0.1-0.4,0.2-0.6c0.2-0.6,0.4-1.2,0.6-1.8c0.3-0.7,0.5-1.4,0.8-2.1c0.3-0.7,0.5-1.4,0.8-2c0.2-0.4,0.4-0.9,0.6-1.3
			c0.2-0.5,0.4-0.9,0.6-1.3c0.4-0.8,0.8-1.7,1.2-2.5c0.2-0.4,0.4-0.8,0.7-1.3c0.2-0.4,0.4-0.8,0.7-1.2c0.2-0.4,0.5-0.8,0.7-1.2
			c0.4-0.6,0.7-1.2,1.1-1.8c0.4-0.6,0.7-1.2,1.1-1.8c0.3-0.4,0.5-0.8,0.8-1.1c0.5-0.8,1.1-1.6,1.7-2.4c0.2-0.3,0.4-0.5,0.6-0.8
			c0,0,0,0,0,0c0.3-0.4,0.6-0.8,0.9-1.2c0.1-0.1,0.2-0.3,0.3-0.4c0.2-0.3,0.5-0.6,0.8-0.9c0.3-0.4,0.6-0.8,1-1.1
			c0.3-0.3,0.5-0.6,0.8-0.9c1.1-1.2,2.3-2.4,3.6-3.6c0.3-0.3,0.6-0.6,0.9-0.9c0.8-0.7,1.5-1.4,2.3-2c0.2-0.2,0.4-0.3,0.6-0.5
			c1.4-1.2,3-2.3,4.5-3.4c0.3-0.2,0.5-0.4,0.8-0.5c0.4-0.3,0.8-0.5,1.1-0.7c0.3-0.2,0.5-0.3,0.8-0.5c1.6-1,3.4-2,5.1-2.9
			c15.6-8.2,32.3-10.8,49.7-9.9c0.5,0,0.9,0,1.4,0.1c0.5,0,0.9,0.1,1.4,0.1c0.3,0,0.7,0.1,1,0.1c0.1,0,0.2,0,0.3,0c0,0,0,0,0,0
			c0.4,0,0.8,0.1,1.2,0.2c1,0.1,2,0.3,3.1,0.5c0.5,0.1,1.1,0.2,1.6,0.4c1.1,0.3,2.1,0.6,3.2,0.9c0.7,0.2,1.3,0.4,2,0.7
			c0.4,0.1,0.8,0.3,1.1,0.4c0.5,0.2,0.9,0.4,1.3,0.6c0.2,0.1,0.3,0.1,0.4,0.2c0.4,0.2,0.8,0.4,1.2,0.6c0.9,0.4,1.8,0.9,2.7,1.4
			c0.2,0.1,0.4,0.2,0.6,0.3c0.9,0.5,1.7,1.1,2.6,1.6c1.3,0.9,2.5,1.8,3.4,2.9c0,0,0.1,0.1,0.1,0.1c0.6,0.6,1.2,1.3,1.7,2
			c0.2,0.2,0.3,0.4,0.4,0.7c0.1,0.2,0.2,0.3,0.3,0.5c0.1,0.2,0.2,0.3,0.3,0.5c0.1,0.2,0.2,0.3,0.2,0.5c0.1,0.2,0.2,0.3,0.2,0.5
			c0.1,0.1,0.1,0.3,0.2,0.4c0,0.1,0.1,0.1,0.1,0.2c0.1,0.3,0.2,0.5,0.3,0.8c0.1,0.3,0.2,0.7,0.3,1c0,0.2,0.1,0.4,0.1,0.5
			c0,0,0,0.1,0,0.1c0,0.1,0,0.1,0,0.2c0,0,0,0,0,0c0,0.2,0.1,0.5,0.1,0.7c0,0.2,0,0.5,0.1,0.7c0,0.6,0,1.1,0,1.7
			c0,0.3,0,0.6-0.1,0.9c0,0.3-0.1,0.5-0.1,0.8c0,0.3-0.1,0.5-0.2,0.8c-0.2,0.8-0.5,1.7-0.8,2.5c-0.4,0.9-0.6,2.1-0.7,3.3
			c0,0.6,0,1.2,0.1,1.6c0.1,0.3,0.2,0.6,0.4,0.7c0.9,0.7,2.3,1.2,3.7,1.3c0.2,0,0.4,0,0.6,0c0.4,0,0.7,0,1.1-0.1
			c0.2,0,0.3-0.1,0.5-0.1c0.2,0,0.3-0.1,0.4-0.1c7.1-3,13.3-7.5,17.8-13.8C405.5-412.6,406.2-420.7,401.2-425.8z M922.6-229.8
			c0.5,0.1,1,0.2,1.5,0.3c0.8-3,2.8-6.5,1.9-8.9c-0.7-2.1-4.6-3.7-7.3-4.5s-5.9-0.2-9.4-0.2c0,7.1-0.1,13.7,0.1,20.3
			c0,0.8,1.4,2.2,1.9,2.1c1-0.2,2.5-1.1,2.7-2c0.5-2.1,0.4-4.3,0.6-6.5c0.4-0.1,0.9-0.2,1.3-0.3c1,1.6,2.4,3.1,3.1,4.8
			c1.4,3.5,3.8,4.8,7.3,4.3C925.1-223.5,923.8-226.7,922.6-229.8z M916.8-233.8c-0.6,0.2-2.5-1.9-2.3-2.6c0.3-1.3,1.7-2.3,3.2-4.3
			c1.2,1.4,2.4,2.8,3.6,4.3C919.8-235.5,918.4-234.3,916.8-233.8z M922.6-229.8c0.5,0.1,1,0.2,1.5,0.3c0.8-3,2.8-6.5,1.9-8.9
			c-0.7-2.1-4.6-3.7-7.3-4.5s-5.9-0.2-9.4-0.2c0,7.1-0.1,13.7,0.1,20.3c0,0.8,1.4,2.2,1.9,2.1c1-0.2,2.5-1.1,2.7-2
			c0.5-2.1,0.4-4.3,0.6-6.5c0.4-0.1,0.9-0.2,1.3-0.3c1,1.6,2.4,3.1,3.1,4.8c1.4,3.5,3.8,4.8,7.3,4.3
			C925.1-223.5,923.8-226.7,922.6-229.8z M916.8-233.8c-0.6,0.2-2.5-1.9-2.3-2.6c0.3-1.3,1.7-2.3,3.2-4.3c1.2,1.4,2.4,2.8,3.6,4.3
			C919.8-235.5,918.4-234.3,916.8-233.8z M922.6-229.8c0.5,0.1,1,0.2,1.5,0.3c0.8-3,2.8-6.5,1.9-8.9c-0.7-2.1-4.6-3.7-7.3-4.5
			s-5.9-0.2-9.4-0.2c0,7.1-0.1,13.7,0.1,20.3c0,0.8,1.4,2.2,1.9,2.1c1-0.2,2.5-1.1,2.7-2c0.5-2.1,0.4-4.3,0.6-6.5
			c0.4-0.1,0.9-0.2,1.3-0.3c1,1.6,2.4,3.1,3.1,4.8c1.4,3.5,3.8,4.8,7.3,4.3C925.1-223.5,923.8-226.7,922.6-229.8z M916.8-233.8
			c-0.6,0.2-2.5-1.9-2.3-2.6c0.3-1.3,1.7-2.3,3.2-4.3c1.2,1.4,2.4,2.8,3.6,4.3C919.8-235.5,918.4-234.3,916.8-233.8z M922.6-229.8
			c0.5,0.1,1,0.2,1.5,0.3c0.8-3,2.8-6.5,1.9-8.9c-0.7-2.1-4.6-3.7-7.3-4.5s-5.9-0.2-9.4-0.2c0,7.1-0.1,13.7,0.1,20.3
			c0,0.8,1.4,2.2,1.9,2.1c1-0.2,2.5-1.1,2.7-2c0.5-2.1,0.4-4.3,0.6-6.5c0.4-0.1,0.9-0.2,1.3-0.3c1,1.6,2.4,3.1,3.1,4.8
			c1.4,3.5,3.8,4.8,7.3,4.3C925.1-223.5,923.8-226.7,922.6-229.8z M916.8-233.8c-0.6,0.2-2.5-1.9-2.3-2.6c0.3-1.3,1.7-2.3,3.2-4.3
			c1.2,1.4,2.4,2.8,3.6,4.3C919.8-235.5,918.4-234.3,916.8-233.8z M937.8-234.2c-0.2-1.3-0.4-2.6-0.7-3.8c0,0,0-0.1,0-0.1
			c-0.1-0.4-0.2-0.8-0.3-1.1c-0.1-0.4-0.3-0.8-0.4-1.2c-0.3-0.8-0.7-1.6-1.1-2.3c-0.2-0.4-0.5-0.9-0.8-1.3c-0.2-0.3-0.3-0.5-0.5-0.8
			c-0.4-0.5-0.8-1-1.2-1.4c-2.1-2.2-4.8-3.9-8.1-4.9c-0.2-0.1-0.5-0.2-0.7-0.2c-0.2,0-0.3-0.1-0.5-0.1c-0.4-0.1-0.8-0.2-1.3-0.3
			c-0.7-0.1-1.4-0.2-2.1-0.3c-0.7-0.1-1.4-0.1-2.1-0.2c-0.7,0-1.4,0-2.1,0c-0.4,0-0.7,0-1.1,0.1c-0.4,0-0.7,0.1-1.1,0.1
			c-0.4,0-0.7,0.1-1.1,0.2c-0.5,0.1-1.1,0.3-1.6,0.4c-0.3,0.1-0.6,0.2-0.9,0.3c-1.2,0.4-2.4,1-3.5,1.6c-0.5,0.3-1.1,0.7-1.6,1
			c-0.3,0.2-0.5,0.4-0.8,0.6c-0.5,0.4-1,0.8-1.4,1.2c-0.7,0.7-1.3,1.3-1.8,2c-0.3,0.4-0.7,0.9-0.9,1.3c-0.2,0.3-0.4,0.6-0.6,0.9
			c-0.3,0.5-0.6,1.1-0.8,1.6c-0.3,0.6-0.5,1.3-0.7,1.9c-0.1,0.4-0.2,0.8-0.3,1.3c-0.4,1.8-0.5,3.7-0.3,5.5c-0.4,2.7,0,5.5,1,8
			c0.2,0.5,0.4,0.9,0.6,1.4c0.4,0.9,0.9,1.7,1.5,2.5c0.3,0.5,0.7,1,1.1,1.4c1.4,1.6,3,3,5,4.2c0.5,0.3,1.1,0.6,1.7,0.9
			c1.5,0.7,3.1,1.2,4.8,1.6c1.5,0.3,3.2,0.4,4.9,0.4c12.2-0.3,20.4-8.3,20.2-19.9C938-232.4,937.9-233.3,937.8-234.2z M926.4-220.3
			C926.4-220.4,926.4-220.4,926.4-220.3C926.4-220.4,926.4-220.4,926.4-220.3C926.3-220.4,926.3-220.3,926.4-220.3L926.4-220.3
			c-0.6,0.9-1.5,2.2-3.1,3.2c-3.7,2.3-8,1.1-9.8,0.6c-6.5-1.7-9.6-6.5-10.6-12.5c-1.1-6.3,0.9-12,6.2-15.8
			c4.8-3.5,10.3-3.6,15.5-0.7c5.3,2.9,7.6,8,7.5,13.7C932-227.4,931.6-222.5,926.4-220.3z M924.1-229.6c0.8-3,2.8-6.5,1.9-8.9
			c-0.7-2.1-4.6-3.7-7.3-4.5s-5.9-0.2-9.4-0.2c0,7.1-0.1,13.7,0.1,20.3c0,0.8,1.4,2.2,1.9,2.1c1-0.2,2.5-1.1,2.7-2
			c0.5-2.1,0.4-4.3,0.6-6.5c0.4-0.1,0.9-0.2,1.3-0.3c1,1.6,2.4,3.1,3.1,4.8c1.4,3.5,3.8,4.8,7.3,4.3c-1.3-3.2-2.5-6.3-3.7-9.4
			C923.1-229.7,923.6-229.7,924.1-229.6z M916.8-233.8c-0.6,0.2-2.5-1.9-2.3-2.6c0.3-1.3,1.7-2.3,3.2-4.3c1.2,1.4,2.4,2.8,3.6,4.3
			C919.8-235.5,918.4-234.3,916.8-233.8z M922.6-229.8c0.5,0.1,1,0.2,1.5,0.3c0.8-3,2.8-6.5,1.9-8.9c-0.7-2.1-4.6-3.7-7.3-4.5
			s-5.9-0.2-9.4-0.2c0,7.1-0.1,13.7,0.1,20.3c0,0.8,1.4,2.2,1.9,2.1c1-0.2,2.5-1.1,2.7-2c0.5-2.1,0.4-4.3,0.6-6.5
			c0.4-0.1,0.9-0.2,1.3-0.3c1,1.6,2.4,3.1,3.1,4.8c1.4,3.5,3.8,4.8,7.3,4.3C925.1-223.5,923.8-226.7,922.6-229.8z M916.8-233.8
			c-0.6,0.2-2.5-1.9-2.3-2.6c0.3-1.3,1.7-2.3,3.2-4.3c1.2,1.4,2.4,2.8,3.6,4.3C919.8-235.5,918.4-234.3,916.8-233.8z M922.6-229.8
			c0.5,0.1,1,0.2,1.5,0.3c0.8-3,2.8-6.5,1.9-8.9c-0.7-2.1-4.6-3.7-7.3-4.5s-5.9-0.2-9.4-0.2c0,7.1-0.1,13.7,0.1,20.3
			c0,0.8,1.4,2.2,1.9,2.1c1-0.2,2.5-1.1,2.7-2c0.5-2.1,0.4-4.3,0.6-6.5c0.4-0.1,0.9-0.2,1.3-0.3c1,1.6,2.4,3.1,3.1,4.8
			c1.4,3.5,3.8,4.8,7.3,4.3C925.1-223.5,923.8-226.7,922.6-229.8z M916.8-233.8c-0.6,0.2-2.5-1.9-2.3-2.6c0.3-1.3,1.7-2.3,3.2-4.3
			c1.2,1.4,2.4,2.8,3.6,4.3C919.8-235.5,918.4-234.3,916.8-233.8z"/>
		<path class="st1" d="M1044-452.4c-4.2-5.7-10.4-7.9-16.6-10.1c-2.4-0.9-4.8-1.6-7.3-2.4c-3-0.9-6.1-1.7-9.2-2.5
			c-0.6-0.1-1.2-0.3-1.8-0.4c-1.2-0.3-2.5-0.6-3.7-0.8c-1.2-0.3-2.5-0.5-3.7-0.8c-9.9-2-20-3.3-30-4.6c-1.3-0.2-2.5-0.3-3.8-0.5
			c-0.7-0.1-1.4-0.2-2-0.3c-0.7-0.1-1.4-0.2-2.1-0.3c-2.3-0.3-4.6-0.7-7-1c-0.5-0.1-1.1-0.2-1.7-0.2c0.7-1.8,1-2.8,1.5-3.9
			c4.3-9,8.4-18,9.4-28c0.5-5.2-0.9-9-3.8-10.7c-0.1-0.1-0.2-0.1-0.3-0.2c-0.1-0.1-0.2-0.1-0.3-0.2c-0.1,0-0.2-0.1-0.3-0.1
			c-0.4-0.1-0.8-0.2-1.2-0.3c-0.2,0-0.4-0.1-0.6-0.1c-0.5,0-1.1,0-1.7,0c-0.1,0-0.3,0-0.4,0.1c-0.2,0-0.4,0.1-0.7,0.1
			c-0.1,0-0.1,0-0.2,0c-0.8,0.2-1.5,0.4-2.4,0.8c-4.3,1.8-8.6,5.2-11.5,8.9c-7,9.1-13.2,18.9-19.9,28.3c-0.8,1.1-2.2,2.3-3.5,2.5
			c-0.2,0.1-0.4,0.1-0.6,0.1c-6.6-0.3-13.1-1.3-19.7-1.7c-1.7-0.1-3.4-0.2-5.2-0.3c-2.6-0.2-5.1-0.3-7.7-0.4
			c-2.6-0.1-5.2-0.3-7.7-0.4c-3.4-0.2-6.8-0.3-10.3-0.5c-3.5-0.1-6.9-0.3-10.4-0.4c-16.3-0.5-32.6-0.9-48.8-1
			c-10.2,0-20.4,0.6-30.6,0.8c-7.3,0.2-14.6,0.4-21.9,0.6c-1,0-2,0.1-3,0.1c-2,0-4,0.1-6,0.2c-0.3,0-0.6,0-1,0
			c-1.8,0.1-3.6,0.1-5.4,0.2c-14.9,0.6-29.8,1.3-44.7,2.1c-4.8,0.2-9.6,0.5-14.3,1h0c-14.1,1.5-28.2,3.2-42.3,4.9
			c-11.1,1.3-22.3,2.5-33.4,4.3c-0.8,0.1-1.6,0.3-2.5,0.4c-3.9,0.6-7.8,1.3-11.6,2c-1.4,0.3-2.8,0.5-4.2,0.8
			c-4.1,0.8-8.2,1.5-12.3,2.3c-1.3,0.3-2.5,0.5-3.8,0.8c-1.2,0.3-2.5,0.5-3.7,0.8c-1.2,0.3-2.5,0.5-3.7,0.8
			c-12.1,2.6-24,5.8-35.9,9.1c-2,0.6-3.4,3-5.1,4.6c1.7,0.6,3.4,1.7,5,2c0.3,0,0.6,0.1,0.9,0c2.7-0.2,5.3-0.4,7.9-0.6
			c2.6-0.2,5.2-0.5,7.8-0.8h0c2.6-0.3,5.2-0.5,7.8-0.8c2.6-0.3,5.3-0.5,7.9-0.8c2.4-0.2,4.7-0.5,7.1-0.7c7.1-0.7,14.2-1.5,21.2-2.3
			c1-0.1,2-0.2,2.9-0.3c1-0.1,2-0.2,2.9-0.3c1.2-0.1,2.5-0.3,3.7-0.4c1.1-0.1,2.3-0.2,3.4-0.3c2-0.2,4-0.4,5.9-0.5
			c15.8-1.3,31.7-2.2,47.6-3c17.1-0.9,34.1-2,51.2-1.9c47.4,0.1,94.8-1.5,142.2,1.8c1.5,0.1,3,0.2,4.6,0.3c0.1,0,0.3,0,0.4,0
			c1.1,0.1,2.1,0.1,3.2,0.2c0.6,0,1.1,0.1,1.7,0.1c1,0,2,0.1,3,0.1c1.9,0.1,3.8,0.2,5.7,0.3c3.8,0.2,7.6,0.3,11.5,0.5
			c5.4,0.2,10.8,0.4,16.2,0.7c2.9,0.2,5.8,0.7,8.9,1.1c0.7,0.1,1.4,0.2,2.1,0.3c-0.4,1.3-0.6,2.5-1.1,3.5
			c-6.2,13.5-12.9,26.8-18.6,40.6c-6.3,15.2-11.7,30.8-17.5,46.2c-2.4,6.3-3.7,13.4-7.3,18.8c-7.6,11.2-16.3,21.6-24.7,32.2
			c-13,16.4-27.8,30.9-44.1,44c-9.3,7.4-19,14.6-31,16.9c-0.8,0.2-1.7,0.3-2.5,0.4c-0.7,0.1-1.4,0.2-2,0.2c-0.3,0-0.6,0-0.9,0
			c-0.3,0-0.6,0-0.9,0c-0.4,0-0.8,0-1.2,0c-0.1,0-0.2,0-0.3,0c-0.3,0-0.7,0-1-0.1c-0.1,0-0.3,0-0.4,0c-0.1,0-0.3,0-0.4-0.1
			c-0.5-0.1-0.9-0.2-1.3-0.3c-6.5-1.5-10.4-6.7-10.9-16.8c-0.4-9.5,2.8-18.2,4.7-27.2c1.2-5.6,2.8-9,8.4-10.7c0,0,0.1,0,0.1,0
			c0.1,0,0.3-0.1,0.4-0.1c0,0,0.1,0,0.1,0c0.4-0.1,0.9-0.2,1.3-0.3c0.2,0,0.5-0.1,0.7-0.1c0.1,0,0.2,0,0.3,0c0.2,0,0.3-0.1,0.5-0.1
			c26-3.9,48-16.3,66.1-35.8c9.5-10.3,16.5-21.9,20.3-35.2c4.7-16.4-2.2-31.3-20.5-34.6c-1-0.2-2.1-0.3-3.1-0.4
			c-1.9-0.2-3.8-0.2-5.7,0c-0.5,0-0.9,0.1-1.4,0.1c-0.2,0-0.4,0-0.5,0.1c-0.3,0-0.7,0.1-1,0.1c-0.3,0-0.6,0.1-0.9,0.2
			c-0.3,0-0.6,0.1-0.9,0.2c-0.4,0.1-0.7,0.2-1.1,0.2c-4.4,1-8.6,2.6-12.7,4.6c-23.3,11-40.2,29.3-54.9,49.8
			c-13.4,18.5-22.9,39-29.1,61c-3.7,13.2-6.6,26.6-3.9,40.5c2.9,15.4,11.2,23.5,22.3,26.4c0.8,0.2,1.6,0.4,2.4,0.5
			c0.4,0.1,0.8,0.1,1.2,0.2s0.8,0.1,1.3,0.2c2.5,0.3,5.2,0.4,7.9,0.3c1.6-0.1,3.1-0.2,4.7-0.4c1.1-0.1,2.1-0.3,3.2-0.5
			c0.5-0.1,1.1-0.2,1.6-0.3c0.5-0.1,1-0.2,1.6-0.4c4.7-1.2,9.4-2.8,13.7-4.8c28.7-12.9,49.8-35.2,70.1-58.3c2.5-2.8,4.9-5.7,7.3-8.7
			c2.4-2.9,4.8-5.9,7.2-8.8c0.2-0.2,0.4-0.3,0.6-0.5c0.2-0.2,0.4-0.3,0.6-0.5c0,0,0,0,0,0c-0.2,0.5-0.4,1-0.5,1.5c0,0,0,0,0,0
			c-0.5,2.9-0.8,5.9-1.6,8.8c-8.5,33.5-13.9,67.5-15.3,102c-0.6,15.3,0.2,30.6,1,45.8c0.2,4.6,2,9.4,4,13.6c0.9,1.9,3.8,4,5.8,4.2
			c0.2,0,0.4,0,0.6,0c2.2-0.2,4.7-2.9,5.9-5.1c1.5-2.7,2-5.9,2.4-9c2.1-18.9,3.5-37.8,6.2-56.6c2.8-20.2,5.7-40.5,10.4-60.3
			c6.6-28,14.7-55.8,22.7-83.4c3.5-12,7.6-24,13.1-35.2c9.3-18.9,20.1-37.1,30.1-55.8c3.8-7.1,4.4-8.8,9.7-8.5c0.3,0,0.6,0,1,0.1
			c0.7,0.1,1.5,0.1,2.4,0.3c0.5,0.1,1,0.1,1.5,0.2c14.2,1.8,28.3,4.2,42.5,6.6c12.8,2.2,25.5,5.3,38.4,6.9h0c0.2,0,0.3,0,0.5,0
			c0.4,0,0.8,0,1.2,0c0.4,0,0.9-0.1,1.4-0.2c0.3-0.1,0.6-0.1,1-0.2c0.2,0,0.4-0.1,0.6-0.1c0.3-0.1,0.5-0.2,0.8-0.2
			c2.5-0.9,4.9-2.3,6.3-4C1047.7-442.9,1047.2-448,1044-452.4z M817.1-396.5c2.8-0.9,6.9-1.3,8.8,0.2c1.7,1.3,1.9,5.7,1.4,8.4
			c-2.1,10.6-8,19.5-14.7,27.6c-11.7,14.2-25.4,26.2-41.9,34.7c-4.9,2.5-10.3,4.2-15.5,6.3c-0.4-0.4-0.9-0.7-1.3-1.1
			c3.4-6.7,6.5-13.5,10.1-20.1c8.2-14.6,17.8-28.1,29.7-40C800.6-387.3,807.8-393.5,817.1-396.5z"/>
		<path class="st2" d="M827.3-387.9c-2.1,10.6-8,19.5-14.7,27.6c-11.7,14.2-25.4,26.2-41.9,34.7c-4.9,2.5-10.3,4.2-15.5,6.3
			c-0.4-0.4-0.9-0.7-1.3-1.1c3.4-6.7,6.5-13.5,10.1-20.1c8.2-14.6,17.8-28.1,29.7-40c6.8-6.8,14.1-13,23.3-16
			c2.8-0.9,6.9-1.3,8.8,0.2C827.6-395,827.8-390.7,827.3-387.9z"/>
		<path class="st1" d="M740.3-386.7c0-0.2,0-0.4,0-0.6c0,0,0-0.1,0-0.1c0-0.2,0-0.5-0.1-0.7c0-0.4-0.1-0.8-0.2-1.2
			c0-0.2-0.1-0.4-0.1-0.6c-0.1-0.4-0.1-0.7-0.2-1.1c-0.1-0.3-0.1-0.6-0.2-0.9c-0.1-0.2-0.1-0.5-0.2-0.7c-0.1-0.4-0.2-0.7-0.4-1.1
			c-0.2-0.5-0.4-1-0.6-1.5c-0.2-0.3-0.3-0.6-0.5-0.9c-0.5-1-1.2-1.9-1.9-2.6c-6.2-6.5-17.8-5.8-25.4-1.2
			c-10.5,6.4-18.8,15.1-26.2,24.8c-0.8,1-1.5,2-2.3,3c-0.4,0.6-0.9,1.2-1.3,1.8c-1.1,1.4-2.2,2.9-3.2,4.3c-1.5,2-3,4.1-4.6,6.2
			c-2.3,3.1-4.6,6.3-7,9.5c0.5-5.9,1-11.3,1.5-16.6c0.1-1.2,0.1-2.4,0.1-3.5c0-0.3,0-0.5-0.1-0.8c0-0.1,0-0.2,0-0.3
			c0-0.2,0-0.4-0.1-0.6c0-0.2,0-0.3-0.1-0.5c0-0.3-0.1-0.5-0.1-0.8c0-0.2-0.1-0.5-0.2-0.7c0-0.2-0.1-0.5-0.2-0.7
			c-0.1-0.3-0.2-0.7-0.3-1c-0.7-2.2-1.8-4.2-3.2-6c-0.4-0.5-0.8-1-1.2-1.5c-0.2-0.2-0.4-0.5-0.7-0.7c-0.2-0.2-0.5-0.5-0.7-0.7
			c-0.5-0.4-1-0.9-1.5-1.3c-0.5-0.4-1-0.8-1.5-1.2c-0.7-0.5-1.4-1-2.1-1.4c-0.2-0.1-0.3-0.2-0.5-0.3c-0.2-0.1-0.4-0.3-0.6-0.4
			c-0.3-0.2-0.7-0.4-1-0.6c-0.5-0.3-1-0.5-1.5-0.8c-0.3-0.1-0.6-0.3-0.8-0.4c-0.8-0.4-1.7-0.8-2.5-1.1c-2.1-0.8-3.8-0.8-4.8-0.1
			c-0.1,0.1-0.2,0.1-0.3,0.2c-0.1,0.1-0.2,0.2-0.3,0.3c-0.1,0.1-0.2,0.2-0.2,0.3c0,0.1-0.1,0.2-0.1,0.2c-0.1,0.1-0.1,0.3-0.2,0.4
			c-0.1,0.1-0.1,0.3-0.1,0.5c0,0.2-0.1,0.3-0.1,0.5c0,0,0,0,0,0.1c0,0.2,0,0.4,0,0.5c0,0.7,0.1,1.5,0.4,2.4
			c2.2,7.8,0.9,15.3-1.6,22.7c-0.8,2.4-1.6,4.9-2.4,7.3c-2.4,7.3-4.8,14.6-7.2,21.9c-1.1,3.2-2.2,6.5-3.3,9.7
			c-2.6,7.4-5.3,15-9.1,21.8c-4.2,7.6-9.7,14.6-14.7,21.7c-12,17.1-24.6,33.7-39.7,48.1c-8.8,8.5-18.1,16.5-30.3,20
			c-3.9,1.1-8,1.2-11.5,0.1c-0.5-0.2-1-0.3-1.5-0.6c-0.3-0.1-0.5-0.2-0.8-0.4c-0.5-0.2-1-0.5-1.4-0.8c-0.5-0.3-0.9-0.6-1.3-1
			c-0.2-0.2-0.4-0.4-0.6-0.6c-0.3-0.2-0.5-0.5-0.8-0.8c-0.2-0.2-0.3-0.4-0.5-0.6c-0.3-0.3-0.5-0.7-0.8-1c-0.1-0.2-0.2-0.3-0.3-0.5
			c-0.5-0.7-0.9-1.5-1.2-2.4c-0.1-0.2-0.2-0.4-0.3-0.7c-0.2-0.4-0.3-0.8-0.4-1.3c-0.1-0.2-0.1-0.4-0.1-0.6c-0.1-0.5-0.2-1-0.3-1.6
			c0-0.2-0.1-0.5-0.1-0.7c-0.1-0.7-0.2-1.5-0.2-2.3c-0.2-5,0-10,0.5-14.9c0.2-1.8,0.4-3.7,0.6-5.5c0.1-0.9,0.3-1.8,0.4-2.8
			c0.5-2.7,1-5.4,1.6-8.1c0.2-0.9,0.4-1.8,0.6-2.7c0.2-0.9,0.5-1.8,0.7-2.7c0.2-0.9,0.5-1.8,0.7-2.7c0.5-1.8,1.1-3.5,1.6-5.3
			c0.3-0.9,0.6-1.8,0.9-2.6c0.3-0.9,0.6-1.8,0.9-2.7c0.3-0.9,0.7-1.8,1-2.7c0.7-1.8,1.3-3.5,2-5.3c0.7-1.8,1.4-3.5,2.1-5.3
			c0.6-1.4,1.2-2.9,1.8-4.3c0.5-1.2,1-2.4,1.5-3.6c0.5-1,0.9-2,1.4-3.1c0.3-0.6,0.5-1.2,0.8-1.8c0.4-1,0.9-2,1.4-2.9
			c0.4-0.9,0.8-1.7,1.2-2.6c0.4-0.9,0.8-1.7,1.2-2.6c0.8-1.7,1.7-3.4,2.5-5.1c7.6-14.9,17.3-28.6,30.7-38.9
			c4.4-3.4,9.9-6.1,15.3-7.3c1.1-0.2,2.1-0.3,2.9-0.3c0.8,0.1,1.5,0.3,2.1,0.6c0.1,0.1,0.3,0.2,0.4,0.3c0.6,0.4,1,0.8,1.4,1.4
			c0.2,0.3,0.3,0.6,0.4,0.9c0.5,1.5,0.5,3.4-0.2,5.7c-0.3,0.8-0.5,1.6-0.8,2.3c0,0.2-0.1,0.3-0.2,0.5c-0.1,0.3-0.2,0.5-0.3,0.7
			c-0.5,1.4-1,2.8-1.5,4.2c-0.4,1.1-0.8,2.1-1.2,3.2c-0.4,1.1-0.8,2.1-1.2,3.2c-0.7,1.9-1.5,3.8-2.2,5.6c-0.3,1-0.7,1.9-1,2.8
			c0,0.1-0.1,0.3-0.2,0.4c-0.2,0.5-0.3,1.1-0.4,1.6c0,0.2-0.1,0.4-0.1,0.6c0,0.1,0,0.3-0.1,0.4c-0.1,0.5-0.1,1,0,1.4
			c0,0.2,0.1,0.3,0.2,0.4c1.3,1,3.8,1.5,5.3,1c10.8-3.4,18.2-10.7,22-21.2c0.1-0.3,0.2-0.6,0.3-1c0.1-0.2,0.1-0.3,0.2-0.5
			c0.1-0.2,0.1-0.4,0.1-0.5c0-0.2,0.1-0.4,0.1-0.5c0-0.2,0.1-0.4,0.1-0.5c0-0.2,0.1-0.3,0.1-0.5c0-0.2,0.1-0.3,0.1-0.5
			c0-0.1,0-0.2,0-0.3c0-0.2,0.1-0.4,0.1-0.6c0-0.1,0-0.2,0-0.3c0-0.1,0-0.3,0-0.4c0.1-0.9,0.1-1.8,0-2.7c0-0.1,0-0.3,0-0.4
			c0-0.4-0.1-0.7-0.1-1.1c0-0.3-0.1-0.7-0.2-1c-0.1-0.3-0.1-0.7-0.2-1c-0.1-0.2-0.1-0.4-0.2-0.6c0-0.2-0.1-0.4-0.2-0.6
			c-0.1-0.4-0.3-0.8-0.4-1.2c-0.1-0.3-0.2-0.6-0.4-0.8c-0.9-2-2.1-3.9-3.8-5.6c-0.3-0.3-0.5-0.6-0.8-0.8c-0.6-0.5-1.2-1.1-1.9-1.6
			c-9.6-7.4-20.5-8.7-31.9-6c-14.9,3.4-26.8,12.3-37.3,22.7c-17.7,17.5-31,38.1-40.5,61.2c-2.3,5.6-3.8,11.8-6.9,16.9
			c-17.7,28.8-37.6,56.1-62.4,79.4c-7.7,7.3-16,13.8-26.2,17.5c-4.8,1.8-9.4,2-13.3,0.8c-1-0.3-1.9-0.7-2.8-1.2
			c-0.3-0.1-0.5-0.3-0.8-0.5c-0.3-0.2-0.5-0.3-0.8-0.5c-0.2-0.2-0.4-0.3-0.6-0.5c-0.2-0.2-0.4-0.4-0.6-0.5c-0.2-0.1-0.3-0.3-0.5-0.5
			c-0.1-0.1-0.3-0.3-0.4-0.4c0,0,0-0.1-0.1-0.1c-0.1-0.2-0.3-0.3-0.4-0.5c-0.1-0.1-0.3-0.3-0.4-0.5c-0.6-0.8-1.1-1.6-1.5-2.5
			c-0.1-0.2-0.2-0.3-0.2-0.5c-0.2-0.4-0.3-0.8-0.5-1.2c-0.9-2.5-1.3-5.4-1.2-8.7c0.4-10,2.5-19.9,3.7-29.9c0-0.4,0.1-0.8,0.2-1.2
			c0-0.2,0.1-0.4,0.1-0.5c0-0.2,0.1-0.5,0.2-0.7c0-0.2,0.1-0.4,0.2-0.6c0,0,0,0,0,0c0-0.1,0.1-0.2,0.1-0.3c0-0.1,0.1-0.2,0.1-0.3
			c0.3-0.7,0.7-1.3,1.3-1.8c0.1-0.1,0.3-0.2,0.4-0.3c0,0,0,0,0,0c0.2-0.1,0.3-0.2,0.5-0.3c0.9-0.4,2-0.6,3.5-0.5
			c2,0.2,4.2-0.7,6.3-1.3c24.8-6.5,44.7-20.4,60.3-40.4c0.3-0.4,0.6-0.8,1-1.2c0.1-0.1,0.2-0.2,0.2-0.3c0.4-0.5,0.8-1,1.2-1.6
			c0.4-0.5,0.8-1,1.1-1.6c0.2-0.3,0.4-0.5,0.6-0.8s0.4-0.5,0.5-0.8c0.4-0.5,0.7-1.1,1.1-1.6c0.4-0.5,0.7-1.1,1-1.6
			c0.3-0.4,0.5-0.8,0.8-1.2c1.8-2.9,3.3-5.8,4.7-8.8c0.2-0.5,0.4-0.9,0.6-1.4c0.2-0.3,0.3-0.7,0.4-1c0.3-0.6,0.5-1.2,0.7-1.8
			c0.6-1.7,1.2-3.3,1.7-5c0.1-0.4,0.2-0.8,0.3-1.2c0.6-2.4,1.1-4.8,1.4-7.3c0.1-0.9,0.2-1.8,0.3-2.8c0.2-2,0.3-4.1,0.2-6.2
			c0,0,0,0,0,0c0-0.8-0.1-1.6-0.2-2.4c-0.1-0.8-0.2-1.6-0.4-2.3c-2.2-10.6-11-17.7-22.4-18.2c-13.2-0.6-24.3,4.3-34.7,11.3
			c-21.7,14.5-36.7,35-48.8,57.7c-0.3,0.6-0.6,1.2-0.9,1.7c-0.9,1.8-1.9,3.6-2.8,5.5c-0.4,0.7-0.7,1.5-1.1,2.2
			c-1.5,3.2-2.9,6.3-4.3,9.6c-0.7,1.6-1.3,3.2-1.9,4.8c-0.3,0.8-0.6,1.6-0.9,2.4c-0.3,0.8-0.6,1.6-0.9,2.4c-0.3,0.8-0.6,1.6-0.8,2.4
			c-1.1,3.3-2.1,6.5-3,9.9c-1.1,4.1-2.1,8.3-2.9,12.5c-0.2,0.8-0.3,1.7-0.4,2.5c-0.1,0.8-0.3,1.7-0.4,2.5c-0.1,1-0.3,2-0.4,2.9
			c-0.1,0.8-0.2,1.7-0.3,2.5c-0.3,3.1-0.6,6.2-0.7,9.3c0,0.3,0,0.6,0,0.9c-0.1,1.7-0.1,3.4-0.1,5.1c0,2.6,0.1,5.3,0.2,8
			c0,0.4,0.1,0.9,0.1,1.3c0,0.4,0.1,0.9,0.1,1.3c0.2,1.2,0.3,2.4,0.6,3.6c0.1,0.3,0.1,0.6,0.2,0.9c0.3,1.2,0.6,2.4,1,3.5
			c0.2,0.6,0.4,1.2,0.6,1.7c0.2,0.6,0.5,1.1,0.7,1.7c0.1,0.3,0.3,0.6,0.4,0.9c0.3,0.6,0.6,1.2,0.9,1.8c0,0,0,0,0,0
			c0.4,0.8,0.9,1.6,1.4,2.3c0.3,0.4,0.5,0.8,0.8,1.2c0.4,0.5,0.8,1.1,1.2,1.6c0.2,0.3,0.4,0.5,0.7,0.8c0.3,0.3,0.6,0.7,0.9,1
			c0.3,0.3,0.6,0.7,1,1c0.2,0.2,0.3,0.3,0.5,0.4c0.2,0.2,0.3,0.3,0.5,0.4c0.1,0.1,0.2,0.2,0.3,0.2c0.3,0.3,0.7,0.5,1,0.8
			c0.4,0.3,0.8,0.6,1.2,0.8c0.3,0.3,0.7,0.5,1.1,0.7c0,0,0.1,0.1,0.1,0.1c0,0,0,0,0.1,0h0c0.4,0.3,0.8,0.5,1.2,0.7
			c0.4,0.2,0.9,0.5,1.3,0.7c0.4,0.2,0.8,0.4,1.3,0.6c0.9,0.4,1.8,0.7,2.7,1c0.5,0.1,0.9,0.3,1.4,0.4c0.3,0.1,0.6,0.1,1,0.2
			c0.3,0.1,0.7,0.1,1,0.2c8.9,1.4,17.6,1.2,26-1.6c14.6-4.8,27.2-13.4,38.4-23.8c17.3-16.2,31-35.2,43.8-54.9
			c1.4-2.2,2.7-4.4,4.2-6.8c0.5,9.1,0.4,17.5,1.5,25.8c0.1,0.5,0.1,0.9,0.2,1.3c0.1,0.4,0.2,0.8,0.3,1.2c0,0.2,0.1,0.4,0.1,0.6
			c0.1,0.7,0.3,1.3,0.5,1.9c0.1,0.3,0.2,0.5,0.3,0.8c0.1,0.3,0.2,0.5,0.3,0.8c0.1,0.3,0.2,0.6,0.3,0.8c0.2,0.4,0.3,0.9,0.5,1.3
			c0.2,0.3,0.3,0.7,0.5,1c0.2,0.4,0.3,0.7,0.5,1c0.2,0.3,0.3,0.7,0.5,1c0.3,0.5,0.5,1,0.8,1.5c0.3,0.5,0.6,0.9,0.9,1.4
			c0.2,0.3,0.4,0.6,0.6,0.9c0.2,0.3,0.4,0.6,0.7,0.9c0.2,0.3,0.5,0.6,0.7,0.8c0.1,0.1,0.2,0.3,0.4,0.4c0.1,0.1,0.2,0.3,0.4,0.4
			c0.5,0.5,1,1.1,1.5,1.6c0.3,0.3,0.5,0.5,0.8,0.7c0.3,0.2,0.5,0.5,0.8,0.7s0.5,0.5,0.8,0.7c0,0,0,0,0.1,0c0.2,0.2,0.4,0.3,0.6,0.5
			c0.1,0,0.1,0.1,0.2,0.1c0,0,0,0,0,0c4,3,8.7,4.9,13.7,5.4c13.8,1.5,26.7-1.5,38.7-8.3c18.1-10.4,31.9-25.5,44.3-41.8
			c5.8-7.6,10.9-15.6,16.8-24.1c-0.1,1.4,0,1.9-0.1,2.3c-0.2,0.6-0.4,1.2-0.6,1.8c-0.6,2-1.2,3.9-1.8,5.9c-0.3,1.1-0.7,2.2-1,3.3
			c-0.1,0.3-0.2,0.6-0.3,0.9c-0.2,0.5-0.3,1.1-0.5,1.6c-0.2,0.6-0.4,1.3-0.5,2c0,0,0,0.1,0,0.1c-0.1,0.6-0.3,1.2-0.4,1.9
			c-0.2,0.6-0.3,1.2-0.4,1.9c-0.1,0.6-0.3,1.3-0.4,1.9c0,0,0,0.1,0,0.1c-0.1,0.7-0.2,1.4-0.3,2c-0.1,0.5-0.1,1-0.2,1.5
			c0,0.5-0.1,1-0.1,1.5c-0.1,0.7-0.1,1.5-0.1,2.2c0,0.2,0,0.4,0,0.6c0,0.5,0,1,0,1.5c0,0.7,0,1.3,0.1,2c0,0.2,0,0.3,0,0.5
			c0,0.3,0.1,0.7,0.1,1c0,0.1,0,0.3,0.1,0.4c0.1,0.5,0.2,1.1,0.3,1.6c0,0.2,0.1,0.4,0.1,0.6c0,0.2,0.1,0.4,0.1,0.5
			c0.1,0.4,0.2,0.8,0.3,1.2c0.1,0.3,0.2,0.7,0.3,1c0,0,0,0.1,0,0.1c0.1,0.3,0.3,0.7,0.4,1c0.2,0.3,0.3,0.7,0.5,1
			c0.1,0.2,0.2,0.3,0.3,0.5c0,0.1,0.1,0.2,0.1,0.2c0,0.1,0.1,0.2,0.1,0.2c0.2,0.3,0.4,0.6,0.6,0.9c0.2,0.3,0.4,0.6,0.6,0.8
			c0.4,0.5,0.9,1.1,1.4,1.6c3.5,3.5,8.7,5.3,15.3,5.3c2,0,3.4-0.4,4.4-1.3c0.1-0.1,0.3-0.3,0.4-0.4c0.1-0.1,0.2-0.2,0.3-0.3
			c0.1-0.1,0.2-0.2,0.2-0.4c0.1-0.1,0.2-0.3,0.2-0.4c0.1-0.3,0.3-0.6,0.3-0.9c0.1-0.4,0.2-0.8,0.3-1.2c0.1-0.6,0.2-1.2,0.2-1.8
			c0.1-0.8,0.2-1.6,0.3-2.4c0-0.1,0-0.2,0-0.3c0.2-2.2,0.4-4.5,0.7-6.7c0.1-0.4,0.1-0.7,0.2-1.1c0-0.3,0.1-0.6,0.1-0.9
			c0.1-0.4,0.1-0.9,0.2-1.3c0.1-0.5,0.2-1.1,0.3-1.6c0-0.3,0.1-0.5,0.2-0.8c0.1-0.3,0.1-0.5,0.2-0.8c0.6-2.3,1.2-4.6,1.9-6.9
			c2.2-8,4.4-15.9,6.9-23.8c0.3-1,0.7-2.1,1-3.1c0.1-0.4,0.2-0.7,0.4-1.1c0.1-0.4,0.3-0.9,0.4-1.3c0.6-1.8,1.2-3.7,1.9-5.5
			c0.3-0.9,0.6-1.8,1-2.7c0.7-1.8,1.3-3.6,2-5.4c0.5-1.3,1-2.6,1.5-3.9c0.1-0.2,0.1-0.3,0.2-0.5c0.5-1.3,1-2.5,1.5-3.7
			c0.4-0.9,0.8-1.8,1.1-2.7c0.4-0.9,0.8-1.8,1.2-2.6c0.4-0.9,0.8-1.9,1.3-2.8c0.4-0.8,0.8-1.7,1.2-2.5c0.2-0.5,0.4-0.9,0.7-1.3
			c0.3-0.7,0.6-1.3,1-1.9c0.3-0.6,0.6-1.3,1-1.9c0.4-0.9,0.9-1.7,1.3-2.6c0.7-1.3,1.3-2.5,2-3.7c0.4-0.7,0.8-1.5,1.2-2.2
			c0,0,0,0,0,0c0.8-1.4,1.7-2.9,2.5-4.3c0.4-0.6,0.8-1.2,1.1-1.8c0.8-1.2,1.5-2.5,2.3-3.7c0.8-1.2,1.5-2.5,2.3-3.7
			c0.8-1.2,1.6-2.4,2.3-3.6c0.5-0.8,1-1.5,1.5-2.2c0.5-0.8,1-1.5,1.6-2.3c0.3-0.5,0.6-0.9,0.9-1.3c0.3-0.4,0.6-0.8,0.9-1.2
			c0.4-0.6,0.8-1.2,1.3-1.7c0.4-0.6,0.8-1.2,1.3-1.7c0.4-0.6,0.9-1.2,1.3-1.7c0.9-1.1,1.7-2.3,2.6-3.4c3.6-4.5,7.5-8.8,11.7-12.9
			c4-3.9,8.4-7.6,13.1-11c8.3-6,17-9.5,27.3-4.5c1.2,0.6,3.8,0,4.6-1c0.3-0.3,0.5-0.7,0.7-1c0.3-0.5,0.6-1.1,0.8-1.7
			c0.1-0.4,0.3-0.8,0.4-1.3c0,0,0-0.1,0-0.1c0-0.2,0.1-0.4,0.1-0.6c0-0.2,0.1-0.4,0.1-0.6c0-0.2,0-0.3,0.1-0.4
			c0-0.2,0.1-0.5,0.1-0.7c0-0.3,0-0.6,0.1-0.9c0-0.6,0-1.2,0-1.8C740.3-386.4,740.3-386.5,740.3-386.7z M426.2-319.6
			c5.6-5.3,11.5-10.5,20-10.9c4-0.2,5.2,1.5,5.4,5.2c0.4,8.4-3.1,15.5-6.9,22.5c-12.2,22.5-29.5,40-52.3,51.9
			c-2.5,1.3-5.4,2-9.5,3.5C393.6-275.1,405.5-300,426.2-319.6z"/>
		<path class="st2" d="M444.6-302.8c-12.2,22.5-29.5,40-52.3,51.9c-2.5,1.3-5.4,2-9.5,3.5c10.7-27.7,22.6-52.5,43.2-72.1
			c5.6-5.3,11.5-10.5,20-10.9c4-0.2,5.2,1.5,5.4,5.2C451.9-316.9,448.4-309.8,444.6-302.8z"/>
		<path class="st1" d="M341.5-444.4c16.3-0.5,32.1,1.7,46.7,9.1c4.7,2.4,9.2,5.7,12.9,9.5c5,5.1,4.3,13.3-1.2,21
			c-4.5,6.3-10.7,10.8-17.8,13.8c-1.7,0.7-4.7,0.2-6.2-1c-0.9-0.6-0.5-3.9,0.2-5.6c3-6.9,0.7-13.8-6.6-18.8
			c-7.6-5.2-15.9-7.7-25.1-8.1c-17.4-0.9-34.1,1.7-49.7,9.9c-21.3,11.2-33.1,29.2-38.3,52.1c-4.9,21.4-0.1,41.4,9.7,60.2
			c9.5,18.3,19.8,36.2,30.1,54c10.1,17.5,18.8,35.7,22.9,55.6c3,14.8,1.6,29.7-1.9,44.3c-5.5,22.7-16.3,42.6-33.8,58.3
			c-17.6,15.9-38.5,25.9-61.5,31.6c-17.3,4.3-34.8,6.7-52.6,5.9c-15.6-0.7-31.2-2.5-45.1-11.3c-20.7-13.1-20.6-40.6-1.8-55.8
			c4.2-3.4,8.9-6.5,13.8-8.7c2.2-1,6-0.5,8,0.9c1.1,0.8,0.5,5.2-0.6,7.4c-9,17.2-1,37.4,21.3,42.7c18.5,4.4,36.8,1.9,54.8-3.1
			c16.7-4.7,31.4-13,42.6-26.7c9.9-12,15.1-25.9,18.3-41c3.2-15.1,2.4-29.9-3.8-43.7c-6.6-14.7-14.5-28.9-22.5-42.9
			c-11.8-20.5-24.8-40.3-32.4-62.9c-6.8-20.1-8.5-40.5-2.7-61.3c5.3-19,14.3-35.8,28.4-49.6c12.1-11.8,26.1-20.9,42-26.6
			C306.4-441.3,323.6-445.1,341.5-444.4z"/>
		<path class="st1" d="M935.3-242.7c-0.2-0.4-0.5-0.9-0.8-1.3c-0.2-0.3-0.3-0.5-0.5-0.8c-0.4-0.5-0.8-1-1.2-1.4
			c-2.1-2.2-4.8-3.9-8.1-4.9c-0.2-0.1-0.5-0.2-0.7-0.2c-0.2,0-0.3-0.1-0.5-0.1c-0.4-0.1-0.8-0.2-1.3-0.3c-1.3-0.3-2.7-0.4-4.1-0.5
			c-1.9-0.1-3.7,0.1-5.4,0.5c-0.5,0.1-1.1,0.3-1.6,0.4c-0.3,0.1-0.6,0.2-0.9,0.3c-1.2,0.4-2.4,1-3.5,1.6c-0.5,0.3-1.1,0.7-1.6,1
			c-0.3,0.2-0.5,0.4-0.8,0.6c-0.5,0.4-1,0.8-1.4,1.2c-0.7,0.7-1.3,1.3-1.8,2c-0.3,0.4-0.7,0.9-0.9,1.3c-0.2,0.3-0.4,0.6-0.6,0.9
			c-0.3,0.5-0.6,1.1-0.8,1.6c-0.3,0.6-0.5,1.3-0.7,1.9c-0.1,0.4-0.2,0.8-0.3,1.3c-0.4,1.8-0.5,3.7-0.3,5.5c-0.4,2.7,0,5.5,1,8
			c0.2,0.5,0.4,0.9,0.6,1.4c0.4,0.9,0.9,1.7,1.5,2.5c0.3,0.5,0.7,1,1.1,1.4c1.4,1.6,3,3,5,4.2c0.5,0.3,1.1,0.6,1.7,0.9
			c1.5,0.7,3.1,1.2,4.8,1.6c1.5,0.3,3.2,0.4,4.9,0.4c12.2-0.3,20.4-8.3,20.2-19.9C937.9-235.8,937-239.6,935.3-242.7z M902.9-229.1
			c-1.1-6.3,0.9-12,6.2-15.8c4.8-3.5,10.3-3.6,15.5-0.7c5.3,2.9,7.6,8,7.5,13.7c-0.1,4.5-0.5,9.4-5.8,11.6c0,0,0,0,0,0c0,0,0,0,0,0
			c-0.5,0.9-1.5,2.2-3.1,3.2c-3.7,2.3-8,1.1-9.8,0.6C907.1-218.3,904-223.1,902.9-229.1z"/>
		<path class="st2" d="M932.1-231.9c-0.1,4.5-0.5,9.4-5.8,11.6c0,0,0,0,0,0c0,0,0,0-0.1,0c-1.3-3.2-2.5-6.3-3.7-9.4
			c0.5,0.1,1,0.2,1.5,0.3c0.8-3,2.8-6.5,1.9-8.9c-0.7-2.1-4.6-3.7-7.3-4.5s-5.9-0.2-9.4-0.2c0,7.1-0.1,13.7,0.1,20.3
			c0,0.8,1.4,2.2,1.9,2.1c1-0.2,2.5-1.1,2.7-2c0.5-2.1,0.4-4.3,0.6-6.5c0.4-0.1,0.9-0.2,1.3-0.3c1,1.6,2.4,3.1,3.1,4.8
			c1.4,3.5,3.8,4.8,7.3,4.3c0,0,0,0,0,0c-0.5,0.9-1.5,2.2-3.1,3.2c-3.7,2.3-8,1.1-9.8,0.6c-6.5-1.7-9.6-6.5-10.6-12.5
			c-1.1-6.3,0.9-12,6.2-15.8c4.8-3.5,10.3-3.6,15.5-0.7C929.9-242.7,932.3-237.7,932.1-231.9z"/>
		<path class="st0" d="M851.9-309.8c0.4-0.3,0.8-0.6,1.2-1c-0.2,0.5-0.4,1-0.5,1.5C852.3-309.4,852.1-309.6,851.9-309.8z"/>
		<path class="st1" d="M922.6-229.8c0.5,0.1,1,0.2,1.5,0.3c0.8-3,2.8-6.5,1.9-8.9c-0.7-2.1-4.6-3.7-7.3-4.5s-5.9-0.2-9.4-0.2
			c0,7.1-0.1,13.7,0.1,20.3c0,0.8,1.4,2.2,1.9,2.1c1-0.2,2.5-1.1,2.7-2c0.5-2.1,0.4-4.3,0.6-6.5c0.4-0.1,0.9-0.2,1.3-0.3
			c1,1.6,2.4,3.1,3.1,4.8c1.4,3.5,3.8,4.8,7.3,4.3C925.1-223.5,923.8-226.7,922.6-229.8z M916.8-233.8c-0.6,0.2-2.5-1.9-2.3-2.6
			c0.3-1.3,1.7-2.3,3.2-4.3c1.2,1.4,2.4,2.8,3.6,4.3C919.8-235.5,918.4-234.3,916.8-233.8z M926.3-220.4
			C926.3-220.4,926.3-220.3,926.3-220.4C926.4-220.3,926.4-220.3,926.3-220.4C926.4-220.4,926.4-220.4,926.3-220.4
			C926.4-220.4,926.4-220.4,926.3-220.4z"/>
		<path class="st2" d="M921.3-236.4c-1.5,0.9-2.9,2.1-4.5,2.6c-0.6,0.2-2.5-1.9-2.3-2.6c0.3-1.3,1.7-2.3,3.2-4.3
			C918.9-239.2,920.1-237.8,921.3-236.4z"/>
	</g>
</g>
<path class="st1" d="M909.3-241L909.3-241z"/>
<path class="st1" d="M923.3-232.8L923.3-232.8z"/>
</svg>
